<?xml version="1.0" encoding="UTF-8" standalone="no" ?>
<!DOCTYPE svg PUBLIC "-//W3C//DTD SVG 1.1//EN" "http://www.w3.org/Graphics/SVG/1.1/DTD/svg11.dtd">
<svg xmlns="http://www.w3.org/2000/svg" xmlns:xlink="http://www.w3.org/1999/xlink" version="1.1" width="108.08724311380499" height="119.7170624146501" viewBox="0.004799750411606851 0 108.08724311380499 119.7170624146501" xml:space="preserve">
<desc>Created with Fabric.js 4.6.0</desc>
<defs>
</defs>
<g transform="matrix(1.85 0 0 1.85 54.05 59.86)" id="BfpvPOp8i3asZ4cm1YBEh"  >
<path style="stroke: none; stroke-width: 1; stroke-dasharray: none; stroke-linecap: round; stroke-dashoffset: 0; stroke-linejoin: round; stroke-miterlimit: 4; fill: rgb(49,168,247); fill-rule: nonzero; opacity: 1;" vector-effect="non-scaling-stroke"  transform=" translate(-28.87, -32)" d="M 26.098 57.545 L 7.378 18.545 C 2.858 22.695 0 28.597 0 35.237 C 0 47.687 10.144 57.831 22.594 57.831 C 23.794 57.831 24.899 57.739000000000004 26.098000000000003 57.554 M 18.445000000000004 13.014000000000003 C 19.828000000000003 12.737000000000004 21.212000000000003 12.644000000000004 22.595000000000006 12.644000000000004 C 35.045 12.644000000000004 45.18900000000001 22.788000000000004 45.18900000000001 35.23800000000001 C 45.19778829535956 41.84406202315342 42.29660066474855 48.11868961461357 37.25800000000002 52.391 L 42.79 64 C 51.827 57.637 57.73 47.123999999999995 57.73 35.228 C 57.822 15.77 42.052 0 22.595 0 C 19.275 0 15.954999999999998 0.46 12.911999999999999 1.383 z" stroke-linecap="round" />
</g>
</svg>