<?xml version="1.0" encoding="UTF-8"?>
<!DOCTYPE svg PUBLIC "-//W3C//DTD SVG 1.1//EN" "http://www.w3.org/Graphics/SVG/1.1/DTD/svg11.dtd">
<svg xmlns="http://www.w3.org/2000/svg" version="1.1" width="302px" height="299px" style="shape-rendering:geometricPrecision; text-rendering:geometricPrecision; image-rendering:optimizeQuality; fill-rule:evenodd; clip-rule:evenodd" xmlns:xlink="http://www.w3.org/1999/xlink">
<g><path style="opacity:0.913" fill="#1a3666" d="M 36.5,126.5 C 38.5824,126.472 40.4157,127.139 42,128.5C 50.3333,141.5 58.6667,154.5 67,167.5C 68.0086,169.025 68.5086,170.692 68.5,172.5C 65.1016,172.82 61.7683,172.487 58.5,171.5C 54.5298,165.031 50.3632,158.698 46,152.5C 45.0857,154.664 43.919,156.664 42.5,158.5C 36.5275,159.33 30.5275,159.83 24.5,160C 21.8333,164 19.1667,168 16.5,172C 13.1177,172.824 9.78437,172.657 6.5,171.5C 15.7923,155.882 25.7923,140.882 36.5,126.5 Z M 37.5,139.5 C 39.8111,142.767 42.1444,146.1 44.5,149.5C 39.8687,150.662 35.202,150.828 30.5,150C 33.2157,146.729 35.549,143.229 37.5,139.5 Z"/></g>
<g><path style="opacity:0.929" fill="#193366" d="M 71.5,126.5 C 83.8378,126.333 96.1712,126.5 108.5,127C 116.602,128.104 120.936,132.771 121.5,141C 119.734,150.435 114.067,155.102 104.5,155C 110.65,159.983 116.316,165.483 121.5,171.5C 117.541,172.66 113.541,172.827 109.5,172C 100.349,164.016 91.6825,155.516 83.5,146.5C 92.4816,145.668 101.482,145.168 110.5,145C 113.167,142.333 113.167,139.667 110.5,137C 100.506,136.5 90.5056,136.334 80.5,136.5C 80.5,148.5 80.5,160.5 80.5,172.5C 77.2234,172.784 74.0567,172.451 71,171.5C 70.1842,156.426 70.3509,141.426 71.5,126.5 Z"/></g>
<g><path style="opacity:0.946" fill="#1a3667" d="M 128.5,126.5 C 131.5,126.5 134.5,126.5 137.5,126.5C 137.5,141.833 137.5,157.167 137.5,172.5C 134.5,172.5 131.5,172.5 128.5,172.5C 128.5,157.167 128.5,141.833 128.5,126.5 Z"/></g>
<g><path style="opacity:0.894" fill="#1a3466" d="M 156.5,126.5 C 168.167,126.5 179.833,126.5 191.5,126.5C 190.516,129.965 188.85,133.131 186.5,136C 176.167,136.333 165.833,136.667 155.5,137C 151.5,139.333 151.5,141.667 155.5,144C 165.892,144.1 176.225,144.767 186.5,146C 193.085,150.468 195.252,156.635 193,164.5C 191.108,168.058 188.275,170.558 184.5,172C 171.487,172.833 158.487,172.666 145.5,171.5C 146.58,169.004 147.914,166.67 149.5,164.5C 160.485,163.668 171.485,163.168 182.5,163C 185.932,160.633 186.265,157.966 183.5,155C 173.108,154.9 162.775,154.233 152.5,153C 142.683,145.794 142.017,137.794 150.5,129C 152.611,128.155 154.611,127.322 156.5,126.5 Z"/></g>
<g><path style="opacity:0.935" fill="#193468" d="M 199.5,126.5 C 212.833,126.5 226.167,126.5 239.5,126.5C 239.5,129.833 239.5,133.167 239.5,136.5C 233.833,136.5 228.167,136.5 222.5,136.5C 222.5,148.5 222.5,160.5 222.5,172.5C 219.5,172.5 216.5,172.5 213.5,172.5C 213.5,160.5 213.5,148.5 213.5,136.5C 207.167,136.5 200.833,136.5 194.5,136.5C 195.085,132.663 196.752,129.33 199.5,126.5 Z"/></g>
<g><path style="opacity:0.908" fill="#1a3566" d="M 257.5,126.5 C 260.099,126.549 262.266,127.549 264,129.5C 273.374,143.599 282.208,157.932 290.5,172.5C 287.15,172.665 283.817,172.498 280.5,172C 275.959,165.755 271.792,159.255 268,152.5C 266.5,154.667 265,156.833 263.5,159C 257.472,159.17 251.472,159.67 245.5,160.5C 243.416,164.336 241.083,168.003 238.5,171.5C 235.232,172.487 231.898,172.82 228.5,172.5C 230.107,167.952 232.274,163.619 235,159.5C 242.041,148.05 249.541,137.05 257.5,126.5 Z M 258.5,139.5 C 261.687,142.531 264.353,146.031 266.5,150C 261.798,150.828 257.131,150.662 252.5,149.5C 254.952,146.394 256.952,143.061 258.5,139.5 Z"/></g>
</svg>
