<?xml version="1.0" encoding="UTF-8"?>
<!DOCTYPE svg PUBLIC "-//W3C//DTD SVG 1.1//EN" "http://www.w3.org/Graphics/SVG/1.1/DTD/svg11.dtd">
<svg xmlns="http://www.w3.org/2000/svg" version="1.1" width="300px" height="299px" style="shape-rendering:geometricPrecision; text-rendering:geometricPrecision; image-rendering:optimizeQuality; fill-rule:evenodd; clip-rule:evenodd" xmlns:xlink="http://www.w3.org/1999/xlink">
<g><path style="opacity:1" fill="#9cb1bd" d="M 49.5,64.5 C 60.5791,63.4548 70.9124,65.6214 80.5,71C 85.4419,76.1425 88.2752,82.3091 89,89.5C 89.3333,103.833 89.6667,118.167 90,132.5C 91.3623,136.058 92.8623,139.558 94.5,143C 86.8026,153.484 79.9693,152.984 74,141.5C 60.0882,153.871 44.9215,155.704 28.5,147C 17.0547,132.449 18.0547,118.782 31.5,106C 44.648,99.6554 58.148,98.8221 72,103.5C 75.3889,84.5557 67.5556,76.389 48.5,79C 41.1004,80.7478 33.767,82.5812 26.5,84.5C 26.3345,80.4862 26.5012,76.4862 27,72.5C 34.0608,68.3673 41.5608,65.7007 49.5,64.5 Z M 48.5,113.5 C 56.5288,113.344 64.5288,113.677 72.5,114.5C 74.1829,130.137 67.1829,138.47 51.5,139.5C 39.2361,137.994 35.4028,131.327 40,119.5C 42.3218,116.605 45.1552,114.605 48.5,113.5 Z"/></g>
<g><path style="opacity:1" fill="#9cb1bd" d="M 241.5,64.5 C 252.362,63.5322 262.695,65.3656 272.5,70C 273,70.5 273.5,71 274,71.5C 274.499,75.1516 274.665,78.8183 274.5,82.5C 269.027,82.0668 263.694,80.9001 258.5,79C 253.167,78.3333 247.833,78.3333 242.5,79C 233.553,82.9356 232.22,88.6022 238.5,96C 246.649,99.4558 254.982,102.456 263.5,105C 278.881,112.325 283.047,123.825 276,139.5C 271.121,146.033 264.621,150.199 256.5,152C 248.833,152.667 241.167,152.667 233.5,152C 227.963,151.145 222.796,149.312 218,146.5C 216.646,142.637 216.146,138.637 216.5,134.5C 225.492,136.88 234.659,138.546 244,139.5C 248.701,139.721 253.201,138.887 257.5,137C 264.167,131.333 264.167,125.667 257.5,120C 248.056,116.972 238.722,113.639 229.5,110C 216.659,100.771 214.159,89.2711 222,75.5C 227.341,69.5845 233.841,65.9178 241.5,64.5 Z"/></g>
<g><path style="opacity:1" fill="#9db1bd" d="M 98.5,66.5 C 102.846,66.3343 107.179,66.501 111.5,67C 112.416,67.3742 113.25,67.8742 114,68.5C 119.646,89.0859 124.98,109.753 130,130.5C 135.165,109.839 140.332,89.1723 145.5,68.5C 150.75,66.0689 156.083,65.9022 161.5,68C 162,68.5 162.5,69 163,69.5C 167.686,90.245 172.686,110.912 178,131.5C 183.02,110.753 188.354,90.0859 194,69.5C 194.903,68.2986 196.069,67.4652 197.5,67C 201.5,66.3333 205.5,66.3333 209.5,67C 210.357,67.6891 211.023,68.5224 211.5,69.5C 203.306,96.2782 194.806,122.945 186,149.5C 180.333,150.833 174.667,150.833 169,149.5C 163.673,129.856 158.506,110.19 153.5,90.5C 148.981,109.908 144.148,129.241 139,148.5C 138.5,149 138,149.5 137.5,150C 132.5,150.667 127.5,150.667 122.5,150C 120.683,148.2 119.516,146.034 119,143.5C 112.155,120.454 105.155,97.4538 98,74.5C 97.2782,71.7395 97.4448,69.0728 98.5,66.5 Z"/></g>
<g><path style="opacity:1" fill="#ffc683" d="M 278.5,169.5 C 278.5,169.833 278.5,170.167 278.5,170.5C 268.74,170.138 259.073,170.804 249.5,172.5C 258.826,169.128 268.492,168.128 278.5,169.5 Z"/></g>
<g><path style="opacity:0.071" fill="#ffe7d3" d="M 278.5,170.5 C 278.5,170.167 278.5,169.833 278.5,169.5C 281.495,169.294 284.162,169.96 286.5,171.5C 283.833,171.167 281.167,170.833 278.5,170.5 Z"/></g>
<g><path style="opacity:1" fill="#ff9f25" d="M 278.5,170.5 C 281.167,170.833 283.833,171.167 286.5,171.5C 288.017,171.511 289.184,172.177 290,173.5C 290.781,178.917 290.615,184.25 289.5,189.5C 287.926,191.102 287.259,193.102 287.5,195.5C 286.067,202.365 283.067,208.365 278.5,213.5C 276.413,214.585 275.08,216.251 274.5,218.5C 272.685,219.63 270.685,220.296 268.5,220.5C 268.5,219.167 268.5,217.833 268.5,216.5C 270.758,210.227 272.924,203.894 275,197.5C 276.244,193.221 276.577,188.888 276,184.5C 275.097,183.299 273.931,182.465 272.5,182C 269.183,181.392 265.849,180.892 262.5,180.5C 254.185,181.443 245.851,182.11 237.5,182.5C 236.891,179.122 238.224,177.122 241.5,176.5C 243.027,176.573 244.027,175.906 244.5,174.5C 246.698,174.88 248.365,174.213 249.5,172.5C 259.073,170.804 268.74,170.138 278.5,170.5 Z"/></g>
<g><path style="opacity:1" fill="#ffcd97" d="M 249.5,172.5 C 248.365,174.213 246.698,174.88 244.5,174.5C 245.78,173.069 247.447,172.402 249.5,172.5 Z"/></g>
<g><path style="opacity:1" fill="#ff9f23" d="M 173.5,211.5 C 179.098,211.844 184.432,211.178 189.5,209.5C 194.092,208.402 198.759,207.735 203.5,207.5C 206.781,207.58 209.781,206.913 212.5,205.5C 217.899,205.235 222.899,203.902 227.5,201.5C 231.286,201.68 234.619,200.68 237.5,198.5C 240.01,198.946 242.01,198.28 243.5,196.5C 246.716,196.655 249.383,195.655 251.5,193.5C 255.228,190.801 259.228,189.801 263.5,190.5C 264.369,192.717 264.702,195.05 264.5,197.5C 242.683,213.398 218.35,223.898 191.5,229C 164.505,234.707 137.505,234.874 110.5,229.5C 108.162,227.96 105.495,227.294 102.5,227.5C 100.162,225.96 97.4951,225.294 94.5,225.5C 94.1667,225.5 93.8333,225.5 93.5,225.5C 90.1008,222.803 86.1008,221.47 81.5,221.5C 69.4039,218.116 58.0705,213.116 47.5,206.5C 47.0269,205.094 46.0269,204.427 44.5,204.5C 43.5084,204.672 42.8417,204.338 42.5,203.5C 42.0269,202.094 41.0269,201.427 39.5,201.5C 39.0269,200.094 38.0269,199.427 36.5,199.5C 36.0269,198.094 35.0269,197.427 33.5,197.5C 33.0269,196.094 32.0269,195.427 30.5,195.5C 30.0269,194.094 29.0269,193.427 27.5,193.5C 26.7377,191.738 25.4044,190.738 23.5,190.5C 22.4154,188.413 20.7488,187.08 18.5,186.5C 17.7377,184.738 16.4044,183.738 14.5,183.5C 10.9941,181.856 9.49411,179.189 10,175.5C 10.7247,174.941 11.5581,174.608 12.5,174.5C 62.5156,202.419 116.182,214.753 173.5,211.5 Z"/></g>
<g><path style="opacity:0.718" fill="#ffd3a7" d="M 244.5,174.5 C 244.027,175.906 243.027,176.573 241.5,176.5C 241.973,175.094 242.973,174.427 244.5,174.5 Z"/></g>
<g><path style="opacity:0.667" fill="#ffd0b4" d="M 14.5,183.5 C 16.4044,183.738 17.7377,184.738 18.5,186.5C 16.5956,186.262 15.2623,185.262 14.5,183.5 Z"/></g>
<g><path style="opacity:0.404" fill="#ffd6ac" d="M 18.5,186.5 C 20.7488,187.08 22.4154,188.413 23.5,190.5C 21.2512,189.92 19.5846,188.587 18.5,186.5 Z"/></g>
<g><path style="opacity:0.663" fill="#ffd1a3" d="M 23.5,190.5 C 25.4044,190.738 26.7377,191.738 27.5,193.5C 25.5956,193.262 24.2623,192.262 23.5,190.5 Z"/></g>
<g><path style="opacity:0.537" fill="#ffd2b7" d="M 289.5,189.5 C 289.405,191.786 288.738,193.786 287.5,195.5C 287.259,193.102 287.926,191.102 289.5,189.5 Z"/></g>
<g><path style="opacity:1" fill="#ffd19e" d="M 263.5,190.5 C 267.001,192.347 267.335,194.68 264.5,197.5C 264.702,195.05 264.369,192.717 263.5,190.5 Z"/></g>
<g><path style="opacity:0.647" fill="#ffcf9e" d="M 27.5,193.5 C 29.0269,193.427 30.0269,194.094 30.5,195.5C 28.9731,195.573 27.9731,194.906 27.5,193.5 Z"/></g>
<g><path style="opacity:0.941" fill="#ffc47f" d="M 251.5,193.5 C 249.383,195.655 246.716,196.655 243.5,196.5C 245.936,195.129 248.603,194.129 251.5,193.5 Z"/></g>
<g><path style="opacity:0.647" fill="#ffcc9a" d="M 30.5,195.5 C 32.0269,195.427 33.0269,196.094 33.5,197.5C 31.9731,197.573 30.9731,196.906 30.5,195.5 Z"/></g>
<g><path style="opacity:1" fill="#ffc482" d="M 243.5,196.5 C 242.01,198.28 240.01,198.946 237.5,198.5C 239.214,197.262 241.214,196.595 243.5,196.5 Z"/></g>
<g><path style="opacity:0.643" fill="#ffcc98" d="M 33.5,197.5 C 35.0269,197.427 36.0269,198.094 36.5,199.5C 34.9731,199.573 33.9731,198.906 33.5,197.5 Z"/></g>
<g><path style="opacity:0.643" fill="#ffd09f" d="M 36.5,199.5 C 38.0269,199.427 39.0269,200.094 39.5,201.5C 37.9731,201.573 36.9731,200.906 36.5,199.5 Z"/></g>
<g><path style="opacity:0.929" fill="#ffc889" d="M 237.5,198.5 C 234.619,200.68 231.286,201.68 227.5,201.5C 230.619,200.13 233.952,199.13 237.5,198.5 Z"/></g>
<g><path style="opacity:0.392" fill="#ffd8b7" d="M 39.5,201.5 C 41.0269,201.427 42.0269,202.094 42.5,203.5C 40.9731,203.573 39.9731,202.906 39.5,201.5 Z"/></g>
<g><path style="opacity:0.757" fill="#ffc98b" d="M 227.5,201.5 C 222.899,203.902 217.899,205.235 212.5,205.5C 217.272,203.722 222.272,202.389 227.5,201.5 Z"/></g>
<g><path style="opacity:0.388" fill="#ffdfbb" d="M 44.5,204.5 C 46.0269,204.427 47.0269,205.094 47.5,206.5C 45.9731,206.573 44.9731,205.906 44.5,204.5 Z"/></g>
<g><path style="opacity:0.753" fill="#ffcb8e" d="M 212.5,205.5 C 209.781,206.913 206.781,207.58 203.5,207.5C 206.219,206.087 209.219,205.42 212.5,205.5 Z"/></g>
<g><path style="opacity:0.741" fill="#ffd09d" d="M 189.5,209.5 C 184.432,211.178 179.098,211.844 173.5,211.5C 178.646,210.449 183.979,209.782 189.5,209.5 Z"/></g>
<g><path style="opacity:0.02" fill="#ffd7c1" d="M 278.5,213.5 C 277.92,215.749 276.587,217.415 274.5,218.5C 275.08,216.251 276.413,214.585 278.5,213.5 Z"/></g>
<g><path style="opacity:0.024" fill="#ffd5b7" d="M 268.5,216.5 C 268.5,217.833 268.5,219.167 268.5,220.5C 270.685,220.296 272.685,219.63 274.5,218.5C 272.964,221.092 270.631,222.092 267.5,221.5C 267.216,219.585 267.549,217.919 268.5,216.5 Z"/></g>
<g><path style="opacity:1" fill="#ffb863" d="M 81.5,221.5 C 86.1008,221.47 90.1008,222.803 93.5,225.5C 89.2157,224.739 85.2157,223.405 81.5,221.5 Z"/></g>
<g><path style="opacity:1" fill="#ffc88a" d="M 94.5,225.5 C 97.4951,225.294 100.162,225.96 102.5,227.5C 99.5049,227.706 96.8383,227.04 94.5,225.5 Z"/></g>
<g><path style="opacity:0.667" fill="#ffd5a6" d="M 102.5,227.5 C 105.495,227.294 108.162,227.96 110.5,229.5C 107.572,229.435 104.905,228.768 102.5,227.5 Z"/></g>
</svg>
