<?xml version="1.0" encoding="UTF-8"?>
<!DOCTYPE svg PUBLIC "-//W3C//DTD SVG 1.1//EN" "http://www.w3.org/Graphics/SVG/1.1/DTD/svg11.dtd">
<svg xmlns="http://www.w3.org/2000/svg" version="1.1" width="300px" height="299px" style="shape-rendering:geometricPrecision; text-rendering:geometricPrecision; image-rendering:optimizeQuality; fill-rule:evenodd; clip-rule:evenodd" xmlns:xlink="http://www.w3.org/1999/xlink">
<g><path style="opacity:1" fill="#9ab0bc" d="M 50.5,64.5 C 63.6087,62.6403 74.7754,66.307 84,75.5C 86.8674,80.1022 88.5341,85.1022 89,90.5C 89.3333,104.5 89.6667,118.5 90,132.5C 90.9199,136.263 92.4199,139.763 94.5,143C 86.3149,153.631 79.4815,152.798 74,140.5C 61.239,153.413 46.739,155.913 30.5,148C 22.0567,140.665 19.2234,131.498 22,120.5C 26.3855,108.798 34.8855,102.298 47.5,101C 55.6492,100.378 63.6492,101.212 71.5,103.5C 75.9466,87.3437 69.9466,79.0104 53.5,78.5C 45.0194,79.159 36.8527,81.159 29,84.5C 28.228,84.3552 27.5613,84.0219 27,83.5C 26.3333,80.1667 26.3333,76.8333 27,73.5C 27.8333,72.6667 28.6667,71.8333 29.5,71C 36.3848,68.0358 43.3848,65.8692 50.5,64.5 Z M 50.5,112.5 C 57.6051,112.251 64.6051,112.918 71.5,114.5C 74.9639,127.413 70.2972,135.58 57.5,139C 43.1476,141.645 36.9809,135.812 39,121.5C 41.2906,116.448 45.1239,113.448 50.5,112.5 Z"/></g>
<g><path style="opacity:1" fill="#9ab0bc" d="M 241.5,64.5 C 251.512,63.8354 261.178,65.3354 270.5,69C 274.413,72.6007 275.413,76.934 273.5,82C 271.833,82.6667 270.167,82.6667 268.5,82C 258.266,77.8288 247.933,77.4955 237.5,81C 233.949,85.4152 233.616,90.0819 236.5,95C 246.564,99.579 256.897,103.579 267.5,107C 277.221,113.287 280.721,122.121 278,133.5C 274.139,144.022 266.639,150.189 255.5,152C 244.593,153.307 233.926,152.307 223.5,149C 216.688,146.466 214.688,141.799 217.5,135C 219.167,134.333 220.833,134.333 222.5,135C 233.952,139.964 245.619,140.63 257.5,137C 263.228,132.24 263.895,126.907 259.5,121C 249.279,116.813 238.946,112.813 228.5,109C 216.138,99.2308 214.304,87.7308 223,74.5C 228.175,69.1766 234.342,65.8433 241.5,64.5 Z"/></g>
<g><path style="opacity:1" fill="#9aafbc" d="M 99.5,66.5 C 103.182,66.3347 106.848,66.5014 110.5,67C 111.931,67.4652 113.097,68.2986 114,69.5C 119.335,90.1716 124.668,110.838 130,131.5C 134.843,111.13 139.843,90.7963 145,70.5C 145.652,68.2769 147.152,67.1102 149.5,67C 153.594,66.2327 157.594,66.566 161.5,68C 167.536,89.3114 173.036,110.811 178,132.5C 183.355,111.08 189.022,89.7466 195,68.5C 199.691,66.3481 204.524,66.0147 209.5,67.5C 210.287,68.2421 210.953,69.0754 211.5,70C 203.207,96.5453 194.707,123.045 186,149.5C 180.918,150.637 175.751,150.804 170.5,150C 170,149.5 169.5,149 169,148.5C 163.747,128.237 158.747,107.903 154,87.5C 148.918,108.244 143.585,128.911 138,149.5C 132.918,150.637 127.751,150.804 122.5,150C 121.299,149.097 120.465,147.931 120,146.5C 112.397,121.19 104.897,95.8571 97.5,70.5C 97.8029,68.8857 98.4695,67.5523 99.5,66.5 Z"/></g>
<g><path style="opacity:1" fill="#ffa027" d="M 260.5,169.5 C 268.893,169.17 277.227,169.67 285.5,171C 287.492,171.574 288.992,172.741 290,174.5C 290.694,192.755 284.527,208.255 271.5,221C 270.207,221.49 268.873,221.657 267.5,221.5C 270.219,212.172 273.053,202.839 276,193.5C 276.667,190.5 276.667,187.5 276,184.5C 275.097,183.299 273.931,182.465 272.5,182C 269.023,181.337 265.523,180.837 262,180.5C 253.851,181.438 245.684,182.105 237.5,182.5C 236.974,179.192 238.307,177.026 241.5,176C 247.715,173.096 254.049,170.929 260.5,169.5 Z"/></g>
<g><path style="opacity:1" fill="#ff9e21" d="M 225.5,202.5 C 228.152,202.59 230.485,201.924 232.5,200.5C 240.773,197.46 249.107,194.293 257.5,191C 259.833,190.333 262.167,190.333 264.5,191C 265.576,192.726 265.743,194.559 265,196.5C 250.871,207.984 235.038,216.484 217.5,222C 177.878,235.282 137.878,236.782 97.5,226.5C 95.8984,224.926 93.8984,224.259 91.5,224.5C 89.4855,223.076 87.1522,222.41 84.5,222.5C 84.1667,222.5 83.8333,222.5 83.5,222.5C 81.8243,220.166 79.491,219.166 76.5,219.5C 65.0208,216.092 54.3541,211.092 44.5,204.5C 44.0269,203.094 43.0269,202.427 41.5,202.5C 31.5126,197.025 22.1793,190.525 13.5,183C 11.552,181.561 10.2186,179.728 9.5,177.5C 9.83333,175.833 10.8333,174.833 12.5,174.5C 79.7677,211.784 150.768,221.117 225.5,202.5 Z"/></g>
<g><path style="opacity:1" fill="#ffbb68" d="M 232.5,200.5 C 230.485,201.924 228.152,202.59 225.5,202.5C 227.515,201.076 229.848,200.41 232.5,200.5 Z"/></g>
<g><path style="opacity:0.639" fill="#ffcd92" d="M 41.5,202.5 C 43.0269,202.427 44.0269,203.094 44.5,204.5C 42.9731,204.573 41.9731,203.906 41.5,202.5 Z"/></g>
<g><path style="opacity:1" fill="#ffbe73" d="M 76.5,219.5 C 79.491,219.166 81.8243,220.166 83.5,222.5C 80.8427,222.065 78.5093,221.065 76.5,219.5 Z"/></g>
<g><path style="opacity:0.949" fill="#ffc57f" d="M 84.5,222.5 C 87.1522,222.41 89.4855,223.076 91.5,224.5C 88.8478,224.59 86.5145,223.924 84.5,222.5 Z"/></g>
<g><path style="opacity:0.957" fill="#ffc681" d="M 91.5,224.5 C 93.8984,224.259 95.8984,224.926 97.5,226.5C 95.2143,226.405 93.2143,225.738 91.5,224.5 Z"/></g>
</svg>
