<?xml version="1.0" encoding="UTF-8"?>
<!DOCTYPE svg PUBLIC "-//W3C//DTD SVG 1.1//EN" "http://www.w3.org/Graphics/SVG/1.1/DTD/svg11.dtd">
<svg xmlns="http://www.w3.org/2000/svg" version="1.1" width="225px" height="225px" style="shape-rendering:geometricPrecision; text-rendering:geometricPrecision; image-rendering:optimizeQuality; fill-rule:evenodd; clip-rule:evenodd" xmlns:xlink="http://www.w3.org/1999/xlink">
<g><path style="opacity:1" fill="#5f6970" d="M 42.5,61.5 C 50.5119,60.8859 57.8453,62.7192 64.5,67C 66.6515,69.4689 68.1515,72.3022 69,75.5C 69.3333,85.5 69.6667,95.5 70,105.5C 70.1872,109.039 71.3538,112.205 73.5,115C 68.263,122.37 63.4296,122.203 59,114.5C 51.7277,121.132 43.2277,123.299 33.5,121C 23.923,115.828 20.7563,107.994 24,97.5C 26.8385,92.4867 31.0052,88.9867 36.5,87C 43.5361,86.2803 50.5361,86.4469 57.5,87.5C 59.7609,77.3277 55.7609,71.9944 45.5,71.5C 39.1447,72.8435 32.8113,74.1768 26.5,75.5C 26.2229,72.5525 26.5562,69.7191 27.5,67C 32.3396,64.3861 37.3396,62.5528 42.5,61.5 Z M 40.5,95.5 C 46.2289,95.2123 51.8955,95.5456 57.5,96.5C 57.5843,109.218 51.251,114.051 38.5,111C 34.0834,105.087 34.7501,99.9206 40.5,95.5 Z"/></g>
<g><path style="opacity:1" fill="#606a71" d="M 172.5,61.5 C 179.462,61.0594 186.129,62.2261 192.5,65C 194.34,67.8263 195.006,70.9929 194.5,74.5C 190.778,73.9834 187.112,73.15 183.5,72C 178.238,70.8373 173.404,71.6706 169,74.5C 166.709,77.8347 167.209,80.668 170.5,83C 176.691,85.7301 183.024,88.0634 189.5,90C 197.339,94.8422 199.839,101.676 197,110.5C 192.097,118.693 184.764,122.693 175,122.5C 168.371,122.345 162.204,120.678 156.5,117.5C 155.516,114.572 155.183,111.572 155.5,108.5C 161.476,110.526 167.643,111.859 174,112.5C 176.856,112.129 179.689,111.629 182.5,111C 187.197,107.623 187.53,103.957 183.5,100C 176.411,97.5265 169.411,94.8598 162.5,92C 153.316,83.2921 153.316,74.6254 162.5,66C 165.815,64.1702 169.149,62.6702 172.5,61.5 Z"/></g>
<g><path style="opacity:1" fill="#5f6970" d="M 74.5,63.5 C 78.4367,63.2065 82.27,63.5399 86,64.5C 90.1303,78.0198 93.797,91.6864 97,105.5C 100.118,91.5276 103.618,77.6942 107.5,64C 111.423,63.2073 115.256,63.374 119,64.5C 122.799,78.0302 126.132,91.6968 129,105.5C 132.865,92.2349 136.532,78.9016 140,65.5C 140.5,65 141,64.5 141.5,64C 144.833,63.3333 148.167,63.3333 151.5,64C 151.957,64.414 152.291,64.914 152.5,65.5C 146.981,83.8889 140.981,102.056 134.5,120C 130.577,120.793 126.744,120.626 123,119.5C 119.415,106.244 116.081,92.9102 113,79.5C 109.98,92.9129 106.647,106.246 103,119.5C 99.2564,120.626 95.423,120.793 91.5,120C 86.9399,107.653 82.7733,95.1531 79,82.5C 76.8938,76.2951 75.3938,69.9618 74.5,63.5 Z"/></g>
<g><path style="opacity:0.846" fill="#ff9a00" d="M 183.5,132.5 C 189.176,132.334 194.843,132.501 200.5,133C 204.053,133.436 206.053,135.436 206.5,139C 205.522,149.623 201.522,158.956 194.5,167C 192.975,168.009 191.308,168.509 189.5,168.5C 191.219,162.173 193.052,155.839 195,149.5C 195.814,147.098 195.647,144.765 194.5,142.5C 186.191,141.304 177.858,141.304 169.5,142.5C 169.286,140.856 169.62,139.356 170.5,138C 174.741,135.651 179.075,133.818 183.5,132.5 Z"/></g>
<g><path style="opacity:0.904" fill="#ff9900" d="M 15.5,136.5 C 16.8734,136.343 18.2068,136.51 19.5,137C 73.3701,165.538 128.703,168.705 185.5,146.5C 189.722,147.661 190.388,149.828 187.5,153C 135.029,184.562 82.6962,184.229 30.5,152C 25.5756,148.287 20.7423,144.454 16,140.5C 15.51,139.207 15.3433,137.873 15.5,136.5 Z"/></g>
</svg>
