<?xml version="1.0" encoding="UTF-8"?>
<!DOCTYPE svg PUBLIC "-//W3C//DTD SVG 1.1//EN" "http://www.w3.org/Graphics/SVG/1.1/DTD/svg11.dtd">
<svg xmlns="http://www.w3.org/2000/svg" version="1.1" width="320px" height="192px" style="shape-rendering:geometricPrecision; text-rendering:geometricPrecision; image-rendering:optimizeQuality; fill-rule:evenodd; clip-rule:evenodd" xmlns:xlink="http://www.w3.org/1999/xlink">
<g><path style="opacity:1" fill="#626c73" d="M 93.5,92.5 C 91.9731,92.427 90.9731,93.0937 90.5,94.5C 88.9731,94.427 87.9731,95.0937 87.5,96.5C 83.6234,98.3097 80.4567,97.3097 78,93.5C 76.6667,90.8333 75.3333,88.1667 74,85.5C 60.7814,100.044 44.9481,103.544 26.5,96C 15.3175,87.4549 11.4842,76.2882 15,62.5C 15.7542,59.3156 17.2542,56.6489 19.5,54.5C 21.8333,52.8333 23.8333,50.8333 25.5,48.5C 29.4534,45.0262 34.12,42.8595 39.5,42C 46.8333,41.3333 54.1667,41.3333 61.5,42C 63.7078,42.1909 65.7078,42.6909 67.5,43.5C 69.2646,44.4614 71.2646,44.7947 73.5,44.5C 73.8182,39.9677 73.4849,35.6344 72.5,31.5C 71.6552,28.4569 70.6552,25.4569 69.5,22.5C 69.1667,20.1667 67.8333,18.8333 65.5,18.5C 57.3431,15.2728 49.0097,14.7728 40.5,17C 34.7295,18.5347 29.0628,20.368 23.5,22.5C 22.5581,22.3918 21.7247,22.0585 21,21.5C 20.3333,17.5 20.3333,13.5 21,9.5C 26.2186,5.64663 32.0519,3.14663 38.5,2C 50.699,-0.480825 62.699,0.185842 74.5,4C 83.4378,8.35055 88.6044,15.5172 90,25.5C 90.102,43.2005 90.7687,60.8671 92,78.5C 93.3623,82.058 94.8623,85.558 96.5,89C 96.0222,90.6424 95.0222,91.8091 93.5,92.5 Z M 36.5,81.5 C 36.573,79.9731 35.9063,78.9731 34.5,78.5C 31.2278,62.4268 37.8945,54.4268 54.5,54.5C 60.518,55.0742 66.518,55.7409 72.5,56.5C 73.9557,74.2158 65.7891,83.8825 48,85.5C 43.8511,84.9747 40.0178,83.6414 36.5,81.5 Z"/></g>
<g><path style="opacity:1" fill="#626c73" d="M 292.5,4.5 C 293.514,5.67373 294.847,6.3404 296.5,6.5C 297.458,6.9528 298.292,7.61947 299,8.5C 299.498,11.4816 299.665,14.4816 299.5,17.5C 297.886,19.0746 295.886,19.7413 293.5,19.5C 283.093,15.4172 272.426,14.5839 261.5,17C 253.045,22.5204 252.378,28.8537 259.5,36C 268.599,39.9431 277.933,43.2764 287.5,46C 292.236,47.9198 296.236,50.7532 299.5,54.5C 299.427,56.0269 300.094,57.0269 301.5,57.5C 306.04,65.1342 306.54,73.1342 303,81.5C 302.208,84.1064 300.708,86.1064 298.5,87.5C 296.833,88.5 295.5,89.8333 294.5,91.5C 291.525,94.6611 287.858,96.8277 283.5,98C 270.752,101.405 258.086,101.072 245.5,97C 242.316,96.2458 239.649,94.7458 237.5,92.5C 237.068,91.2905 236.401,90.2905 235.5,89.5C 234.362,86.6965 234.195,83.6965 235,80.5C 235.804,79.1955 236.971,78.5288 238.5,78.5C 252.051,84.7434 266.051,86.0768 280.5,82.5C 282.027,82.573 283.027,81.9063 283.5,80.5C 288.028,74.0336 287.361,68.2002 281.5,63C 273.047,59.4045 264.381,56.4045 255.5,54C 252.102,52.6429 249.102,50.8096 246.5,48.5C 245.167,46.5 243.5,44.8333 241.5,43.5C 235.25,35.648 234.084,26.9814 238,17.5C 239.611,13.7252 242.111,10.7252 245.5,8.5C 247.027,8.57298 248.027,7.90632 248.5,6.5C 255.209,1.94601 262.709,-0.0539856 271,0.5C 278.607,0.181926 285.774,1.51526 292.5,4.5 Z"/></g>
<g><path style="opacity:1" fill="#616b72" d="M 101.5,2.5 C 106.179,2.33418 110.845,2.50085 115.5,3C 116.931,3.46524 118.097,4.29857 119,5.5C 125,28.8333 131,52.1667 137,75.5C 142.54,52.1319 148.207,28.7986 154,5.5C 157.042,3.11084 160.542,2.11084 164.5,2.5C 169.816,1.56868 173.316,3.56868 175,8.5C 180.333,31.1667 185.667,53.8333 191,76.5C 196.999,52.3412 203.499,28.3412 210.5,4.5C 211.376,3.74917 212.376,3.24917 213.5,3C 217.833,2.33333 222.167,2.33333 226.5,3C 228.325,4.46587 228.825,6.2992 228,8.5C 219.13,37.6083 209.964,66.6083 200.5,95.5C 199.975,96.1924 199.308,96.6924 198.5,97C 193.167,97.6667 187.833,97.6667 182.5,97C 182,96.5 181.5,96 181,95.5C 175.024,72.929 169.357,50.2623 164,27.5C 158.164,50.1772 152.331,72.8438 146.5,95.5C 145.975,96.1924 145.308,96.6924 144.5,97C 139.167,97.6667 133.833,97.6667 128.5,97C 126.239,94.2284 124.739,91.0618 124,87.5C 115.833,60.3333 107.667,33.1667 99.5,6C 99.9783,4.69736 100.645,3.53069 101.5,2.5 Z"/></g>
<g><path style="opacity:0.208" fill="#222b38" d="M 292.5,4.5 C 294.38,4.22911 295.713,4.89578 296.5,6.5C 294.847,6.3404 293.514,5.67373 292.5,4.5 Z"/></g>
<g><path style="opacity:0.718" fill="#232935" d="M 248.5,6.5 C 248.027,7.90632 247.027,8.57298 245.5,8.5C 245.973,7.09368 246.973,6.42702 248.5,6.5 Z"/></g>
<g><path style="opacity:0.667" fill="#252c3c" d="M 65.5,18.5 C 67.8333,18.8333 69.1667,20.1667 69.5,22.5C 67.8333,21.5 66.5,20.1667 65.5,18.5 Z"/></g>
<g><path style="opacity:0.552" fill="#24323e" d="M 299.5,17.5 C 299.5,18.5 299.5,19.5 299.5,20.5C 297.265,20.7947 295.265,20.4614 293.5,19.5C 295.265,20.4614 297.265,20.7947 299.5,20.5C 299.5,19.5 299.5,18.5 299.5,17.5 Z"/></g>
<g><path style="opacity:0.525" fill="#232e3c" d="M 72.5,31.5 C 73.4849,35.6344 73.8182,39.9677 73.5,44.5C 71.2646,44.7947 69.2646,44.4614 67.5,43.5C 69.1667,43.5 70.8333,43.5 72.5,43.5C 72.5,39.5 72.5,35.5 72.5,31.5 Z"/></g>
<g><path style="opacity:0.051" fill="#2a2f3d" d="M 241.5,43.5 C 243.5,44.8333 245.167,46.5 246.5,48.5C 243.833,47.8333 242.167,46.1667 241.5,43.5 Z"/></g>
<g><path style="opacity:0.706" fill="#242f3e" d="M 25.5,48.5 C 23.8333,50.8333 21.8333,52.8333 19.5,54.5C 20.5,51.5 22.5,49.5 25.5,48.5 Z"/></g>
<g><path style="opacity:0.404" fill="#1e2531" d="M 299.5,54.5 C 300.906,54.9731 301.573,55.9731 301.5,57.5C 300.094,57.0269 299.427,56.0269 299.5,54.5 Z"/></g>
<g><path style="opacity:0.741" fill="#1f2632" d="M 34.5,78.5 C 35.9063,78.9731 36.573,79.9731 36.5,81.5C 35.0937,81.0269 34.427,80.0269 34.5,78.5 Z"/></g>
<g><path style="opacity:0.714" fill="#222a37" d="M 283.5,80.5 C 283.027,81.9063 282.027,82.573 280.5,82.5C 280.973,81.0937 281.973,80.427 283.5,80.5 Z"/></g>
<g><path style="opacity:0.024" fill="#1e2127" d="M 298.5,87.5 C 298.167,89.8333 296.833,91.1667 294.5,91.5C 295.5,89.8333 296.833,88.5 298.5,87.5 Z"/></g>
<g><path style="opacity:0.612" fill="#1e2631" d="M 235.5,89.5 C 236.401,90.2905 237.068,91.2905 237.5,92.5C 235.952,92.1788 235.285,91.1788 235.5,89.5 Z"/></g>
<g><path style="opacity:0.008" fill="#171d25" d="M 93.5,92.5 C 93.0269,93.9063 92.0269,94.573 90.5,94.5C 90.9731,93.0937 91.9731,92.427 93.5,92.5 Z"/></g>
<g><path style="opacity:0.008" fill="#171d24" d="M 90.5,94.5 C 90.0269,95.9063 89.0269,96.573 87.5,96.5C 87.9731,95.0937 88.9731,94.427 90.5,94.5 Z"/></g>
<g><path style="opacity:0.928" fill="#ff9900" d="M 285.5,118.5 C 293.893,118.17 302.227,118.67 310.5,120C 314.448,120.041 316.948,121.874 318,125.5C 318.445,143.165 313.112,158.831 302,172.5C 300.155,175.183 297.655,176.85 294.5,177.5C 293,177.547 292,176.881 291.5,175.5C 296.678,164.134 300.344,152.301 302.5,140C 302.458,138.033 301.958,136.199 301,134.5C 296.237,132.481 291.237,131.481 286,131.5C 276.843,132.545 267.676,133.045 258.5,133C 257.532,130.263 258.532,128.263 261.5,127C 269.163,122.837 277.163,120.004 285.5,118.5 Z"/></g>
<g><path style="opacity:0.95" fill="#ff9900" d="M 2.5,124.5 C 22.3038,134.398 42.6371,143.232 63.5,151C 136.819,174.686 209.153,172.019 280.5,143C 283.167,142.333 285.833,142.333 288.5,143C 291.311,146.294 290.978,149.294 287.5,152C 242.578,181.231 193.245,193.898 139.5,190C 86.2716,185.497 40.1049,165.331 1,129.5C 0.387153,127.505 0.887153,125.838 2.5,124.5 Z"/></g>
</svg>
