<?xml version="1.0" encoding="UTF-8"?>
<!DOCTYPE svg PUBLIC "-//W3C//DTD SVG 1.1//EN" "http://www.w3.org/Graphics/SVG/1.1/DTD/svg11.dtd">
<svg xmlns="http://www.w3.org/2000/svg" version="1.1" width="300px" height="300px" style="shape-rendering:geometricPrecision; text-rendering:geometricPrecision; image-rendering:optimizeQuality; fill-rule:evenodd; clip-rule:evenodd" xmlns:xlink="http://www.w3.org/1999/xlink">
<g><path style="opacity:1" fill="#0c9fd9" d="M 210.5,75.5 C 214.182,74.7253 216.682,76.0586 218,79.5C 218.5,99.8306 218.667,120.164 218.5,140.5C 218.5,141.5 218.5,142.5 218.5,143.5C 216.658,143.723 214.825,144.057 213,144.5C 211.289,144.561 209.956,143.894 209,142.5C 208.333,120.833 208.333,99.1667 209,77.5C 209.717,76.9558 210.217,76.2891 210.5,75.5 Z"/></g>
<g><path style="opacity:0.875" fill="#87cce9" d="M 210.5,75.5 C 210.217,76.2891 209.717,76.9558 209,77.5C 208.333,99.1667 208.333,120.833 209,142.5C 209.956,143.894 211.289,144.561 213,144.5C 214.825,144.057 216.658,143.723 218.5,143.5C 215.863,145.427 212.863,145.927 209.5,145C 208.299,144.097 207.465,142.931 207,141.5C 206.333,120.5 206.333,99.5 207,78.5C 207.422,76.5743 208.589,75.5743 210.5,75.5 Z"/></g>
<g><path style="opacity:0.082" fill="#c3e7f3" d="M 219.5,78.5 C 220.663,99.3293 220.829,120.329 220,141.5C 219.722,142.416 219.222,143.082 218.5,143.5C 218.5,142.5 218.5,141.5 218.5,140.5C 219.497,120.007 219.831,99.3401 219.5,78.5 Z"/></g>
<g><path style="opacity:1" fill="#28a4db" d="M 116.5,131.5 C 116.333,120.495 116.5,109.495 117,98.5C 117.717,97.9558 118.217,97.2891 118.5,96.5C 122.022,95.17 125.189,95.8366 128,98.5C 128.667,109.167 128.667,119.833 128,130.5C 125.947,134.292 122.781,135.458 118.5,134C 117.619,133.292 116.953,132.458 116.5,131.5 Z"/></g>
<g><path style="opacity:1" fill="#069ed9" d="M 186.5,132.5 C 183.466,134.102 180.799,133.769 178.5,131.5C 178.333,120.495 178.5,109.495 179,98.5C 181.333,97.1667 183.667,97.1667 186,98.5C 186.5,109.828 186.667,121.162 186.5,132.5 Z"/></g>
<g><path style="opacity:1" fill="#2ba5db" d="M 248.5,132.5 C 244.769,134.321 241.603,133.654 239,130.5C 238.333,119.833 238.333,109.167 239,98.5C 239.717,97.9558 240.217,97.2891 240.5,96.5C 243.949,95.4848 247.116,96.1515 250,98.5C 250.667,109.167 250.667,119.833 250,130.5C 249.722,131.416 249.222,132.082 248.5,132.5 Z"/></g>
<g><path style="opacity:0.58" fill="#59bae1" d="M 210.5,75.5 C 212.288,74.3775 214.288,74.2109 216.5,75C 218.426,75.4224 219.426,76.5891 219.5,78.5C 219.831,99.3401 219.497,120.007 218.5,140.5C 218.667,120.164 218.5,99.8306 218,79.5C 216.682,76.0586 214.182,74.7253 210.5,75.5 Z"/></g>
<g><path style="opacity:0.749" fill="#a6d8ec" d="M 240.5,96.5 C 240.217,97.2891 239.717,97.9558 239,98.5C 238.333,109.167 238.333,119.833 239,130.5C 241.603,133.654 244.769,134.321 248.5,132.5C 243.7,135.781 239.867,134.781 237,129.5C 236.072,118.76 236.405,108.093 238,97.5C 238.671,96.7476 239.504,96.4142 240.5,96.5 Z"/></g>
<g><path style="opacity:0.961" fill="#6bbfe2" d="M 66.5,131.5 C 65.3932,133.931 63.3932,134.931 60.5,134.5C 57.1307,135.197 55.2973,133.864 55,130.5C 54.2326,119.133 54.3993,107.8 55.5,96.5C 59.4731,95.1169 63.3064,95.4502 67,97.5C 67.8259,109.008 67.6593,120.341 66.5,131.5 Z"/></g>
<g><path style="opacity:1" fill="#0f9fd9" d="M 66.5,131.5 C 63.4873,133.531 60.3206,133.865 57,132.5C 56.3333,121.5 56.3333,110.5 57,99.5C 59.8782,97.0195 62.8782,97.0195 66,99.5C 66.4998,110.161 66.6665,120.828 66.5,131.5 Z"/></g>
<g><path style="opacity:0.322" fill="#afd7e6" d="M 149.5,111.5 C 150.274,110.853 151.274,110.52 152.5,110.5C 154.355,110.34 155.688,111.007 156.5,112.5C 154.236,111.781 151.903,111.448 149.5,111.5 Z"/></g>
<g><path style="opacity:1" fill="#23a3da" d="M 34.5,132.5 C 30.7694,134.321 27.6027,133.654 25,130.5C 24.3333,125.167 24.3333,119.833 25,114.5C 26.045,113.627 26.8783,112.627 27.5,111.5C 30.771,109.907 33.6043,110.574 36,113.5C 36.6667,119.5 36.6667,125.5 36,131.5C 35.6174,132.056 35.1174,132.389 34.5,132.5 Z"/></g>
<g><path style="opacity:1" fill="#1ca2da" d="M 149.5,111.5 C 151.903,111.448 154.236,111.781 156.5,112.5C 157.117,112.611 157.617,112.944 158,113.5C 158.667,119.5 158.667,125.5 158,131.5C 157.617,132.056 157.117,132.389 156.5,132.5C 152.769,134.321 149.603,133.654 147,130.5C 146.171,125.136 146.337,119.802 147.5,114.5C 148.919,113.995 149.585,112.995 149.5,111.5 Z"/></g>
<g><path style="opacity:1" fill="#26a4db" d="M 278.5,132.5 C 275.5,133.833 272.5,133.833 269.5,132.5C 268.167,125.833 268.167,119.167 269.5,112.5C 273.087,109.78 276.587,110.114 280,113.5C 280.667,119.5 280.667,125.5 280,131.5C 279.617,132.056 279.117,132.389 278.5,132.5 Z"/></g>
<g><path style="opacity:0.082" fill="#d4e9f5" d="M 27.5,111.5 C 26.8783,112.627 26.045,113.627 25,114.5C 24.3333,119.833 24.3333,125.167 25,130.5C 27.6027,133.654 30.7694,134.321 34.5,132.5C 30.9058,135.286 27.4058,134.952 24,131.5C 23.3333,125.5 23.3333,119.5 24,113.5C 24.8159,112.177 25.9826,111.511 27.5,111.5 Z"/></g>
<g><path style="opacity:1" fill="#4cb2df" d="M 188.5,131.5 C 187.833,131.833 187.167,132.167 186.5,132.5C 186.667,121.162 186.5,109.828 186,98.5C 183.667,97.1667 181.333,97.1667 179,98.5C 178.5,109.495 178.333,120.495 178.5,131.5C 177.833,131.167 177.167,130.833 176.5,130.5C 176.333,119.495 176.5,108.495 177,97.5C 180.384,95.1139 183.884,94.9473 187.5,97C 188.191,98.0674 188.691,99.2341 189,100.5C 189.785,110.88 189.619,121.213 188.5,131.5 Z"/></g>
<g><path style="opacity:0.169" fill="#c7e5f1" d="M 269.5,112.5 C 268.167,119.167 268.167,125.833 269.5,132.5C 268.883,132.389 268.383,132.056 268,131.5C 267.333,125.5 267.333,119.5 268,113.5C 268.383,112.944 268.883,112.611 269.5,112.5 Z"/></g>
<g><path style="opacity:0.631" fill="#b1dbed" d="M 118.5,96.5 C 118.217,97.2891 117.717,97.9558 117,98.5C 116.5,109.495 116.333,120.495 116.5,131.5C 115.778,131.082 115.278,130.416 115,129.5C 114.072,118.76 114.405,108.093 116,97.5C 116.671,96.7476 117.504,96.4142 118.5,96.5 Z"/></g>
<g><path style="opacity:0.624" fill="#90cfea" d="M 88.5,144.5 C 86.5891,144.426 85.4224,143.426 85,141.5C 84.3333,120.5 84.3333,99.5 85,78.5C 87.9811,74.3041 91.8144,73.4707 96.5,76C 97.1258,76.7504 97.6258,77.5838 98,78.5C 98.6667,99.5 98.6667,120.5 98,141.5C 95.7343,145.463 92.5677,146.463 88.5,144.5 Z"/></g>
<g><path style="opacity:1" fill="#0c9fd9" d="M 88.5,144.5 C 88.2172,143.711 87.7172,143.044 87,142.5C 86.3333,121.167 86.3333,99.8333 87,78.5C 89.76,76.297 92.76,75.9637 96,77.5C 96.6667,99.1667 96.6667,120.833 96,142.5C 93.7724,144.113 91.2724,144.78 88.5,144.5 Z"/></g>
<g><path style="opacity:0.125" fill="#c7e5f1" d="M 149.5,111.5 C 149.585,112.995 148.919,113.995 147.5,114.5C 146.337,119.802 146.171,125.136 147,130.5C 149.603,133.654 152.769,134.321 156.5,132.5C 152.834,135.339 149.334,135.005 146,131.5C 145.333,125.5 145.333,119.5 146,113.5C 146.816,112.177 147.983,111.511 149.5,111.5 Z"/></g>
<g><path style="opacity:0.561" fill="#c9e5f1" d="M 176.5,130.5 C 177.167,130.833 177.833,131.167 178.5,131.5C 180.799,133.769 183.466,134.102 186.5,132.5C 187.167,132.167 187.833,131.833 188.5,131.5C 187.393,133.931 185.393,134.931 182.5,134.5C 179.114,135.099 177.114,133.766 176.5,130.5 Z"/></g>
<g><path style="opacity:0.255" fill="#bce1ef" d="M 269.5,132.5 C 272.5,133.833 275.5,133.833 278.5,132.5C 277.508,134.026 276.008,134.693 274,134.5C 271.992,134.693 270.492,134.026 269.5,132.5 Z"/></g>
<g><path style="opacity:0.478" fill="#fefffe" d="M -0.5,154.5 C 0.495477,167.323 0.82881,180.323 0.5,193.5C 4.84611,193.334 9.17944,193.501 13.5,194C 8.8452,194.499 4.17853,194.666 -0.5,194.5C -0.5,181.167 -0.5,167.833 -0.5,154.5 Z"/></g>
<g><path style="opacity:0.153" fill="#d6eaf1" d="M 65.5,163.5 C 67.4726,162.837 69.6392,162.504 72,162.5C 75.4774,162.328 78.644,162.994 81.5,164.5C 76.2032,163.725 70.8699,163.392 65.5,163.5 Z"/></g>
<g><path style="opacity:0.153" fill="#d1e9f1" d="M 146.5,163.5 C 141.13,163.392 135.797,163.725 130.5,164.5C 133.356,162.994 136.523,162.328 140,162.5C 142.361,162.504 144.527,162.837 146.5,163.5 Z"/></g>
<g><path style="opacity:1" fill="#91cce7" d="M 244.5,165.5 C 236.343,163.962 228.343,164.295 220.5,166.5C 221.058,165.21 222.058,164.377 223.5,164C 230.167,162 236.833,162 243.5,164C 244.056,164.383 244.389,164.883 244.5,165.5 Z"/></g>
<g><path style="opacity:1" fill="#26a3da" d="M 65.5,163.5 C 70.8699,163.392 76.2032,163.725 81.5,164.5C 82.4816,167.962 82.815,171.629 82.5,175.5C 78.0202,174.338 73.6869,174.338 69.5,175.5C 62.9304,178.301 60.2637,183.301 61.5,190.5C 61.3505,191.552 61.5172,192.552 62,193.5C 64.0733,195.165 66.2399,196.665 68.5,198C 73.2667,198.467 77.9334,197.967 82.5,196.5C 82.5,200.5 82.5,204.5 82.5,208.5C 74.3443,210.227 66.3443,209.727 58.5,207C 56.0038,205.669 54.0038,203.836 52.5,201.5C 48.1828,195.198 46.5162,188.198 47.5,180.5C 51.531,172.804 57.531,167.137 65.5,163.5 Z"/></g>
<g><path style="opacity:1" fill="#33a6db" d="M 146.5,163.5 C 148.167,163.5 149.833,163.5 151.5,163.5C 151.5,167.167 151.5,170.833 151.5,174.5C 147.181,173.751 142.848,173.585 138.5,174C 135.085,175.143 134.751,176.81 137.5,179C 142.665,180.5 147.498,182.667 152,185.5C 158.011,197.146 154.844,204.979 142.5,209C 135.783,209.756 129.117,209.589 122.5,208.5C 122.5,205.167 122.5,201.833 122.5,198.5C 124.5,198.5 126.5,198.5 128.5,198.5C 131.833,198.5 135.167,198.5 138.5,198.5C 139.496,198.586 140.329,198.252 141,197.5C 141.798,195.741 141.631,194.074 140.5,192.5C 137.55,191.295 134.55,190.295 131.5,189.5C 128.802,189.155 126.802,187.822 125.5,185.5C 124.142,181.425 122.808,177.425 121.5,173.5C 123.189,169.145 126.189,166.145 130.5,164.5C 135.797,163.725 141.13,163.392 146.5,163.5 Z"/></g>
<g><path style="opacity:1" fill="#25a2da" d="M 182.5,163.5 C 187.862,163.472 193.195,163.806 198.5,164.5C 198.5,168.167 198.5,171.833 198.5,175.5C 196.833,175.5 195.167,175.5 193.5,175.5C 192.207,174.842 190.707,174.508 189,174.5C 186.456,174.336 184.29,175.003 182.5,176.5C 177.765,180.964 176.432,186.298 178.5,192.5C 179.474,194.969 181.308,196.636 184,197.5C 187.794,199.031 191.294,198.698 194.5,196.5C 195.833,196.5 197.167,196.5 198.5,196.5C 198.984,200.827 198.318,204.827 196.5,208.5C 196.167,208.5 195.833,208.5 195.5,208.5C 184.069,209.937 174.403,206.603 166.5,198.5C 162.748,190.411 162.581,182.078 166,173.5C 170.403,168.221 175.903,164.888 182.5,163.5 Z"/></g>
<g><path style="opacity:1" fill="#2da4db" d="M 244.5,165.5 C 251.349,168.189 255.516,173.189 257,180.5C 259.505,198.987 251.505,208.653 233,209.5C 227.282,209.891 222.115,208.391 217.5,205C 215.21,203.223 213.543,201.056 212.5,198.5C 211.736,195.982 210.736,193.649 209.5,191.5C 206.826,180.138 210.492,171.805 220.5,166.5C 228.343,164.295 236.343,163.962 244.5,165.5 Z M 242.5,180.5 C 243.675,184.183 243.675,187.85 242.5,191.5C 242.167,192.167 241.833,192.833 241.5,193.5C 237.252,196.615 232.586,197.282 227.5,195.5C 219.569,186.002 221.569,179.336 233.5,175.5C 237.229,175.904 240.229,177.571 242.5,180.5 Z"/></g>
<g><path style="opacity:1" fill="#0c9fd9" d="M 97.5,164.5 C 101.167,164.5 104.833,164.5 108.5,164.5C 108.5,178.833 108.5,193.167 108.5,207.5C 106.585,207.216 104.919,207.549 103.5,208.5C 101.5,208.5 99.5,208.5 97.5,208.5C 97.5,193.833 97.5,179.167 97.5,164.5 Z"/></g>
<g><path style="opacity:0.039" fill="#c1e3ec" d="M 182.5,163.5 C 188.01,162.418 193.677,162.418 199.5,163.5C 199.5,168.167 199.5,172.833 199.5,177.5C 197.214,177.405 195.214,176.738 193.5,175.5C 195.167,175.5 196.833,175.5 198.5,175.5C 198.5,171.833 198.5,168.167 198.5,164.5C 193.195,163.806 187.862,163.472 182.5,163.5 Z"/></g>
<g><path style="opacity:0.122" fill="#91d2ec" d="M 108.5,164.5 C 108.833,164.5 109.167,164.5 109.5,164.5C 109.667,179.17 109.5,193.837 109,208.5C 107.224,209.536 105.391,209.536 103.5,208.5C 104.919,207.549 106.585,207.216 108.5,207.5C 108.5,193.167 108.5,178.833 108.5,164.5 Z"/></g>
<g><path style="opacity:0.796" fill="#8acbe8" d="M 65.5,163.5 C 57.531,167.137 51.531,172.804 47.5,180.5C 47.7553,177.984 48.5886,175.65 50,173.5C 52.3504,171.317 54.517,168.984 56.5,166.5C 59.2341,164.629 62.2341,163.629 65.5,163.5 Z"/></g>
<g><path style="opacity:0.745" fill="#a8daed" d="M 193.5,175.5 C 189.785,175.423 186.119,175.756 182.5,176.5C 184.29,175.003 186.456,174.336 189,174.5C 190.707,174.508 192.207,174.842 193.5,175.5 Z"/></g>
<g><path style="opacity:0.706" fill="#9ad2eb" d="M 69.5,175.5 C 73.6869,174.338 78.0202,174.338 82.5,175.5C 82.5299,176.497 82.0299,177.164 81,177.5C 77.362,175.815 73.5286,175.149 69.5,175.5 Z"/></g>
<g><path style="opacity:1" fill="#a1d0e5" d="M 121.5,173.5 C 122.808,177.425 124.142,181.425 125.5,185.5C 124.206,184.71 123.039,183.71 122,182.5C 121.502,179.518 121.335,176.518 121.5,173.5 Z"/></g>
<g><path style="opacity:0.333" fill="#cde9f3" d="M 109.5,164.5 C 109.167,164.5 108.833,164.5 108.5,164.5C 104.833,164.5 101.167,164.5 97.5,164.5C 96.504,178.99 96.1707,193.657 96.5,208.5C 95.5039,193.676 95.1706,178.676 95.5,163.5C 100.363,163.181 105.03,163.514 109.5,164.5 Z"/></g>
<g><path style="opacity:0.835" fill="#8bcee9" d="M 97.5,164.5 C 97.5,179.167 97.5,193.833 97.5,208.5C 99.5,208.5 101.5,208.5 103.5,208.5C 101.167,209.833 98.8333,209.833 96.5,208.5C 96.1707,193.657 96.504,178.99 97.5,164.5 Z"/></g>
<g><path style="opacity:0.125" fill="#d9ecf4" d="M 47.5,180.5 C 46.5162,188.198 48.1828,195.198 52.5,201.5C 49.6761,199.2 47.8428,196.2 47,192.5C 46.1881,188.311 46.3547,184.311 47.5,180.5 Z"/></g>
<g><path style="opacity:0.082" fill="#d2e5ec" d="M 242.5,180.5 C 245.167,184.167 245.167,187.833 242.5,191.5C 243.675,187.85 243.675,184.183 242.5,180.5 Z"/></g>
<g><path style="opacity:0.247" fill="#a8cfe0" d="M 61.5,190.5 C 66.7018,197.726 73.2018,199.06 81,194.5C 82.0299,194.836 82.5299,195.503 82.5,196.5C 77.9334,197.967 73.2667,198.467 68.5,198C 66.2399,196.665 64.0733,195.165 62,193.5C 61.5172,192.552 61.3505,191.552 61.5,190.5 Z"/></g>
<g><path style="opacity:0.082" fill="#d5e8f1" d="M 209.5,191.5 C 210.736,193.649 211.736,195.982 212.5,198.5C 210.166,196.824 209.166,194.491 209.5,191.5 Z"/></g>
<g><path style="opacity:0.039" fill="#b9dee5" d="M 196.5,208.5 C 198.318,204.827 198.984,200.827 198.5,196.5C 197.167,196.5 195.833,196.5 194.5,196.5C 195.78,195.069 197.447,194.402 199.5,194.5C 199.5,199.167 199.5,203.833 199.5,208.5C 198.5,208.5 197.5,208.5 196.5,208.5 Z"/></g>
<g><path style="opacity:0.855" fill="#9dcfe7" d="M 241.5,193.5 C 241.64,195.124 240.973,196.29 239.5,197C 235.833,197.667 232.167,197.667 228.5,197C 227.944,196.617 227.611,196.117 227.5,195.5C 232.586,197.282 237.252,196.615 241.5,193.5 Z"/></g>
<g><path style="opacity:0.502" fill="#c9e6f1" d="M 131.5,189.5 C 134.55,190.295 137.55,191.295 140.5,192.5C 141.631,194.074 141.798,195.741 141,197.5C 140.329,198.252 139.496,198.586 138.5,198.5C 139.8,197.399 140.3,196.066 140,194.5C 137.03,192.916 134.197,191.249 131.5,189.5 Z"/></g>
<g><path style="opacity:0.373" fill="#aad9ed" d="M 178.5,192.5 C 183.21,196.518 188.543,197.851 194.5,196.5C 191.294,198.698 187.794,199.031 184,197.5C 181.308,196.636 179.474,194.969 178.5,192.5 Z"/></g>
<g><path style="opacity:0.043" fill="#dfe7e9" d="M 128.5,198.5 C 126.5,198.5 124.5,198.5 122.5,198.5C 122.5,201.833 122.5,205.167 122.5,208.5C 121.518,205.038 121.185,201.371 121.5,197.5C 124.059,197.198 126.393,197.532 128.5,198.5 Z"/></g>
<g><path style="opacity:1" fill="#8ccae7" d="M 166.5,198.5 C 174.403,206.603 184.069,209.937 195.5,208.5C 187.117,210.568 179.117,209.402 171.5,205C 169.21,203.223 167.543,201.056 166.5,198.5 Z"/></g>
</svg>
