<?xml version="1.0" encoding="UTF-8"?>
<!DOCTYPE svg PUBLIC "-//W3C//DTD SVG 1.1//EN" "http://www.w3.org/Graphics/SVG/1.1/DTD/svg11.dtd">
<svg xmlns="http://www.w3.org/2000/svg" version="1.1" width="300px" height="299px" style="shape-rendering:geometricPrecision; text-rendering:geometricPrecision; image-rendering:optimizeQuality; fill-rule:evenodd; clip-rule:evenodd" xmlns:xlink="http://www.w3.org/1999/xlink">
<g><path style="opacity:0.639" fill="#fefffe" d="M 94.5,106.5 C 102.345,109.383 103.345,113.883 97.5,120C 94.8333,120.667 92.1667,120.667 89.5,120C 86.3114,118.456 85.1447,115.956 86,112.5C 89.2913,111.025 92.1246,109.025 94.5,106.5 Z"/></g>
<g><path style="opacity:0.691" fill="#fefffe" d="M 113.5,106.5 C 116.685,106.02 119.519,106.686 122,108.5C 122.5,114.825 122.666,121.158 122.5,127.5C 127.511,127.334 132.511,127.501 137.5,128C 140.034,130.747 140.034,133.413 137.5,136C 132.511,136.499 127.511,136.666 122.5,136.5C 122.667,153.837 122.5,171.17 122,188.5C 118.609,192.47 115.276,192.47 112,188.5C 111.333,161.833 111.333,135.167 112,108.5C 112.717,107.956 113.217,107.289 113.5,106.5 Z"/></g>
<g><path style="opacity:0.179" fill="#fefffe" d="M 232.5,120.5 C 234.628,119.371 236.961,119.204 239.5,120C 237.19,120.497 234.857,120.663 232.5,120.5 Z"/></g>
<g><path style="opacity:0.677" fill="#fefffe" d="M 44.5,125.5 C 56.8099,124.321 66.9766,128.321 75,137.5C 77.2448,140.881 77.9115,144.548 77,148.5C 74.3356,150.955 71.5023,151.122 68.5,149C 62.3764,136.289 52.7097,132.622 39.5,138C 27.9652,147.376 25.4652,158.876 32,172.5C 39.65,182.716 49.15,184.882 60.5,179C 63.7433,175.179 66.7433,171.179 69.5,167C 77.5461,166.417 79.7128,169.917 76,177.5C 70.408,187.22 61.908,192.22 50.5,192.5C 25.5395,189.622 14.7061,175.622 18,150.5C 21.8696,136.794 30.703,128.461 44.5,125.5 Z"/></g>
<g><path style="opacity:0.689" fill="#fefffe" d="M 164.5,125.5 C 170.464,125.033 175.964,126.366 181,129.5C 181.957,132.379 181.457,134.879 179.5,137C 175.352,137.669 171.352,137.169 167.5,135.5C 160.886,136.281 157.053,139.948 156,146.5C 155.667,160.5 155.333,174.5 155,188.5C 151.609,192.47 148.276,192.47 145,188.5C 144.333,168.833 144.333,149.167 145,129.5C 147.221,126.488 150.054,125.821 153.5,127.5C 154.251,128.376 154.751,129.376 155,130.5C 157.907,128.132 161.074,126.465 164.5,125.5 Z"/></g>
<g><path style="opacity:0.635" fill="#fefffe" d="M 90.5,126.5 C 95.4634,125.716 98.2967,127.716 99,132.5C 99.6667,150.167 99.6667,167.833 99,185.5C 97.8831,191.141 94.7165,192.641 89.5,190C 88.8742,189.25 88.3742,188.416 88,187.5C 87.3333,168.5 87.3333,149.5 88,130.5C 88.6622,129.016 89.4955,127.683 90.5,126.5 Z"/></g>
<g><path style="opacity:0.671" fill="#fefffe" d="M 189.5,126.5 C 193.182,125.725 195.682,127.059 197,130.5C 197.667,149.5 197.667,168.5 197,187.5C 194.103,192.356 190.77,192.69 187,188.5C 186.333,168.833 186.333,149.167 187,129.5C 187.698,128.309 188.531,127.309 189.5,126.5 Z"/></g>
<g><path style="opacity:0.682" fill="#fefffe" d="M 210.5,126.5 C 212.655,126.372 214.655,126.872 216.5,128C 222.627,135.795 229.127,143.295 236,150.5C 242.382,142.907 248.882,135.407 255.5,128C 258.835,125.709 261.668,126.209 264,129.5C 264.635,131.635 264.301,133.635 263,135.5C 255.899,142.89 249.399,150.723 243.5,159C 249.613,166.784 256.113,174.284 263,181.5C 266.569,189.244 264.403,192.077 256.5,190C 249.313,182.447 242.48,174.614 236,166.5C 228.794,174.037 221.96,181.871 215.5,190C 209.249,192.292 206.416,190.125 207,183.5C 214.167,175.167 221.333,166.833 228.5,158.5C 221.479,150.647 214.646,142.647 208,134.5C 206.837,131.029 207.67,128.362 210.5,126.5 Z"/></g>
<g><path style="opacity:0.248" fill="#fefffe" d="M 271.5,181.5 C 274.85,181.335 278.183,181.502 281.5,182C 282,182.5 282.5,183 283,183.5C 284.049,181.893 285.549,181.227 287.5,181.5C 287.5,184.5 287.5,187.5 287.5,190.5C 282.676,190.095 278.01,190.095 273.5,190.5C 273.442,187.336 272.776,184.336 271.5,181.5 Z"/></g>
</svg>
