<?xml version="1.0" encoding="UTF-8"?>
<!DOCTYPE svg PUBLIC "-//W3C//DTD SVG 1.1//EN" "http://www.w3.org/Graphics/SVG/1.1/DTD/svg11.dtd">
<svg xmlns="http://www.w3.org/2000/svg" version="1.1" width="400px" height="400px" style="shape-rendering:geometricPrecision; text-rendering:geometricPrecision; image-rendering:optimizeQuality; fill-rule:evenodd; clip-rule:evenodd" xmlns:xlink="http://www.w3.org/1999/xlink">
<g><path style="opacity:1" fill="#fdfefe" d="M 254.5,41.5 C 254.5,145.167 254.5,248.833 254.5,352.5C 254.5,353.167 254.5,353.833 254.5,354.5C 244.833,354.5 235.167,354.5 225.5,354.5C 225.5,275.5 225.5,196.5 225.5,117.5C 225.5,92.1667 225.5,66.8333 225.5,41.5C 235.167,41.5 244.833,41.5 254.5,41.5 Z"/></g>
<g><path style="opacity:1" fill="#a6d9f4" d="M 290.5,42.5 C 290.5,42.1667 290.5,41.8333 290.5,41.5C 292.553,41.4021 294.22,42.0687 295.5,43.5C 293.784,43.3713 292.117,43.038 290.5,42.5 Z"/></g>
<g><path style="opacity:1" fill="#0175cc" d="M 290.5,42.5 C 292.117,43.038 293.784,43.3713 295.5,43.5C 297.623,45.797 300.29,47.1303 303.5,47.5C 304.758,49.3006 306.424,50.8006 308.5,52C 308.167,52.3333 307.833,52.6667 307.5,53C 310.813,54.6019 314.147,56.1019 317.5,57.5C 318.15,59.4352 318.483,61.4352 318.5,63.5C 319.833,63.5 321.167,63.5 322.5,63.5C 322.833,63.5 323.167,63.5 323.5,63.5C 323.738,65.4044 324.738,66.7377 326.5,67.5C 326.581,70.5134 327.914,72.5134 330.5,73.5C 331.298,79.5782 333.631,84.9116 337.5,89.5C 337.833,89.5 338.167,89.5 338.5,89.5C 338.5,89.8333 338.5,90.1667 338.5,90.5C 338.691,94.2621 339.358,97.9288 340.5,101.5C 341.821,184.984 341.821,268.317 340.5,351.5C 312.833,351.5 285.167,351.5 257.5,351.5C 257.363,248.446 257.53,145.446 258,42.5C 264.606,45.2801 271.106,44.9468 277.5,41.5C 281.798,42.2965 286.132,42.6299 290.5,42.5 Z"/></g>
<g><path style="opacity:1" fill="#70a2c9" d="M 295.5,43.5 C 298.721,43.8961 301.388,45.2295 303.5,47.5C 300.29,47.1303 297.623,45.797 295.5,43.5 Z"/></g>
<g><path style="opacity:1" fill="#0e75c5" d="M 284.5,40.5 C 286.621,40.3253 288.621,40.6586 290.5,41.5C 290.5,41.8333 290.5,42.1667 290.5,42.5C 286.132,42.6299 281.798,42.2965 277.5,41.5C 271.106,44.9468 264.606,45.2801 258,42.5C 257.53,145.446 257.363,248.446 257.5,351.5C 285.167,351.5 312.833,351.5 340.5,351.5C 312.672,352.498 284.672,352.831 256.5,352.5C 256.5,248.833 256.5,145.167 256.5,41.5C 265.652,40.5064 274.985,40.1731 284.5,40.5 Z"/></g>
<g><path style="opacity:1" fill="#508ec3" d="M 303.5,47.5 C 308.978,49.6366 313.645,52.9699 317.5,57.5C 314.147,56.1019 310.813,54.6019 307.5,53C 307.833,52.6667 308.167,52.3333 308.5,52C 306.424,50.8006 304.758,49.3006 303.5,47.5 Z"/></g>
<g><path style="opacity:1" fill="#357fb8" d="M 317.5,57.5 C 319.914,58.9108 321.581,60.9108 322.5,63.5C 321.167,63.5 319.833,63.5 318.5,63.5C 318.483,61.4352 318.15,59.4352 317.5,57.5 Z"/></g>
<g><path style="opacity:1" fill="#92cbe5" d="M 323.5,63.5 C 325.262,64.2623 326.262,65.5956 326.5,67.5C 324.738,66.7377 323.738,65.4044 323.5,63.5 Z"/></g>
<g><path style="opacity:1" fill="#649fcb" d="M 326.5,67.5 C 328.822,68.8021 330.155,70.8021 330.5,73.5C 327.914,72.5134 326.581,70.5134 326.5,67.5 Z"/></g>
<g><path style="opacity:1" fill="#357ab0" d="M 330.5,73.5 C 331.401,74.2905 332.068,75.2905 332.5,76.5C 332.755,78.9674 333.755,80.9674 335.5,82.5C 336.338,82.8417 336.672,83.5084 336.5,84.5C 336.629,86.2161 336.962,87.8828 337.5,89.5C 333.631,84.9116 331.298,79.5782 330.5,73.5 Z"/></g>
<g><path style="opacity:1" fill="#98cbe8" d="M 332.5,76.5 C 334.245,78.0326 335.245,80.0326 335.5,82.5C 333.755,80.9674 332.755,78.9674 332.5,76.5 Z"/></g>
<g><path style="opacity:1" fill="#b3ecfa" d="M 336.5,84.5 C 337.931,85.7804 338.598,87.4471 338.5,89.5C 338.167,89.5 337.833,89.5 337.5,89.5C 336.962,87.8828 336.629,86.2161 336.5,84.5 Z"/></g>
<g><path style="opacity:1" fill="#6195bd" d="M 338.5,90.5 C 340.258,93.8544 341.258,97.521 341.5,101.5C 341.167,101.5 340.833,101.5 340.5,101.5C 339.358,97.9288 338.691,94.2621 338.5,90.5 Z"/></g>
<g><path style="opacity:1" fill="#333740" d="M 136.5,118.5 C 165.833,118.5 195.167,118.5 224.5,118.5C 224.5,121.5 224.5,124.5 224.5,127.5C 222.507,159.149 221.841,191.149 222.5,223.5C 221.167,223.5 219.833,223.5 218.5,223.5C 218.5,228.833 218.5,234.167 218.5,239.5C 219.833,239.5 221.167,239.5 222.5,239.5C 222.5,260.833 222.5,282.167 222.5,303.5C 221.167,303.5 219.833,303.5 218.5,303.5C 218.5,308.833 218.5,314.167 218.5,319.5C 219.833,319.5 221.167,319.5 222.5,319.5C 222.5,330.167 222.5,340.833 222.5,351.5C 196.811,350.843 171.478,351.509 146.5,353.5C 144.167,353.5 141.833,353.5 139.5,353.5C 138.675,298.207 138.175,242.874 138,187.5C 137.617,186.944 137.117,186.611 136.5,186.5C 136.5,163.833 136.5,141.167 136.5,118.5 Z"/></g>
<g><path style="opacity:1" fill="#33373d" d="M 224.5,127.5 C 224.5,202.833 224.5,278.167 224.5,353.5C 198.5,353.5 172.5,353.5 146.5,353.5C 171.478,351.509 196.811,350.843 222.5,351.5C 222.5,340.833 222.5,330.167 222.5,319.5C 221.167,319.5 219.833,319.5 218.5,319.5C 218.5,314.167 218.5,308.833 218.5,303.5C 219.833,303.5 221.167,303.5 222.5,303.5C 222.5,282.167 222.5,260.833 222.5,239.5C 221.167,239.5 219.833,239.5 218.5,239.5C 218.5,234.167 218.5,228.833 218.5,223.5C 219.833,223.5 221.167,223.5 222.5,223.5C 221.841,191.149 222.507,159.149 224.5,127.5 Z"/></g>
<g><path style="opacity:1" fill="#1571b7" d="M 256.5,41.5 C 256.5,145.167 256.5,248.833 256.5,352.5C 284.672,352.831 312.672,352.498 340.5,351.5C 341.821,268.317 341.821,184.984 340.5,101.5C 340.833,101.5 341.167,101.5 341.5,101.5C 342.461,103.265 342.795,105.265 342.5,107.5C 342.5,189.5 342.5,271.5 342.5,353.5C 313.329,353.831 284.329,353.498 255.5,352.5C 255.167,248.665 255.501,144.999 256.5,41.5 Z"/></g>
<g><path style="opacity:1" fill="#4991c2" d="M 284.5,40.5 C 274.985,40.1731 265.652,40.5064 256.5,41.5C 255.501,144.999 255.167,248.665 255.5,352.5C 255.167,352.5 254.833,352.5 254.5,352.5C 254.5,248.833 254.5,145.167 254.5,41.5C 254.414,40.5041 254.748,39.6708 255.5,39C 265.376,38.2528 275.042,38.7528 284.5,40.5 Z"/></g>
<g><path style="opacity:1" fill="#ee4e98" d="M 98.5,351.5 C 96.5,351.5 94.5,351.5 92.5,351.5C 89.9867,348.569 86.6533,347.235 82.5,347.5C 82.0269,346.094 81.0269,345.427 79.5,345.5C 79.0269,344.094 78.0269,343.427 76.5,343.5C 74.0592,340.051 71.0592,337.384 67.5,335.5C 66.1667,334.833 65.1667,333.833 64.5,332.5C 63.0877,330.002 61.9211,327.336 61,324.5C 60.1841,323.177 59.0174,322.511 57.5,322.5C 56.7544,316.354 54.4211,311.02 50.5,306.5C 50.5,305.5 50.5,304.5 50.5,303.5C 49.212,265.148 49.212,226.814 50.5,188.5C 78.7406,188.172 106.907,188.505 135,189.5C 135.833,243.503 135.667,297.503 134.5,351.5C 122.524,352.746 110.524,352.746 98.5,351.5 Z"/></g>
<g><path style="opacity:1" fill="#472f44" d="M 136.5,186.5 C 137.117,186.611 137.617,186.944 138,187.5C 138.175,242.874 138.675,298.207 139.5,353.5C 138.5,353.5 137.5,353.5 136.5,353.5C 136.5,298.167 136.5,242.833 136.5,187.5C 136.5,187.167 136.5,186.833 136.5,186.5 Z"/></g>
<g><path style="opacity:1" fill="#7f8387" d="M 136.5,118.5 C 165.995,117.502 195.662,117.169 225.5,117.5C 225.5,196.5 225.5,275.5 225.5,354.5C 195.833,354.5 166.167,354.5 136.5,354.5C 136.5,354.167 136.5,353.833 136.5,353.5C 137.5,353.5 138.5,353.5 139.5,353.5C 141.833,353.5 144.167,353.5 146.5,353.5C 172.5,353.5 198.5,353.5 224.5,353.5C 224.5,278.167 224.5,202.833 224.5,127.5C 224.5,124.5 224.5,121.5 224.5,118.5C 195.167,118.5 165.833,118.5 136.5,118.5 Z"/></g>
<g><path style="opacity:1" fill="#eca5c9" d="M 136.5,186.5 C 136.5,186.833 136.5,187.167 136.5,187.5C 107.167,187.5 77.8333,187.5 48.5,187.5C 48.5,222.833 48.5,258.167 48.5,293.5C 47.5016,258.004 47.1683,222.337 47.5,186.5C 77.1667,186.5 106.833,186.5 136.5,186.5 Z"/></g>
<g><path style="opacity:1" fill="#cd6094" d="M 136.5,187.5 C 136.5,242.833 136.5,298.167 136.5,353.5C 136.5,353.833 136.5,354.167 136.5,354.5C 123.784,354.795 111.117,354.462 98.5,353.5C 98.5,352.833 98.5,352.167 98.5,351.5C 110.524,352.746 122.524,352.746 134.5,351.5C 135.667,297.503 135.833,243.503 135,189.5C 106.907,188.505 78.7406,188.172 50.5,188.5C 49.212,226.814 49.212,265.148 50.5,303.5C 48.8255,300.493 48.1588,297.16 48.5,293.5C 48.5,258.167 48.5,222.833 48.5,187.5C 77.8333,187.5 107.167,187.5 136.5,187.5 Z"/></g>
<g><path style="opacity:1" fill="#dd84ae" d="M 50.5,306.5 C 54.4211,311.02 56.7544,316.354 57.5,322.5C 54.4073,317.575 52.074,312.242 50.5,306.5 Z"/></g>
<g><path style="opacity:1" fill="#e28eb7" d="M 57.5,322.5 C 59.0174,322.511 60.1841,323.177 61,324.5C 61.9211,327.336 63.0877,330.002 64.5,332.5C 61.4208,329.743 59.0875,326.41 57.5,322.5 Z"/></g>
<g><path style="opacity:1" fill="#de83ac" d="M 67.5,335.5 C 71.0592,337.384 74.0592,340.051 76.5,343.5C 72.8998,341.57 69.8998,338.903 67.5,335.5 Z"/></g>
<g><path style="opacity:1" fill="#ea9fc4" d="M 76.5,343.5 C 78.0269,343.427 79.0269,344.094 79.5,345.5C 77.9731,345.573 76.9731,344.906 76.5,343.5 Z"/></g>
<g><path style="opacity:1" fill="#efa7cb" d="M 79.5,345.5 C 81.0269,345.427 82.0269,346.094 82.5,347.5C 80.9731,347.573 79.9731,346.906 79.5,345.5 Z"/></g>
<g><path style="opacity:1" fill="#d96e9e" d="M 82.5,347.5 C 86.6533,347.235 89.9867,348.569 92.5,351.5C 91.8333,351.5 91.1667,351.5 90.5,351.5C 90.0269,350.094 89.0269,349.427 87.5,349.5C 85.4471,349.598 83.7804,348.931 82.5,347.5 Z"/></g>
<g><path style="opacity:1" fill="#f7b8df" d="M 87.5,349.5 C 89.0269,349.427 90.0269,350.094 90.5,351.5C 88.9731,351.573 87.9731,350.906 87.5,349.5 Z"/></g>
<g><path style="opacity:1" fill="#d395b0" d="M 92.5,351.5 C 94.5,351.5 96.5,351.5 98.5,351.5C 98.5,352.167 98.5,352.833 98.5,353.5C 96.2143,353.405 94.2143,352.738 92.5,351.5 Z"/></g>
<g><path style="opacity:1" fill="#7fb4cf" d="M 342.5,107.5 C 343.317,109.969 343.817,112.635 344,115.5C 344.667,194.833 344.667,274.167 344,353.5C 343.196,354.804 342.029,355.471 340.5,355.5C 311.735,354.52 283.068,354.187 254.5,354.5C 254.5,353.833 254.5,353.167 254.5,352.5C 254.833,352.5 255.167,352.5 255.5,352.5C 284.329,353.498 313.329,353.831 342.5,353.5C 342.5,271.5 342.5,189.5 342.5,107.5 Z"/></g>
</svg>
