<?xml version="1.0" encoding="UTF-8"?>
<!DOCTYPE svg PUBLIC "-//W3C//DTD SVG 1.1//EN" "http://www.w3.org/Graphics/SVG/1.1/DTD/svg11.dtd">
<svg xmlns="http://www.w3.org/2000/svg" version="1.1" width="225px" height="225px" style="shape-rendering:geometricPrecision; text-rendering:geometricPrecision; image-rendering:optimizeQuality; fill-rule:evenodd; clip-rule:evenodd" xmlns:xlink="http://www.w3.org/1999/xlink">
<g><path style="opacity:0.956" fill="#fcfdfd" d="M 118.5,10.5 C 151.596,8.11956 173.763,22.4529 185,53.5C 186.693,61.8264 186.86,70.1598 185.5,78.5C 209.372,90.2543 217.206,108.921 209,134.5C 203.946,143.888 196.612,150.888 187,155.5C 190.758,180.006 180.424,194.006 156,197.5C 149.688,196.785 143.855,194.785 138.5,191.5C 116.7,215.693 91.0331,220.86 61.5,207C 39.8953,192.285 30.2286,171.785 32.5,145.5C 9.12297,133.218 1.95631,114.551 11,89.5C 16.2421,79.9236 23.7421,72.7569 33.5,68C 29.564,49.5384 36.2306,36.5384 53.5,29C 63.5701,26.1054 72.9034,27.6054 81.5,33.5C 91.1629,21.5036 103.496,13.837 118.5,10.5 Z"/></g>
<g><path style="opacity:1" fill="#fec517" d="M 120.5,18.5 C 150.019,17.2146 169.186,30.5479 178,58.5C 178.667,65.1667 178.667,71.8333 178,78.5C 163.246,92.5929 147.913,105.926 132,118.5C 117.56,111.696 103.06,105.03 88.5,98.5C 84.6687,91.8394 81.6687,84.8394 79.5,77.5C 81.5558,64.2827 84.3891,51.2827 88,38.5C 96.8271,28.3474 107.66,21.6808 120.5,18.5 Z"/></g>
<g><path style="opacity:1" fill="#f0529a" d="M 58.5,35.5 C 65.7707,34.4094 72.2707,36.0761 78,40.5C 76.3131,52.1363 74.4798,63.803 72.5,75.5C 62.8294,73.4998 53.1627,71.3332 43.5,69C 40.7251,66.5265 39.3917,63.3598 39.5,59.5C 40.6894,47.3217 47.0228,39.3217 58.5,35.5 Z"/></g>
<g><path style="opacity:1" fill="#20a9f5" d="M 37.5,75.5 C 49.2574,77.905 60.9241,80.7383 72.5,84C 74.8953,89.4572 77.5619,94.7905 80.5,100C 66,113.167 51.5,126.333 37,139.5C 19.2985,130.425 12.6319,116.092 17,96.5C 21.0459,86.6223 27.8793,79.6223 37.5,75.5 Z"/></g>
<g><path style="opacity:1" fill="#0578cc" d="M 181.5,85.5 C 202.468,95.5471 208.635,111.547 200,133.5C 196.219,140.304 190.719,145.138 183.5,148C 171.336,147.028 159.336,144.861 147.5,141.5C 143.804,135.78 140.97,129.78 139,123.5C 153.659,111.339 167.826,98.6719 181.5,85.5 Z"/></g>
<g><path style="opacity:1" fill="#06bfb3" d="M 85.5,105.5 C 100.474,112.319 115.474,119.152 130.5,126C 134.26,132.686 137.594,139.519 140.5,146.5C 138.268,157.825 136.102,169.159 134,180.5C 129.95,189.553 123.45,196.386 114.5,201C 87.3703,212.061 65.2036,205.895 48,182.5C 41.0136,170.909 39.0136,158.575 42,145.5C 56.6962,132.301 71.1962,118.967 85.5,105.5 Z"/></g>
<g><path style="opacity:1" fill="#95ca17" d="M 147.5,149.5 C 158.048,151.387 168.382,154.054 178.5,157.5C 181.673,176.169 173.84,186.836 155,189.5C 150.487,189.274 146.321,187.94 142.5,185.5C 142.167,184.333 141.833,183.167 141.5,182C 143.053,171.071 145.053,160.237 147.5,149.5 Z"/></g>
</svg>
