<?xml version="1.0" encoding="UTF-8"?>
<!DOCTYPE svg PUBLIC "-//W3C//DTD SVG 1.1//EN" "http://www.w3.org/Graphics/SVG/1.1/DTD/svg11.dtd">
<svg xmlns="http://www.w3.org/2000/svg" version="1.1" width="300px" height="299px" style="shape-rendering:geometricPrecision; text-rendering:geometricPrecision; image-rendering:optimizeQuality; fill-rule:evenodd; clip-rule:evenodd" xmlns:xlink="http://www.w3.org/1999/xlink">
<g><path style="opacity:1" fill="#f5431e" d="M 41.5,89.5 C 45.8333,89.5 50.1667,89.5 54.5,89.5C 67.8082,93.145 77.4749,101.145 83.5,113.5C 85.0911,123.26 84.7578,132.926 82.5,142.5C 81.0634,144.527 79.7301,146.694 78.5,149C 76.3111,149.322 74.3111,148.822 72.5,147.5C 72.0766,146.735 71.7432,145.902 71.5,145C 74.41,141.345 75.7433,137.178 75.5,132.5C 75.5,132.167 75.5,131.833 75.5,131.5C 78.5282,122.203 76.1948,114.537 68.5,108.5C 67.8333,108.5 67.5,108.167 67.5,107.5C 65.5468,104.022 62.5468,102.355 58.5,102.5C 45.2189,98.5956 34.2189,101.929 25.5,112.5C 23.9755,113.174 22.6422,114.174 21.5,115.5C 19.1256,122.45 18.959,129.45 21,136.5C 21.7162,138.879 22.8828,140.879 24.5,142.5C 24.2436,144.792 24.5769,146.959 25.5,149C 23.6183,149.198 21.9516,149.698 20.5,150.5C 19.5416,150.047 18.7083,149.381 18,148.5C 15.7032,142.914 13.2032,137.581 10.5,132.5C 10.5,128.5 10.5,124.5 10.5,120.5C 15.7831,105.217 26.1164,94.8835 41.5,89.5 Z"/></g>
<g><path style="opacity:0.443" fill="#f7d4c9" d="M 54.5,89.5 C 61.4057,89.1905 67.4057,91.3572 72.5,96C 75.3333,98.8333 78.1667,101.667 81,104.5C 83.5754,107.726 85.0754,111.393 85.5,115.5C 84.8333,114.833 84.1667,114.167 83.5,113.5C 77.4749,101.145 67.8082,93.145 54.5,89.5 Z"/></g>
<g><path style="opacity:0.49" fill="#fbddd4" d="M 41.5,89.5 C 26.1164,94.8835 15.7831,105.217 10.5,120.5C 10.2434,115.003 11.7434,110.003 15,105.5C 20.3483,98.8112 26.8483,93.6446 34.5,90C 36.8098,89.5034 39.1432,89.3367 41.5,89.5 Z"/></g>
<g><path style="opacity:1" fill="#f6431e" d="M 262.5,98.5 C 263.486,102.97 263.819,107.637 263.5,112.5C 268.833,112.5 274.167,112.5 279.5,112.5C 280.01,115.388 279.344,117.721 277.5,119.5C 272.833,119.5 268.167,119.5 263.5,119.5C 263.334,129.839 263.5,140.172 264,150.5C 264.278,151.416 264.778,152.082 265.5,152.5C 265.944,154.113 266.944,155.28 268.5,156C 271.833,156.667 275.167,156.667 278.5,156C 279.416,155.722 280.082,155.222 280.5,154.5C 284.851,154.205 286.684,156.205 286,160.5C 276.436,166.427 267.436,165.76 259,158.5C 257.323,156.475 256.323,154.141 256,151.5C 255.83,140.992 255.33,130.659 254.5,120.5C 253.5,120.5 252.5,120.5 251.5,120.5C 250.463,118.262 250.297,115.929 251,113.5C 252.356,112.62 253.856,112.286 255.5,112.5C 255.5,107.833 255.5,103.167 255.5,98.5C 257.833,98.5 260.167,98.5 262.5,98.5 Z"/></g>
<g><path style="opacity:0.325" fill="#f9b7a5" d="M 262.5,98.5 C 260.167,98.5 257.833,98.5 255.5,98.5C 255.5,103.167 255.5,107.833 255.5,112.5C 253.856,112.286 252.356,112.62 251,113.5C 250.297,115.929 250.463,118.262 251.5,120.5C 250.833,120.5 250.167,120.5 249.5,120.5C 247.91,117.056 248.576,114.056 251.5,111.5C 252.5,111.5 253.5,111.5 254.5,111.5C 254.5,106.833 254.5,102.167 254.5,97.5C 257.385,97.1936 260.052,97.5269 262.5,98.5 Z"/></g>
<g><path style="opacity:0.169" fill="#e7a494" d="M 58.5,102.5 C 62.5468,102.355 65.5468,104.022 67.5,107.5C 64.6214,105.562 61.6214,103.895 58.5,102.5 Z"/></g>
<g><path style="opacity:0.443" fill="#f3b19e" d="M 68.5,108.5 C 76.1948,114.537 78.5282,122.203 75.5,131.5C 76.0951,122.866 73.7617,115.199 68.5,108.5 Z"/></g>
<g><path style="opacity:0.329" fill="#f0dad6" d="M 195.5,126.5 C 181.376,108.641 166.543,107.974 151,124.5C 145.301,138.81 148.134,150.977 159.5,161C 171.35,166.377 182.516,165.211 193,157.5C 193.483,156.552 193.649,155.552 193.5,154.5C 195.582,155.585 195.916,157.085 194.5,159C 182.774,167.702 170.441,168.702 157.5,162C 145.796,151.041 143.296,138.208 150,123.5C 155.666,115.414 163.5,111.08 173.5,110.5C 182.86,111.388 190.027,115.722 195,123.5C 195.483,124.448 195.649,125.448 195.5,126.5 Z"/></g>
<g><path style="opacity:1" fill="#f53d18" d="M 102.5,112.5 C 102.168,124.518 102.501,136.518 103.5,148.5C 104.931,151.039 106.597,153.372 108.5,155.5C 106.616,155.712 105.283,156.712 104.5,158.5C 102.925,157.544 101.258,156.877 99.5,156.5C 98.8333,155.5 98.1667,154.5 97.5,153.5C 97.2914,152.078 96.7914,150.745 96,149.5C 95.5001,137.505 95.3335,125.505 95.5,113.5C 97.6074,112.532 99.9407,112.198 102.5,112.5 Z"/></g>
<g><path style="opacity:1" fill="#f6421d" d="M 195.5,126.5 C 196.047,131.355 196.047,136.022 195.5,140.5C 182.5,140.5 169.5,140.5 156.5,140.5C 156.288,144.345 157.288,147.679 159.5,150.5C 164.513,157.122 171.18,159.288 179.5,157C 182.873,155.879 186.039,154.379 189,152.5C 190.585,153.044 192.085,153.711 193.5,154.5C 193.649,155.552 193.483,156.552 193,157.5C 182.516,165.211 171.35,166.377 159.5,161C 148.134,150.977 145.301,138.81 151,124.5C 166.543,107.974 181.376,108.641 195.5,126.5 Z M 186.5,132.5 C 182.012,133.166 177.346,133.499 172.5,133.5C 167.449,133.493 162.783,132.827 158.5,131.5C 159.529,129.483 160.529,127.483 161.5,125.5C 162.167,125.5 162.5,125.167 162.5,124.5C 173.633,118.378 181.633,121.045 186.5,132.5 Z"/></g>
<g><path style="opacity:1" fill="#f53e18" d="M 226.5,135.5 C 227.952,136.302 229.618,136.802 231.5,137C 230.833,137.333 230.167,137.667 229.5,138C 231.878,138.511 234.212,139.178 236.5,140C 234.189,140.236 232.189,141.069 230.5,142.5C 221.541,143.063 213.541,140.73 206.5,135.5C 204.742,132.023 204.242,128.357 205,124.5C 206.581,121.084 208.748,118.084 211.5,115.5C 214.851,113.107 218.684,112.107 223,112.5C 229.675,112.919 236.008,114.585 242,117.5C 242.834,120.814 241.501,122.481 238,122.5C 232.913,121.103 227.746,120.103 222.5,119.5C 215.446,119.39 211.946,122.724 212,129.5C 215.835,133.776 220.668,135.776 226.5,135.5 Z"/></g>
<g><path style="opacity:0.522" fill="#f6e3dc" d="M 104.5,112.5 C 103.833,112.5 103.167,112.5 102.5,112.5C 99.9407,112.198 97.6074,112.532 95.5,113.5C 94.5048,125.655 94.1714,137.989 94.5,150.5C 92.9651,143.736 92.2984,136.736 92.5,129.5C 92.5674,123.466 92.9007,117.466 93.5,111.5C 95.4878,111.173 97.4878,110.84 99.5,110.5C 101.557,110.436 103.223,111.102 104.5,112.5 Z"/></g>
<g><path style="opacity:0.196" fill="#efe1e0" d="M 265.5,149.5 C 264.506,140.014 264.173,130.348 264.5,120.5C 269.032,120.818 273.366,120.485 277.5,119.5C 279.344,117.721 280.01,115.388 279.5,112.5C 274.167,112.5 268.833,112.5 263.5,112.5C 263.819,107.637 263.486,102.97 262.5,98.5C 260.052,97.5269 257.385,97.1936 254.5,97.5C 254.5,102.167 254.5,106.833 254.5,111.5C 253.5,111.5 252.5,111.5 251.5,111.5C 253.36,106.807 254.026,101.807 253.5,96.5C 257.437,96.2065 261.27,96.5399 265,97.5C 265.499,101.821 265.666,106.154 265.5,110.5C 270.179,110.334 274.845,110.501 279.5,111C 281.487,113.47 281.987,116.303 281,119.5C 280.097,120.701 278.931,121.535 277.5,122C 273.514,122.499 269.514,122.666 265.5,122.5C 265.5,131.5 265.5,140.5 265.5,149.5 Z"/></g>
<g><path style="opacity:0.082" fill="#f4835f" d="M 25.5,112.5 C 20.5682,122.303 20.2348,132.303 24.5,142.5C 22.8828,140.879 21.7162,138.879 21,136.5C 18.959,129.45 19.1256,122.45 21.5,115.5C 22.6422,114.174 23.9755,113.174 25.5,112.5 Z"/></g>
<g><path style="opacity:0.008" fill="#e99680" d="M 187.5,130.5 C 187.5,131.167 187.5,131.833 187.5,132.5C 187.167,132.5 186.833,132.5 186.5,132.5C 181.633,121.045 173.633,118.378 162.5,124.5C 163.726,122.124 165.726,120.624 168.5,120C 177.513,118.836 183.846,122.336 187.5,130.5 Z"/></g>
<g><path style="opacity:0.039" fill="#d1e6f7" d="M 249.5,120.5 C 250.167,120.5 250.833,120.5 251.5,120.5C 252.5,120.5 253.5,120.5 254.5,120.5C 254.5,130.167 254.5,139.833 254.5,149.5C 253.507,140.682 253.173,131.682 253.5,122.5C 251.62,122.771 250.287,122.104 249.5,120.5 Z"/></g>
<g><path style="opacity:0.965" fill="#f67352" d="M 83.5,113.5 C 84.1667,114.167 84.8333,114.833 85.5,115.5C 85.5,115.833 85.5,116.167 85.5,116.5C 86.7828,123.828 86.7828,131.162 85.5,138.5C 84.5,139.833 83.5,141.167 82.5,142.5C 84.7578,132.926 85.0911,123.26 83.5,113.5 Z"/></g>
<g><path style="opacity:0.18" fill="#efece9" d="M 85.5,116.5 C 87.0392,119.865 87.7058,123.531 87.5,127.5C 87.7058,131.469 87.0392,135.135 85.5,138.5C 86.7828,131.162 86.7828,123.828 85.5,116.5 Z"/></g>
<g><path style="opacity:0.122" fill="#f8b7a5" d="M 102.5,112.5 C 103.167,112.5 103.833,112.5 104.5,112.5C 104.109,124.553 104.609,136.553 106,148.5C 107.02,149.891 107.853,151.391 108.5,153C 111.987,154.622 115.654,155.455 119.5,155.5C 120.833,155.5 122.167,155.5 123.5,155.5C 118.611,158.11 113.611,158.11 108.5,155.5C 106.597,153.372 104.931,151.039 103.5,148.5C 102.501,136.518 102.168,124.518 102.5,112.5 Z"/></g>
<g><path style="opacity:0.8" fill="#f9a593" d="M 277.5,119.5 C 273.366,120.485 269.032,120.818 264.5,120.5C 264.173,130.348 264.506,140.014 265.5,149.5C 265.5,150.5 265.5,151.5 265.5,152.5C 264.778,152.082 264.278,151.416 264,150.5C 263.5,140.172 263.334,129.839 263.5,119.5C 268.167,119.5 272.833,119.5 277.5,119.5 Z"/></g>
<g><path style="opacity:0.784" fill="#f8866a" d="M 211.5,115.5 C 208.748,118.084 206.581,121.084 205,124.5C 204.242,128.357 204.742,132.023 206.5,135.5C 205.21,134.942 204.377,133.942 204,132.5C 203.819,129.305 203.319,126.305 202.5,123.5C 202.5,123.167 202.5,122.833 202.5,122.5C 205.19,119.815 208.19,117.482 211.5,115.5 Z"/></g>
<g><path style="opacity:0.467" fill="#f07958" d="M 161.5,125.5 C 160.529,127.483 159.529,129.483 158.5,131.5C 157.596,132.209 157.263,133.209 157.5,134.5C 167.889,135.141 177.889,134.474 187.5,132.5C 187.5,131.833 187.5,131.167 187.5,130.5C 188.451,131.919 188.784,133.585 188.5,135.5C 177.833,135.5 167.167,135.5 156.5,135.5C 156.075,131.017 157.741,127.683 161.5,125.5 Z"/></g>
<g><path style="opacity:0.047" fill="#a6f5fd" d="M 158.5,131.5 C 162.783,132.827 167.449,133.493 172.5,133.5C 177.346,133.499 182.012,133.166 186.5,132.5C 186.833,132.5 187.167,132.5 187.5,132.5C 177.889,134.474 167.889,135.141 157.5,134.5C 157.263,133.209 157.596,132.209 158.5,131.5 Z"/></g>
<g><path style="opacity:0.961" fill="#f78e73" d="M 95.5,113.5 C 95.3335,125.505 95.5001,137.505 96,149.5C 96.7914,150.745 97.2914,152.078 97.5,153.5C 96.2719,152.694 95.2719,151.694 94.5,150.5C 94.1714,137.989 94.5048,125.655 95.5,113.5 Z"/></g>
<g><path style="opacity:1" fill="#f97456" d="M 195.5,140.5 C 183.011,141.495 170.344,141.829 157.5,141.5C 157.263,142.791 157.596,143.791 158.5,144.5C 158.517,146.565 158.85,148.565 159.5,150.5C 157.288,147.679 156.288,144.345 156.5,140.5C 169.5,140.5 182.5,140.5 195.5,140.5 Z"/></g>
<g><path style="opacity:0.419" fill="#e2c4dc" d="M 195.5,126.5 C 198.181,131.068 199.014,136.068 198,141.5C 197.25,142.126 196.416,142.626 195.5,143C 182.993,143.169 170.66,143.669 158.5,144.5C 157.596,143.791 157.263,142.791 157.5,141.5C 170.344,141.829 183.011,141.495 195.5,140.5C 196.047,136.022 196.047,131.355 195.5,126.5 Z"/></g>
<g><path style="opacity:0.067" fill="#f6dbd1" d="M 202.5,123.5 C 203.319,126.305 203.819,129.305 204,132.5C 204.377,133.942 205.21,134.942 206.5,135.5C 213.541,140.73 221.541,143.063 230.5,142.5C 231.848,143.601 233.348,144.601 235,145.5C 235.483,146.448 235.649,147.448 235.5,148.5C 234.684,146.856 233.35,145.69 231.5,145C 226.563,143.915 221.563,143.248 216.5,143C 205.837,140.851 201.171,134.351 202.5,123.5 Z"/></g>
<g><path style="opacity:0.071" fill="#ecc3b8" d="M 75.5,132.5 C 75.7433,137.178 74.41,141.345 71.5,145C 71.7432,145.902 72.0766,146.735 72.5,147.5C 71.3509,147.209 70.6842,146.376 70.5,145C 72.4774,140.889 74.1441,136.723 75.5,132.5 Z"/></g>
<g><path style="opacity:1" fill="#f54520" d="M 24.5,142.5 C 28.5,146.167 32.5,149.833 36.5,153.5C 39.68,155.867 43.3467,156.867 47.5,156.5C 53.0144,156.359 58.3478,155.359 63.5,153.5C 66.7535,153.778 68.7535,155.445 69.5,158.5C 57.2265,165.252 44.5599,166.086 31.5,161C 27.3319,157.998 23.6652,154.498 20.5,150.5C 21.9516,149.698 23.6183,149.198 25.5,149C 24.5769,146.959 24.2436,144.792 24.5,142.5 Z"/></g>
<g><path style="opacity:1" fill="#f54620" d="M 84.5,158.5 C 82.2258,159.597 80.0591,160.93 78,162.5C 75.9583,160.957 73.7917,159.624 71.5,158.5C 71.5394,157.417 71.8728,156.417 72.5,155.5C 74.5038,153.995 76.3371,152.328 78,150.5C 81.5668,152.214 83.7334,154.881 84.5,158.5 Z"/></g>
<g><path style="opacity:1" fill="#f5421d" d="M 226.5,135.5 C 232.903,135.138 238.403,137.138 243,141.5C 246.687,150.331 244.521,157.164 236.5,162C 228.246,164.696 219.913,165.029 211.5,163C 208.745,161.047 205.745,159.88 202.5,159.5C 202.164,155 204.164,153.167 208.5,154C 210.221,155.527 212.221,156.527 214.5,157C 221.054,158.081 227.388,157.414 233.5,155C 235.037,153.89 235.703,152.39 235.5,150.5C 235.5,149.833 235.5,149.167 235.5,148.5C 235.649,147.448 235.483,146.448 235,145.5C 233.348,144.601 231.848,143.601 230.5,142.5C 232.189,141.069 234.189,140.236 236.5,140C 234.212,139.178 231.878,138.511 229.5,138C 230.167,137.667 230.833,137.333 231.5,137C 229.618,136.802 227.952,136.302 226.5,135.5 Z"/></g>
<g><path style="opacity:0.318" fill="#efada0" d="M 85.5,138.5 C 85.0637,142.872 83.397,146.706 80.5,150C 83.2239,151.522 85.2239,153.689 86.5,156.5C 86.1445,157.522 85.4778,158.189 84.5,158.5C 83.7334,154.881 81.5668,152.214 78,150.5C 76.3371,152.328 74.5038,153.995 72.5,155.5C 71.8728,156.417 71.5394,157.417 71.5,158.5C 70.8333,158.5 70.1667,158.5 69.5,158.5C 68.7535,155.445 66.7535,153.778 63.5,153.5C 58.3478,155.359 53.0144,156.359 47.5,156.5C 43.3467,156.867 39.68,155.867 36.5,153.5C 45.7698,156.507 54.7698,155.84 63.5,151.5C 65.8792,152.442 68.0459,153.775 70,155.5C 71.9252,154.12 73.7585,152.62 75.5,151C 74.2899,149.961 73.2899,148.794 72.5,147.5C 74.3111,148.822 76.3111,149.322 78.5,149C 79.7301,146.694 81.0634,144.527 82.5,142.5C 83.5,141.167 84.5,139.833 85.5,138.5 Z"/></g>
<g><path style="opacity:0.282" fill="#f6dad1" d="M 158.5,144.5 C 163.546,155.36 171.879,158.527 183.5,154C 185.666,151.465 188.333,150.465 191.5,151C 192.823,151.816 193.489,152.983 193.5,154.5C 192.085,153.711 190.585,153.044 189,152.5C 186.039,154.379 182.873,155.879 179.5,157C 171.18,159.288 164.513,157.122 159.5,150.5C 158.85,148.565 158.517,146.565 158.5,144.5 Z"/></g>
<g><path style="opacity:0.331" fill="#fae6dd" d="M 265.5,149.5 C 266.601,150.848 267.601,152.348 268.5,154C 272.387,155.229 276.387,155.396 280.5,154.5C 280.082,155.222 279.416,155.722 278.5,156C 275.167,156.667 271.833,156.667 268.5,156C 266.944,155.28 265.944,154.113 265.5,152.5C 265.5,151.5 265.5,150.5 265.5,149.5 Z"/></g>
<g><path style="opacity:0.322" fill="#f3d6cf" d="M 235.5,150.5 C 235.703,152.39 235.037,153.89 233.5,155C 227.388,157.414 221.054,158.081 214.5,157C 212.221,156.527 210.221,155.527 208.5,154C 204.164,153.167 202.164,155 202.5,159.5C 205.745,159.88 208.745,161.047 211.5,163C 219.913,165.029 228.246,164.696 236.5,162C 244.521,157.164 246.687,150.331 243,141.5C 238.403,137.138 232.903,135.138 226.5,135.5C 220.668,135.776 215.835,133.776 212,129.5C 211.946,122.724 215.446,119.39 222.5,119.5C 227.746,120.103 232.913,121.103 238,122.5C 241.501,122.481 242.834,120.814 242,117.5C 236.008,114.585 229.675,112.919 223,112.5C 218.684,112.107 214.851,113.107 211.5,115.5C 208.19,117.482 205.19,119.815 202.5,122.5C 204.773,116.668 209.107,113.168 215.5,112C 225.668,110.028 235.335,111.528 244.5,116.5C 245.428,119.879 244.428,122.713 241.5,125C 235.77,123.743 229.937,122.576 224,121.5C 221.476,122.104 218.976,122.771 216.5,123.5C 213.9,126.041 213.9,128.541 216.5,131C 223.974,132.035 231.308,133.702 238.5,136C 248.611,142.551 249.944,150.551 242.5,160C 228.982,168.449 215.316,168.449 201.5,160C 200.4,155.714 202.067,152.88 206.5,151.5C 214.801,155.637 223.468,156.47 232.5,154C 233.636,152.855 234.636,151.688 235.5,150.5 Z"/></g>
<g><path style="opacity:0.435" fill="#f2dfd9" d="M 94.5,150.5 C 95.2719,151.694 96.2719,152.694 97.5,153.5C 98.1667,154.5 98.8333,155.5 99.5,156.5C 103.892,162.422 109.892,165.088 117.5,164.5C 128.846,164.423 136.346,159.089 140,148.5C 140.826,136.659 140.659,124.993 139.5,113.5C 137.052,112.527 134.385,112.194 131.5,112.5C 131.5,123.833 131.5,135.167 131.5,146.5C 130.943,151.39 128.276,154.39 123.5,155.5C 122.167,155.5 120.833,155.5 119.5,155.5C 125.303,154.809 128.803,151.476 130,145.5C 130.333,134.167 130.667,122.833 131,111.5C 134.621,110.087 138.121,110.42 141.5,112.5C 142.666,124.152 142.833,135.819 142,147.5C 136.107,163.932 124.607,169.765 107.5,165C 100.435,162.444 96.1013,157.61 94.5,150.5 Z"/></g>
<g><path style="opacity:0.796" fill="#f69b81" d="M 139.5,113.5 C 137.167,113.5 134.833,113.5 132.5,113.5C 132.828,124.679 132.495,135.679 131.5,146.5C 131.5,135.167 131.5,123.833 131.5,112.5C 134.385,112.194 137.052,112.527 139.5,113.5 Z"/></g>
<g><path style="opacity:1" fill="#f6441f" d="M 139.5,113.5 C 140.659,124.993 140.826,136.659 140,148.5C 136.346,159.089 128.846,164.423 117.5,164.5C 109.892,165.088 103.892,162.422 99.5,156.5C 101.258,156.877 102.925,157.544 104.5,158.5C 105.283,156.712 106.616,155.712 108.5,155.5C 113.611,158.11 118.611,158.11 123.5,155.5C 128.276,154.39 130.943,151.39 131.5,146.5C 132.495,135.679 132.828,124.679 132.5,113.5C 134.833,113.5 137.167,113.5 139.5,113.5 Z"/></g>
<g><path style="opacity:0.463" fill="#f2d7d1" d="M 10.5,132.5 C 13.2032,137.581 15.7032,142.914 18,148.5C 18.7083,149.381 19.5416,150.047 20.5,150.5C 23.6652,154.498 27.3319,157.998 31.5,161C 44.5599,166.086 57.2265,165.252 69.5,158.5C 70.1667,158.5 70.8333,158.5 71.5,158.5C 73.7917,159.624 75.9583,160.957 78,162.5C 80.0591,160.93 82.2258,159.597 84.5,158.5C 83.5446,161.456 81.5446,163.456 78.5,164.5C 75.322,163.656 72.6554,161.989 70.5,159.5C 51.2203,170.55 33.7203,168.217 18,152.5C 12.9582,146.756 10.4582,140.089 10.5,132.5 Z"/></g>
<g><path style="opacity:0.459" fill="#f1d0c8" d="M 254.5,120.5 C 255.33,130.659 255.83,140.992 256,151.5C 256.323,154.141 257.323,156.475 259,158.5C 267.436,165.76 276.436,166.427 286,160.5C 286.684,156.205 284.851,154.205 280.5,154.5C 287.323,152.492 289.656,154.992 287.5,162C 277.825,168.112 268.325,167.945 259,161.5C 255.828,158.154 254.328,154.154 254.5,149.5C 254.5,139.833 254.5,130.167 254.5,120.5 Z"/></g>
<g><path style="opacity:0.689" fill="#deddde" d="M 208.5,180.5 C 210.408,180.883 211.908,181.883 213,183.5C 213.5,182.333 214.333,181.5 215.5,181C 221.167,180.333 226.833,180.333 232.5,181C 235.481,182.38 236.147,184.546 234.5,187.5C 232.591,188.348 230.591,188.682 228.5,188.5C 229.126,195.584 228.459,202.25 226.5,208.5C 226.5,201.167 226.5,193.833 226.5,186.5C 228.5,186.5 230.5,186.5 232.5,186.5C 232.5,185.5 232.5,184.5 232.5,183.5C 226.5,183.5 220.5,183.5 214.5,183.5C 214.5,184.5 214.5,185.5 214.5,186.5C 216.833,186.5 219.167,186.5 221.5,186.5C 221.5,193.833 221.5,201.167 221.5,208.5C 220.509,202.021 220.176,195.354 220.5,188.5C 218.208,188.756 216.041,188.423 214,187.5C 213.5,194.492 213.334,201.492 213.5,208.5C 212.5,208.5 211.5,208.5 210.5,208.5C 211.049,198.974 210.382,189.641 208.5,180.5 Z"/></g>
<g><path style="opacity:0.194" fill="#d9d9d9" d="M 206.5,181.5 C 206.5,185.5 206.5,189.5 206.5,193.5C 202.833,193.5 199.167,193.5 195.5,193.5C 195.5,190.167 195.5,186.833 195.5,183.5C 194.167,183.5 192.833,183.5 191.5,183.5C 191.5,191.833 191.5,200.167 191.5,208.5C 190.178,199.658 190.178,190.658 191.5,181.5C 193.416,180.752 195.416,180.752 197.5,181.5C 197.5,184.833 197.5,188.167 197.5,191.5C 200.167,191.5 202.833,191.5 205.5,191.5C 205.187,187.958 205.521,184.625 206.5,181.5 Z"/></g>
<g><path style="opacity:0.489" fill="#dbdbdb" d="M 72.5,188.5 C 71.9569,188.44 71.6236,188.107 71.5,187.5C 74.4281,186.516 77.4281,186.183 80.5,186.5C 80.5,185.5 80.5,184.5 80.5,183.5C 75.8333,183.5 71.1667,183.5 66.5,183.5C 66.5,191.833 66.5,200.167 66.5,208.5C 65.1745,204.555 64.5079,200.222 64.5,195.5C 61.6544,180.612 67.3211,176.112 81.5,182C 82.7596,183.814 82.7596,185.647 81.5,187.5C 78.5788,188.407 75.5788,188.74 72.5,188.5 Z"/></g>
<g><path style="opacity:0.525" fill="#dfdfdf" d="M 152.5,203.5 C 148.833,203.5 145.167,203.5 141.5,203.5C 141.5,196.833 141.5,190.167 141.5,183.5C 140.167,183.5 138.833,183.5 137.5,183.5C 137.5,191.833 137.5,200.167 137.5,208.5C 135.529,199.895 134.862,190.895 135.5,181.5C 138.255,179.875 140.755,180.208 143,182.5C 143.5,189.158 143.666,195.825 143.5,202.5C 146.713,202.19 149.713,202.523 152.5,203.5 Z"/></g>
<g><path style="opacity:0.937" fill="#a6a5a6" d="M 152.5,203.5 C 153.451,204.919 153.784,206.585 153.5,208.5C 148.167,208.5 142.833,208.5 137.5,208.5C 137.5,200.167 137.5,191.833 137.5,183.5C 138.833,183.5 140.167,183.5 141.5,183.5C 141.5,190.167 141.5,196.833 141.5,203.5C 145.167,203.5 148.833,203.5 152.5,203.5 Z"/></g>
<g><path style="opacity:0.317" fill="#cecece" d="M 159.5,208.5 C 159.5,200.167 159.5,191.833 159.5,183.5C 158.167,183.5 156.833,183.5 155.5,183.5C 155.5,191.833 155.5,200.167 155.5,208.5C 154.178,199.658 154.178,190.658 155.5,181.5C 157.416,180.752 159.416,180.752 161.5,181.5C 162.138,190.895 161.471,199.895 159.5,208.5 Z"/></g>
<g><path style="opacity:0.984" fill="#a5a5a5" d="M 159.5,208.5 C 158.167,208.5 156.833,208.5 155.5,208.5C 155.5,200.167 155.5,191.833 155.5,183.5C 156.833,183.5 158.167,183.5 159.5,183.5C 159.5,191.833 159.5,200.167 159.5,208.5 Z"/></g>
<g><path style="opacity:0.967" fill="#a4a4a4" d="M 226.5,208.5 C 224.833,208.5 223.167,208.5 221.5,208.5C 221.5,201.167 221.5,193.833 221.5,186.5C 219.167,186.5 216.833,186.5 214.5,186.5C 214.5,185.5 214.5,184.5 214.5,183.5C 220.5,183.5 226.5,183.5 232.5,183.5C 232.5,184.5 232.5,185.5 232.5,186.5C 230.5,186.5 228.5,186.5 226.5,186.5C 226.5,193.833 226.5,201.167 226.5,208.5 Z"/></g>
<g><path style="opacity:1" fill="#afafaf" d="M 124.5,180.5 C 126.865,181.008 129.199,181.675 131.5,182.5C 132.782,189.364 130.282,191.031 124,187.5C 117.823,189.665 115.823,193.999 118,200.5C 119.995,202.747 122.495,203.747 125.5,203.5C 126.306,202.003 126.972,200.336 127.5,198.5C 125.955,197.548 124.288,197.215 122.5,197.5C 122.5,196.5 122.5,195.5 122.5,194.5C 125.5,194.5 128.5,194.5 131.5,194.5C 132.015,199.48 131.348,204.146 129.5,208.5C 123.729,209.113 118.396,208.446 113.5,206.5C 111.13,200.245 110.963,193.912 113,187.5C 115.707,185.064 118.873,183.564 122.5,183C 123.381,182.292 124.047,181.458 124.5,180.5 Z"/></g>
<g><path style="opacity:0.987" fill="#aaaaaa" d="M 208.5,180.5 C 210.382,189.641 211.049,198.974 210.5,208.5C 208.833,208.5 207.167,208.5 205.5,208.5C 205.5,205.167 205.5,201.833 205.5,198.5C 202.833,198.5 200.167,198.5 197.5,198.5C 197.5,201.833 197.5,205.167 197.5,208.5C 195.5,208.5 193.5,208.5 191.5,208.5C 191.5,200.167 191.5,191.833 191.5,183.5C 192.833,183.5 194.167,183.5 195.5,183.5C 195.5,186.833 195.5,190.167 195.5,193.5C 199.167,193.5 202.833,193.5 206.5,193.5C 206.5,189.5 206.5,185.5 206.5,181.5C 207.167,181.167 207.833,180.833 208.5,180.5 Z"/></g>
<g><path style="opacity:0.173" fill="#e0e0e0" d="M 124.5,180.5 C 124.047,181.458 123.381,182.292 122.5,183C 118.873,183.564 115.707,185.064 113,187.5C 110.963,193.912 111.13,200.245 113.5,206.5C 112.624,206.631 111.957,206.298 111.5,205.5C 110.481,203.396 109.481,201.396 108.5,199.5C 107.167,197.167 107.167,194.833 108.5,192.5C 110.599,184.423 115.932,180.423 124.5,180.5 Z"/></g>
<g><path style="opacity:0.303" fill="#dcdcdc" d="M 129.5,208.5 C 131.348,204.146 132.015,199.48 131.5,194.5C 128.5,194.5 125.5,194.5 122.5,194.5C 122.5,195.5 122.5,196.5 122.5,197.5C 124.288,197.215 125.955,197.548 127.5,198.5C 126.972,200.336 126.306,202.003 125.5,203.5C 125.5,202.167 125.5,200.833 125.5,199.5C 123.833,199.5 122.167,199.5 120.5,199.5C 120.244,197.208 120.577,195.041 121.5,193C 125.152,192.501 128.818,192.335 132.5,192.5C 132.5,197.833 132.5,203.167 132.5,208.5C 131.5,208.5 130.5,208.5 129.5,208.5 Z"/></g>
<g><path style="opacity:0.994" fill="#b5b5b5" d="M 108.5,192.5 C 107.167,194.833 107.167,197.167 108.5,199.5C 107.117,207.036 102.617,210.036 95,208.5C 86.4109,209.913 82.0776,206.247 82,197.5C 79.1963,199.344 76.0297,200.011 72.5,199.5C 72.5,202.5 72.5,205.5 72.5,208.5C 70.5,208.5 68.5,208.5 66.5,208.5C 66.5,200.167 66.5,191.833 66.5,183.5C 71.1667,183.5 75.8333,183.5 80.5,183.5C 80.5,184.5 80.5,185.5 80.5,186.5C 77.4281,186.183 74.4281,186.516 71.5,187.5C 71.6236,188.107 71.9569,188.44 72.5,188.5C 72.5,189.833 72.5,191.167 72.5,192.5C 76.0071,191.994 79.1737,192.66 82,194.5C 84.0415,181.468 91.2082,177.635 103.5,183C 106.359,185.552 108.026,188.719 108.5,192.5 Z M 93.5,187.5 C 96.5608,187.444 98.7275,188.778 100,191.5C 100.667,194.167 100.667,196.833 100,199.5C 97.4905,204.255 94.4905,204.588 91,200.5C 89.1299,195.647 89.9632,191.314 93.5,187.5 Z"/></g>
<g><path style="opacity:0.912" fill="#b5b5b5" d="M 174.5,180.5 C 178.22,180.564 181.886,181.064 185.5,182C 188.083,184.787 187.75,187.287 184.5,189.5C 174.925,185.9 170.759,189.234 172,199.5C 173.883,202.024 176.383,203.358 179.5,203.5C 179.33,202.178 179.663,201.011 180.5,200C 178.866,199.506 177.199,199.34 175.5,199.5C 175.5,197.167 175.5,194.833 175.5,192.5C 179.437,192.207 183.27,192.54 187,193.5C 187.499,198.489 187.666,203.489 187.5,208.5C 168.934,213.756 161.434,207.09 165,188.5C 167.161,184.495 170.328,181.829 174.5,180.5 Z"/></g>
</svg>
