<?xml version="1.0" encoding="UTF-8"?>
<!DOCTYPE svg PUBLIC "-//W3C//DTD SVG 1.1//EN" "http://www.w3.org/Graphics/SVG/1.1/DTD/svg11.dtd">
<svg xmlns="http://www.w3.org/2000/svg" version="1.1" width="300px" height="299px" style="shape-rendering:geometricPrecision; text-rendering:geometricPrecision; image-rendering:optimizeQuality; fill-rule:evenodd; clip-rule:evenodd" xmlns:xlink="http://www.w3.org/1999/xlink">
<g><path style="opacity:1" fill="#0298ec" d="M 193.5,28.5 C 212.845,28.1671 232.178,28.5004 251.5,29.5C 260.717,45.5492 269.717,61.7158 278.5,78C 269.934,95.1356 260.601,111.802 250.5,128C 231.491,128.833 212.491,128.666 193.5,127.5C 184.42,111.004 175.086,94.6705 165.5,78.5C 174.845,61.8061 184.179,45.1394 193.5,28.5 Z"/></g>
<g><path style="opacity:1" fill="#64ba00" d="M 113.5,98.5 C 128.515,98.1673 143.515,98.5007 158.5,99.5C 165.247,111.996 172.247,124.329 179.5,136.5C 172.247,148.671 165.247,161.004 158.5,173.5C 143.27,174.823 128.103,174.823 113,173.5C 105.928,161.271 99.0943,148.937 92.5,136.5C 99.4897,123.84 106.49,111.173 113.5,98.5 Z"/></g>
<g><path style="opacity:0.878" fill="#252f3e" d="M 196.5,150.5 C 199.167,150.5 201.833,150.5 204.5,150.5C 204.334,158.174 204.5,165.841 205,173.5C 206.648,172.283 208.481,171.45 210.5,171C 219.167,170.333 227.833,170.333 236.5,171C 243.295,174.12 247.461,179.287 249,186.5C 249.5,199.829 249.667,213.163 249.5,226.5C 246.833,226.5 244.167,226.5 241.5,226.5C 241.927,212.774 241.427,199.107 240,185.5C 236.164,179.083 230.497,176.416 223,177.5C 215.503,176.416 209.836,179.083 206,185.5C 204.554,199.093 204.054,212.76 204.5,226.5C 201.833,226.5 199.167,226.5 196.5,226.5C 196.5,201.167 196.5,175.833 196.5,150.5 Z"/></g>
<g><path style="opacity:1" fill="#f96e10" d="M 45.5,150.5 C 57.8513,150.168 70.1847,150.501 82.5,151.5C 88.3005,161.602 93.9672,171.769 99.5,182C 93.9672,192.231 88.3005,202.398 82.5,212.5C 70.1802,213.666 57.8468,213.833 45.5,213C 39.3183,202.972 33.6516,192.638 28.5,182C 33.7904,171.25 39.457,160.75 45.5,150.5 Z"/></g>
<g><path style="opacity:0.981" fill="#ffb000" d="M 113.5,189.5 C 128.515,189.167 143.515,189.501 158.5,190.5C 165.247,202.996 172.247,215.329 179.5,227.5C 172.293,240.082 164.959,252.582 157.5,265C 142.833,265.667 128.167,265.667 113.5,265C 106.261,252.604 99.2614,240.104 92.5,227.5C 98.988,214.522 105.988,201.855 113.5,189.5 Z"/></g>
</svg>
