<?xml version="1.0" encoding="UTF-8" standalone="no" ?>
<!DOCTYPE svg PUBLIC "-//W3C//DTD SVG 1.1//EN" "http://www.w3.org/Graphics/SVG/1.1/DTD/svg11.dtd">
<svg xmlns="http://www.w3.org/2000/svg" xmlns:xlink="http://www.w3.org/1999/xlink" version="1.1" width="193.1585072586578" height="199.66147862007168" viewBox="4.848351779796715 0.3539823008848657 193.1585072586578 199.66147862007168" xml:space="preserve">
<desc>Created with Fabric.js 4.6.0</desc>
<defs>
</defs>
<g transform="matrix(8.28 0 0 8.28 101.43 100.18)" id="doN-Vy83-WEFf6JgXsgkQ"  >
<path style="stroke: none; stroke-width: 1; stroke-dasharray: none; stroke-linecap: butt; stroke-dashoffset: 0; stroke-linejoin: miter; stroke-miterlimit: 4; fill: rgb(49,168,247); fill-rule: nonzero; opacity: 1;" vector-effect="non-scaling-stroke"  transform=" translate(-12, -12)" d="M 13.829 0.009 C 13.405618068036901 0.046458086083168065 13.003241125505681 0.21019588953743112 12.674000000000001 0.47900000000000087 C 12.234803455266215 0.8366009304891671 11.955776263447245 1.3541257290765252 11.898380720711076 1.9175773969832193 C 11.84098517797491 2.4810290648899134 12.009929597257743 3.0441861247945656 12.368000000000002 3.4830000000000005 C 12.542000000000002 3.696 12.750000000000002 3.863 12.977000000000002 3.99 L 10.977000000000002 8.143 C 9.601999418543997 7.607416976217568 8.045242575644322 7.852235704455716 6.901000000000002 8.784 C 6.803834885069286 8.864344144530756 6.71040350677148 8.949099751986623 6.621000000000001 9.038000000000002 L 4.388 7.213 C 4.580087692376075 6.744064423266083 4.461757878881776 6.20518674333476 4.0908724856824445 5.859871985757684 C 3.719987092483113 5.514557228180609 3.174042749604442 5.434959029906163 2.7200000000000006 5.66 C 2.1326786856015927 5.967963651874327 1.8970720636719656 6.687383390433693 2.1884380200823896 7.2831130410869775 C 2.479803976492814 7.87884269174026 3.192330947834135 8.134538909227109 3.7960000000000003 7.86 C 3.894 7.811 3.9800000000000004 7.748 4.0600000000000005 7.679 L 6.244000000000001 9.465 C 5.551841453560645 10.36406561202392 5.263523926804931 11.509913221674624 5.447751647889687 12.629494650118712 C 5.631979368974443 13.7490760785628 6.272253210947408 14.742123483303349 7.216000000000002 15.372 L 4.71 18.967 C 4.196243908282697 18.60850696262827 3.5748222734090738 18.43761601303802 2.950000000000001 18.482999999999997 C 1.429107718074193 18.597697987567276 0.2890719714366461 19.923462739354555 0.40348885096416076 21.444376194897856 C 0.5179057304916754 22.965289650441154 1.8434597471562109 24.105570418321385 3.364394324359523 23.99143465074235 C 4.8853289015628345 23.877298883163313 6.02585465173145 22.55195564690512 5.912000000000001 21.031 C 5.862119468120739 20.393966432950293 5.591164081530476 19.79439805139612 5.146000000000001 19.336 L 7.715000000000001 15.652999999999999 C 8.878769565910677 16.214652044504266 10.238954604172463 16.196131006401572 11.386999999999999 15.603 L 12.831 18.014 C 12.686529841393698 18.147707453617958 12.593472702591653 18.3278066309953 12.568 18.523 C 12.527826433601232 18.868561268881543 12.699800704305806 19.20428930692939 13.003711575269284 19.37359579971227 C 13.307622446232761 19.54290229249515 13.683601444060837 19.512434957396394 13.956286636298342 19.296404191248108 C 14.228971828535846 19.080373425099822 14.344645998273965 18.721335889776256 14.249357073568243 18.386751779548877 C 14.154068148862521 18.0521676693215 13.866587430770506 17.807947887073777 13.520999999999999 17.768 C 13.463999999999999 17.761 13.411 17.778000000000002 13.356 17.782 L 11.87 15.3 C 11.941999999999998 15.248000000000001 12.014999999999999 15.199 12.084 15.142000000000001 C 13.118074140892597 14.296942483901255 13.675255969688056 13.000832308813093 13.577 11.669000000000002 L 20.545 9.951 C 20.87806085636729 10.452656996984683 21.455395330733012 10.73616605057791 22.056 10.693000000000001 C 22.732999477963396 10.642958401947556 23.313153345207084 10.189939090317221 23.525829859974497 9.545267736242344 C 23.73850637474191 8.900596382167466 23.541802003450144 8.1912922184249 23.02747593210056 7.748233365642955 C 22.51314986075098 7.30517451286101 21.78253946468532 7.215656606559454 21.176461853288906 7.52143820126778 C 20.57038424189249 7.827219795976106 20.20825454462035 8.468052916797287 20.259 9.145000000000001 C 20.266000000000002 9.240000000000002 20.285 9.332 20.308 9.422 L 13.498000000000001 11.102 C 13.364455269007545 10.467943104404574 13.081632924948535 9.87487321928689 12.673000000000002 9.371999999999998 C 12.34546942380421 8.972025705110731 11.945063051438575 8.637788182415687 11.493000000000004 8.387 L 13.510000000000002 4.198 C 14.140000000000002 4.354 14.832 4.231000000000001 15.373000000000001 3.7900000000000005 C 16.101907471040057 3.1969188561514787 16.35733253719411 2.1969791773143807 16.0021552750325 1.3269789146879485 C 15.646978012870889 0.4569786520615162 14.764718335624224 -0.0785016815056947 13.829 0.008000000000000007 z" stroke-linecap="round" />
</g>
</svg>