<?xml version="1.0" encoding="UTF-8"?>
<!DOCTYPE svg PUBLIC "-//W3C//DTD SVG 1.1//EN" "http://www.w3.org/Graphics/SVG/1.1/DTD/svg11.dtd">
<svg xmlns="http://www.w3.org/2000/svg" version="1.1" width="300px" height="300px" style="shape-rendering:geometricPrecision; text-rendering:geometricPrecision; image-rendering:optimizeQuality; fill-rule:evenodd; clip-rule:evenodd" xmlns:xlink="http://www.w3.org/1999/xlink">
<g><path style="opacity:0.998" fill="#1db5b4" d="M 141.5,9.5 C 149.781,8.82867 157.781,9.99534 165.5,13C 197.809,32.1586 230.476,50.8253 263.5,69C 273.252,75.3383 279.418,84.1716 282,95.5C 282.978,138.879 282.645,182.213 281,225.5C 277.353,234.14 271.853,241.307 264.5,247C 242.648,259.667 220.648,272.167 198.5,284.5C 198.167,284.333 197.833,284.167 197.5,284C 206.379,268.196 203.712,254.862 189.5,244C 186.042,243.324 184.042,244.824 183.5,248.5C 182.624,249.251 181.624,249.751 180.5,250C 159.167,253.333 137.833,253.333 116.5,250C 113.405,249.182 111.405,247.182 110.5,244C 109.167,243.333 107.833,243.333 106.5,244C 93.1868,255.301 90.8535,268.634 99.5,284C 99,284.167 98.5,284.333 98,284.5C 76.0692,272.12 54.2358,259.62 32.5,247C 23.6016,241.042 17.7683,232.875 15,222.5C 14.3333,179.833 14.3333,137.167 15,94.5C 17.862,83.612 24.0286,75.112 33.5,69C 64.5254,51.8249 95.1921,34.1583 125.5,16C 130.744,13.315 136.077,11.1484 141.5,9.5 Z M 134.5,63.5 C 165.15,60.5867 192.817,68.0867 217.5,86C 221.52,89.011 224.353,92.8443 226,97.5C 226.667,127.167 226.667,156.833 226,186.5C 223.609,201.89 214.776,211.057 199.5,214C 165.5,214.667 131.5,214.667 97.5,214C 80.1264,210.281 70.9598,199.448 70,181.5C 69.0422,153.126 69.3755,124.793 71,96.5C 72.0395,94.2537 73.2062,92.087 74.5,90C 91.9786,75.4267 111.979,66.5934 134.5,63.5 Z M 59.5,107.5 C 60.1667,133.5 60.8333,159.5 61.5,185.5C 63.7545,207.923 76.0879,220.756 98.5,224C 131.833,224.667 165.167,224.667 198.5,224C 222.31,220.359 234.643,206.525 235.5,182.5C 236.167,157.833 236.833,133.167 237.5,108.5C 241.378,116.327 243.878,124.66 245,133.5C 247.804,155.386 246.804,177.052 242,198.5C 238.571,209.873 232.738,219.707 224.5,228C 216.615,234.184 207.615,237.184 197.5,237C 161.478,237.932 125.478,237.598 89.5,236C 74.2637,231.765 63.7637,222.265 58,207.5C 54.8818,198.693 52.5484,189.693 51,180.5C 49.1342,158.196 50.8009,136.196 56,114.5C 57.1932,112.114 58.3599,109.78 59.5,107.5 Z"/></g>
<g><path style="opacity:0.332" fill="#ade6e3" d="M 61.5,185.5 C 60.8333,159.5 60.1667,133.5 59.5,107.5C 59.7828,106.711 60.2828,106.044 61,105.5C 61.5,132.165 61.6666,158.831 61.5,185.5 Z"/></g>
<g><path style="opacity:0.164" fill="#afe7e7" d="M 237.5,108.5 C 236.833,133.167 236.167,157.833 235.5,182.5C 235.333,157.164 235.5,131.831 236,106.5C 236.717,107.044 237.217,107.711 237.5,108.5 Z"/></g>
<g><path style="opacity:0.997" fill="#2cb8b7" d="M 98.5,171.5 C 106.182,170.68 111.015,174.013 113,181.5C 114.595,195.244 108.762,200.41 95.5,197C 90.7981,192.078 89.2981,186.245 91,179.5C 92.8401,176.103 95.3401,173.436 98.5,171.5 Z"/></g>
<g><path style="opacity:0.995" fill="#2cb8b7" d="M 191.5,171.5 C 204.946,172.482 209.446,179.482 205,192.5C 199.95,199.132 193.95,200.132 187,195.5C 181.242,185.974 182.742,177.974 191.5,171.5 Z"/></g>
</svg>
