<?xml version="1.0" encoding="UTF-8"?>
<!DOCTYPE svg PUBLIC "-//W3C//DTD SVG 1.1//EN" "http://www.w3.org/Graphics/SVG/1.1/DTD/svg11.dtd">
<svg xmlns="http://www.w3.org/2000/svg" version="1.1" width="200px" height="200px" style="shape-rendering:geometricPrecision; text-rendering:geometricPrecision; image-rendering:optimizeQuality; fill-rule:evenodd; clip-rule:evenodd" xmlns:xlink="http://www.w3.org/1999/xlink">
<g><path style="opacity:1" fill="#535d67" d="M 91.5,57.5 C 90.5,57.5 89.5,57.5 88.5,57.5C 88.1805,62.3633 88.5139,67.03 89.5,71.5C 96.6898,72.8376 102.856,76.1709 108,81.5C 111,79.1667 114,76.8333 117,74.5C 115.514,56.6725 123.514,46.6725 141,44.5C 158.292,46.4645 165.959,56.1312 164,73.5C 159.335,87.0871 149.835,92.9204 135.5,91C 130.866,89.6908 126.699,87.5241 123,84.5C 119.009,86.3346 115.843,89.0013 113.5,92.5C 115.077,98.8204 114.744,104.987 112.5,111C 116.088,113.377 119.588,115.877 123,118.5C 136.701,107.174 149.368,108.174 161,121.5C 167.971,135.908 164.804,147.408 151.5,156C 128.034,161.211 116.534,151.711 117,127.5C 114.262,125.093 111.262,123.093 108,121.5C 103.074,126.213 97.2403,129.213 90.5,130.5C 88.5583,135.056 87.8917,140.056 88.5,145.5C 89.5,145.5 90.5,145.5 91.5,145.5C 104.197,150.553 109.363,159.886 107,173.5C 102.335,187.087 92.835,192.92 78.5,191C 60.9441,184.013 56.1108,171.846 64,154.5C 67.203,150.126 71.3697,147.126 76.5,145.5C 77.5,145.5 78.5,145.5 79.5,145.5C 80.1083,140.056 79.4417,135.056 77.5,130.5C 62.0559,126.802 54.0559,116.968 53.5,101C 54.1311,84.5421 62.4644,74.7087 78.5,71.5C 78.8256,67.1161 78.4922,62.7828 77.5,58.5C 60.2257,50.1768 56.059,37.5101 65,20.5C 77.6667,8.5 90.3333,8.5 103,20.5C 110.458,33.5621 108.624,45.0621 97.5,55C 95.5932,56.122 93.5932,56.9553 91.5,57.5 Z"/></g>
<g><path style="opacity:1" fill="#fcfbfb" d="M 80.5,24.5 C 91.5404,23.7042 96.0404,28.7042 94,39.5C 87.7952,48.3095 81.1285,48.6428 74,40.5C 71.5824,33.2445 73.749,27.9112 80.5,24.5 Z"/></g>
<g><path style="opacity:0.998" fill="#fafafa" d="M 137.5,56.5 C 145.627,55.9661 150.627,59.6328 152.5,67.5C 150.144,77.8432 144.144,81.0099 134.5,77C 127.209,68.9164 128.209,62.0831 137.5,56.5 Z"/></g>
<g><path style="opacity:0.596" fill="#9c7d7d" d="M 91.5,57.5 C 89.652,61.8536 88.9853,66.5203 89.5,71.5C 88.5139,67.03 88.1805,62.3633 88.5,57.5C 89.5,57.5 90.5,57.5 91.5,57.5 Z"/></g>
<g><path style="opacity:1" fill="#fdfdfd" d="M 80.5,85.5 C 96.5584,86.3762 102.058,94.3762 97,109.5C 91.0509,116.724 83.8843,118.224 75.5,114C 68.1379,108.099 66.6379,100.932 71,92.5C 73.529,89.1151 76.6956,86.7818 80.5,85.5 Z"/></g>
<g><path style="opacity:1" fill="#fcfcfc" d="M 137.5,123.5 C 147.807,123.306 152.307,128.306 151,138.5C 146.733,145.876 140.899,147.376 133.5,143C 127.674,134.989 129.007,128.489 137.5,123.5 Z"/></g>
<g><path style="opacity:0.933" fill="#7e6668" d="M 77.5,130.5 C 79.4417,135.056 80.1083,140.056 79.5,145.5C 78.5,145.5 77.5,145.5 76.5,145.5C 78.7917,140.723 79.125,135.723 77.5,130.5 Z"/></g>
<g><path style="opacity:0.824" fill="#8a6c6c" d="M 90.5,130.5 C 88.875,135.723 89.2083,140.723 91.5,145.5C 90.5,145.5 89.5,145.5 88.5,145.5C 87.8917,140.056 88.5583,135.056 90.5,130.5 Z"/></g>
<g><path style="opacity:1" fill="#fcfbfb" d="M 80.5,156.5 C 91.3209,156.488 95.8209,161.822 94,172.5C 89.3128,178.935 83.4794,180.102 76.5,176C 70.6554,168.033 71.9887,161.533 80.5,156.5 Z"/></g>
</svg>
