<?xml version="1.0" encoding="UTF-8" standalone="no" ?>
<!DOCTYPE svg PUBLIC "-//W3C//DTD SVG 1.1//EN" "http://www.w3.org/Graphics/SVG/1.1/DTD/svg11.dtd">
<svg xmlns="http://www.w3.org/2000/svg" xmlns:xlink="http://www.w3.org/1999/xlink" version="1.1" width="256.9951191020232" height="193.9924610001974" viewBox="121.50244044898844 153.0037694999013 256.9951191020232 193.9924610001974" xml:space="preserve">
<desc>Created with Fabric.js 4.6.0</desc>
<defs>
</defs>
<g transform="matrix(1 0 0 1 250.42 249.85)" id="6KFQ7xAlQRVUjTEt-pgTp"  >
<path style="stroke: none; stroke-width: 1; stroke-dasharray: none; stroke-linecap: butt; stroke-dashoffset: 0; stroke-linejoin: miter; stroke-miterlimit: 4; fill: rgb(53,237,53); fill-rule: nonzero; opacity: 1;" vector-effect="non-scaling-stroke"  transform=" translate(-128.42, -96.35)" d="M 128.423484 127.761131 C 145.771669 127.761131 159.835329 113.697471 159.835329 96.3489441 C 159.835329 79.0007584 145.771669 64.9370988 128.423484 64.9370988 C 111.075298 64.9370988 97.0116385 79.0007584 97.0116385 96.3489441 C 97.0116385 113.697471 111.075298 127.761131 128.423484 127.761131 Z" stroke-linecap="round" />
</g>
<g transform="matrix(1 0 0 1 250 250)" id="3uBWBSDrsx_Og46xUun79"  >
<path style="stroke: none; stroke-width: 1; stroke-dasharray: none; stroke-linecap: butt; stroke-dashoffset: 0; stroke-linejoin: miter; stroke-miterlimit: 4; fill: rgb(53,237,53); fill-rule: nonzero; opacity: 1;" vector-effect="non-scaling-stroke"  transform=" translate(-128, -96.5)" d="M 119.418616 0.437715939 L 17.8534332 54.8850897 C 16.8063603 55.5131695 15.9687157 56.5603107 15.7593216 57.6074519 L 0.0533647992 127.760448 C -0.156046364 128.807589 0.262779378 129.64537 1.10042745 130.06409 L 133.867867 192.678421 C 134.915008 193.097141 136.171509 193.097141 137.42801 192.678421 L 222.239958 154.14663 C 223.496459 153.518209 224.334241 152.471409 224.5436 151.214908 L 255.955446 10.4894791 C 256.164806 9.44244036 255.536726 8.18600753 254.280225 7.97657929 C 254.070865 7.97657929 254.070865 7.97657929 253.861505 7.97657929 L 121.303197 0.228291114 C 120.884477 -0.190533945 120.046696 0.018891324 119.418616 0.437715939 Z M 134.915008 187.233696 L 13.8745699 130.27345 L 57.0136452 130.27345 L 158.159766 144.723042 L 134.915008 187.233696 Z M 163.604491 145.351122 L 213.444792 152.471409 L 141.825593 185.139755 L 163.604491 145.351122 Z M 61.2018685 125.666507 L 99.5242992 50.2778051 L 217.633015 36.6659941 L 160.882129 139.906398 L 61.2018685 125.666507 Z M 221.193158 31.221338 L 102.037301 45.0424406 L 122.350338 5.0447547 L 246.322498 12.3741966 L 221.193158 31.221338 Z M 96.1738572 45.6708619 L 31.255816 53.2095272 L 115.230393 8.39536747 L 96.1738572 45.6708619 Z M 20.3663672 59.4920329 L 93.451495 51.1155863 L 55.7571441 125.247787 L 5.70748329 125.247787 L 20.3663672 59.4920329 Z M 220.146017 148.492546 L 166.117493 140.744179 L 224.124881 35.4094929 L 249.673282 16.3530941 L 220.146017 148.492546 Z" stroke-linecap="round" />
</g>
</svg>