<?xml version="1.0" encoding="UTF-8"?>
<!DOCTYPE svg PUBLIC "-//W3C//DTD SVG 1.1//EN" "http://www.w3.org/Graphics/SVG/1.1/DTD/svg11.dtd">
<svg xmlns="http://www.w3.org/2000/svg" version="1.1" width="300px" height="300px" style="shape-rendering:geometricPrecision; text-rendering:geometricPrecision; image-rendering:optimizeQuality; fill-rule:evenodd; clip-rule:evenodd" xmlns:xlink="http://www.w3.org/1999/xlink">
<g><path style="opacity:1" fill="#e43925" d="M 150.5,101.5 C 156.125,112.295 163.459,121.795 172.5,130C 173.635,130.749 174.635,130.583 175.5,129.5C 177.163,126.344 178.33,123.011 179,119.5C 178.856,101.147 179.022,82.8136 179.5,64.5C 180.238,59.2603 183.238,56.0936 188.5,55C 197,54.4996 205.333,55.4996 213.5,58C 215.734,61.6355 217.568,65.4689 219,69.5C 220.557,76.5835 221.724,83.5835 222.5,90.5C 222.5,95.8333 222.5,101.167 222.5,106.5C 219.815,128.119 219.148,149.786 220.5,171.5C 221.333,179.488 221.499,187.488 221,195.5C 217.304,203.163 211.138,206.163 202.5,204.5C 179.489,204.574 164.656,193.574 158,171.5C 149.95,161.785 142.284,151.785 135,141.5C 130.614,136.611 125.78,132.278 120.5,128.5C 116.672,131.156 114.672,134.823 114.5,139.5C 113.665,151.005 113.499,162.672 114,174.5C 113.424,179.475 111.924,184.141 109.5,188.5C 112.24,192.6 112.907,196.933 111.5,201.5C 100.137,206.819 88.8036,206.652 77.5,201C 74.6662,198.269 73.6662,195.102 74.5,191.5C 71.6772,180.927 71.1772,170.26 73,159.5C 74.9327,155.302 77.5994,151.635 81,148.5C 83.9048,143.349 84.2381,138.015 82,132.5C 76.3186,123.317 72.4853,113.484 70.5,103C 71.1552,87.9342 72.8218,72.7675 75.5,57.5C 83.3041,57.3063 90.9708,56.1397 98.5,54C 103.5,53.3333 108.5,53.3333 113.5,54C 117.402,58.4131 119.736,63.5798 120.5,69.5C 132.976,77.9719 142.976,88.6386 150.5,101.5 Z"/></g>
<g><path style="opacity:0.69" fill="#dd9e95" d="M 223.5,90.5 C 223.167,90.5 222.833,90.5 222.5,90.5C 221.724,83.5835 220.557,76.5835 219,69.5C 217.568,65.4689 215.734,61.6355 213.5,58C 205.333,55.4996 197,54.4996 188.5,55C 183.238,56.0936 180.238,59.2603 179.5,64.5C 179.167,64.5 178.833,64.5 178.5,64.5C 178.516,58.2906 181.516,54.4573 187.5,53C 196.634,52.5765 205.634,53.5765 214.5,56C 221.162,66.4801 224.162,77.9801 223.5,90.5 Z"/></g>
<g><path style="opacity:0.424" fill="#dd9b92" d="M 222.5,90.5 C 222.833,90.5 223.167,90.5 223.5,90.5C 223.443,92.8845 223.777,95.2178 224.5,97.5C 223.888,106.316 223.221,114.982 222.5,123.5C 222.5,117.833 222.5,112.167 222.5,106.5C 222.5,101.167 222.5,95.8333 222.5,90.5 Z"/></g>
<g><path style="opacity:0.184" fill="#cc887e" d="M 178.5,64.5 C 178.833,64.5 179.167,64.5 179.5,64.5C 179.022,82.8136 178.856,101.147 179,119.5C 178.33,123.011 177.163,126.344 175.5,129.5C 174.635,130.583 173.635,130.749 172.5,130C 163.459,121.795 156.125,112.295 150.5,101.5C 151.167,101.833 151.833,102.167 152.5,102.5C 154.821,105.796 157.154,109.129 159.5,112.5C 159.427,114.027 160.094,115.027 161.5,115.5C 164.762,120.597 168.929,124.931 174,128.5C 175.399,125.637 176.399,122.637 177,119.5C 177.622,106.326 177.455,93.1591 176.5,80C 176.379,74.5893 177.046,69.4226 178.5,64.5 Z"/></g>
<g><path style="opacity:0.059" fill="#e4dcd3" d="M 159.5,112.5 C 160.906,112.973 161.573,113.973 161.5,115.5C 160.094,115.027 159.427,114.027 159.5,112.5 Z"/></g>
<g><path style="opacity:0.604" fill="#d7968d" d="M 152.5,102.5 C 151.833,102.167 151.167,101.833 150.5,101.5C 142.976,88.6386 132.976,77.9719 120.5,69.5C 119.736,63.5798 117.402,58.4131 113.5,54C 108.5,53.3333 103.5,53.3333 98.5,54C 90.9708,56.1397 83.3041,57.3063 75.5,57.5C 72.8218,72.7675 71.1552,87.9342 70.5,103C 72.4853,113.484 76.3186,123.317 82,132.5C 84.2381,138.015 83.9048,143.349 81,148.5C 77.5994,151.635 74.9327,155.302 73,159.5C 71.1772,170.26 71.6772,180.927 74.5,191.5C 73.6662,195.102 74.6662,198.269 77.5,201C 88.8036,206.652 100.137,206.819 111.5,201.5C 113.369,199.365 114.036,196.698 113.5,193.5C 114.803,196.355 114.803,199.355 113.5,202.5C 104.379,207.589 94.7127,208.755 84.5,206C 80.1308,204.733 76.2975,202.567 73,199.5C 71.7863,189.838 70.6196,180.171 69.5,170.5C 69.1014,160.718 72.6014,152.718 80,146.5C 81.9094,141.85 81.9094,137.184 80,132.5C 69.9676,117.608 66.6343,101.274 70,83.5C 70.9607,74.7753 72.294,66.1086 74,57.5C 82.2974,55.4382 90.7974,53.6049 99.5,52C 104.707,51.2414 109.874,51.4081 115,52.5C 119.312,56.9151 121.812,62.2484 122.5,68.5C 135.749,77.0751 145.749,88.4084 152.5,102.5 Z"/></g>
<g><path style="opacity:0.627" fill="#cf8f86" d="M 220.5,171.5 C 220.833,171.5 221.167,171.5 221.5,171.5C 230.233,198.917 220.566,210.417 192.5,206C 181.4,204.227 172.233,199.06 165,190.5C 162.185,184.377 159.185,178.377 156,172.5C 148.283,163.117 140.949,153.451 134,143.5C 129.667,139.167 125.333,134.833 121,130.5C 118.558,133.048 116.892,136.048 116,139.5C 115.5,146.826 115.334,154.159 115.5,161.5C 114.508,154.352 114.175,147.019 114.5,139.5C 114.672,134.823 116.672,131.156 120.5,128.5C 125.78,132.278 130.614,136.611 135,141.5C 142.284,151.785 149.95,161.785 158,171.5C 164.656,193.574 179.489,204.574 202.5,204.5C 211.138,206.163 217.304,203.163 221,195.5C 221.499,187.488 221.333,179.488 220.5,171.5 Z"/></g>
<g><path style="opacity:0.478" fill="#fefffe" d="M -0.5,154.5 C 0.495477,167.323 0.82881,180.323 0.5,193.5C 4.84611,193.334 9.17944,193.501 13.5,194C 8.8452,194.499 4.17853,194.666 -0.5,194.5C -0.5,181.167 -0.5,167.833 -0.5,154.5 Z"/></g>
<g><path style="opacity:0.584" fill="#d9958b" d="M 222.5,106.5 C 222.5,112.167 222.5,117.833 222.5,123.5C 222.222,136.078 221.555,148.578 220.5,161C 221.456,164.394 221.789,167.894 221.5,171.5C 221.167,171.5 220.833,171.5 220.5,171.5C 219.148,149.786 219.815,128.119 222.5,106.5 Z"/></g>
<g><path style="opacity:0.678" fill="#cc8076" d="M 114.5,139.5 C 114.175,147.019 114.508,154.352 115.5,161.5C 117.145,170.985 115.812,179.985 111.5,188.5C 112.456,190.075 113.123,191.742 113.5,193.5C 114.036,196.698 113.369,199.365 111.5,201.5C 112.907,196.933 112.24,192.6 109.5,188.5C 111.924,184.141 113.424,179.475 114,174.5C 113.499,162.672 113.665,151.005 114.5,139.5 Z"/></g>
<g><path style="opacity:1" fill="#e43925" d="M 190.5,246.5 C 167.183,242.179 143.85,241.846 120.5,245.5C 110.915,245.16 101.249,245.494 91.5,246.5C 84.3469,245.462 77.0136,244.796 69.5,244.5C 62.93,240.226 62.93,235.892 69.5,231.5C 76.3134,228.635 83.4801,226.968 91,226.5C 103.122,227.673 115.288,228.34 127.5,228.5C 135.068,228.71 142.401,228.044 149.5,226.5C 171.1,224.295 192.434,225.795 213.5,231C 220.875,233.283 222.208,237.283 217.5,243C 214.754,244.75 211.754,245.75 208.5,246C 202.509,246.499 196.509,246.666 190.5,246.5 Z"/></g>
<g><path style="opacity:0.659" fill="#c88379" d="M 190.5,247.5 C 190.5,247.167 190.5,246.833 190.5,246.5C 196.509,246.666 202.509,246.499 208.5,246C 211.754,245.75 214.754,244.75 217.5,243C 222.208,237.283 220.875,233.283 213.5,231C 192.434,225.795 171.1,224.295 149.5,226.5C 147.5,226.5 145.5,226.5 143.5,226.5C 146.942,225.252 150.608,224.419 154.5,224C 175.53,222.518 196.197,224.518 216.5,230C 223.62,234.173 224.287,239.173 218.5,245C 209.365,248.403 200.032,249.237 190.5,247.5 Z"/></g>
<g><path style="opacity:0.682" fill="#bc7166" d="M 143.5,226.5 C 145.5,226.5 147.5,226.5 149.5,226.5C 142.401,228.044 135.068,228.71 127.5,228.5C 115.288,228.34 103.122,227.673 91,226.5C 83.4801,226.968 76.3134,228.635 69.5,231.5C 69.8333,230.833 70.1667,230.167 70.5,229.5C 73.135,227.672 76.135,226.505 79.5,226C 100.831,225.874 122.165,226.04 143.5,226.5 Z"/></g>
<g><path style="opacity:0.255" fill="#d89d94" d="M 70.5,229.5 C 70.1667,230.167 69.8333,230.833 69.5,231.5C 62.93,235.892 62.93,240.226 69.5,244.5C 71.8333,245.167 74.1667,245.833 76.5,246.5C 71.3226,247.297 66.8226,245.964 63,242.5C 61.3879,235.718 63.8879,231.385 70.5,229.5 Z"/></g>
<g><path style="opacity:0.616" fill="#d78e84" d="M 190.5,246.5 C 190.5,246.833 190.5,247.167 190.5,247.5C 178.828,246.583 167.162,245.583 155.5,244.5C 146.841,245.083 138.174,245.416 129.5,245.5C 126.5,245.5 123.5,245.5 120.5,245.5C 143.85,241.846 167.183,242.179 190.5,246.5 Z"/></g>
<g><path style="opacity:0.882" fill="#d7766a" d="M 69.5,244.5 C 77.0136,244.796 84.3469,245.462 91.5,246.5C 87.1667,246.5 82.8333,246.5 78.5,246.5C 77.8333,246.5 77.1667,246.5 76.5,246.5C 74.1667,245.833 71.8333,245.167 69.5,244.5 Z"/></g>
<g><path style="opacity:0.38" fill="#e4ada5" d="M 120.5,245.5 C 123.5,245.5 126.5,245.5 129.5,245.5C 112.525,247.528 95.5248,247.861 78.5,246.5C 82.8333,246.5 87.1667,246.5 91.5,246.5C 101.249,245.494 110.915,245.16 120.5,245.5 Z"/></g>
</svg>
