<?xml version="1.0" encoding="UTF-8"?>
<!DOCTYPE svg PUBLIC "-//W3C//DTD SVG 1.1//EN" "http://www.w3.org/Graphics/SVG/1.1/DTD/svg11.dtd">
<svg xmlns="http://www.w3.org/2000/svg" version="1.1" width="300px" height="300px" style="shape-rendering:geometricPrecision; text-rendering:geometricPrecision; image-rendering:optimizeQuality; fill-rule:evenodd; clip-rule:evenodd" xmlns:xlink="http://www.w3.org/1999/xlink">
<g><path style="opacity:0.6" fill="#cc7e73" d="M 102.5,51.5 C 107.569,50.9093 112.236,51.9093 116.5,54.5C 119.255,59.1723 121.255,64.1723 122.5,69.5C 129.404,73.8991 135.571,79.2324 141,85.5C 147.06,93.8965 152.727,102.563 158,111.5C 162.591,118.095 167.924,124.095 174,129.5C 175.197,126.911 176.197,124.244 177,121.5C 177.343,105.159 177.343,88.8254 177,72.5C 177.314,67.2263 178.647,62.2263 181,57.5C 184.615,54.1087 188.948,52.7753 194,53.5C 201.297,53.5482 208.297,54.8816 215,57.5C 219.682,65.8931 222.349,74.8931 223,84.5C 223.343,108.865 222.509,133.199 220.5,157.5C 220.983,167.713 221.983,177.88 223.5,188C 222.918,201.414 215.918,207.581 202.5,206.5C 180.238,206.061 165.405,195.394 158,174.5C 150.948,165.782 144.281,156.782 138,147.5C 132.988,141.154 127.321,135.488 121,130.5C 119.013,131.154 117.68,132.487 117,134.5C 115.75,139.083 114.916,143.749 114.5,148.5C 115.563,158.483 115.73,168.483 115,178.5C 114.116,181.935 112.949,185.268 111.5,188.5C 113.64,192.695 114.307,197.028 113.5,201.5C 108.356,205.491 102.523,207.158 96,206.5C 87.6713,207.088 80.338,204.755 74,199.5C 71.123,187.348 70.123,175.015 71,162.5C 72.3348,156.499 75.3348,151.499 80,147.5C 83.1304,142.229 83.1304,136.895 80,131.5C 75.276,123.719 71.9427,115.386 70,106.5C 69.4095,89.6473 70.9095,72.9807 74.5,56.5C 84.1386,55.8364 93.4719,54.1697 102.5,51.5 Z"/></g>
<g><path style="opacity:1" fill="#e43925" d="M 98.5,53.5 C 103.511,53.3341 108.511,53.5007 113.5,54C 117.402,58.4131 119.736,63.5798 120.5,69.5C 127.739,74.2342 134.239,79.9008 140,86.5C 148.722,100.554 158.222,114.054 168.5,127C 170.344,128.182 172.177,129.349 174,130.5C 176.809,127.428 178.476,123.761 179,119.5C 179.143,102.83 179.143,86.1638 179,69.5C 178.68,59.3213 183.514,54.3213 193.5,54.5C 200.563,54.8642 207.397,56.1975 214,58.5C 220.086,71.0925 222.919,84.4258 222.5,98.5C 221.286,117.324 220.286,136.157 219.5,155C 219.491,165.878 220.158,176.711 221.5,187.5C 222.581,195.862 219.247,201.362 211.5,204C 184.613,207.816 166.78,196.982 158,171.5C 151.424,163.346 145.091,155.013 139,146.5C 133.648,139.647 127.481,133.647 120.5,128.5C 116.806,131.216 114.639,134.883 114,139.5C 113.682,151.177 113.682,162.843 114,174.5C 113.424,179.475 111.924,184.141 109.5,188.5C 111.865,192.213 112.698,196.213 112,200.5C 107.247,203.858 101.913,205.524 96,205.5C 88.0146,205.902 81.0146,203.568 75,198.5C 73.1255,187.783 72.1255,176.783 72,165.5C 72.6279,158.577 75.6279,152.911 81,148.5C 83.9048,143.349 84.2381,138.015 82,132.5C 76.3186,123.317 72.4853,113.484 70.5,103C 71.1552,87.9342 72.8218,72.7675 75.5,57.5C 83.506,57.4292 91.1727,56.0959 98.5,53.5 Z"/></g>
<g><path style="opacity:1" fill="#e43925" d="M 220.5,235.5 C 221.041,238.652 220.041,241.152 217.5,243C 211.839,245.765 205.839,246.932 199.5,246.5C 187.393,245.956 175.393,244.623 163.5,242.5C 140.608,243.36 117.441,244.693 94,246.5C 85.8301,245.738 77.6635,244.904 69.5,244C 68.3349,242.916 67.0016,242.083 65.5,241.5C 64.6143,240.675 64.281,239.675 64.5,238.5C 64.3505,237.448 64.5172,236.448 65,235.5C 67.2336,233.3 69.7336,231.467 72.5,230C 78.5722,228.325 84.7389,227.159 91,226.5C 103.122,227.673 115.288,228.34 127.5,228.5C 136.61,228.768 145.61,227.935 154.5,226C 173.36,224.684 192.026,226.018 210.5,230C 214.311,231.07 217.644,232.903 220.5,235.5 Z"/></g>
<g><path style="opacity:0.682" fill="#bb6c61" d="M 221.5,235.5 C 221.167,235.5 220.833,235.5 220.5,235.5C 217.644,232.903 214.311,231.07 210.5,230C 192.026,226.018 173.36,224.684 154.5,226C 145.61,227.935 136.61,228.768 127.5,228.5C 115.288,228.34 103.122,227.673 91,226.5C 84.7389,227.159 78.5722,228.325 72.5,230C 69.7336,231.467 67.2336,233.3 65,235.5C 64.5172,236.448 64.3505,237.448 64.5,238.5C 64.1667,238.5 63.8333,238.5 63.5,238.5C 63.0807,235.675 64.0807,233.509 66.5,232C 71.0788,229.027 76.0788,227.027 81.5,226C 102.83,226.18 124.164,226.18 145.5,226C 169.094,222.462 192.428,223.795 215.5,230C 217.996,231.331 219.996,233.164 221.5,235.5 Z"/></g>
<g><path style="opacity:0.549" fill="#d5847a" d="M 220.5,235.5 C 220.833,235.5 221.167,235.5 221.5,235.5C 221.874,241.995 218.54,245.828 211.5,247C 207.167,247.167 202.833,247.333 198.5,247.5C 183.503,246.417 168.503,245.417 153.5,244.5C 130.844,245.933 108.177,246.766 85.5,247C 77.8407,247.372 70.674,245.872 64,242.5C 63.51,241.207 63.3433,239.873 63.5,238.5C 63.8333,238.5 64.1667,238.5 64.5,238.5C 64.281,239.675 64.6143,240.675 65.5,241.5C 67.0016,242.083 68.3349,242.916 69.5,244C 77.6635,244.904 85.8301,245.738 94,246.5C 117.441,244.693 140.608,243.36 163.5,242.5C 175.393,244.623 187.393,245.956 199.5,246.5C 205.839,246.932 211.839,245.765 217.5,243C 220.041,241.152 221.041,238.652 220.5,235.5 Z"/></g>
</svg>
