<?xml version="1.0" encoding="UTF-8" standalone="no" ?>
<!DOCTYPE svg PUBLIC "-//W3C//DTD SVG 1.1//EN" "http://www.w3.org/Graphics/SVG/1.1/DTD/svg11.dtd">
<svg xmlns="http://www.w3.org/2000/svg" xmlns:xlink="http://www.w3.org/1999/xlink" version="1.1" width="129.85119736283602" height="159.93013671803703" viewBox="0.3778040141676797 0.3778040141676797 129.85119736283602 159.93013671803703" xml:space="preserve">
<desc>Created with Fabric.js 4.6.0</desc>
<defs>
</defs>
<g transform="matrix(2.48 0 0 2.48 65.3 80.34)" id="JpxZfmETdeGgI0Ko3Fh04"  >
<path style="stroke: none; stroke-width: 1; stroke-dasharray: none; stroke-linecap: round; stroke-dashoffset: 0; stroke-linejoin: round; stroke-miterlimit: 4; fill: rgb(247,47,58); fill-rule: nonzero; opacity: 1;" vector-effect="non-scaling-stroke"  transform=" translate(-25.94, -32)" d="M 0 60.898 C 1.57199130459633 58.24404110153679 4.638995249921711 56.8603100217577 7.668999999999997 57.438 C 14.658 58.2 21.712 58.158 28.692 57.312000000000005 C 30.985438644012678 57.01087865918205 33.30721399843209 56.993078269512694 35.60499999999998 57.259 C 39.17100000000001 57.666000000000004 42.765 57.836000000000006 46.348000000000006 58.141000000000005 C 47.455389904754185 58.2194861641868 48.556019814514684 58.37452328565883 49.642 58.605000000000004 C 50.61 58.745000000000005 51.387 59.475 51.59 60.431000000000004 C 51.819411334919124 61.485493196878224 51.27811654142602 62.55639715994939 50.293000000000006 62.99700000000001 C 49.34674598395004 63.54045151868397 48.28329998950258 63.84747866869381 47.193000000000005 63.89200000000001 C 43.343 63.80700000000001 39.496 63.42000000000001 35.645 63.35200000000001 C 32.31328965041144 63.25392269616465 28.97869517356989 63.34908234629982 25.657999999999912 63.63700000000002 C 21.062 64.09400000000001 16.434 64.123 11.833000000000002 63.72200000000001 C 9.283000000000001 63.49800000000001 6.701000000000002 63.64200000000001 4.136000000000002 63.59600000000001 C 2.563000000000002 63.811000000000014 0.994000000000002 63.17600000000001 0.013000000000001677 61.92900000000001 z M 51.483 15.295000000000002 L 51.864999999999995 24.033 C 51.928 25.918000000000003 51.867999999999995 27.804000000000002 51.684999999999995 29.681 C 51.12899284675124 33.59200435613005 51.12899284675123 37.56199564386996 51.684999999999995 41.473 C 51.925 43.168 51.87199999999999 44.891 51.529999999999994 46.568 C 51.364 49.047999999999995 49.169999999999995 50.893 46.699999999999996 50.634 C 43.88099999999999 50.48 41.081999999999994 50.071 38.336 49.414 C 36.336 48.797000000000004 34.632 47.471000000000004 33.542 45.684000000000005 C 32.412 44.069 31.372 42.392 30.427 40.662000000000006 C 28.801953427894475 37.63397026778528 26.800399684479856 34.82366381992229 24.469999999999995 32.298 C 23.105999999999998 30.654000000000003 21.869 28.909000000000002 20.77 27.077 C 20.53 26.622000000000003 20.27 26.184 19.957 25.777 C 19.087 24.622 17.271 24.977 16.883000000000003 26.357 C 16.663663258222115 27.012094221345013 16.555173535479774 27.699195798713177 16.562 28.39 L 16.335 40.2 C 16.306856501788065 40.885046237359795 16.15684422668587 41.55959353307894 15.892000000000003 42.192 C 15.072785623752598 43.72284417113757 15.028994006205817 45.551700876820036 15.774000000000001 47.12 C 16.05784268843237 47.67943218830595 16.059786799136006 48.3402777272104 15.779240530192967 48.90137026509648 C 15.498694261249927 49.46246280298256 14.968851363704186 49.85741483776232 14.350999999999999 49.965999999999994 C 11.431000000000001 51.08599999999999 8.181000000000001 50.995999999999995 5.328000000000001 49.71399999999999 C 3.774000000000001 49.081999999999994 2.768000000000001 47.56099999999999 2.7950000000000013 45.88399999999999 C 2.7580000000000013 43.038 2.6490000000000014 40.21999999999999 2.490000000000001 37.38399999999999 C 2.304906430114701 35.621103304039266 2.9761192786839645 33.87632176083318 4.295 32.69199999999999 C 4.860826203354497 32.16729525417681 5.344564151992665 31.5605159457805 5.73 30.891999999999992 C 6.603127384562551 29.651182601048273 6.548454276964005 27.982020786229988 5.595999999999999 26.80099999999999 C 3.0229878595394095 23.411427876706007 1.8985256852560912 19.140125764094154 2.469000000000001 14.922999999999996 C 2.6690000000000005 12.108999999999991 2.607 9.274999999999991 2.6690000000000005 6.4529999999999905 C 2.6690000000000005 5.76599999999999 2.6240000000000006 5.07499999999999 2.6890000000000005 4.394999999999991 C 2.3530000000000006 2.5199999999999907 4.139 0.9479999999999906 5.969 1.5219999999999905 C 8.115273577306366 1.5146546029318042 10.242400666086063 1.117893561045696 12.247000000000003 0.35100000000000176 C 14.327 -0.609 16.779 0.481 17.46 2.669 C 17.785 3.3689999999999998 18.033 4.099 18.322 4.816 C 18.73284699026922 6.061260979473089 19.689446979446284 7.050999536404557 20.919999999999998 7.504 C 22.208250149196424 8.012496967792963 23.287149996623484 8.940942786855768 23.981999999999996 10.138999999999996 L 32.054 21.769 C 32.87995706297776 22.973393006556726 33.83421315770603 24.084568234219944 34.9 25.083 C 36.050000000000004 26.128 37.00600000000001 25.802999999999997 37.193000000000005 24.217 C 37.552214906401865 21.759395334032263 37.666775710065615 19.272219991332307 37.535000000000004 16.79200000000001 C 37.31128429192456 12.944290836849834 37.354721865057755 9.085697801910783 37.66500000000001 5.243999999999996 C 37.13300000000001 2.423999999999998 39.75800000000001 0.04399999999999782 42.51500000000001 0.8239999999999981 L 45.361000000000004 0.9869999999999981 C 48.15134114839562 0.8275762258057384 50.61608078401717 2.789896445746872 51.086000000000006 5.544999999999998 C 51.379178212716646 6.620426912387279 51.55091654367326 7.725321565065168 51.598000000000006 8.838999999999997 C 51.675000000000004 10.982 51.62200000000001 13.139 51.62200000000001 15.276 z" stroke-linecap="round" />
</g>
</svg>