<?xml version="1.0" encoding="UTF-8"?>
<!DOCTYPE svg PUBLIC "-//W3C//DTD SVG 1.1//EN" "http://www.w3.org/Graphics/SVG/1.1/DTD/svg11.dtd">
<svg xmlns="http://www.w3.org/2000/svg" version="1.1" width="300px" height="300px" style="shape-rendering:geometricPrecision; text-rendering:geometricPrecision; image-rendering:optimizeQuality; fill-rule:evenodd; clip-rule:evenodd" xmlns:xlink="http://www.w3.org/1999/xlink">
<g><path style="opacity:1" fill="#ec6554" d="M 141.5,86.5 C 141.956,89.7626 143.623,92.0959 146.5,93.5C 147.15,97.1397 148.65,100.473 151,103.5C 154.74,107.311 157.74,111.644 160,116.5C 161.113,117.305 162.279,117.972 163.5,118.5C 163.238,119.978 163.571,121.311 164.5,122.5C 167.167,124.5 169.5,126.833 171.5,129.5C 174.129,131.05 175.963,130.384 177,127.5C 178.979,120.149 179.813,112.649 179.5,105C 179.494,99.7843 178.827,94.951 177.5,90.5C 176.167,83.5 176.167,76.5 177.5,69.5C 179.376,64.4306 181.709,59.4306 184.5,54.5C 195.058,54.2047 205.392,55.538 215.5,58.5C 214.916,61.285 215.916,62.9517 218.5,63.5C 218.5,63.8333 218.5,64.1667 218.5,64.5C 218.739,69.7693 219.739,74.7693 221.5,79.5C 221.695,105.716 220.695,131.882 218.5,158C 218.667,161.5 218.833,165 219,168.5C 219.232,169.737 219.732,170.737 220.5,171.5C 220.502,177.018 220.835,182.518 221.5,188C 221.387,191.947 220.72,195.781 219.5,199.5C 217.48,201.853 215.146,203.853 212.5,205.5C 205.734,206.809 199.068,206.809 192.5,205.5C 187.579,202.595 182.246,200.595 176.5,199.5C 175.292,196.956 173.292,195.622 170.5,195.5C 170.167,193.167 168.833,191.833 166.5,191.5C 166.912,189.027 165.912,187.694 163.5,187.5C 163.5,187.167 163.5,186.833 163.5,186.5C 163.536,183.539 162.536,181.206 160.5,179.5C 158.917,177.337 157.584,175.004 156.5,172.5C 155.638,169.115 153.972,166.115 151.5,163.5C 150.423,162.295 149.09,161.628 147.5,161.5C 145.784,154.88 142.117,149.88 136.5,146.5C 136.631,143.633 135.297,141.967 132.5,141.5C 131.096,135.43 127.43,131.763 121.5,130.5C 121.103,129.475 120.437,129.308 119.5,130C 116.865,131.961 115.031,134.461 114,137.5C 113.667,151.833 113.333,166.167 113,180.5C 111.798,182.677 111.298,185.011 111.5,187.5C 110.353,190.289 110.853,192.956 113,195.5C 113.667,197.167 113.667,198.833 113,200.5C 110.606,202.086 108.439,203.752 106.5,205.5C 96.6594,205.948 86.9927,204.948 77.5,202.5C 76.9181,201.069 76.0848,199.736 75,198.5C 74.2134,192.16 73.3801,185.827 72.5,179.5C 72.4146,177.667 71.7479,176.334 70.5,175.5C 70.5,174.833 70.5,174.167 70.5,173.5C 71.5553,168.179 72.722,162.846 74,157.5C 77.0887,153.646 79.922,149.646 82.5,145.5C 83.8086,144.376 84.4753,142.876 84.5,141C 84.0788,138.815 83.5788,136.649 83,134.5C 78.5088,126.519 74.8422,118.185 72,109.5C 71.4846,99.1566 71.6512,88.8233 72.5,78.5C 72.5,75.1667 72.5,71.8333 72.5,68.5C 74.4964,65.3257 75.8298,61.8257 76.5,58C 84.2616,57.2064 91.9283,55.8731 99.5,54C 103.833,53.3333 108.167,53.3333 112.5,54C 113.931,54.4652 115.097,55.2986 116,56.5C 118.259,60.6115 119.926,64.9448 121,69.5C 128.582,74.247 135.415,79.9137 141.5,86.5 Z"/></g>
<g><path style="opacity:0.569" fill="#dea299" d="M 215.5,58.5 C 205.392,55.538 195.058,54.2047 184.5,54.5C 185.263,53.7321 186.263,53.2321 187.5,53C 196.634,52.5765 205.634,53.5765 214.5,56C 215.252,56.6708 215.586,57.5041 215.5,58.5 Z"/></g>
<g><path style="opacity:0.604" fill="#d9978d" d="M 141.5,86.5 C 135.415,79.9137 128.582,74.247 121,69.5C 119.926,64.9448 118.259,60.6115 116,56.5C 115.097,55.2986 113.931,54.4652 112.5,54C 108.167,53.3333 103.833,53.3333 99.5,54C 91.9283,55.8731 84.2616,57.2064 76.5,58C 75.8298,61.8257 74.4964,65.3257 72.5,68.5C 72.735,64.4233 73.4017,60.4233 74.5,56.5C 82.8865,55.3228 91.2199,53.8228 99.5,52C 104.167,51.3333 108.833,51.3333 113.5,52C 115.521,52.513 117.021,53.6797 118,55.5C 120.199,59.5978 121.699,63.9312 122.5,68.5C 130.163,73.1649 136.496,79.1649 141.5,86.5 Z"/></g>
<g><path style="opacity:0.735" fill="#cb8177" d="M 184.5,54.5 C 181.709,59.4306 179.376,64.4306 177.5,69.5C 177.573,64.8729 178.74,60.5396 181,56.5C 181.816,55.1772 182.983,54.5106 184.5,54.5 Z"/></g>
<g><path style="opacity:0.631" fill="#dfa9a1" d="M 215.5,58.5 C 217.25,59.6594 218.25,61.326 218.5,63.5C 215.916,62.9517 214.916,61.285 215.5,58.5 Z"/></g>
<g><path style="opacity:0.529" fill="#de978d" d="M 218.5,64.5 C 221.216,69.023 222.549,74.023 222.5,79.5C 222.167,79.5 221.833,79.5 221.5,79.5C 219.739,74.7693 218.739,69.7693 218.5,64.5 Z"/></g>
<g><path style="opacity:0.647" fill="#d6978e" d="M 72.5,68.5 C 72.5,71.8333 72.5,75.1667 72.5,78.5C 71.8333,79.8333 71.1667,81.1667 70.5,82.5C 70.5319,77.6093 71.1985,72.9426 72.5,68.5 Z"/></g>
<g><path style="opacity:0.651" fill="#cf9188" d="M 141.5,86.5 C 143.9,88.2964 145.567,90.6298 146.5,93.5C 143.623,92.0959 141.956,89.7626 141.5,86.5 Z"/></g>
<g><path style="opacity:0.898" fill="#d58479" d="M 72.5,78.5 C 71.6512,88.8233 71.4846,99.1566 72,109.5C 74.8422,118.185 78.5088,126.519 83,134.5C 83.5788,136.649 84.0788,138.815 84.5,141C 84.4753,142.876 83.8086,144.376 82.5,145.5C 82.665,142.15 82.4983,138.817 82,135.5C 81.7216,134.584 81.2216,133.918 80.5,133.5C 77.9751,129.783 75.9751,125.783 74.5,121.5C 74.7709,119.62 74.1042,118.287 72.5,117.5C 71.3756,114.958 70.5423,112.292 70,109.5C 69.1965,100.422 69.3631,91.4221 70.5,82.5C 71.1667,81.1667 71.8333,79.8333 72.5,78.5 Z"/></g>
<g><path style="opacity:0.667" fill="#cb8278" d="M 177.5,90.5 C 178.827,94.951 179.494,99.7843 179.5,105C 179.813,112.649 178.979,120.149 177,127.5C 175.963,130.384 174.129,131.05 171.5,129.5C 169.5,126.833 167.167,124.5 164.5,122.5C 163.571,121.311 163.238,119.978 163.5,118.5C 166.472,122.304 169.972,125.637 174,128.5C 175.399,125.637 176.399,122.637 177,119.5C 177.5,109.839 177.666,100.172 177.5,90.5 Z"/></g>
<g><path style="opacity:0.6" fill="#d5978e" d="M 146.5,93.5 C 152.411,101.652 158.078,109.985 163.5,118.5C 162.279,117.972 161.113,117.305 160,116.5C 157.74,111.644 154.74,107.311 151,103.5C 148.65,100.473 147.15,97.1397 146.5,93.5 Z"/></g>
<g><path style="opacity:1" fill="#de9085" d="M 221.5,79.5 C 221.833,79.5 222.167,79.5 222.5,79.5C 223.21,85.4482 223.876,91.4482 224.5,97.5C 223.281,118.721 221.948,139.888 220.5,161C 221.456,164.394 221.789,167.894 221.5,171.5C 221.167,171.5 220.833,171.5 220.5,171.5C 219.732,170.737 219.232,169.737 219,168.5C 218.833,165 218.667,161.5 218.5,158C 220.695,131.882 221.695,105.716 221.5,79.5 Z"/></g>
<g><path style="opacity:0.141" fill="#dbc7c6" d="M 72.5,117.5 C 74.1042,118.287 74.7709,119.62 74.5,121.5C 73.3263,120.486 72.6596,119.153 72.5,117.5 Z"/></g>
<g><path style="opacity:0.961" fill="#d28f84" d="M 121.5,130.5 C 127.43,131.763 131.096,135.43 132.5,141.5C 128.5,138.167 124.833,134.5 121.5,130.5 Z"/></g>
<g><path style="opacity:0.192" fill="#ce9a94" d="M 132.5,141.5 C 135.297,141.967 136.631,143.633 136.5,146.5C 134.937,145.055 133.604,143.389 132.5,141.5 Z"/></g>
<g><path style="opacity:0.929" fill="#cb857b" d="M 136.5,146.5 C 142.117,149.88 145.784,154.88 147.5,161.5C 144.09,156.36 140.423,151.36 136.5,146.5 Z"/></g>
<g><path style="opacity:0.933" fill="#de9e95" d="M 80.5,133.5 C 81.2216,133.918 81.7216,134.584 82,135.5C 82.4983,138.817 82.665,142.15 82.5,145.5C 79.922,149.646 77.0887,153.646 74,157.5C 72.722,162.846 71.5553,168.179 70.5,173.5C 69.785,167.928 70.285,162.261 72,156.5C 75.0297,152.146 78.0297,147.812 81,143.5C 81.5428,140.132 81.3761,136.799 80.5,133.5 Z"/></g>
<g><path style="opacity:0.478" fill="#fefffe" d="M -0.5,154.5 C 0.495477,167.323 0.82881,180.323 0.5,193.5C 4.84611,193.334 9.17944,193.501 13.5,194C 8.8452,194.499 4.17853,194.666 -0.5,194.5C -0.5,181.167 -0.5,167.833 -0.5,154.5 Z"/></g>
<g><path style="opacity:0.753" fill="#cc8d84" d="M 147.5,161.5 C 149.09,161.628 150.423,162.295 151.5,163.5C 153.972,166.115 155.638,169.115 156.5,172.5C 153.152,169.149 150.152,165.482 147.5,161.5 Z"/></g>
<g><path style="opacity:0.996" fill="#ce7e72" d="M 121.5,130.5 C 118.676,132.8 116.843,135.8 116,139.5C 115.287,149.349 115.454,159.182 116.5,169C 116.039,174.23 115.205,179.397 114,184.5C 113.148,185.571 112.315,186.571 111.5,187.5C 111.298,185.011 111.798,182.677 113,180.5C 113.333,166.167 113.667,151.833 114,137.5C 115.031,134.461 116.865,131.961 119.5,130C 120.437,129.308 121.103,129.475 121.5,130.5 Z"/></g>
<g><path style="opacity:0.671" fill="#d89187" d="M 70.5,175.5 C 71.7479,176.334 72.4146,177.667 72.5,179.5C 73.3801,185.827 74.2134,192.16 75,198.5C 76.0848,199.736 76.9181,201.069 77.5,202.5C 75.629,202.141 74.129,201.141 73,199.5C 71.9307,191.517 71.0974,183.517 70.5,175.5 Z"/></g>
<g><path style="opacity:0.851" fill="#cb9189" d="M 160.5,179.5 C 162.536,181.206 163.536,183.539 163.5,186.5C 161.707,184.574 160.707,182.241 160.5,179.5 Z"/></g>
<g><path style="opacity:0.408" fill="#c79c96" d="M 163.5,187.5 C 165.912,187.694 166.912,189.027 166.5,191.5C 165.026,190.564 164.026,189.23 163.5,187.5 Z"/></g>
<g><path style="opacity:0.8" fill="#db9086" d="M 220.5,171.5 C 220.833,171.5 221.167,171.5 221.5,171.5C 224.025,180.629 224.025,189.629 221.5,198.5C 220.833,198.833 220.167,199.167 219.5,199.5C 220.72,195.781 221.387,191.947 221.5,188C 220.835,182.518 220.502,177.018 220.5,171.5 Z"/></g>
<g><path style="opacity:0.427" fill="#c69993" d="M 166.5,191.5 C 168.833,191.833 170.167,193.167 170.5,195.5C 168.833,194.5 167.5,193.167 166.5,191.5 Z"/></g>
<g><path style="opacity:0.251" fill="#c9958d" d="M 111.5,187.5 C 112.045,189.593 112.878,191.593 114,193.5C 116.077,200.572 113.577,204.572 106.5,205.5C 108.439,203.752 110.606,202.086 113,200.5C 113.667,198.833 113.667,197.167 113,195.5C 110.853,192.956 110.353,190.289 111.5,187.5 Z"/></g>
<g><path style="opacity:0.224" fill="#c8958d" d="M 170.5,195.5 C 173.292,195.622 175.292,196.956 176.5,199.5C 174.147,198.66 172.147,197.326 170.5,195.5 Z"/></g>
<g><path style="opacity:0.408" fill="#dfb0aa" d="M 221.5,198.5 C 219.938,202.733 216.938,205.067 212.5,205.5C 215.146,203.853 217.48,201.853 219.5,199.5C 220.167,199.167 220.833,198.833 221.5,198.5 Z"/></g>
<g><path style="opacity:0.596" fill="#d29289" d="M 176.5,199.5 C 182.246,200.595 187.579,202.595 192.5,205.5C 186.454,205.133 181.12,203.133 176.5,199.5 Z"/></g>
<g><path style="opacity:0.573" fill="#d39991" d="M 77.5,202.5 C 86.9927,204.948 96.6594,205.948 106.5,205.5C 98.266,208.111 89.9326,207.944 81.5,205C 79.9336,204.392 78.6002,203.558 77.5,202.5 Z"/></g>
<g><path style="opacity:1" fill="#eb6857" d="M 90.5,225.5 C 90.8333,225.5 91.1667,225.5 91.5,225.5C 94.0866,226.816 97.0866,227.483 100.5,227.5C 103.917,227.461 107.25,227.127 110.5,226.5C 110.833,226.5 111.167,226.5 111.5,226.5C 116.456,227.828 121.789,228.495 127.5,228.5C 141.673,227.666 155.84,226.666 170,225.5C 181.254,225.69 192.42,226.69 203.5,228.5C 209.06,229.631 214.394,231.465 219.5,234C 220.811,236.967 220.478,239.8 218.5,242.5C 215.462,244.519 212.129,245.686 208.5,246C 199.173,246.5 189.839,246.666 180.5,246.5C 179.833,246.5 179.167,246.5 178.5,246.5C 178.082,245.778 177.416,245.278 176.5,245C 172.848,244.501 169.182,244.335 165.5,244.5C 142.331,245.396 119.165,246.396 96,247.5C 86.8051,247.475 77.6384,246.975 68.5,246C 67.944,245.617 67.6107,245.117 67.5,244.5C 67.3059,242.088 65.9726,241.088 63.5,241.5C 63.5,240.5 63.5,239.5 63.5,238.5C 66.4565,235.206 69.4565,231.872 72.5,228.5C 78.9093,228.353 84.9093,227.353 90.5,225.5 Z"/></g>
<g><path style="opacity:0.945" fill="#b4665b" d="M 90.5,225.5 C 84.9093,227.353 78.9093,228.353 72.5,228.5C 78.1082,225.95 84.1082,224.95 90.5,225.5 Z"/></g>
<g><path style="opacity:0.945" fill="#bb6d62" d="M 91.5,225.5 C 98.0221,225.177 104.355,225.51 110.5,226.5C 107.25,227.127 103.917,227.461 100.5,227.5C 97.0866,227.483 94.0866,226.816 91.5,225.5 Z"/></g>
<g><path style="opacity:0.682" fill="#bd746a" d="M 203.5,226.5 C 203.5,227.167 203.5,227.833 203.5,228.5C 192.42,226.69 181.254,225.69 170,225.5C 155.84,226.666 141.673,227.666 127.5,228.5C 121.789,228.495 116.456,227.828 111.5,226.5C 122.172,226.667 132.839,226.5 143.5,226C 163.514,222.772 183.514,222.938 203.5,226.5 Z"/></g>
<g><path style="opacity:0.925" fill="#c77d73" d="M 72.5,228.5 C 69.4565,231.872 66.4565,235.206 63.5,238.5C 63.5,237.5 63.5,236.5 63.5,235.5C 63.5106,233.983 64.1772,232.816 65.5,232C 67.5766,230.295 69.91,229.128 72.5,228.5 Z"/></g>
<g><path style="opacity:0.278" fill="#e8c9c6" d="M 221.5,234.5 C 222.152,235.449 222.486,236.615 222.5,238C 222.693,240.008 222.026,241.508 220.5,242.5C 221.265,239.904 221.599,237.237 221.5,234.5 Z"/></g>
<g><path style="opacity:0.584" fill="#e9b3ab" d="M 63.5,235.5 C 63.5,236.5 63.5,237.5 63.5,238.5C 63.5,239.5 63.5,240.5 63.5,241.5C 65.9726,241.088 67.3059,242.088 67.5,244.5C 65.8297,244.249 64.3297,243.582 63,242.5C 62.2042,239.961 62.3709,237.628 63.5,235.5 Z"/></g>
<g><path style="opacity:0.549" fill="#dc9b92" d="M 165.5,244.5 C 169.182,244.335 172.848,244.501 176.5,245C 177.416,245.278 178.082,245.778 178.5,246.5C 173.951,246.376 169.618,245.709 165.5,244.5 Z"/></g>
<g><path style="opacity:0.655" fill="#d7978e" d="M 203.5,226.5 C 207.858,227.506 212.191,228.673 216.5,230C 218.66,230.996 220.327,232.496 221.5,234.5C 221.599,237.237 221.265,239.904 220.5,242.5C 217.069,246.153 212.736,247.986 207.5,248C 198.292,248.694 189.292,248.194 180.5,246.5C 189.839,246.666 199.173,246.5 208.5,246C 212.129,245.686 215.462,244.519 218.5,242.5C 220.478,239.8 220.811,236.967 219.5,234C 214.394,231.465 209.06,229.631 203.5,228.5C 203.5,227.833 203.5,227.167 203.5,226.5 Z"/></g>
</svg>
