<svg xmlns="http://www.w3.org/2000/svg" xmlns:xlink="http://www.w3.org/1999/xlink" viewBox="0 0 66 53" fill="#fff" fill-rule="evenodd" stroke="#000" stroke-linecap="round" stroke-linejoin="round"><use xlink:href="#A" x=".5" y=".5"/><symbol id="A" overflow="visible"><g stroke="none" fill-rule="nonzero"><path d="M63.53 19.059C60.527 5.259 43.98-2.855 26.564.929S-2.53 18.974.47 32.768s19.55 21.918 36.962 18.13 29.098-18.027 26.1-31.84zM32.002 38.634c-7.025 0-12.72-5.695-12.72-12.72s5.695-12.72 12.72-12.72 12.72 5.695 12.72 12.72-5.695 12.72-12.72 12.72z" fill="#008c99"/><path d="M34.813 8.106c-10.086.002-18.26 8.18-18.26 18.266s8.178 18.26 18.264 18.26S53.08 36.454 53.08 26.369a18.25 18.25 0 0 0-5.35-12.915 18.3 18.3 0 0 0-12.916-5.348zm-2.815 28.908c-6.136 0-11.11-4.974-11.11-11.11s4.974-11.11 11.11-11.11 11.11 4.974 11.11 11.11-4.972 11.108-11.106 11.1z" fill="#70ccd3"/></g></symbol></svg>