<?xml version="1.0" encoding="UTF-8"?>
<!DOCTYPE svg PUBLIC "-//W3C//DTD SVG 1.1//EN" "http://www.w3.org/Graphics/SVG/1.1/DTD/svg11.dtd">
<svg xmlns="http://www.w3.org/2000/svg" version="1.1" width="300px" height="300px" style="shape-rendering:geometricPrecision; text-rendering:geometricPrecision; image-rendering:optimizeQuality; fill-rule:evenodd; clip-rule:evenodd" xmlns:xlink="http://www.w3.org/1999/xlink">
<g><path style="opacity:1" fill="#f33e06" d="M 164.5,52.5 C 178.58,55.8533 192.58,59.52 206.5,63.5C 206.827,100.573 206.493,137.573 205.5,174.5C 202.572,174.565 199.905,175.232 197.5,176.5C 195.485,177.924 193.152,178.59 190.5,178.5C 187.848,178.41 185.515,179.076 183.5,180.5C 180.848,180.41 178.515,181.076 176.5,182.5C 175.432,183.434 174.099,183.768 172.5,183.5C 170.139,183.674 167.806,184.007 165.5,184.5C 163.214,184.405 161.214,183.738 159.5,182.5C 158.01,180.72 156.01,180.054 153.5,180.5C 151.497,178.018 148.831,177.018 145.5,177.5C 143.497,175.018 140.831,174.018 137.5,174.5C 135.497,172.018 132.831,171.018 129.5,171.5C 127.597,171.204 125.93,170.537 124.5,169.5C 123.01,167.72 121.01,167.054 118.5,167.5C 117.71,166.599 116.71,165.932 115.5,165.5C 111.808,163.359 112.474,162.025 117.5,161.5C 132.636,162.767 147.636,164.767 162.5,167.5C 163.568,168.434 164.901,168.768 166.5,168.5C 166.5,136.833 166.5,105.167 166.5,73.5C 164.585,73.2155 162.919,73.5489 161.5,74.5C 148.2,77.8249 134.867,81.1582 121.5,84.5C 120.667,106.159 120.167,127.826 120,149.5C 118.416,150.861 116.582,151.528 114.5,151.5C 112.447,151.402 110.78,152.069 109.5,153.5C 106.224,153.144 103.557,154.144 101.5,156.5C 101.158,157.338 100.492,157.672 99.5,157.5C 98.8333,157.5 98.1667,157.5 97.5,157.5C 96.5022,131.339 96.1688,105.005 96.5,78.5C 98.3797,78.7709 99.713,78.1042 100.5,76.5C 104.68,76.2179 108.347,74.8846 111.5,72.5C 113.698,72.8799 115.365,72.2132 116.5,70.5C 120.68,70.2179 124.347,68.8846 127.5,66.5C 129.698,66.8799 131.365,66.2132 132.5,64.5C 136.68,64.2179 140.347,62.8846 143.5,60.5C 145.698,60.8799 147.365,60.2132 148.5,58.5C 151.636,58.3969 154.302,57.3969 156.5,55.5C 159.636,55.3969 162.302,54.3969 164.5,52.5 Z"/></g>
<g><path style="opacity:0.286" fill="#ffc9b7" d="M 164.5,52.5 C 162.302,54.3969 159.636,55.3969 156.5,55.5C 158.792,53.7329 161.458,52.7329 164.5,52.5 Z"/></g>
<g><path style="opacity:0.294" fill="#ffc9b8" d="M 156.5,55.5 C 154.302,57.3969 151.636,58.3969 148.5,58.5C 150.792,56.7329 153.458,55.7329 156.5,55.5 Z"/></g>
<g><path style="opacity:0.969" fill="#ffaa8f" d="M 148.5,58.5 C 147.365,60.2132 145.698,60.8799 143.5,60.5C 144.78,59.0687 146.447,58.4021 148.5,58.5 Z"/></g>
<g><path style="opacity:0.992" fill="#ffb096" d="M 143.5,60.5 C 140.347,62.8846 136.68,64.2179 132.5,64.5C 135.797,62.3987 139.463,61.0653 143.5,60.5 Z"/></g>
<g><path style="opacity:0.29" fill="#fcc5b2" d="M 164.5,52.5 C 165.946,51.3871 167.613,51.2204 169.5,52C 182.156,55.6087 194.823,59.1087 207.5,62.5C 208.16,100.182 207.494,137.515 205.5,174.5C 206.493,137.573 206.827,100.573 206.5,63.5C 192.58,59.52 178.58,55.8533 164.5,52.5 Z"/></g>
<g><path style="opacity:0.949" fill="#ffae92" d="M 132.5,64.5 C 131.365,66.2132 129.698,66.8799 127.5,66.5C 128.78,65.0687 130.447,64.4021 132.5,64.5 Z"/></g>
<g><path style="opacity:1" fill="#ffb197" d="M 127.5,66.5 C 124.347,68.8846 120.68,70.2179 116.5,70.5C 119.797,68.3987 123.463,67.0653 127.5,66.5 Z"/></g>
<g><path style="opacity:0.957" fill="#ffaf93" d="M 116.5,70.5 C 115.365,72.2132 113.698,72.8799 111.5,72.5C 112.78,71.0687 114.447,70.4021 116.5,70.5 Z"/></g>
<g><path style="opacity:0.992" fill="#ffaf94" d="M 111.5,72.5 C 108.347,74.8846 104.68,76.2179 100.5,76.5C 103.915,74.7207 107.581,73.3873 111.5,72.5 Z"/></g>
<g><path style="opacity:0.024" fill="#fed2d0" d="M 161.5,74.5 C 162.919,73.5489 164.585,73.2155 166.5,73.5C 166.5,105.167 166.5,136.833 166.5,168.5C 164.901,168.768 163.568,168.434 162.5,167.5C 163.5,167.5 164.5,167.5 165.5,167.5C 165.5,136.5 165.5,105.5 165.5,74.5C 164.167,74.5 162.833,74.5 161.5,74.5 Z"/></g>
<g><path style="opacity:0.173" fill="#f9cabe" d="M 95.5,78.5 C 95.1669,105.175 95.5002,131.842 96.5,158.5C 97.1067,158.376 97.44,158.043 97.5,157.5C 98.1667,157.5 98.8333,157.5 99.5,157.5C 100.833,158.167 102.167,158.833 103.5,159.5C 100.075,159.367 99.7417,160.033 102.5,161.5C 99.8333,160.833 97.1667,160.167 94.5,159.5C 94.1688,132.328 94.5021,105.328 95.5,78.5 Z"/></g>
<g><path style="opacity:0.671" fill="#f66539" d="M 100.5,76.5 C 99.713,78.1042 98.3797,78.7709 96.5,78.5C 96.1688,105.005 96.5022,131.339 97.5,157.5C 97.44,158.043 97.1067,158.376 96.5,158.5C 95.5002,131.842 95.1669,105.175 95.5,78.5C 96.7804,77.0687 98.4471,76.4021 100.5,76.5 Z"/></g>
<g><path style="opacity:0.125" fill="#fab6a2" d="M 114.5,151.5 C 113.22,152.931 111.553,153.598 109.5,153.5C 110.78,152.069 112.447,151.402 114.5,151.5 Z"/></g>
<g><path style="opacity:1" fill="#fa8865" d="M 109.5,153.5 C 107.11,155.02 104.443,156.02 101.5,156.5C 103.557,154.144 106.224,153.144 109.5,153.5 Z"/></g>
<g><path style="opacity:1" fill="#fb7247" d="M 103.5,159.5 C 108.391,159.532 113.057,160.199 117.5,161.5C 112.474,162.025 111.808,163.359 115.5,165.5C 114.833,165.5 114.167,165.5 113.5,165.5C 109.617,164.541 105.95,163.208 102.5,161.5C 99.7417,160.033 100.075,159.367 103.5,159.5 Z"/></g>
<g><path style="opacity:0.09" fill="#fbdbcf" d="M 113.5,165.5 C 114.167,165.5 114.833,165.5 115.5,165.5C 116.71,165.932 117.71,166.599 118.5,167.5C 116.447,167.598 114.78,166.931 113.5,165.5 Z"/></g>
<g><path style="opacity:0.976" fill="#ff9e7e" d="M 118.5,167.5 C 121.01,167.054 123.01,167.72 124.5,169.5C 122.214,169.405 120.214,168.738 118.5,167.5 Z"/></g>
<g><path style="opacity:0.984" fill="#fe9a79" d="M 129.5,171.5 C 132.831,171.018 135.497,172.018 137.5,174.5C 134.603,173.871 131.936,172.871 129.5,171.5 Z"/></g>
<g><path style="opacity:0.992" fill="#fd9978" d="M 137.5,174.5 C 140.831,174.018 143.497,175.018 145.5,177.5C 142.603,176.871 139.936,175.871 137.5,174.5 Z"/></g>
<g><path style="opacity:0.055" fill="#fed3c6" d="M 205.5,174.5 C 203.162,176.04 200.495,176.706 197.5,176.5C 199.905,175.232 202.572,174.565 205.5,174.5 Z"/></g>
<g><path style="opacity:0.976" fill="#ffa385" d="M 145.5,177.5 C 148.831,177.018 151.497,178.018 153.5,180.5C 150.603,179.871 147.936,178.871 145.5,177.5 Z"/></g>
<g><path style="opacity:0.035" fill="#fccec2" d="M 190.5,178.5 C 188.485,179.924 186.152,180.59 183.5,180.5C 185.515,179.076 187.848,178.41 190.5,178.5 Z"/></g>
<g><path style="opacity:0.957" fill="#ffa183" d="M 153.5,180.5 C 156.01,180.054 158.01,180.72 159.5,182.5C 157.214,182.405 155.214,181.738 153.5,180.5 Z"/></g>
<g><path style="opacity:0.016" fill="#feddd2" d="M 183.5,180.5 C 181.485,181.924 179.152,182.59 176.5,182.5C 178.515,181.076 180.848,180.41 183.5,180.5 Z"/></g>
<g><path style="opacity:0.275" fill="#fdccbd" d="M 172.5,183.5 C 170.287,185.312 167.953,185.645 165.5,184.5C 167.806,184.007 170.139,183.674 172.5,183.5 Z"/></g>
<g><path style="opacity:0.541" fill="#f89d81" d="M 60.5,201.5 C 55.7971,201.437 51.1304,201.771 46.5,202.5C 49.0169,201.027 51.8502,200.36 55,200.5C 57.0326,200.506 58.866,200.839 60.5,201.5 Z"/></g>
<g><path style="opacity:0.99" fill="#f54f1f" d="M 60.5,201.5 C 67.7396,202.905 72.2396,207.238 74,214.5C 75.3343,222.2 74.3343,229.533 71,236.5C 70.2917,237.381 69.4584,238.047 68.5,238.5C 66.9731,238.427 65.9731,239.094 65.5,240.5C 63.2143,240.595 61.2143,241.262 59.5,242.5C 55.1311,242.533 50.7978,242.2 46.5,241.5C 43.4802,238.811 40.4802,236.144 37.5,233.5C 36.1667,225.833 36.1667,218.167 37.5,210.5C 38.9063,210.027 39.573,209.027 39.5,207.5C 41.7488,206.92 43.4154,205.587 44.5,203.5C 44.8417,202.662 45.5084,202.328 46.5,202.5C 51.1304,201.771 55.7971,201.437 60.5,201.5 Z M 60.5,206.5 C 60.9731,207.906 61.9731,208.573 63.5,208.5C 64.0256,210.23 65.0256,211.564 66.5,212.5C 68.1036,219.306 67.7703,225.972 65.5,232.5C 62.945,235.27 59.945,237.27 56.5,238.5C 46.7435,237.741 41.7435,232.408 41.5,222.5C 41.8946,209.831 48.2279,204.498 60.5,206.5 Z"/></g>
<g><path style="opacity:1" fill="#f54f1f" d="M 118.5,200.5 C 119.833,202.167 119.833,203.833 118.5,205.5C 114.324,206.169 112.991,204.669 114.5,201C 115.793,200.51 117.127,200.343 118.5,200.5 Z"/></g>
<g><path style="opacity:0.999" fill="#f65829" d="M 203.5,219.5 C 199.194,220.066 198.861,220.732 202.5,221.5C 203.609,221.557 204.609,221.89 205.5,222.5C 207.8,227.61 208.134,232.944 206.5,238.5C 206.5,239.167 206.167,239.5 205.5,239.5C 198.65,243.002 191.65,243.335 184.5,240.5C 184.215,238.712 184.548,237.045 185.5,235.5C 191.412,239.758 196.912,239.425 202,234.5C 203.244,230.191 202.077,226.858 198.5,224.5C 198.082,223.778 197.416,223.278 196.5,223C 193.854,222.503 191.187,222.336 188.5,222.5C 188.5,221.167 188.5,219.833 188.5,218.5C 195.103,220.036 199.437,217.703 201.5,211.5C 201.134,208.744 199.8,206.744 197.5,205.5C 194.642,204.834 191.642,204.167 188.5,203.5C 188.863,202.817 189.196,202.15 189.5,201.5C 196.202,199.281 202.035,200.614 207,205.5C 209.262,211.119 208.096,215.785 203.5,219.5 Z"/></g>
<g><path style="opacity:0.592" fill="#fda68a" d="M 110.5,198.5 C 111.268,199.263 111.768,200.263 112,201.5C 114.016,199.392 116.183,199.058 118.5,200.5C 117.127,200.343 115.793,200.51 114.5,201C 112.991,204.669 114.324,206.169 118.5,205.5C 115.878,207.008 113.545,206.508 111.5,204C 109.527,203.505 107.527,203.338 105.5,203.5C 106.919,202.549 108.585,202.216 110.5,202.5C 110.5,201.167 110.5,199.833 110.5,198.5 Z"/></g>
<g><path style="opacity:0.999" fill="#f9784f" d="M 87.5,212.5 C 87.5,212.833 87.5,213.167 87.5,213.5C 86.6829,211.031 86.1829,208.365 86,205.5C 84.984,206.634 84.3173,206.301 84,204.5C 82.9261,207.5 82.0928,210.5 81.5,213.5C 81.5,210.833 81.5,208.167 81.5,205.5C 81.7717,202.268 83.4384,200.268 86.5,199.5C 89.2869,198.523 92.2869,198.19 95.5,198.5C 95.5,200.167 95.5,201.833 95.5,203.5C 88.6666,202.67 85.9999,205.67 87.5,212.5 Z"/></g>
<g><path style="opacity:1" fill="#f33d09" d="M 86.5,199.5 C 89.1667,199.5 91.8333,199.5 94.5,199.5C 94.5,200.5 94.5,201.5 94.5,202.5C 91.1501,202.665 87.8168,202.498 84.5,202C 85.3805,201.292 86.0472,200.458 86.5,199.5 Z"/></g>
<g><path style="opacity:1" fill="#fe8e6c" d="M 189.5,201.5 C 189.196,202.15 188.863,202.817 188.5,203.5C 191.642,204.167 194.642,204.834 197.5,205.5C 193.46,205.118 189.793,206.118 186.5,208.5C 185.167,206.5 185.167,204.5 186.5,202.5C 187.417,201.873 188.417,201.539 189.5,201.5 Z"/></g>
<g><path style="opacity:0.988" fill="#f44d1d" d="M 236.5,201.5 C 236.5,202.833 236.5,204.167 236.5,205.5C 235.5,205.5 234.5,205.5 233.5,205.5C 233.167,205.5 232.833,205.5 232.5,205.5C 227.734,203.855 223.734,205.188 220.5,209.5C 219.652,211.409 219.318,213.409 219.5,215.5C 219.167,215.5 218.833,215.5 218.5,215.5C 217.268,218.184 217.268,221.017 218.5,224C 217.942,227.583 217.109,231.083 216,234.5C 213.705,228.762 212.872,222.762 213.5,216.5C 215.763,203.202 223.429,198.202 236.5,201.5 Z"/></g>
<g><path style="opacity:1" fill="#f44716" d="M 110.5,198.5 C 110.5,199.833 110.5,201.167 110.5,202.5C 108.585,202.216 106.919,202.549 105.5,203.5C 104.833,204.5 104.167,205.5 103.5,206.5C 102.532,208.607 102.198,210.941 102.5,213.5C 104.833,213.5 107.167,213.5 109.5,213.5C 109.5,214.5 109.5,215.5 109.5,216.5C 107.167,216.5 104.833,216.5 102.5,216.5C 102.5,224.833 102.5,233.167 102.5,241.5C 100.833,241.5 99.1667,241.5 97.5,241.5C 97.5,233.5 97.5,225.5 97.5,217.5C 94.0381,216.518 90.3714,216.185 86.5,216.5C 86.5,224.833 86.5,233.167 86.5,241.5C 84.8333,241.5 83.1667,241.5 81.5,241.5C 81.5,233.167 81.5,224.833 81.5,216.5C 79.8333,216.5 78.1667,216.5 76.5,216.5C 76.7373,215.209 76.404,214.209 75.5,213.5C 75.8417,212.662 76.5084,212.328 77.5,212.5C 78.5676,213.434 79.901,213.768 81.5,213.5C 82.0928,210.5 82.9261,207.5 84,204.5C 84.3173,206.301 84.984,206.634 86,205.5C 86.1829,208.365 86.6829,211.031 87.5,213.5C 90.8333,213.5 94.1667,213.5 97.5,213.5C 97.5,210.833 97.5,208.167 97.5,205.5C 97.393,203.097 98.393,201.264 100.5,200C 103.688,198.684 107.022,198.184 110.5,198.5 Z"/></g>
<g><path style="opacity:0.325" fill="#fabeae" d="M 236.5,201.5 C 237.451,202.919 237.784,204.585 237.5,206.5C 235.901,206.768 234.568,206.434 233.5,205.5C 234.5,205.5 235.5,205.5 236.5,205.5C 236.5,204.167 236.5,202.833 236.5,201.5 Z"/></g>
<g><path style="opacity:0.482" fill="#fdd6ca" d="M 264.5,201.5 C 265.451,202.919 265.784,204.585 265.5,206.5C 260.5,206.5 255.5,206.5 250.5,206.5C 250.5,210.167 250.5,213.833 250.5,217.5C 249.517,213.702 249.183,209.702 249.5,205.5C 254.5,205.5 259.5,205.5 264.5,205.5C 264.5,204.167 264.5,202.833 264.5,201.5 Z"/></g>
<g><path style="opacity:0.678" fill="#fb9a7a" d="M 44.5,203.5 C 43.4154,205.587 41.7488,206.92 39.5,207.5C 40.5846,205.413 42.2512,204.08 44.5,203.5 Z"/></g>
<g><path style="opacity:0.278" fill="#fcd9cf" d="M 60.5,206.5 C 62.0269,206.427 63.0269,207.094 63.5,208.5C 61.9731,208.573 60.9731,207.906 60.5,206.5 Z"/></g>
<g><path style="opacity:0.224" fill="#fecfbe" d="M 39.5,207.5 C 39.573,209.027 38.9063,210.027 37.5,210.5C 37.427,208.973 38.0937,207.973 39.5,207.5 Z"/></g>
<g><path style="opacity:0.604" fill="#ffbaa4" d="M 232.5,205.5 C 225.834,205.836 221.501,209.169 219.5,215.5C 219.318,213.409 219.652,211.409 220.5,209.5C 223.734,205.188 227.734,203.855 232.5,205.5 Z"/></g>
<g><path style="opacity:0.02" fill="#ffcab9" d="M 63.5,208.5 C 65.9118,208.694 66.9118,210.027 66.5,212.5C 65.0256,211.564 64.0256,210.23 63.5,208.5 Z"/></g>
<g><path style="opacity:0.267" fill="#f7d3c8" d="M 81.5,205.5 C 81.5,208.167 81.5,210.833 81.5,213.5C 79.901,213.768 78.5676,213.434 77.5,212.5C 78.5,212.5 79.5,212.5 80.5,212.5C 80.1984,209.941 80.5318,207.607 81.5,205.5 Z"/></g>
<g><path style="opacity:0.267" fill="#faccbc" d="M 97.5,205.5 C 97.5,208.167 97.5,210.833 97.5,213.5C 94.1667,213.5 90.8333,213.5 87.5,213.5C 87.5,213.167 87.5,212.833 87.5,212.5C 90.5,212.5 93.5,212.5 96.5,212.5C 96.1984,209.941 96.5318,207.607 97.5,205.5 Z"/></g>
<g><path style="opacity:0.063" fill="#fbc5b3" d="M 112.5,212.5 C 114.833,212.5 117.167,212.5 119.5,212.5C 119.5,222.5 119.5,232.5 119.5,242.5C 117.167,242.5 114.833,242.5 112.5,242.5C 112.5,232.5 112.5,222.5 112.5,212.5 Z"/></g>
<g><path style="opacity:1" fill="#f3400b" d="M 113.5,213.5 C 115.167,213.5 116.833,213.5 118.5,213.5C 118.5,222.833 118.5,232.167 118.5,241.5C 116.833,241.5 115.167,241.5 113.5,241.5C 113.5,232.167 113.5,222.833 113.5,213.5 Z"/></g>
<g><path style="opacity:1" fill="#f45223" d="M 173.5,223.5 C 173.784,225.415 173.451,227.081 172.5,228.5C 172.737,224.59 171.904,220.923 170,217.5C 169.722,218.416 169.222,219.082 168.5,219.5C 167.609,218.89 166.609,218.557 165.5,218.5C 165.389,217.883 165.056,217.383 164.5,217C 159.465,215.314 156.132,216.814 154.5,221.5C 154.5,221.833 154.5,222.167 154.5,222.5C 153.596,223.209 153.263,224.209 153.5,225.5C 152.608,223.638 152.441,221.638 153,219.5C 152.014,218.829 150.847,218.829 149.5,219.5C 150.591,216.572 152.591,214.406 155.5,213C 159.5,212.333 163.5,212.333 167.5,213C 171.957,215.079 173.957,218.579 173.5,223.5 Z M 165.5,218.5 C 168.856,223.412 167.356,225.412 161,224.5C 158.39,224.467 156.223,223.8 154.5,222.5C 154.5,222.167 154.5,221.833 154.5,221.5C 155.962,220.542 157.295,219.376 158.5,218C 160.885,217.444 163.218,217.61 165.5,218.5 Z"/></g>
<g><path style="opacity:0.114" fill="#ffcebf" d="M 165.5,218.5 C 163.218,217.61 160.885,217.444 158.5,218C 157.295,219.376 155.962,220.542 154.5,221.5C 156.132,216.814 159.465,215.314 164.5,217C 165.056,217.383 165.389,217.883 165.5,218.5 Z"/></g>
<g><path style="opacity:0.059" fill="#f3e3df" d="M 75.5,213.5 C 76.404,214.209 76.7373,215.209 76.5,216.5C 78.1667,216.5 79.8333,216.5 81.5,216.5C 81.5,224.833 81.5,233.167 81.5,241.5C 81.5,241.833 81.5,242.167 81.5,242.5C 80.5073,234.35 80.1739,226.017 80.5,217.5C 78.8333,217.5 77.1667,217.5 75.5,217.5C 75.5,216.167 75.5,214.833 75.5,213.5 Z"/></g>
<g><path style="opacity:0.235" fill="#f79370" d="M 97.5,217.5 C 97.1667,217.5 96.8333,217.5 96.5,217.5C 93.5,217.5 90.5,217.5 87.5,217.5C 87.5,225.833 87.5,234.167 87.5,242.5C 85.5,242.5 83.5,242.5 81.5,242.5C 81.5,242.167 81.5,241.833 81.5,241.5C 83.1667,241.5 84.8333,241.5 86.5,241.5C 86.5,233.167 86.5,224.833 86.5,216.5C 90.3714,216.185 94.0381,216.518 97.5,217.5 Z"/></g>
<g><path style="opacity:0.035" fill="#fed6ca" d="M 141.5,217.5 C 138.43,217.368 135.43,217.701 132.5,218.5C 132.611,217.883 132.944,217.383 133.5,217C 136.367,216.199 139.034,216.366 141.5,217.5 Z"/></g>
<g><path style="opacity:0.357" fill="#fdb7a2" d="M 141.5,217.5 C 142.833,217.5 144.167,217.5 145.5,217.5C 145.631,218.376 145.298,219.043 144.5,219.5C 143.261,219.058 142.261,218.391 141.5,217.5 Z"/></g>
<g><path style="opacity:1" fill="#f65121" d="M 264.5,201.5 C 264.5,202.833 264.5,204.167 264.5,205.5C 259.5,205.5 254.5,205.5 249.5,205.5C 249.183,209.702 249.517,213.702 250.5,217.5C 254.742,217.079 258.742,217.746 262.5,219.5C 265.24,224.938 265.907,230.604 264.5,236.5C 262.725,239.211 260.391,241.211 257.5,242.5C 255.866,243.161 254.033,243.494 252,243.5C 248.85,243.64 246.017,242.973 243.5,241.5C 243.5,240.167 243.5,238.833 243.5,237.5C 244.5,237.5 245.5,237.5 246.5,237.5C 251.043,239.225 255.21,238.558 259,235.5C 261.907,229.557 260.407,225.223 254.5,222.5C 251.375,221.521 248.042,221.187 244.5,221.5C 244.5,219.167 244.5,216.833 244.5,214.5C 244.5,210.167 244.5,205.833 244.5,201.5C 251.167,201.5 257.833,201.5 264.5,201.5 Z"/></g>
<g><path style="opacity:0.212" fill="#fab69f" d="M 103.5,206.5 C 103.5,208.5 103.5,210.5 103.5,212.5C 105.833,212.5 108.167,212.5 110.5,212.5C 110.5,214.167 110.5,215.833 110.5,217.5C 108.167,217.5 105.833,217.5 103.5,217.5C 103.5,225.833 103.5,234.167 103.5,242.5C 101.167,242.5 98.8333,242.5 96.5,242.5C 96.5,234.167 96.5,225.833 96.5,217.5C 96.8333,217.5 97.1667,217.5 97.5,217.5C 97.5,225.5 97.5,233.5 97.5,241.5C 99.1667,241.5 100.833,241.5 102.5,241.5C 102.5,233.167 102.5,224.833 102.5,216.5C 104.833,216.5 107.167,216.5 109.5,216.5C 109.5,215.5 109.5,214.5 109.5,213.5C 107.167,213.5 104.833,213.5 102.5,213.5C 102.198,210.941 102.532,208.607 103.5,206.5 Z"/></g>
<g><path style="opacity:0.153" fill="#fccaba" d="M 218.5,215.5 C 218.833,215.5 219.167,215.5 219.5,215.5C 219.263,216.791 219.596,217.791 220.5,218.5C 220.217,219.289 219.717,219.956 219,220.5C 218.506,218.866 218.34,217.199 218.5,215.5 Z"/></g>
<g><path style="opacity:0.353" fill="#ffb298" d="M 233.5,217.5 C 235.773,217.957 237.106,219.29 237.5,221.5C 235.659,220.598 234.326,219.264 233.5,217.5 Z"/></g>
<g><path style="opacity:0.106" fill="#f2c2b1" d="M 203.5,219.5 C 203.167,220.167 202.833,220.833 202.5,221.5C 198.861,220.732 199.194,220.066 203.5,219.5 Z"/></g>
<g><path style="opacity:0.761" fill="#fea588" d="M 37.5,210.5 C 36.1667,218.167 36.1667,225.833 37.5,233.5C 35.1327,230.32 34.1327,226.653 34.5,222.5C 34.2741,218.069 35.2741,214.069 37.5,210.5 Z"/></g>
<g><path style="opacity:1" fill="#f33b03" d="M 172.5,228.5 C 166.167,228.5 159.833,228.5 153.5,228.5C 152.539,230.265 152.205,232.265 152.5,234.5C 151.5,234.5 150.5,234.5 149.5,234.5C 149.5,229.5 149.5,224.5 149.5,219.5C 150.847,218.829 152.014,218.829 153,219.5C 152.441,221.638 152.608,223.638 153.5,225.5C 158.5,225.5 163.5,225.5 168.5,225.5C 168.5,223.5 168.5,221.5 168.5,219.5C 169.222,219.082 169.722,218.416 170,217.5C 171.904,220.923 172.737,224.59 172.5,228.5 Z"/></g>
<g><path style="opacity:0.275" fill="#faccbd" d="M 244.5,214.5 C 244.5,216.833 244.5,219.167 244.5,221.5C 248.042,221.187 251.375,221.521 254.5,222.5C 250.833,222.5 247.167,222.5 243.5,222.5C 243.194,219.615 243.527,216.948 244.5,214.5 Z"/></g>
<g><path style="opacity:0.643" fill="#fba88d" d="M 188.5,222.5 C 191.187,222.336 193.854,222.503 196.5,223C 197.416,223.278 198.082,223.778 198.5,224.5C 194.989,224.101 191.656,223.434 188.5,222.5 Z"/></g>
<g><path style="opacity:0.035" fill="#fee2da" d="M 223.5,221.5 C 222.833,222.833 221.833,223.833 220.5,224.5C 220.5,222.5 221.5,221.5 223.5,221.5 Z"/></g>
<g><path style="opacity:0.416" fill="#ffb9a4" d="M 123.5,221.5 C 122.949,224.807 122.616,228.14 122.5,231.5C 121.135,228.041 121.469,224.708 123.5,221.5 Z"/></g>
<g><path style="opacity:0.424" fill="#fa8c68" d="M 165.5,218.5 C 166.609,218.557 167.609,218.89 168.5,219.5C 168.5,221.5 168.5,223.5 168.5,225.5C 163.5,225.5 158.5,225.5 153.5,225.5C 153.263,224.209 153.596,223.209 154.5,222.5C 156.223,223.8 158.39,224.467 161,224.5C 167.356,225.412 168.856,223.412 165.5,218.5 Z"/></g>
<g><path style="opacity:0.716" fill="#fe9775" d="M 66.5,212.5 C 67.7498,212.577 68.5831,213.244 69,214.5C 69.8508,220.253 69.5174,225.92 68,231.5C 67.3292,232.252 66.4959,232.586 65.5,232.5C 67.7703,225.972 68.1036,219.306 66.5,212.5 Z"/></g>
<g><path style="opacity:0.998" fill="#f45020" d="M 145.5,217.5 C 144.167,217.5 142.833,217.5 141.5,217.5C 139.034,216.366 136.367,216.199 133.5,217C 132.944,217.383 132.611,217.883 132.5,218.5C 128.506,223.31 127.672,228.644 130,234.5C 134.629,239.113 139.795,239.78 145.5,236.5C 145.784,238.415 145.451,240.081 144.5,241.5C 139.5,242.833 134.5,242.833 129.5,241.5C 129.027,240.094 128.027,239.427 126.5,239.5C 126.171,236.173 124.837,233.507 122.5,231.5C 122.616,228.14 122.949,224.807 123.5,221.5C 124.585,217.246 127.252,214.413 131.5,213C 135.833,212.333 140.167,212.333 144.5,213C 145.38,214.356 145.714,215.856 145.5,217.5 Z"/></g>
<g><path style="opacity:0.443" fill="#fcd7cb" d="M 173.5,223.5 C 174.461,225.265 174.795,227.265 174.5,229.5C 167.5,229.5 160.5,229.5 153.5,229.5C 153.5,229.167 153.5,228.833 153.5,228.5C 159.833,228.5 166.167,228.5 172.5,228.5C 173.451,227.081 173.784,225.415 173.5,223.5 Z"/></g>
<g><path style="opacity:0.598" fill="#ff9c7c" d="M 237.5,221.5 C 241.294,226.806 241.294,232.139 237.5,237.5C 238.616,232.151 238.616,226.817 237.5,221.5 Z"/></g>
<g><path style="opacity:0.757" fill="#fe9a7a" d="M 262.5,219.5 C 267.123,223.432 268.623,228.432 267,234.5C 266.722,235.416 266.222,236.082 265.5,236.5C 265.167,236.5 264.833,236.5 264.5,236.5C 265.907,230.604 265.24,224.938 262.5,219.5 Z"/></g>
<g><path style="opacity:0.757" fill="#fe9b7a" d="M 205.5,222.5 C 208.552,224.44 209.885,227.273 209.5,231C 209.894,234.168 208.894,236.668 206.5,238.5C 208.134,232.944 207.8,227.61 205.5,222.5 Z"/></g>
<g><path style="opacity:0.678" fill="#fe9675" d="M 122.5,231.5 C 124.837,233.507 126.171,236.173 126.5,239.5C 123.593,237.685 122.259,235.019 122.5,231.5 Z"/></g>
<g><path style="opacity:1" fill="#f96f44" d="M 218.5,215.5 C 218.34,217.199 218.506,218.866 219,220.5C 219.717,219.956 220.217,219.289 220.5,218.5C 222.462,216.983 224.795,216.316 227.5,216.5C 229.369,216.507 231.036,216.84 232.5,217.5C 229.428,217.183 226.428,217.516 223.5,218.5C 225.282,219.984 227.282,220.984 229.5,221.5C 227.5,221.5 225.5,221.5 223.5,221.5C 221.5,221.5 220.5,222.5 220.5,224.5C 218.447,230.237 219.78,234.904 224.5,238.5C 222.62,238.229 221.287,238.896 220.5,240.5C 219.833,240.5 219.167,240.5 218.5,240.5C 215.304,238.512 213.471,235.512 213,231.5C 212.184,226.316 212.35,221.316 213.5,216.5C 212.872,222.762 213.705,228.762 216,234.5C 217.109,231.083 217.942,227.583 218.5,224C 217.268,221.017 217.268,218.184 218.5,215.5 Z"/></g>
<g><path style="opacity:0.529" fill="#ffc3b0" d="M 37.5,233.5 C 40.4802,236.144 43.4802,238.811 46.5,241.5C 42.2662,240.269 39.2662,237.602 37.5,233.5 Z"/></g>
<g><path style="opacity:0.998" fill="#f65627" d="M 149.5,219.5 C 149.5,224.5 149.5,229.5 149.5,234.5C 150.5,234.5 151.5,234.5 152.5,234.5C 152.205,232.265 152.539,230.265 153.5,228.5C 153.5,228.833 153.5,229.167 153.5,229.5C 155.86,238.343 161.193,240.676 169.5,236.5C 170.72,238.05 170.72,239.716 169.5,241.5C 165.202,242.2 160.869,242.533 156.5,242.5C 155.101,241.11 153.434,240.11 151.5,239.5C 150.542,239.047 149.708,238.381 149,237.5C 148.04,234.367 147.207,231.2 146.5,228C 146.947,224.85 147.947,222.017 149.5,219.5 Z"/></g>
<g><path style="opacity:0.945" fill="#fb8b67" d="M 65.5,232.5 C 64.3986,237.224 61.3986,239.224 56.5,238.5C 59.945,237.27 62.945,235.27 65.5,232.5 Z"/></g>
<g><path style="opacity:0.647" fill="#fea384" d="M 169.5,236.5 C 170.209,235.596 171.209,235.263 172.5,235.5C 172.66,237.199 172.494,238.866 172,240.5C 171.329,241.252 170.496,241.586 169.5,241.5C 170.72,239.716 170.72,238.05 169.5,236.5 Z"/></g>
<g><path style="opacity:0.224" fill="#f7a68d" d="M 246.5,237.5 C 245.5,237.5 244.5,237.5 243.5,237.5C 243.5,238.833 243.5,240.167 243.5,241.5C 242.207,239.636 242.207,237.636 243.5,235.5C 244.739,235.942 245.739,236.609 246.5,237.5 Z"/></g>
<g><path style="opacity:1" fill="#f44e1e" d="M 232.5,217.5 C 232.833,217.5 233.167,217.5 233.5,217.5C 234.326,219.264 235.659,220.598 237.5,221.5C 238.616,226.817 238.616,232.151 237.5,237.5C 236.833,238.833 235.833,239.833 234.5,240.5C 230.658,242.002 226.658,242.668 222.5,242.5C 222.167,242.5 221.833,242.5 221.5,242.5C 221.167,241.833 220.833,241.167 220.5,240.5C 221.287,238.896 222.62,238.229 224.5,238.5C 231.142,237.914 233.975,234.248 233,227.5C 232.436,225.113 231.27,223.113 229.5,221.5C 227.282,220.984 225.282,219.984 223.5,218.5C 226.428,217.516 229.428,217.183 232.5,217.5 Z"/></g>
<g><path style="opacity:0.035" fill="#fee8e1" d="M 264.5,236.5 C 264.833,236.5 265.167,236.5 265.5,236.5C 264.294,240.365 261.627,242.365 257.5,242.5C 260.391,241.211 262.725,239.211 264.5,236.5 Z"/></g>
<g><path style="opacity:0.004" fill="#ffe8e1" d="M 68.5,238.5 C 68.0269,239.906 67.0269,240.573 65.5,240.5C 65.9731,239.094 66.9731,238.427 68.5,238.5 Z"/></g>
<g><path style="opacity:0.333" fill="#fdcdbe" d="M 126.5,239.5 C 128.027,239.427 129.027,240.094 129.5,241.5C 127.973,241.573 126.973,240.906 126.5,239.5 Z"/></g>
<g><path style="opacity:0.631" fill="#fdb7a1" d="M 151.5,239.5 C 153.434,240.11 155.101,241.11 156.5,242.5C 154.067,242.727 152.401,241.727 151.5,239.5 Z"/></g>
<g><path style="opacity:0.008" fill="#fed2c4" d="M 65.5,240.5 C 63.8984,242.074 61.8984,242.741 59.5,242.5C 61.2143,241.262 63.2143,240.595 65.5,240.5 Z"/></g>
<g><path style="opacity:0.31" fill="#fec4b2" d="M 218.5,240.5 C 219.167,240.5 219.833,240.5 220.5,240.5C 220.833,241.167 221.167,241.833 221.5,242.5C 219.973,242.573 218.973,241.906 218.5,240.5 Z"/></g>
<g><path style="opacity:0.024" fill="#fedcd1" d="M 234.5,240.5 C 233.653,241.966 232.32,242.8 230.5,243C 227.633,243.801 224.966,243.634 222.5,242.5C 226.658,242.668 230.658,242.002 234.5,240.5 Z"/></g>
<g><path style="opacity:0.604" fill="#fdd0c2" d="M 46.5,241.5 C 50.7978,242.2 55.1311,242.533 59.5,242.5C 58.036,243.16 56.3693,243.493 54.5,243.5C 51.5143,243.618 48.8476,242.952 46.5,241.5 Z"/></g>
<g><path style="opacity:0.698" fill="#fecebf" d="M 129.5,241.5 C 134.5,242.833 139.5,242.833 144.5,241.5C 139.5,244.167 134.5,244.167 129.5,241.5 Z"/></g>
<g><path style="opacity:0.647" fill="#fdd9ce" d="M 169.5,241.5 C 167.152,242.952 164.486,243.618 161.5,243.5C 159.631,243.493 157.964,243.16 156.5,242.5C 160.869,242.533 165.202,242.2 169.5,241.5 Z"/></g>
<g><path style="opacity:0.694" fill="#fdd1c3" d="M 205.5,239.5 C 202.366,242.491 198.532,243.824 194,243.5C 192.167,243.333 190.333,243.167 188.5,243C 186.68,242.8 185.347,241.966 184.5,240.5C 191.65,243.335 198.65,243.002 205.5,239.5 Z"/></g>
</svg>
