<?xml version="1.0" encoding="UTF-8" standalone="no" ?>
<!DOCTYPE svg PUBLIC "-//W3C//DTD SVG 1.1//EN" "http://www.w3.org/Graphics/SVG/1.1/DTD/svg11.dtd">
<svg xmlns="http://www.w3.org/2000/svg" xmlns:xlink="http://www.w3.org/1999/xlink" version="1.1" width="215.92431391593146" height="157.2529742777309" viewBox="412.435378935312 172.27058668822536 215.92431391593146 157.2529742777309" xml:space="preserve">
<desc>Created with Fabric.js 4.6.0</desc>
<defs>
</defs>
<g transform="matrix(4.08 0 0 4.08 527.85 224.24)" id="SB9hYM9oCNRI69rapU0B_"  >
<path style="stroke: none; stroke-width: 1; stroke-dasharray: none; stroke-linecap: butt; stroke-dashoffset: 0; stroke-linejoin: miter; stroke-miterlimit: 4; fill: rgb(49,168,247); fill-rule: nonzero; opacity: 1;" vector-effect="non-scaling-stroke"  transform=" translate(-175.5, -12.61)" d="M 180.93 24.78 C 180.54000000000002 22.990000000000002 180.15 21.21 179.77 19.42 C 178.88000000000002 15.280000000000001 177.99 11.130000000000003 177.14000000000001 6.980000000000002 C 176.95000000000002 6.0500000000000025 176.59 5.460000000000003 175.53 5.440000000000002 C 174.47 5.420000000000002 174 6 173.79 7 C 172.35999999999999 12.84 170.87 18.67 169.4 24.51 C 169.4 24.64 169.3 24.770000000000003 169.13 25.220000000000002 C 168.81 24.040000000000003 168.54999999999998 23.130000000000003 168.32 22.220000000000002 C 167.48 18.990000000000002 166.63 15.760000000000002 165.84 12.530000000000003 C 165.62 11.610000000000003 165.18 11.130000000000003 164.22 11.130000000000003 C 163.80008841043247 11.097031286366162 163.3845401945719 11.234171924289484 163.06673793461488 11.510603475849747 C 162.74893567465784 11.78703502741001 162.55553601485076 12.179570944061483 162.53 12.600000000000003 C 162.14000000000001 14.370000000000003 161.67 16.120000000000005 161.23 17.930000000000003 L 151 17.930000000000003 C 151.26 16.620000000000005 151.51 15.390000000000004 151.77 14.160000000000004 Q 152.93 8.690000000000005 154.11 3.1600000000000037 C 154.6 0.77 155.51 0 158 0 C 170.74 0 183.49 0 196.23 0 C 199.03 0 200.51999999999998 1.92 199.85 4.61 C 198.85 8.440000000000001 198.17 12.33 197.34 16.19 C 197.24 16.64 197.11 17.1 196.95000000000002 17.69 L 195.78000000000003 17.69 C 192.26000000000002 17.69 188.78000000000003 17.69 185.22000000000003 17.69 C 183.13000000000002 17.69 182.87000000000003 17.900000000000002 182.40000000000003 19.880000000000003 L 181.20000000000005 24.78 Z" stroke-linecap="round" />
</g>
<g transform="matrix(4.08 0 0 4.08 512.87 279.17)" id="rkQfEQC_Yxm_xT40L0YD5"  >
<path style="stroke: none; stroke-width: 1; stroke-dasharray: none; stroke-linecap: butt; stroke-dashoffset: 0; stroke-linejoin: miter; stroke-miterlimit: 4; fill: rgb(49,168,247); fill-rule: nonzero; opacity: 1;" vector-effect="non-scaling-stroke"  transform=" translate(-171.83, -26.08)" d="M 150.31 21 L 161.19 21 C 163.4 21 163.60999999999999 20.82 164.10999999999999 18.66 C 164.10999999999999 18.46 164.23999999999998 18.27 164.41 17.77 C 164.99 20.29 165.51 22.53 166.03 24.77 C 166.55 27.009999999999998 167.08 29.14 167.55 31.34 C 167.58243080839344 31.761273197985528 167.78543318232937 32.15104906272775 168.11202440288102 32.4191181570534 C 168.4386156234327 32.68718725137905 168.86048666265972 32.81031326333704 169.28 32.76 C 170.28 32.76 170.64000000000001 32.129999999999995 170.86 31.27 Q 172.86 23.2 174.86 15.120000000000001 C 174.95770385271615 14.66406927591929 175.1520767386955 14.234402896385975 175.43 13.860000000000001 C 175.77 15.350000000000001 176.11 16.86 176.43 18.330000000000002 C 177.36 22.540000000000003 178.29000000000002 26.75 179.19 30.970000000000002 C 179.41 31.970000000000002 179.69 32.79 180.95 32.77 C 182.20999999999998 32.75000000000001 182.41 31.960000000000004 182.64 31.01 C 183.39999999999998 27.950000000000003 184.2 24.900000000000002 184.98 21.840000000000003 C 185.07 21.490000000000002 185.19 21.160000000000004 185.32 20.770000000000003 L 196.32 20.770000000000003 L 194.73999999999998 28.290000000000003 Q 193.98999999999998 31.810000000000002 193.23 35.290000000000006 C 192.72 37.57000000000001 191.76999999999998 38.290000000000006 189.44 38.290000000000006 L 151.09 38.290000000000006 C 148.09 38.290000000000006 146.88 36.74000000000001 147.51 33.800000000000004 L 150 22.06 C 150.1 21.75 150.2 21.44 150.31 21 Z" stroke-linecap="round" />
</g>
</svg>