<?xml version="1.0" encoding="UTF-8"?>
<!DOCTYPE svg PUBLIC "-//W3C//DTD SVG 1.1//EN" "http://www.w3.org/Graphics/SVG/1.1/DTD/svg11.dtd">
<svg xmlns="http://www.w3.org/2000/svg" version="1.1" width="300px" height="299px" style="shape-rendering:geometricPrecision; text-rendering:geometricPrecision; image-rendering:optimizeQuality; fill-rule:evenodd; clip-rule:evenodd" xmlns:xlink="http://www.w3.org/1999/xlink">
<g><path style="opacity:0.998" fill="#e32123" d="M 38.5,107.5 C 112.501,107.333 186.501,107.5 260.5,108C 261.661,135.095 261.828,162.261 261,189.5C 186.903,190.665 112.737,190.831 38.5,190C 37.1708,162.5 37.1708,135 38.5,107.5 Z"/></g>
<g><path style="opacity:1" fill="#f29e9f" d="M 163.5,139.5 C 169.013,138.184 174.68,138.184 180.5,139.5C 180.376,140.107 180.043,140.44 179.5,140.5C 174.36,139.512 169.026,139.179 163.5,139.5 Z"/></g>
<g><path style="opacity:1" fill="#fdeaea" d="M 77.5,138.5 C 84.2569,138.123 90.9236,138.623 97.5,140C 102.533,143.9 103.7,148.733 101,154.5C 99.3626,156.81 97.196,158.31 94.5,159C 88.0559,159.915 81.7226,159.581 75.5,158C 68.4242,150.699 69.0909,144.199 77.5,138.5 Z"/></g>
<g><path style="opacity:1" fill="#fdefef" d="M 123.5,139.5 C 128.899,141.992 129.899,145.826 126.5,151C 124.608,151.973 122.608,152.64 120.5,153C 123.02,154.763 125.353,156.763 127.5,159C 125.5,159.667 123.5,159.667 121.5,159C 118.292,155.623 114.958,152.456 111.5,149.5C 115.459,148.673 119.459,148.173 123.5,148C 124.833,146.333 124.833,144.667 123.5,143C 118.511,142.501 113.511,142.334 108.5,142.5C 108.5,147.833 108.5,153.167 108.5,158.5C 107.5,158.5 106.5,158.5 105.5,158.5C 105.5,152.167 105.5,145.833 105.5,139.5C 111.5,139.5 117.5,139.5 123.5,139.5 Z"/></g>
<g><path style="opacity:1" fill="#fdeeee" d="M 139.5,153.5 C 142.5,152.833 145.5,152.167 148.5,151.5C 147.345,148.525 145.678,145.858 143.5,143.5C 141.89,145.725 140.557,148.059 139.5,150.5C 138.5,150.833 137.833,151.5 137.5,152.5C 136.392,154.781 135.058,156.948 133.5,159C 129.586,159.816 128.753,158.649 131,155.5C 134.71,149.913 138.543,144.413 142.5,139C 143.5,138.333 144.5,138.333 145.5,139C 149.584,145.837 153.918,152.504 158.5,159C 155.398,159.825 153.064,158.825 151.5,156C 147.833,155.667 144.167,155.333 140.5,155C 139.944,154.617 139.611,154.117 139.5,153.5 Z"/></g>
<g><path style="opacity:1" fill="#fdeeee" d="M 163.5,139.5 C 169.026,139.179 174.36,139.512 179.5,140.5C 179.389,141.117 179.056,141.617 178.5,142C 173.5,142.333 168.5,142.667 163.5,143C 159.5,147 159.5,151 163.5,155C 169.196,155.17 174.862,155.67 180.5,156.5C 180.023,157.478 179.357,158.311 178.5,159C 173.5,159.667 168.5,159.667 163.5,159C 157.703,156.24 155.537,151.74 157,145.5C 158.406,142.591 160.572,140.591 163.5,139.5 Z"/></g>
<g><path style="opacity:1" fill="#fdeeee" d="M 186.5,139.5 C 186.5,144.833 186.5,150.167 186.5,155.5C 192.537,155.171 198.537,155.504 204.5,156.5C 204.023,157.478 203.357,158.311 202.5,159C 195.986,159.82 189.653,159.653 183.5,158.5C 183.5,152.167 183.5,145.833 183.5,139.5C 184.5,139.5 185.5,139.5 186.5,139.5 Z"/></g>
<g><path style="opacity:1" fill="#fdeaea" d="M 208.5,146.5 C 214.5,147.167 220.5,147.833 226.5,148.5C 220.752,150.066 214.752,151.066 208.5,151.5C 209.313,152.814 210.313,153.981 211.5,155C 217.167,155.333 222.833,155.667 228.5,156C 227.643,156.689 226.977,157.522 226.5,158.5C 219.943,160.141 213.61,159.641 207.5,157C 201.422,149.39 202.756,143.39 211.5,139C 216.864,138.171 222.198,138.337 227.5,139.5C 227.167,140.167 226.833,140.833 226.5,141.5C 221.533,142.329 216.533,142.829 211.5,143C 210.29,144.039 209.29,145.206 208.5,146.5 Z"/></g>
<g><path style="opacity:1" fill="#f6b8b9" d="M 123.5,139.5 C 117.5,139.5 111.5,139.5 105.5,139.5C 105.5,145.833 105.5,152.167 105.5,158.5C 106.5,158.5 107.5,158.5 108.5,158.5C 107.432,159.434 106.099,159.768 104.5,159.5C 104.5,152.5 104.5,145.5 104.5,138.5C 111.022,138.177 117.355,138.51 123.5,139.5 Z"/></g>
<g><path style="opacity:1" fill="#f8c9c9" d="M 186.5,139.5 C 185.5,139.5 184.5,139.5 183.5,139.5C 183.5,145.833 183.5,152.167 183.5,158.5C 182.509,152.021 182.176,145.354 182.5,138.5C 184.099,138.232 185.432,138.566 186.5,139.5 Z"/></g>
<g><path style="opacity:1" fill="#ef8183" d="M 230.5,138.5 C 234.161,138.35 235.161,139.85 233.5,143C 229.707,143.487 228.707,141.987 230.5,138.5 Z"/></g>
<g><path style="opacity:1" fill="#e32526" d="M 78.5,142.5 C 84.6208,142.09 90.6208,142.59 96.5,144C 98.4782,146.497 98.9782,149.331 98,152.5C 97.0975,153.701 95.9308,154.535 94.5,155C 88.3877,155.909 82.3877,155.576 76.5,154C 73.5135,149.439 74.1802,145.606 78.5,142.5 Z"/></g>
<g><path style="opacity:1" fill="#e42e2b" d="M 148.5,151.5 C 145.287,151.81 142.287,151.477 139.5,150.5C 140.557,148.059 141.89,145.725 143.5,143.5C 145.678,145.858 147.345,148.525 148.5,151.5 Z"/></g>
<g><path style="opacity:1" fill="#e95a5d" d="M 208.5,146.5 C 214.868,146.17 221.202,146.504 227.5,147.5C 227.376,148.107 227.043,148.44 226.5,148.5C 220.5,147.833 214.5,147.167 208.5,146.5 Z"/></g>
<g><path style="opacity:1" fill="#ef8384" d="M 139.5,150.5 C 142.287,151.477 145.287,151.81 148.5,151.5C 145.5,152.167 142.5,152.833 139.5,153.5C 138.833,153.167 138.167,152.833 137.5,152.5C 137.833,151.5 138.5,150.833 139.5,150.5 Z"/></g>
</svg>
