<?xml version="1.0" encoding="UTF-8"?>
<!DOCTYPE svg PUBLIC "-//W3C//DTD SVG 1.1//EN" "http://www.w3.org/Graphics/SVG/1.1/DTD/svg11.dtd">
<svg xmlns="http://www.w3.org/2000/svg" version="1.1" width="300px" height="300px" style="shape-rendering:geometricPrecision; text-rendering:geometricPrecision; image-rendering:optimizeQuality; fill-rule:evenodd; clip-rule:evenodd" xmlns:xlink="http://www.w3.org/1999/xlink">
<g><path style="opacity:0.886" fill="#ff131c" d="M 20.5,130.5 C 30.5056,130.334 40.5056,130.5 50.5,131C 61.8782,135.249 66.3782,143.415 64,155.5C 61.8593,161.641 57.6926,165.807 51.5,168C 40.8333,168.667 30.1667,168.667 19.5,168C 9.16582,163.5 4.99916,155.667 7,144.5C 9.01665,137.318 13.5166,132.652 20.5,130.5 Z M 23.5,138.5 C 32.5822,138.086 41.5822,138.586 50.5,140C 56.2999,143.406 58.1333,148.24 56,154.5C 54.0395,157.135 51.5395,158.969 48.5,160C 38.7583,160.92 29.0916,160.587 19.5,159C 11.3138,150.378 12.6471,143.545 23.5,138.5 Z"/></g>
<g><path style="opacity:0.898" fill="#ff121b" d="M 67.5,130.5 C 79.1714,130.333 90.8381,130.5 102.5,131C 110.538,134.243 113.371,140.077 111,148.5C 108.677,153.92 104.51,156.754 98.5,157C 102.592,160.048 106.258,163.548 109.5,167.5C 105.878,168.659 102.211,168.825 98.5,168C 91.657,161.989 84.9903,155.822 78.5,149.5C 86.1451,148.669 93.8117,148.169 101.5,148C 105.088,144.711 104.755,141.711 100.5,139C 92.1733,138.5 83.84,138.334 75.5,138.5C 75.5,148.5 75.5,158.5 75.5,168.5C 72.8333,168.5 70.1667,168.5 67.5,168.5C 67.5,155.833 67.5,143.167 67.5,130.5 Z"/></g>
<g><path style="opacity:0.919" fill="#ff121c" d="M 129.5,154.5 C 126.151,158.676 123.151,163.176 120.5,168C 117.446,168.821 114.446,168.655 111.5,167.5C 119.127,155.077 127.127,142.91 135.5,131C 137.5,130.333 139.5,130.333 141.5,131C 149.834,143.182 157.5,155.682 164.5,168.5C 158.983,169.58 154.983,167.747 152.5,163C 146.167,162.667 139.833,162.333 133.5,162C 131.46,159.815 130.126,157.315 129.5,154.5 Z M 129.5,154.5 C 132.071,149.695 134.904,145.028 138,140.5C 141.03,144.698 143.863,149.032 146.5,153.5C 140.872,154.495 135.206,154.829 129.5,154.5 Z"/></g>
<g><path style="opacity:0.853" fill="#ff131c" d="M 175.5,130.5 C 185.167,130.5 194.833,130.5 204.5,130.5C 204.327,133.179 203.327,135.513 201.5,137.5C 193.521,138.332 185.521,138.832 177.5,139C 169.466,141.905 166.966,147.405 170,155.5C 171.167,156.667 172.333,157.833 173.5,159C 184.111,160.097 194.778,160.931 205.5,161.5C 204.365,163.799 203.032,165.966 201.5,168C 192.5,168.667 183.5,168.667 174.5,168C 161.088,161.766 157.588,151.932 164,138.5C 167.15,134.689 170.983,132.023 175.5,130.5 Z"/></g>
<g><path style="opacity:0.878" fill="#ff131c" d="M 208.5,130.5 C 210.833,130.5 213.167,130.5 215.5,130.5C 215.5,140.5 215.5,150.5 215.5,160.5C 226.52,160.168 237.52,160.501 248.5,161.5C 247.543,163.918 246.209,166.084 244.5,168C 232.833,168.667 221.167,168.667 209.5,168C 208.511,155.58 208.178,143.08 208.5,130.5 Z"/></g>
<g><path style="opacity:0.831" fill="#ff131c" d="M 260.5,130.5 C 270.522,130.168 280.522,130.501 290.5,131.5C 289.365,133.799 288.032,135.966 286.5,138C 278.5,138.333 270.5,138.667 262.5,139C 259.424,139.911 257.091,141.744 255.5,144.5C 266.5,145.167 277.5,145.833 288.5,146.5C 287.365,148.799 286.032,150.966 284.5,153C 274.816,153.168 265.149,153.668 255.5,154.5C 257.024,156.858 259.024,158.691 261.5,160C 271.161,160.5 280.828,160.666 290.5,160.5C 290.327,163.179 289.327,165.513 287.5,167.5C 278.184,168.665 268.851,168.832 259.5,168C 249.177,163.524 245.01,155.691 247,144.5C 249.017,137.318 253.517,132.652 260.5,130.5 Z"/></g>
</svg>
