<?xml version="1.0" encoding="UTF-8"?>
<!DOCTYPE svg PUBLIC "-//W3C//DTD SVG 1.1//EN" "http://www.w3.org/Graphics/SVG/1.1/DTD/svg11.dtd">
<svg xmlns="http://www.w3.org/2000/svg" version="1.1" width="300px" height="300px" style="shape-rendering:geometricPrecision; text-rendering:geometricPrecision; image-rendering:optimizeQuality; fill-rule:evenodd; clip-rule:evenodd" xmlns:xlink="http://www.w3.org/1999/xlink">
<g><path style="opacity:1" fill="#e72b27" d="M 233.5,93.5 C 233.41,96.1522 234.076,98.4855 235.5,100.5C 238.729,134.099 224.062,155.266 191.5,164C 164.167,164.667 136.833,164.667 109.5,164C 81.0826,157.158 66.0826,139.158 64.5,110C 66.3289,79.9262 81.9956,61.9262 111.5,56C 137.5,55.3333 163.5,55.3333 189.5,56C 211.464,60.1434 226.131,72.6434 233.5,93.5 Z M 114.5,75.5 C 138.502,75.3334 162.502,75.5 186.5,76C 204.404,80.2418 214.071,91.5751 215.5,110C 214.342,127.149 205.675,138.483 189.5,144C 163.5,144.667 137.5,144.667 111.5,144C 92.5641,137.639 84.0641,124.472 86,104.5C 89.6902,88.9774 99.1902,79.3107 114.5,75.5 Z"/></g>
<g><path style="opacity:1" fill="#f3807c" d="M 233.5,93.5 C 234.924,95.5145 235.59,97.8478 235.5,100.5C 234.076,98.4855 233.41,96.1522 233.5,93.5 Z"/></g>
<g><path style="opacity:0.899" fill="#eb1b21" d="M 24.5,179.5 C 33.1731,179.334 41.8397,179.5 50.5,180C 62.8903,182.396 68.3903,189.896 67,202.5C 64.4835,210.853 58.9835,215.853 50.5,217.5C 39.4614,216.973 28.4614,216.14 17.5,215C 5.98936,204.63 5.65602,193.964 16.5,183C 19.1579,181.522 21.8245,180.355 24.5,179.5 Z M 27.5,187.5 C 35.8933,187.17 44.2267,187.67 52.5,189C 58.3875,192.847 59.8875,198.013 57,204.5C 55.2691,206.617 53.1024,208.117 50.5,209C 42.1667,209.667 33.8333,209.667 25.5,209C 16.9673,204.973 15.3006,198.973 20.5,191C 22.7133,189.384 25.0466,188.217 27.5,187.5 Z"/></g>
<g><path style="opacity:0.912" fill="#eb1a22" d="M 69.5,179.5 C 80.505,179.333 91.505,179.5 102.5,180C 112.33,183.123 115.496,189.623 112,199.5C 109.002,203.916 104.835,206.082 99.5,206C 103.728,209.274 107.728,212.774 111.5,216.5C 107.541,217.66 103.541,217.827 99.5,217C 93.3333,211.5 87.1667,206 81,200.5C 80.5172,199.552 80.3505,198.552 80.5,197.5C 87.8409,197.666 95.1742,197.5 102.5,197C 105.539,193.195 104.872,190.195 100.5,188C 92.8406,187.5 85.1739,187.334 77.5,187.5C 77.5,197.5 77.5,207.5 77.5,217.5C 74.8333,217.5 72.1667,217.5 69.5,217.5C 69.5,204.833 69.5,192.167 69.5,179.5 Z"/></g>
<g><path style="opacity:0.915" fill="#ec1921" d="M 176.5,179.5 C 185.833,179.5 195.167,179.5 204.5,179.5C 204.327,182.179 203.327,184.513 201.5,186.5C 193.855,187.331 186.188,187.831 178.5,188C 170.913,190.003 168.08,194.836 170,202.5C 171.5,205.333 173.667,207.5 176.5,209C 186.184,209.168 195.851,209.668 205.5,210.5C 204.365,212.799 203.032,214.966 201.5,217C 192.5,217.667 183.5,217.667 174.5,217C 161.304,211.43 157.47,201.93 163,188.5C 166.528,183.834 171.028,180.834 176.5,179.5 Z"/></g>
<g><path style="opacity:0.855" fill="#eb1a21" d="M 247.5,209.5 C 246.874,212.315 245.54,214.815 243.5,217C 231.787,217.812 220.12,217.645 208.5,216.5C 207.501,204.185 207.168,191.851 207.5,179.5C 210.167,179.5 212.833,179.5 215.5,179.5C 215.5,189.5 215.5,199.5 215.5,209.5C 226.167,209.5 236.833,209.5 247.5,209.5 Z"/></g>
<g><path style="opacity:0.897" fill="#ec1a21" d="M 247.5,209.5 C 242.367,199.4 244.034,190.566 252.5,183C 254.957,181.438 257.624,180.438 260.5,180C 269.827,179.5 279.161,179.334 288.5,179.5C 288.202,182.265 287.202,184.765 285.5,187C 277.833,187.333 270.167,187.667 262.5,188C 258.96,188.6 256.293,190.434 254.5,193.5C 265.146,194.499 275.813,194.832 286.5,194.5C 286.327,197.179 285.327,199.513 283.5,201.5C 273.833,202.167 264.167,202.833 254.5,203.5C 256.024,205.858 258.024,207.691 260.5,209C 270.184,209.168 279.851,209.668 289.5,210.5C 288.365,212.799 287.032,214.966 285.5,217C 276.5,217.667 267.5,217.667 258.5,217C 254.069,215.464 250.403,212.964 247.5,209.5 Z"/></g>
<g><path style="opacity:0.967" fill="#eb1a20" d="M 136.5,179.5 C 139.157,179.162 141.49,179.829 143.5,181.5C 151.083,192.998 158.417,204.665 165.5,216.5C 159.71,218.661 155.377,217.161 152.5,212C 146.167,211.667 139.833,211.333 133.5,211C 132.36,209.027 131.027,207.193 129.5,205.5C 126.957,209.421 124.29,213.254 121.5,217C 118.518,217.498 115.518,217.665 112.5,217.5C 112.491,215.692 112.991,214.025 114,212.5C 121.041,201.05 128.541,190.05 136.5,179.5 Z M 138.5,190.5 C 141.5,194.187 144.166,198.187 146.5,202.5C 141.198,203.663 135.864,203.829 130.5,203C 133.39,198.95 136.057,194.783 138.5,190.5 Z"/></g>
</svg>
