<?xml version="1.0" encoding="UTF-8"?>
<!DOCTYPE svg PUBLIC "-//W3C//DTD SVG 1.1//EN" "http://www.w3.org/Graphics/SVG/1.1/DTD/svg11.dtd">
<svg xmlns="http://www.w3.org/2000/svg" version="1.1" width="300px" height="300px" style="shape-rendering:geometricPrecision; text-rendering:geometricPrecision; image-rendering:optimizeQuality; fill-rule:evenodd; clip-rule:evenodd" xmlns:xlink="http://www.w3.org/1999/xlink">
<g><path style="opacity:0.898" fill="#eb1a21" d="M 24.5,130.5 C 33.1731,130.334 41.8397,130.5 50.5,131C 62.8903,133.396 68.3903,140.896 67,153.5C 64.9007,160.598 60.4007,165.432 53.5,168C 43.1667,168.667 32.8333,168.667 22.5,168C 9.13676,161.726 5.63676,151.893 12,138.5C 15.3779,134.406 19.5446,131.739 24.5,130.5 Z M 27.5,138.5 C 35.8933,138.17 44.2267,138.67 52.5,140C 58.3875,143.847 59.8875,149.013 57,155.5C 55.2691,157.617 53.1024,159.117 50.5,160C 42.1667,160.667 33.8333,160.667 25.5,160C 16.9673,155.973 15.3006,149.973 20.5,142C 22.7133,140.384 25.0466,139.217 27.5,138.5 Z"/></g>
<g><path style="opacity:0.912" fill="#eb1a22" d="M 69.5,130.5 C 80.505,130.333 91.505,130.5 102.5,131C 112.33,134.123 115.496,140.623 112,150.5C 109.002,154.916 104.835,157.082 99.5,157C 103.728,160.274 107.728,163.774 111.5,167.5C 107.541,168.66 103.541,168.827 99.5,168C 93.3333,162.5 87.1667,157 81,151.5C 80.5172,150.552 80.3505,149.552 80.5,148.5C 87.8409,148.666 95.1742,148.5 102.5,148C 105.539,144.195 104.872,141.195 100.5,139C 92.8406,138.5 85.1739,138.334 77.5,138.5C 77.5,148.5 77.5,158.5 77.5,168.5C 74.8333,168.5 72.1667,168.5 69.5,168.5C 69.5,155.833 69.5,143.167 69.5,130.5 Z"/></g>
<g><path style="opacity:0.915" fill="#ec1921" d="M 176.5,130.5 C 185.833,130.5 195.167,130.5 204.5,130.5C 204.327,133.179 203.327,135.513 201.5,137.5C 193.855,138.331 186.188,138.831 178.5,139C 170.913,141.003 168.08,145.836 170,153.5C 171.5,156.333 173.667,158.5 176.5,160C 186.184,160.168 195.851,160.668 205.5,161.5C 204.365,163.799 203.032,165.966 201.5,168C 192.5,168.667 183.5,168.667 174.5,168C 161.304,162.43 157.47,152.93 163,139.5C 166.528,134.834 171.028,131.834 176.5,130.5 Z"/></g>
<g><path style="opacity:0.855" fill="#eb1a21" d="M 247.5,160.5 C 246.874,163.315 245.54,165.815 243.5,168C 231.787,168.812 220.12,168.645 208.5,167.5C 207.501,155.185 207.168,142.851 207.5,130.5C 210.167,130.5 212.833,130.5 215.5,130.5C 215.5,140.5 215.5,150.5 215.5,160.5C 226.167,160.5 236.833,160.5 247.5,160.5 Z"/></g>
<g><path style="opacity:0.897" fill="#ec1a21" d="M 247.5,160.5 C 242.367,150.4 244.034,141.566 252.5,134C 254.957,132.438 257.624,131.438 260.5,131C 269.827,130.5 279.161,130.334 288.5,130.5C 288.202,133.265 287.202,135.765 285.5,138C 277.833,138.333 270.167,138.667 262.5,139C 258.96,139.6 256.293,141.434 254.5,144.5C 265.146,145.499 275.813,145.832 286.5,145.5C 286.327,148.179 285.327,150.513 283.5,152.5C 273.833,153.167 264.167,153.833 254.5,154.5C 256.024,156.858 258.024,158.691 260.5,160C 270.184,160.168 279.851,160.668 289.5,161.5C 288.365,163.799 287.032,165.966 285.5,168C 276.5,168.667 267.5,168.667 258.5,168C 254.069,166.464 250.403,163.964 247.5,160.5 Z"/></g>
<g><path style="opacity:0.967" fill="#eb1a20" d="M 136.5,130.5 C 139.157,130.162 141.49,130.829 143.5,132.5C 151.083,143.998 158.417,155.665 165.5,167.5C 159.71,169.661 155.377,168.161 152.5,163C 146.167,162.667 139.833,162.333 133.5,162C 132.36,160.027 131.027,158.193 129.5,156.5C 126.957,160.421 124.29,164.254 121.5,168C 118.518,168.498 115.518,168.665 112.5,168.5C 112.491,166.692 112.991,165.025 114,163.5C 121.041,152.05 128.541,141.05 136.5,130.5 Z M 138.5,141.5 C 141.5,145.187 144.166,149.187 146.5,153.5C 141.198,154.663 135.864,154.829 130.5,154C 133.39,149.95 136.057,145.783 138.5,141.5 Z"/></g>
</svg>
