<?xml version="1.0" encoding="UTF-8"?>
<!DOCTYPE svg PUBLIC "-//W3C//DTD SVG 1.1//EN" "http://www.w3.org/Graphics/SVG/1.1/DTD/svg11.dtd">
<svg xmlns="http://www.w3.org/2000/svg" version="1.1" width="300px" height="300px" style="shape-rendering:geometricPrecision; text-rendering:geometricPrecision; image-rendering:optimizeQuality; fill-rule:evenodd; clip-rule:evenodd" xmlns:xlink="http://www.w3.org/1999/xlink">
<g><path style="opacity:0.84" fill="#ff141d" d="M 44.5,134.5 C 53.1731,134.334 61.8397,134.5 70.5,135C 81.2197,139.817 84.0531,147.65 79,158.5C 75.9843,162.092 72.151,164.258 67.5,165C 60.8333,165.667 54.1667,165.667 47.5,165C 35.2502,161.333 31.4169,153.5 36,141.5C 38.4412,138.546 41.2745,136.213 44.5,134.5 Z M 46.5,140.5 C 53.8409,140.334 61.1742,140.5 68.5,141C 74.6271,143.754 76.4605,148.254 74,154.5C 72.786,156.049 71.286,157.215 69.5,158C 61.5,158.667 53.5,158.667 45.5,158C 40.8451,155.103 39.3451,150.937 41,145.5C 42.7297,143.598 44.563,141.931 46.5,140.5 Z"/></g>
<g><path style="opacity:0.861" fill="#ff131d" d="M 84.5,134.5 C 94.9377,134.049 105.271,134.549 115.5,136C 121.041,142.337 120.707,148.337 114.5,154C 112.5,154.667 110.5,155.333 108.5,156C 112.447,158.442 115.447,161.609 117.5,165.5C 114.351,165.789 111.351,165.289 108.5,164C 103.351,159.685 98.3508,155.185 93.5,150.5C 99.1376,149.67 104.804,149.17 110.5,149C 114.041,146.718 114.374,144.051 111.5,141C 104.508,140.5 97.5079,140.334 90.5,140.5C 90.6664,148.507 90.4997,156.507 90,164.5C 88.3005,165.406 86.4672,165.739 84.5,165.5C 84.5,155.167 84.5,144.833 84.5,134.5 Z"/></g>
<g><path style="opacity:0.823" fill="#ff141d" d="M 140.5,133.5 C 142.716,134.203 144.549,135.536 146,137.5C 151.75,145.998 157.25,154.664 162.5,163.5C 160.956,165.446 158.956,165.946 156.5,165C 154.787,163.622 153.453,161.955 152.5,160C 147.167,159.667 141.833,159.333 136.5,159C 135.696,157.229 134.529,155.729 133,154.5C 131.234,159.773 127.901,163.44 123,165.5C 121.596,165.491 120.43,164.991 119.5,164C 125.138,155.218 130.638,146.384 136,137.5C 137.397,135.93 138.897,134.596 140.5,133.5 Z M 140.5,143.5 C 142.479,146.099 144.479,148.765 146.5,151.5C 142.878,152.659 139.211,152.825 135.5,152C 137.556,149.386 139.223,146.553 140.5,143.5 Z"/></g>
<g><path style="opacity:0.805" fill="#ff131d" d="M 169.5,134.5 C 177.833,134.5 186.167,134.5 194.5,134.5C 194.607,136.903 193.607,138.736 191.5,140C 184.833,140.333 178.167,140.667 171.5,141C 164.837,145.635 164.171,150.969 169.5,157C 178.228,157.97 186.895,158.97 195.5,160C 192.502,164.999 188.002,166.833 182,165.5C 165.004,166.517 158.004,158.85 161,142.5C 163.157,139.024 165.99,136.357 169.5,134.5 Z"/></g>
<g><path style="opacity:0.773" fill="#ff131d" d="M 197.5,134.5 C 199.792,134.244 201.959,134.577 204,135.5C 204.5,143.159 204.666,150.826 204.5,158.5C 213.336,158.031 222.003,158.531 230.5,160C 229.547,161.955 228.213,163.622 226.5,165C 217.452,165.805 208.452,165.639 199.5,164.5C 198.808,163.975 198.308,163.308 198,162.5C 197.5,153.173 197.334,143.839 197.5,134.5 Z"/></g>
<g><path style="opacity:0.808" fill="#ff131d" d="M 239.5,134.5 C 247.86,134.169 256.193,134.502 264.5,135.5C 263.872,137.258 262.872,138.758 261.5,140C 254.833,140.333 248.167,140.667 241.5,141C 239.36,141.973 237.693,143.473 236.5,145.5C 245.141,146.498 253.808,146.831 262.5,146.5C 262.617,148.484 261.95,150.15 260.5,151.5C 252.5,152.167 244.5,152.833 236.5,153.5C 237.648,155.149 238.981,156.649 240.5,158C 248.493,158.5 256.493,158.666 264.5,158.5C 264.451,161.099 263.451,163.266 261.5,165C 255.167,165.667 248.833,165.667 242.5,165C 229.569,160.965 226.069,152.798 232,140.5C 234.114,137.879 236.614,135.879 239.5,134.5 Z"/></g>
</svg>
