<?xml version="1.0" encoding="UTF-8"?>
<!DOCTYPE svg PUBLIC "-//W3C//DTD SVG 1.1//EN" "http://www.w3.org/Graphics/SVG/1.1/DTD/svg11.dtd">
<svg xmlns="http://www.w3.org/2000/svg" version="1.1" width="301px" height="299px" style="shape-rendering:geometricPrecision; text-rendering:geometricPrecision; image-rendering:optimizeQuality; fill-rule:evenodd; clip-rule:evenodd" xmlns:xlink="http://www.w3.org/1999/xlink">
<g><path style="opacity:0.77" fill="#fefffe" d="M 144.5,122.5 C 148.167,122.5 151.833,122.5 155.5,122.5C 155.5,135.5 155.5,148.5 155.5,161.5C 151.833,161.5 148.167,161.5 144.5,161.5C 144.5,148.5 144.5,135.5 144.5,122.5 Z"/></g>
<g><path style="opacity:0.774" fill="#fefffe" d="M 219.5,122.5 C 223.167,122.5 226.833,122.5 230.5,122.5C 230.5,135.5 230.5,148.5 230.5,161.5C 226.833,161.5 223.167,161.5 219.5,161.5C 219.5,148.5 219.5,135.5 219.5,122.5 Z"/></g>
<g><path style="opacity:0.767" fill="#fefffe" d="M 240.5,125.5 C 241.5,125.5 242.5,125.5 243.5,125.5C 243.5,127.833 243.5,130.167 243.5,132.5C 246.833,132.5 250.167,132.5 253.5,132.5C 253.5,135.167 253.5,137.833 253.5,140.5C 250.167,140.5 246.833,140.5 243.5,140.5C 243.334,144.514 243.501,148.514 244,152.5C 244.667,153.167 245.333,153.833 246,154.5C 252.331,151.44 254.831,153.44 253.5,160.5C 246.196,163.944 239.696,162.944 234,157.5C 232.271,147.544 232.105,137.544 233.5,127.5C 235.982,126.933 238.316,126.266 240.5,125.5 Z"/></g>
<g><path style="opacity:0.306" fill="#fefffe" d="M 287.5,129.5 C 291.053,131.065 293.053,133.898 293.5,138C 291.059,141.106 288.392,141.272 285.5,138.5C 283.782,134.772 284.448,131.772 287.5,129.5 Z"/></g>
<g><path style="opacity:0.785" fill="#fefffe" d="M 98.5,131.5 C 109.19,132.025 114.69,137.691 115,148.5C 116.731,146.383 118.898,144.883 121.5,144C 124.98,143.699 128.313,142.865 131.5,141.5C 126.895,140.111 122.562,140.777 118.5,143.5C 116.805,141.465 115.472,139.132 114.5,136.5C 121.602,131.13 129.269,130.297 137.5,134C 139.81,135.637 141.31,137.804 142,140.5C 142.5,147.492 142.666,154.492 142.5,161.5C 138.76,161.759 135.094,161.426 131.5,160.5C 121.594,164.966 115.76,161.966 114,151.5C 110.531,161.655 103.865,164.655 94,160.5C 93.5014,164.152 93.3347,167.818 93.5,171.5C 89.8333,171.5 86.1667,171.5 82.5,171.5C 82.5,158.5 82.5,145.5 82.5,132.5C 86.3905,132.272 90.2238,132.606 94,133.5C 95.7275,133.101 97.2275,132.434 98.5,131.5 Z M 96.5,140.5 C 99.8078,139.974 101.974,141.307 103,144.5C 103.66,147.534 103.16,150.367 101.5,153C 94.8063,154.176 92.3063,151.343 94,144.5C 94.6622,143.016 95.4955,141.683 96.5,140.5 Z M 130.5,149.5 C 131.799,151.153 131.466,152.653 129.5,154C 127.888,154.72 126.388,154.554 125,153.5C 124.383,152.551 124.549,151.718 125.5,151C 127.382,150.802 129.048,150.302 130.5,149.5 Z"/></g>
<g><path style="opacity:0.789" fill="#fefffe" d="M 169.5,131.5 C 181.625,130.792 188.458,136.459 190,148.5C 191.167,147.333 192.333,146.167 193.5,145C 197.855,143.896 202.188,142.729 206.5,141.5C 201.846,139.957 197.513,140.624 193.5,143.5C 190.771,141.142 189.771,138.309 190.5,135C 197.708,130.967 205.042,130.633 212.5,134C 214.894,135.952 216.394,138.452 217,141.5C 217.5,148.158 217.666,154.825 217.5,161.5C 213.76,161.759 210.094,161.426 206.5,160.5C 197.708,164.677 191.542,162.344 188,153.5C 181.845,162.717 173.679,164.884 163.5,160C 157.882,155.071 156.049,148.905 158,141.5C 160.194,136.171 164.027,132.838 169.5,131.5 Z M 170.5,140.5 C 175.402,139.901 178.068,142.067 178.5,147C 178.216,150.62 176.383,153.12 173,154.5C 168.048,150.693 167.215,146.026 170.5,140.5 Z M 204.5,149.5 C 206.981,150.696 206.981,152.196 204.5,154C 203.167,154.667 201.833,154.667 200.5,154C 199.549,153.282 199.383,152.449 200,151.5C 201.622,150.901 203.122,150.234 204.5,149.5 Z"/></g>
<g><path style="opacity:0.795" fill="#fefffe" d="M 265.5,131.5 C 280.645,131.468 286.812,138.802 284,153.5C 278.572,161.976 271.072,164.476 261.5,161C 253.897,156.605 251.397,150.105 254,141.5C 256.194,136.171 260.027,132.838 265.5,131.5 Z M 266.5,140.5 C 269.044,140.104 271.211,140.771 273,142.5C 273.667,145.5 273.667,148.5 273,151.5C 270.333,155.5 267.667,155.5 265,151.5C 264.112,147.598 264.612,143.931 266.5,140.5 Z"/></g>
<g><path style="opacity:1" fill="#e8633d" d="M 28.5,122.5 C 32.4023,124.893 35.9023,127.893 39,131.5C 42.0155,128.317 45.1822,125.317 48.5,122.5C 52.1667,125.833 55.8333,129.167 59.5,132.5C 51.9839,140.85 43.9839,148.683 35.5,156C 36.6667,157.167 37.8333,158.333 39,159.5C 46.681,151.652 54.5143,143.985 62.5,136.5C 66.1925,139.862 69.8592,143.195 73.5,146.5C 66.0146,154.486 58.3479,162.319 50.5,170C 49.1667,170.667 47.8333,170.667 46.5,170C 44,167.5 41.5,165 39,162.5C 36.5,165 34,167.5 31.5,170C 30.1667,170.667 28.8333,170.667 27.5,170C 24.6511,166.984 21.6511,164.15 18.5,161.5C 25.8188,153.681 33.3188,146.014 41,138.5C 41.3446,136.799 40.6779,135.466 39,134.5C 31.197,141.302 23.697,148.469 16.5,156C 15.5,156.667 14.5,156.667 13.5,156C 10.4782,152.978 7.47823,149.978 4.5,147C 12.6353,139.031 20.6353,130.864 28.5,122.5 Z"/></g>
<g><path style="opacity:0.339" fill="#fefffe" d="M 271.5,168.5 C 275.311,167.355 279.311,167.188 283.5,168C 283.957,168.414 284.291,168.914 284.5,169.5C 280.124,170.364 275.79,170.031 271.5,168.5 Z"/></g>
</svg>
