<?xml version="1.0" encoding="UTF-8" standalone="no" ?>
<!DOCTYPE svg PUBLIC "-//W3C//DTD SVG 1.1//EN" "http://www.w3.org/Graphics/SVG/1.1/DTD/svg11.dtd">
<svg xmlns="http://www.w3.org/2000/svg" xmlns:xlink="http://www.w3.org/1999/xlink" version="1.1" width="253.13343267993548" height="197.79496266654775" viewBox="133.43328366003226 127.52251866672611 253.13343267993548 197.79496266654775" xml:space="preserve">
<desc>Created with Fabric.js 4.6.0</desc>
<defs>
</defs>
<g transform="matrix(1 0 0 1 233.1 250.46)" id="mekXWO6xv9fzxG7iaD6Hb"  >
<path style="stroke: none; stroke-width: 1; stroke-dasharray: none; stroke-linecap: butt; stroke-dashoffset: 0; stroke-linejoin: miter; stroke-miterlimit: 4; fill: rgb(49,168,247); fill-rule: nonzero; opacity: 1;" vector-effect="non-scaling-stroke"  transform=" translate(-550.2, -123.53)" d="M 589.97 165.92 L 607.83 150.29999999999998 L 492.57000000000005 81.14999999999998 z" stroke-linecap="round" />
</g>
<g transform="matrix(1 0 0 1 260 226.42)" id="3HxC2uWjVbDwE9YC1rUdi"  >
<path style="stroke: none; stroke-width: 1; stroke-dasharray: none; stroke-linecap: butt; stroke-dashoffset: 0; stroke-linejoin: miter; stroke-miterlimit: 4; fill: rgb(49,168,247); fill-rule: nonzero; opacity: 1;" vector-effect="non-scaling-stroke"  transform=" translate(0, 0)" d="M 123.53809 1.30748 C 118.52427999999999 -22.625770000000003 106.54948999999999 -44.54361 89.11809 -61.69252 L 89.11809 -61.69252 C 41.04042999999999 -109.26571 -35.89587 -110.78306 -85.81191000000001 -65.14252 C -132.04027000000002 -22.82345 -139.40146000000001 47.34607 -102.96191000000002 98.33747999999999 L -85.39191000000002 87.01747999999998 C -99.92766000000003 69.06042999999998 -106.73373000000002 46.06408999999998 -104.31257000000002 23.088409999999975 C -101.89141000000002 0.11273999999997386 -90.44140000000002 -20.959790000000027 -72.48191000000003 -35.49252000000003 C -69.90269000000002 -37.59077000000003 -67.20128000000003 -39.53418000000003 -64.39191000000002 -41.31252000000003 L -64.39191000000002 -41.31252000000003 C -63.001910000000024 -42.20252000000003 -61.58191000000002 -43.06252000000003 -60.15191000000002 -43.87252000000003 L -59.38191000000002 -44.30252000000003 C -57.98191000000002 -45.08252000000003 -56.55191000000002 -45.81252000000003 -55.11191000000002 -46.51252000000003 L -54.171910000000025 -46.97252000000003 C -21.861560000000026 -62.14562000000003 16.37829999999998 -56.64178000000003 43.09808999999997 -32.97252000000003 C 45.21629999999997 -31.09433000000003 47.21989999999997 -29.090730000000033 49.09808999999997 -26.97252000000003 C 49.16808999999997 -26.892520000000033 50.938089999999974 -24.97252000000003 51.71808999999997 -23.97252000000003 C 51.93808999999997 -23.702520000000032 52.16808999999997 -23.452520000000032 52.378089999999965 -23.182520000000032 C 52.588089999999966 -22.912520000000033 52.99808999999996 -22.42252000000003 53.308089999999964 -22.04252000000003 L 53.308089999999964 -22.04252000000003 C 75.08890999999997 5.0789099999999685 78.57951999999996 42.58225999999997 62.17808999999996 73.25747999999996 L 103.17808999999997 98.39747999999996 C 123.16547999999997 70.30538999999996 130.51005999999995 35.14134999999996 123.43808999999997 1.397479999999959" stroke-linecap="round" />
</g>
</svg>