<?xml version="1.0" encoding="UTF-8"?>
<!DOCTYPE svg PUBLIC "-//W3C//DTD SVG 1.1//EN" "http://www.w3.org/Graphics/SVG/1.1/DTD/svg11.dtd">
<svg xmlns="http://www.w3.org/2000/svg" version="1.1" width="300px" height="300px" style="shape-rendering:geometricPrecision; text-rendering:geometricPrecision; image-rendering:optimizeQuality; fill-rule:evenodd; clip-rule:evenodd" xmlns:xlink="http://www.w3.org/1999/xlink">
<g><path style="opacity:0.99" fill="#f69621" d="M 61.5,267.5 C 61.5,265.833 61.5,264.167 61.5,262.5C 61.3314,257.819 60.9981,253.152 60.5,248.5C 84.66,224.173 108.66,199.673 132.5,175C 160.167,174.667 187.833,174.333 215.5,174C 228.383,157.29 241.05,140.456 253.5,123.5C 254.043,123.44 254.376,123.107 254.5,122.5C 253.675,121.614 252.675,121.281 251.5,121.5C 230.548,117.243 209.548,113.243 188.5,109.5C 186.854,103.445 184.521,97.6113 181.5,92C 168.269,89.4902 155.102,87.6568 142,86.5C 141.51,87.7932 141.343,89.1266 141.5,90.5C 139.39,94.5021 138.057,98.8354 137.5,103.5C 136.89,104.391 136.557,105.391 136.5,106.5C 134.723,109.505 133.723,112.838 133.5,116.5C 131.723,119.505 130.723,122.838 130.5,126.5C 128.723,129.505 127.723,132.838 127.5,136.5C 126.89,137.391 126.557,138.391 126.5,139.5C 124.723,142.505 123.723,145.838 123.5,149.5C 123.103,150.525 122.437,150.692 121.5,150C 118,145.833 114.5,141.667 111,137.5C 109.624,130.328 107.791,123.328 105.5,116.5C 105.741,114.102 105.074,112.102 103.5,110.5C 103.5,109.833 103.5,109.167 103.5,108.5C 103.741,106.102 103.074,104.102 101.5,102.5C 101.5,102.167 101.5,101.833 101.5,101.5C 101.277,97.8379 100.277,94.5046 98.5,91.5C 79.8405,104.503 61.5072,118.003 43.5,132C 39.7381,134.108 35.7381,135.608 31.5,136.5C 30.8333,136.5 30.1667,136.5 29.5,136.5C 29.5,99.8333 29.5,63.1667 29.5,26.5C 110.167,26.5 190.833,26.5 271.5,26.5C 271.5,106.833 271.5,187.167 271.5,267.5C 201.5,267.5 131.5,267.5 61.5,267.5 Z"/></g>
<g><path style="opacity:1" fill="#fffefd" d="M 251.5,121.5 C 252.167,122.167 252.833,122.833 253.5,123.5C 241.05,140.456 228.383,157.29 215.5,174C 187.833,174.333 160.167,174.667 132.5,175C 108.66,199.673 84.66,224.173 60.5,248.5C 59.5013,253.005 59.5013,257.672 60.5,262.5C 60.5,263.833 60.5,265.167 60.5,266.5C 50.8333,266.5 41.1667,266.5 31.5,266.5C 31.5,223.167 31.5,179.833 31.5,136.5C 35.7381,135.608 39.7381,134.108 43.5,132C 61.5072,118.003 79.8405,104.503 98.5,91.5C 98.7234,95.1621 99.7234,98.4954 101.5,101.5C 101.5,101.833 101.5,102.167 101.5,102.5C 101.259,104.898 101.926,106.898 103.5,108.5C 103.5,109.167 103.5,109.833 103.5,110.5C 103.259,112.898 103.926,114.898 105.5,116.5C 107.791,123.328 109.624,130.328 111,137.5C 114.5,141.667 118,145.833 121.5,150C 122.437,150.692 123.103,150.525 123.5,149.5C 125.277,146.495 126.277,143.162 126.5,139.5C 126.557,138.391 126.89,137.391 127.5,136.5C 129.277,133.495 130.277,130.162 130.5,126.5C 132.277,123.495 133.277,120.162 133.5,116.5C 135.277,113.495 136.277,110.162 136.5,106.5C 136.557,105.391 136.89,104.391 137.5,103.5C 139.61,99.4979 140.943,95.1646 141.5,90.5C 141.343,89.1266 141.51,87.7932 142,86.5C 155.102,87.6568 168.269,89.4902 181.5,92C 184.521,97.6113 186.854,103.445 188.5,109.5C 209.548,113.243 230.548,117.243 251.5,121.5 Z"/></g>
<g><path style="opacity:1" fill="#fddcb7" d="M 141.5,90.5 C 140.943,95.1646 139.61,99.4979 137.5,103.5C 138.057,98.8354 139.39,94.5021 141.5,90.5 Z"/></g>
<g><path style="opacity:1" fill="#fcdeba" d="M 98.5,91.5 C 100.277,94.5046 101.277,97.8379 101.5,101.5C 99.7234,98.4954 98.7234,95.1621 98.5,91.5 Z"/></g>
<g><path style="opacity:1" fill="#fbcf9a" d="M 101.5,102.5 C 103.074,104.102 103.741,106.102 103.5,108.5C 101.926,106.898 101.259,104.898 101.5,102.5 Z"/></g>
<g><path style="opacity:1" fill="#fdd9ae" d="M 136.5,106.5 C 136.277,110.162 135.277,113.495 133.5,116.5C 133.723,112.838 134.723,109.505 136.5,106.5 Z"/></g>
<g><path style="opacity:1" fill="#fcd09d" d="M 103.5,110.5 C 105.074,112.102 105.741,114.102 105.5,116.5C 103.926,114.898 103.259,112.898 103.5,110.5 Z"/></g>
<g><path style="opacity:1" fill="#fddbb4" d="M 133.5,116.5 C 133.277,120.162 132.277,123.495 130.5,126.5C 130.723,122.838 131.723,119.505 133.5,116.5 Z"/></g>
<g><path style="opacity:1" fill="#facb93" d="M 251.5,121.5 C 252.675,121.281 253.675,121.614 254.5,122.5C 254.376,123.107 254.043,123.44 253.5,123.5C 252.833,122.833 252.167,122.167 251.5,121.5 Z"/></g>
<g><path style="opacity:1" fill="#fdddb8" d="M 130.5,126.5 C 130.277,130.162 129.277,133.495 127.5,136.5C 127.723,132.838 128.723,129.505 130.5,126.5 Z"/></g>
<g><path style="opacity:0.851" fill="#feead2" d="M 29.5,136.5 C 30.1667,136.5 30.8333,136.5 31.5,136.5C 31.5,179.833 31.5,223.167 31.5,266.5C 41.1667,266.5 50.8333,266.5 60.5,266.5C 60.5,265.167 60.5,263.833 60.5,262.5C 60.8333,262.5 61.1667,262.5 61.5,262.5C 61.5,264.167 61.5,265.833 61.5,267.5C 50.8333,267.5 40.1667,267.5 29.5,267.5C 29.5,223.833 29.5,180.167 29.5,136.5 Z"/></g>
<g><path style="opacity:1" fill="#fccb92" d="M 126.5,139.5 C 126.277,143.162 125.277,146.495 123.5,149.5C 123.723,145.838 124.723,142.505 126.5,139.5 Z"/></g>
<g><path style="opacity:1" fill="#fccc95" d="M 60.5,248.5 C 60.9981,253.152 61.3314,257.819 61.5,262.5C 61.1667,262.5 60.8333,262.5 60.5,262.5C 59.5013,257.672 59.5013,253.005 60.5,248.5 Z"/></g>
</svg>
