<?xml version="1.0" encoding="UTF-8"?>
<!DOCTYPE svg PUBLIC "-//W3C//DTD SVG 1.1//EN" "http://www.w3.org/Graphics/SVG/1.1/DTD/svg11.dtd">
<svg xmlns="http://www.w3.org/2000/svg" version="1.1" width="300px" height="300px" style="shape-rendering:geometricPrecision; text-rendering:geometricPrecision; image-rendering:optimizeQuality; fill-rule:evenodd; clip-rule:evenodd" xmlns:xlink="http://www.w3.org/1999/xlink">
<g><path style="opacity:1" fill="#fb5d4f" d="M 237.5,244.5 C 246.622,242.843 255.955,241.843 265.5,241.5C 267.238,239.881 267.738,237.881 267,235.5C 229,170.833 191,106.167 153,41.5C 150.119,39.9717 147.786,40.6384 146,43.5C 138.059,57.727 129.892,71.727 121.5,85.5C 120.243,86.6226 120.576,87.2893 122.5,87.5C 176.599,124 206.266,175 211.5,240.5C 211.5,247.833 211.5,255.167 211.5,262.5C 188.833,262.5 166.167,262.5 143.5,262.5C 144.881,213.605 126.215,174.605 87.5,145.5C 86.3774,144.243 85.7107,144.576 85.5,146.5C 81.9016,153.525 77.9016,160.358 73.5,167C 99.7052,186.24 114.372,212.073 117.5,244.5C 117.5,250.5 117.5,256.5 117.5,262.5C 89.5,262.5 61.5,262.5 33.5,262.5C 19.8411,259.836 12.5078,251.503 11.5,237.5C 11.8868,232.953 13.0534,228.619 15,224.5C 20.1918,216.103 25.3584,207.769 30.5,199.5C 31.391,198.89 32.391,198.557 33.5,198.5C 40.1755,200.187 45.8422,203.521 50.5,208.5C 44.5811,218.002 38.9144,227.669 33.5,237.5C 34.0351,239.261 35.0351,240.594 36.5,241.5C 56.3264,242.497 76.3264,242.83 96.5,242.5C 96.7373,241.209 96.404,240.209 95.5,239.5C 89.1264,209.304 72.1264,187.471 44.5,174C 56,154.5 67.5,135 79,115.5C 129.823,142.188 158.323,184.188 164.5,241.5C 172.984,242.493 181.651,242.826 190.5,242.5C 190.802,239.941 190.468,237.607 189.5,235.5C 180.699,171.417 148.032,124.084 91.5,93.5C 103.667,72.5 115.833,51.5 128,30.5C 143,14.5 158,14.5 173,30.5C 211,95.8333 249,161.167 287,226.5C 292.908,242.403 288.408,254.237 273.5,262C 261.21,263.751 248.877,263.918 236.5,262.5C 237.457,256.561 237.79,250.561 237.5,244.5 Z"/></g>
<g><path style="opacity:1" fill="#8e89a2" d="M 121.5,85.5 C 121.833,86.1667 122.167,86.8333 122.5,87.5C 120.576,87.2893 120.243,86.6226 121.5,85.5 Z"/></g>
<g><path style="opacity:1" fill="#89849e" d="M 87.5,145.5 C 86.8333,145.833 86.1667,146.167 85.5,146.5C 85.7107,144.576 86.3774,144.243 87.5,145.5 Z"/></g>
<g><path style="opacity:1" fill="#87829c" d="M 33.5,198.5 C 32.391,198.557 31.391,198.89 30.5,199.5C 31.0527,197.448 32.0527,197.115 33.5,198.5 Z"/></g>
<g><path style="opacity:1" fill="#9a95ab" d="M 95.5,239.5 C 96.404,240.209 96.7373,241.209 96.5,242.5C 76.3264,242.83 56.3264,242.497 36.5,241.5C 56.5284,242.154 76.1951,241.488 95.5,239.5 Z"/></g>
<g><path style="opacity:1" fill="#9994ab" d="M 189.5,235.5 C 190.468,237.607 190.802,239.941 190.5,242.5C 181.651,242.826 172.984,242.493 164.5,241.5C 172.833,241.5 181.167,241.5 189.5,241.5C 189.5,239.5 189.5,237.5 189.5,235.5 Z"/></g>
<g><path style="opacity:1" fill="#cac8d3" d="M 265.5,241.5 C 255.955,241.843 246.622,242.843 237.5,244.5C 236.596,243.791 236.263,242.791 236.5,241.5C 246.167,241.5 255.833,241.5 265.5,241.5 Z"/></g>
<g><path style="opacity:1" fill="#6d6787" d="M 117.5,244.5 C 118.49,250.645 118.823,256.978 118.5,263.5C 89.9951,263.831 61.6618,263.498 33.5,262.5C 61.5,262.5 89.5,262.5 117.5,262.5C 117.5,256.5 117.5,250.5 117.5,244.5 Z"/></g>
<g><path style="opacity:1" fill="#6e6888" d="M 211.5,240.5 C 212.492,247.982 212.825,255.648 212.5,263.5C 189.327,263.831 166.327,263.498 143.5,262.5C 166.167,262.5 188.833,262.5 211.5,262.5C 211.5,255.167 211.5,247.833 211.5,240.5 Z"/></g>
</svg>
