<?xml version="1.0" encoding="UTF-8"?>
<!DOCTYPE svg PUBLIC "-//W3C//DTD SVG 1.1//EN" "http://www.w3.org/Graphics/SVG/1.1/DTD/svg11.dtd">
<svg xmlns="http://www.w3.org/2000/svg" version="1.1" width="299px" height="300px" style="shape-rendering:geometricPrecision; text-rendering:geometricPrecision; image-rendering:optimizeQuality; fill-rule:evenodd; clip-rule:evenodd" xmlns:xlink="http://www.w3.org/1999/xlink">
<g><path style="opacity:0.981" fill="#87888a" d="M 142.5,67.5 C 146.5,67.5 150.5,67.5 154.5,67.5C 154.812,77.6446 153.812,87.6446 151.5,97.5C 150.596,98.209 150.263,99.209 150.5,100.5C 149.069,101.78 148.402,103.447 148.5,105.5C 147.5,106.833 146.5,108.167 145.5,109.5C 145.19,108.262 144.69,108.262 144,109.5C 143.743,95.4798 143.243,81.4798 142.5,67.5 Z"/></g>
<g><path style="opacity:0.982" fill="#77777b" d="M 142.5,67.5 C 143.243,81.4798 143.743,95.4798 144,109.5C 144.69,108.262 145.19,108.262 145.5,109.5C 144.331,112.511 142.664,115.178 140.5,117.5C 139.806,109.296 139.139,100.962 138.5,92.5C 139.374,90.2534 139.708,87.9201 139.5,85.5C 140.029,80.1777 140.529,74.8443 141,69.5C 141.278,68.5842 141.778,67.9175 142.5,67.5 Z"/></g>
<g><path style="opacity:0.977" fill="#12588c" d="M 159.5,94.5 C 157.528,103.44 156.861,112.773 157.5,122.5C 153.216,117.602 150.216,111.935 148.5,105.5C 149.931,104.22 150.598,102.553 150.5,100.5C 151.404,99.791 151.737,98.791 151.5,97.5C 153.419,92.7251 154.919,87.7251 156,82.5C 157.232,86.5027 158.399,90.5027 159.5,94.5 Z"/></g>
<g><path style="opacity:0.999" fill="#636569" d="M 139.5,85.5 C 139.708,87.9201 139.374,90.2534 138.5,92.5C 139.139,100.962 139.806,109.296 140.5,117.5C 139.529,119.483 138.529,121.483 137.5,123.5C 136.167,123.5 134.833,123.5 133.5,123.5C 132.723,118.916 132.223,114.25 132,109.5C 131.722,108.584 131.222,107.918 130.5,107.5C 134.306,100.395 137.306,93.0613 139.5,85.5 Z"/></g>
<g><path style="opacity:0.949" fill="#1a6696" d="M 159.5,94.5 C 161.286,100.072 163.619,105.405 166.5,110.5C 164.539,117.087 163.872,124.087 164.5,131.5C 164.167,131.5 163.833,131.5 163.5,131.5C 163.5,130.833 163.167,130.5 162.5,130.5C 162.5,129.833 162.167,129.5 161.5,129.5C 161.5,128.833 161.167,128.5 160.5,128.5C 160.672,127.508 160.338,126.842 159.5,126.5C 159.5,125.833 159.167,125.5 158.5,125.5C 158.5,124.833 158.167,124.5 157.5,124.5C 157.5,123.833 157.5,123.167 157.5,122.5C 156.861,112.773 157.528,103.44 159.5,94.5 Z"/></g>
<g><path style="opacity:0.973" fill="#424448" d="M 130.5,107.5 C 131.222,107.918 131.722,108.584 132,109.5C 132.223,114.25 132.723,118.916 133.5,123.5C 132.508,123.328 131.842,123.662 131.5,124.5C 130.167,124.5 128.833,124.5 127.5,124.5C 126.833,124.5 126.5,124.833 126.5,125.5C 125.5,125.5 124.5,125.5 123.5,125.5C 122.833,125.5 122.5,125.833 122.5,126.5C 121.833,126.5 121.167,126.5 120.5,126.5C 119.833,126.5 119.5,126.833 119.5,127.5C 118.833,127.5 118.167,127.5 117.5,127.5C 116.833,127.5 116.5,127.833 116.5,128.5C 116.167,128.5 115.833,128.5 115.5,128.5C 114.508,128.328 113.842,128.662 113.5,129.5C 113.167,129.5 112.833,129.5 112.5,129.5C 116.02,124.467 120.187,119.801 125,115.5C 127.054,112.953 128.887,110.286 130.5,107.5 Z"/></g>
<g><path style="opacity:0.982" fill="#2d7fac" d="M 166.5,110.5 C 168.833,113.833 171.167,117.167 173.5,120.5C 173.705,126.878 173.372,133.211 172.5,139.5C 172.167,139.5 171.833,139.5 171.5,139.5C 171.5,138.833 171.167,138.5 170.5,138.5C 170.5,137.833 170.167,137.5 169.5,137.5C 169.5,136.833 169.167,136.5 168.5,136.5C 168.5,135.833 168.167,135.5 167.5,135.5C 167.5,134.833 167.167,134.5 166.5,134.5C 166.5,133.833 166.167,133.5 165.5,133.5C 165.5,132.833 165.167,132.5 164.5,132.5C 164.5,132.167 164.5,131.833 164.5,131.5C 163.872,124.087 164.539,117.087 166.5,110.5 Z"/></g>
<g><path style="opacity:1" fill="#2c7fad" d="M 133.5,124.5 C 133.5,124.167 133.5,123.833 133.5,123.5C 134.833,123.5 136.167,123.5 137.5,123.5C 140.167,123.5 142.833,123.5 145.5,123.5C 145.804,124.15 146.137,124.817 146.5,125.5C 146.125,130.095 145.125,134.428 143.5,138.5C 140.833,138.5 138.167,138.5 135.5,138.5C 134.833,133.833 134.167,129.167 133.5,124.5 Z"/></g>
<g><path style="opacity:0.947" fill="#45a4d0" d="M 127.5,124.5 C 128.833,124.5 130.167,124.5 131.5,124.5C 132.167,124.5 132.833,124.5 133.5,124.5C 134.167,129.167 134.833,133.833 135.5,138.5C 131.687,139.787 127.687,140.787 123.5,141.5C 123.138,136.579 122.138,131.913 120.5,127.5C 120.5,127.167 120.5,126.833 120.5,126.5C 121.167,126.5 121.833,126.5 122.5,126.5C 123.167,126.5 123.5,126.167 123.5,125.5C 124.5,125.5 125.5,125.5 126.5,125.5C 127.167,125.5 127.5,125.167 127.5,124.5 Z"/></g>
<g><path style="opacity:0.965" fill="#196495" d="M 145.5,123.5 C 149.6,123.237 153.6,123.57 157.5,124.5C 158.167,124.5 158.5,124.833 158.5,125.5C 159.167,125.5 159.5,125.833 159.5,126.5C 159.328,127.492 159.662,128.158 160.5,128.5C 161.167,128.5 161.5,128.833 161.5,129.5C 162.167,129.5 162.5,129.833 162.5,130.5C 163.167,130.5 163.5,130.833 163.5,131.5C 163.5,132.167 163.833,132.5 164.5,132.5C 165.167,132.5 165.5,132.833 165.5,133.5C 166.167,133.5 166.5,133.833 166.5,134.5C 167.167,134.5 167.5,134.833 167.5,135.5C 168.167,135.5 168.5,135.833 168.5,136.5C 169.167,136.5 169.5,136.833 169.5,137.5C 170.167,137.5 170.5,137.833 170.5,138.5C 171.167,138.5 171.5,138.833 171.5,139.5C 171.5,140.167 171.833,140.5 172.5,140.5C 172.5,141.167 172.833,141.5 173.5,141.5C 173.833,141.5 174.167,141.5 174.5,141.5C 174.53,142.497 174.03,143.164 173,143.5C 163.523,139.705 153.69,138.038 143.5,138.5C 145.125,134.428 146.125,130.095 146.5,125.5C 146.137,124.817 145.804,124.15 145.5,123.5 Z"/></g>
<g><path style="opacity:1" fill="#46a8d2" d="M 173.5,120.5 C 176.5,122.833 179.167,125.5 181.5,128.5C 180.833,133.833 180.167,139.167 179.5,144.5C 177.668,143.752 176.001,142.752 174.5,141.5C 174.167,140.167 173.833,140.167 173.5,141.5C 172.833,141.5 172.5,141.167 172.5,140.5C 172.5,140.167 172.5,139.833 172.5,139.5C 173.372,133.211 173.705,126.878 173.5,120.5 Z"/></g>
<g><path style="opacity:0.937" fill="#5dc4e8" d="M 117.5,127.5 C 118.167,127.5 118.833,127.5 119.5,127.5C 119.833,127.5 120.167,127.5 120.5,127.5C 122.138,131.913 123.138,136.579 123.5,141.5C 118.901,143.461 114.235,145.461 109.5,147.5C 109.218,142.073 109.551,136.74 110.5,131.5C 111.167,130.833 111.833,130.167 112.5,129.5C 112.833,129.5 113.167,129.5 113.5,129.5C 114.492,129.672 115.158,129.338 115.5,128.5C 115.833,128.5 116.167,128.5 116.5,128.5C 117.167,128.5 117.5,128.167 117.5,127.5 Z"/></g>
<g><path style="opacity:1" fill="#68c7e7" d="M 181.5,128.5 C 186.112,130.963 190.112,134.13 193.5,138C 191.973,142.223 189.807,146.056 187,149.5C 184.176,148.182 181.676,146.515 179.5,144.5C 180.167,139.167 180.833,133.833 181.5,128.5 Z"/></g>
<g><path style="opacity:1" fill="#85d2e2" d="M 110.5,131.5 C 109.551,136.74 109.218,142.073 109.5,147.5C 108.207,148.645 107.041,148.311 106,146.5C 104.04,143.415 102.207,140.248 100.5,137C 103.406,134.381 106.739,132.547 110.5,131.5 Z"/></g>
<g><path style="opacity:0.977" fill="#7a7f85" d="M 61.5,162.5 C 63.1667,162.5 64.8333,162.5 66.5,162.5C 66.5,180.167 66.5,197.833 66.5,215.5C 64.8333,215.5 63.1667,215.5 61.5,215.5C 61.5,197.833 61.5,180.167 61.5,162.5 Z"/></g>
<g><path style="opacity:0.848" fill="#494e54" d="M 237.5,162.5 C 239.167,162.5 240.833,162.5 242.5,162.5C 242.334,172.839 242.5,183.172 243,193.5C 247.122,187.709 251.622,182.209 256.5,177C 258.473,176.505 260.473,176.338 262.5,176.5C 262.649,177.552 262.483,178.552 262,179.5C 257.019,184.802 252.519,190.469 248.5,196.5C 252.812,201.98 257.312,207.313 262,212.5C 262.483,213.448 262.649,214.448 262.5,215.5C 260.143,215.663 257.81,215.497 255.5,215C 251.713,209.544 247.546,204.377 243,199.5C 242.501,204.823 242.334,210.156 242.5,215.5C 240.833,215.5 239.167,215.5 237.5,215.5C 237.5,197.833 237.5,180.167 237.5,162.5 Z"/></g>
<g><path style="opacity:0.808" fill="#767a86" d="M 52.5,162.5 C 58.1581,161.679 59.8248,163.846 57.5,169C 55.5273,169.495 53.5273,169.662 51.5,169.5C 51.298,167.05 51.6314,164.717 52.5,162.5 Z"/></g>
<g><path style="opacity:0.997" fill="#7a7e84" d="M 52.5,176.5 C 54.1667,176.5 55.8333,176.5 57.5,176.5C 57.5,189.5 57.5,202.5 57.5,215.5C 55.8333,215.5 54.1667,215.5 52.5,215.5C 52.5,202.5 52.5,189.5 52.5,176.5 Z"/></g>
<g><path style="opacity:0.976" fill="#484c51" d="M 168.5,176.5 C 168.697,178.48 168.03,180.48 166.5,182.5C 163.03,181.875 160.196,182.875 158,185.5C 157.333,192.5 157.333,199.5 158,206.5C 158.513,207.527 159.013,208.527 159.5,209.5C 158.962,211.117 158.629,212.784 158.5,214.5C 157.513,219.305 157.179,224.305 157.5,229.5C 155.5,229.5 153.5,229.5 151.5,229.5C 151.5,211.833 151.5,194.167 151.5,176.5C 153.912,176.244 155.579,177.244 156.5,179.5C 160.181,176.368 164.181,175.368 168.5,176.5 Z"/></g>
<g><path style="opacity:0.895" fill="#787c84" d="M 138.5,175.5 C 139.833,175.5 141.167,175.5 142.5,175.5C 142.5,177.833 142.5,180.167 142.5,182.5C 138.808,181.971 135.642,182.971 133,185.5C 132.5,195.494 132.334,205.494 132.5,215.5C 130.5,215.5 128.5,215.5 126.5,215.5C 126.5,202.5 126.5,189.5 126.5,176.5C 128.638,176.703 130.305,177.703 131.5,179.5C 133.525,177.436 135.858,176.102 138.5,175.5 Z"/></g>
<g><path style="opacity:1" fill="#787b81" d="M 108.5,175.5 C 109.952,176.302 111.618,176.802 113.5,177C 108.206,177.818 108.206,178.318 113.5,178.5C 113.433,179.959 113.766,181.292 114.5,182.5C 111.813,182.336 109.146,182.503 106.5,183C 105.177,183.816 104.511,184.983 104.5,186.5C 103.85,186.196 103.183,185.863 102.5,185.5C 101.03,189.068 101.364,192.401 103.5,195.5C 109.798,196.496 116.132,196.83 122.5,196.5C 122.185,192.629 122.518,188.962 123.5,185.5C 124.483,189.298 124.817,193.298 124.5,197.5C 117.5,197.5 110.5,197.5 103.5,197.5C 102.883,197.389 102.383,197.056 102,196.5C 101.233,200.558 101.4,204.558 102.5,208.5C 101.606,208.517 100.606,208.851 99.5,209.5C 98.3431,201.01 98.1764,192.343 99,183.5C 100.869,179.312 104.036,176.646 108.5,175.5 Z"/></g>
<g><path style="opacity:0.687" fill="#7c7f84" d="M 108.5,175.5 C 116.511,174.653 121.511,177.986 123.5,185.5C 122.518,188.962 122.185,192.629 122.5,196.5C 116.132,196.83 109.798,196.496 103.5,195.5C 101.364,192.401 101.03,189.068 102.5,185.5C 103.183,185.863 103.85,186.196 104.5,186.5C 103.699,188.042 103.366,189.708 103.5,191.5C 108.5,191.5 113.5,191.5 118.5,191.5C 119.341,187.425 118.008,184.425 114.5,182.5C 113.766,181.292 113.433,179.959 113.5,178.5C 108.206,178.318 108.206,177.818 113.5,177C 111.618,176.802 109.952,176.302 108.5,175.5 Z"/></g>
<g><path style="opacity:1" fill="#4a4f55" d="M 168.5,176.5 C 172.761,177.053 175.594,179.387 177,183.5C 177.667,192.167 177.667,200.833 177,209.5C 172.413,216.74 166.246,218.406 158.5,214.5C 158.629,212.784 158.962,211.117 159.5,209.5C 163.805,211.338 167.639,210.672 171,207.5C 172.544,200.916 172.877,194.249 172,187.5C 171.563,184.228 169.73,182.561 166.5,182.5C 168.03,180.48 168.697,178.48 168.5,176.5 Z"/></g>
<g><path style="opacity:0.94" fill="#4a4f54" d="M 189.5,175.5 C 203.544,175.537 209.044,182.537 206,196.5C 199.256,197.479 192.422,197.812 185.5,197.5C 183.367,207.789 187.367,211.955 197.5,210C 199.816,207.695 201.15,204.862 201.5,201.5C 203.84,201.866 205.507,203.033 206.5,205C 203.982,215.096 197.648,218.763 187.5,216C 185.376,214.878 183.543,213.378 182,211.5C 180.389,202.268 180.055,192.935 181,183.5C 182.73,179.57 185.564,176.903 189.5,175.5 Z M 188.5,182.5 C 196.61,180.293 200.61,183.293 200.5,191.5C 195.5,191.5 190.5,191.5 185.5,191.5C 185.129,187.997 186.129,184.997 188.5,182.5 Z"/></g>
<g><path style="opacity:0.986" fill="#494d53" d="M 218.5,175.5 C 225.906,174.782 231.073,177.782 234,184.5C 234.5,194.828 234.666,205.161 234.5,215.5C 232.089,215.863 230.589,214.863 230,212.5C 223.597,217.773 217.263,217.773 211,212.5C 206.044,196.937 211.877,190.27 228.5,192.5C 229.352,183.247 225.352,180.247 216.5,183.5C 215.132,185.637 214.132,187.97 213.5,190.5C 211.941,189.926 210.441,189.26 209,188.5C 208.905,181.764 212.071,177.431 218.5,175.5 Z M 219.5,197.5 C 222.5,197.5 225.5,197.5 228.5,197.5C 230.62,208.202 226.62,212.035 216.5,209C 212.656,204.018 213.656,200.185 219.5,197.5 Z"/></g>
<g><path style="opacity:0.486" fill="#787c82" d="M 268.5,176.5 C 273.813,176.644 275.979,179.31 275,184.5C 270.674,188.602 267.508,187.768 265.5,182C 266.124,179.915 267.124,178.082 268.5,176.5 Z"/></g>
<g><path style="opacity:0.873" fill="#797d83" d="M 69.5,176.5 C 71.1667,176.5 72.8333,176.5 74.5,176.5C 77.1696,185.676 80.3363,194.676 84,203.5C 87.1427,194.573 89.976,185.573 92.5,176.5C 94.5,176.5 96.5,176.5 98.5,176.5C 94.6411,188.91 90.4745,201.243 86,213.5C 84.951,215.107 83.451,215.773 81.5,215.5C 77.0905,202.606 73.0905,189.606 69.5,176.5 Z"/></g>
<g><path style="opacity:0.81" fill="#797c83" d="M 49.5,203.5 C 47.9256,203.063 46.7589,202.063 46,200.5C 46.3744,202.769 46.3744,205.102 46,207.5C 45.6174,206.944 45.1174,206.611 44.5,206.5C 44.607,204.097 43.607,202.264 41.5,201C 36.2271,199.578 31.2271,197.578 26.5,195C 20.9839,184.072 24.3173,177.572 36.5,175.5C 44.7025,176.198 48.8692,180.532 49,188.5C 47.3005,189.406 45.4672,189.739 43.5,189.5C 44.1742,184.174 41.8408,181.841 36.5,182.5C 30.992,181.839 28.8254,184.172 30,189.5C 35.2799,192.376 40.7799,194.876 46.5,197C 48.4506,198.734 49.4506,200.901 49.5,203.5 Z"/></g>
<g><path style="opacity:0.839" fill="#787c82" d="M 103.5,197.5 C 101.565,208.74 105.898,212.574 116.5,209C 118.278,206.865 118.945,204.365 118.5,201.5C 120.5,201.833 122.5,202.167 124.5,202.5C 123.401,214.075 117.068,218.575 105.5,216C 102.591,214.594 100.591,212.428 99.5,209.5C 100.606,208.851 101.606,208.517 102.5,208.5C 101.4,204.558 101.233,200.558 102,196.5C 102.383,197.056 102.883,197.389 103.5,197.5 Z"/></g>
<g><path style="opacity:0.826" fill="#787d83" d="M 49.5,203.5 C 48.6952,214.757 42.6952,218.924 31.5,216C 24.7692,213.704 22.4359,209.204 24.5,202.5C 25.7362,201.754 27.0695,201.421 28.5,201.5C 28.635,209.421 32.635,212.255 40.5,210C 42.3502,209.31 43.6836,208.144 44.5,206.5C 45.1174,206.611 45.6174,206.944 46,207.5C 46.3744,205.102 46.3744,202.769 46,200.5C 46.7589,202.063 47.9256,203.063 49.5,203.5 Z"/></g>
</svg>
