<?xml version="1.0" encoding="UTF-8"?>
<!DOCTYPE svg PUBLIC "-//W3C//DTD SVG 1.1//EN" "http://www.w3.org/Graphics/SVG/1.1/DTD/svg11.dtd">
<svg xmlns="http://www.w3.org/2000/svg" version="1.1" width="301px" height="300px" style="shape-rendering:geometricPrecision; text-rendering:geometricPrecision; image-rendering:optimizeQuality; fill-rule:evenodd; clip-rule:evenodd" xmlns:xlink="http://www.w3.org/1999/xlink">
<g><path style="opacity:0.999" fill="#b0c7e3" d="M 31.5,79.5 C 41.2281,78.16 50.2281,79.9934 58.5,85C 64.5256,89.6959 66.859,95.6959 65.5,103C 61.5,103.667 57.5,103.667 53.5,103C 51.5606,100.376 49.8939,97.5428 48.5,94.5C 43.1361,91.1488 37.4695,90.6488 31.5,93C 25.7989,98.5662 26.4655,103.233 33.5,107C 43.5879,109.301 52.7546,113.468 61,119.5C 69.0007,130.816 67.834,140.983 57.5,150C 42.2447,156.708 28.078,154.875 15,144.5C 11.932,140.011 10.432,135.011 10.5,129.5C 15.5,129.5 20.5,129.5 25.5,129.5C 26.7285,139.442 32.3951,143.609 42.5,142C 52.7324,138.832 54.0658,133.499 46.5,126C 38.5124,123.741 30.8457,120.741 23.5,117C 13.0649,110.252 10.3982,101.252 15.5,90C 19.7506,84.717 25.084,81.217 31.5,79.5 Z"/></g>
<g><path style="opacity:1" fill="#afc7e3" d="M 74.5,80.5 C 79.7616,80.1953 84.9283,80.5286 90,81.5C 98.8303,96.4957 108.164,111.162 118,125.5C 118.5,110.504 118.667,95.5037 118.5,80.5C 123.5,80.5 128.5,80.5 133.5,80.5C 133.5,104.5 133.5,128.5 133.5,152.5C 128.489,152.666 123.489,152.499 118.5,152C 108.376,137.591 98.8763,122.757 90,107.5C 89.5001,122.496 89.3334,137.496 89.5,152.5C 84.5,152.5 79.5,152.5 74.5,152.5C 74.5,128.5 74.5,104.5 74.5,80.5 Z"/></g>
<g><path style="opacity:0.999" fill="#aec6e3" d="M 145.5,80.5 C 151.833,80.5 158.167,80.5 164.5,80.5C 170.434,97.5947 176.6,114.595 183,131.5C 188.287,115.502 194.62,98.8355 202,81.5C 208.076,80.5236 214.242,80.1903 220.5,80.5C 220.5,104.5 220.5,128.5 220.5,152.5C 215.5,152.5 210.5,152.5 205.5,152.5C 205.384,137.776 205.551,123.109 206,108.5C 200.346,122.827 194.679,137.16 189,151.5C 184.882,152.798 180.715,152.798 176.5,151.5C 171.174,137.052 165.674,122.385 160,107.5C 160.284,122.483 160.45,137.483 160.5,152.5C 155.5,152.5 150.5,152.5 145.5,152.5C 145.5,128.5 145.5,104.5 145.5,80.5 Z"/></g>
<g><path style="opacity:0.997" fill="#aec6e3" d="M 232.5,80.5 C 245.894,80.0755 259.227,80.5755 272.5,82C 286.097,88.0267 290.93,98.1934 287,112.5C 283.503,119.993 277.67,124.493 269.5,126C 262.174,126.5 254.841,126.666 247.5,126.5C 247.5,135.167 247.5,143.833 247.5,152.5C 242.5,152.5 237.5,152.5 232.5,152.5C 232.5,128.5 232.5,104.5 232.5,80.5 Z M 247.5,92.5 C 254.589,92.1156 261.589,92.6156 268.5,94C 275.462,101.47 274.796,108.137 266.5,114C 260.231,115.257 253.898,115.757 247.5,115.5C 247.5,107.833 247.5,100.167 247.5,92.5 Z"/></g>
<g><path style="opacity:0.625" fill="#b6cbe5" d="M 76.5,169.5 C 87.5,169.5 98.5,169.5 109.5,169.5C 109.5,171.5 109.5,173.5 109.5,175.5C 104.833,175.5 100.167,175.5 95.5,175.5C 95.5,188.5 95.5,201.5 95.5,214.5C 93.8333,214.5 92.1667,214.5 90.5,214.5C 90.5,201.5 90.5,188.5 90.5,175.5C 85.8215,175.666 81.1548,175.499 76.5,175C 75.2475,173.172 75.2475,171.339 76.5,169.5 Z"/></g>
<g><path style="opacity:1" fill="#b5cbe7" d="M 111.5,180.5 C 113.167,180.5 114.833,180.5 116.5,180.5C 116.443,184.133 117.443,184.3 119.5,181C 122.146,180.503 124.813,180.336 127.5,180.5C 127.5,182.5 127.5,184.5 127.5,186.5C 122.894,185.443 119.56,186.943 117.5,191C 116.547,198.79 116.214,206.623 116.5,214.5C 114.833,214.5 113.167,214.5 111.5,214.5C 111.5,203.167 111.5,191.833 111.5,180.5 Z"/></g>
<g><path style="opacity:0.985" fill="#b6cbe7" d="M 161.5,180.5 C 163.821,180.229 165.821,180.896 167.5,182.5C 181.055,177.804 188.055,182.804 188.5,197.5C 188.055,212.196 181.055,217.196 167.5,212.5C 166.676,215.785 166.176,219.118 166,222.5C 164.644,221.62 163.144,221.286 161.5,221.5C 161.5,207.833 161.5,194.167 161.5,180.5 Z M 170.5,186.5 C 176.067,185.171 180.067,187.004 182.5,192C 182.811,196.371 182.311,200.871 181,205.5C 175.932,210.901 171.265,210.567 167,204.5C 166.333,199.833 166.333,195.167 167,190.5C 167.69,188.65 168.856,187.316 170.5,186.5 Z"/></g>
<g><path style="opacity:0.991" fill="#b4cae6" d="M 135.5,180.5 C 139.514,180.334 143.514,180.501 147.5,181C 149.939,181.774 151.773,183.274 153,185.5C 152.975,195.308 153.808,204.975 155.5,214.5C 153.5,214.5 151.5,214.5 149.5,214.5C 149.649,213.448 149.483,212.448 149,211.5C 144.219,214.363 139.052,215.196 133.5,214C 127.295,208.349 126.961,202.349 132.5,196C 137.595,193.823 142.928,192.99 148.5,193.5C 148.92,188.652 146.753,185.986 142,185.5C 140.215,186.24 138.382,186.907 136.5,187.5C 135.005,192.764 132.338,193.598 128.5,190C 129.504,185.833 131.837,182.666 135.5,180.5 Z M 141.5,198.5 C 143.833,198.5 146.167,198.5 148.5,198.5C 149.265,204.906 146.432,208.572 140,209.5C 136.96,208.904 134.794,207.238 133.5,204.5C 135.478,201.518 138.145,199.518 141.5,198.5 Z"/></g>
<g><path style="opacity:0.996" fill="#b4cae6" d="M 199.5,180.5 C 203.514,180.334 207.514,180.501 211.5,181C 215.726,183.617 217.726,187.45 217.5,192.5C 215.801,192.66 214.134,192.494 212.5,192C 211.547,188.047 209.047,185.881 205,185.5C 202.468,186.006 200.302,187.173 198.5,189C 200.879,193.04 204.546,195.04 209.5,195C 216.284,197.094 218.784,201.594 217,208.5C 215.833,211 214,212.833 211.5,214C 206.382,214.888 201.382,214.555 196.5,213C 193.13,210.303 191.796,206.803 192.5,202.5C 193.873,202.343 195.207,202.51 196.5,203C 198.878,208.189 202.878,210.189 208.5,209C 212.115,206.937 212.448,204.437 209.5,201.5C 203.712,200.41 198.546,198.077 194,194.5C 191.881,188.325 193.714,183.659 199.5,180.5 Z"/></g>
</svg>
