<?xml version="1.0" encoding="UTF-8"?>
<!DOCTYPE svg PUBLIC "-//W3C//DTD SVG 1.1//EN" "http://www.w3.org/Graphics/SVG/1.1/DTD/svg11.dtd">
<svg xmlns="http://www.w3.org/2000/svg" version="1.1" width="299px" height="300px" style="shape-rendering:geometricPrecision; text-rendering:geometricPrecision; image-rendering:optimizeQuality; fill-rule:evenodd; clip-rule:evenodd" xmlns:xlink="http://www.w3.org/1999/xlink">
<g><path style="opacity:0.995" fill="#afc2ed" d="M 42.5,69.5 C 48.8421,69.3338 55.1754,69.5005 61.5,70C 63.8713,70.7348 66.2046,71.5682 68.5,72.5C 68.8333,73.3333 69.1667,74.1667 69.5,75C 68.6781,77.4716 68.0114,79.9716 67.5,82.5C 60.3985,79.812 53.0652,78.9786 45.5,80C 39.7913,83.5454 39.1246,87.8787 43.5,93C 49.8333,96 56.1667,99 62.5,102C 68.8527,105.204 71.5194,110.371 70.5,117.5C 70.2975,128.541 64.6309,134.707 53.5,136C 45.6992,136.895 38.0326,136.228 30.5,134C 29.2052,130.214 29.2052,126.38 30.5,122.5C 39.3337,126.956 48.3337,127.456 57.5,124C 61.3503,120.04 61.3503,116.04 57.5,112C 49.1431,108.739 41.3097,104.573 34,99.5C 27.8999,90.8713 28.0666,82.3713 34.5,74C 37.0993,72.205 39.7659,70.705 42.5,69.5 Z"/></g>
<g><path style="opacity:1" fill="#aec2ed" d="M 83.5,69.5 C 87.1817,69.3347 90.8484,69.5014 94.5,70C 105.852,86.0059 116.352,102.506 126,119.5C 125.628,102.856 125.461,86.1897 125.5,69.5C 128.833,69.5 132.167,69.5 135.5,69.5C 135.5,91.5 135.5,113.5 135.5,135.5C 131.116,135.826 126.783,135.492 122.5,134.5C 112.333,118.167 102.167,101.833 92,85.5C 92.4081,102.136 92.5747,118.803 92.5,135.5C 89.1667,135.5 85.8333,135.5 82.5,135.5C 82.1781,113.425 82.5114,91.4247 83.5,69.5 Z"/></g>
<g><path style="opacity:0.999" fill="#b1c3ed" d="M 151.5,69.5 C 156.544,69.1725 161.544,69.5059 166.5,70.5C 172.063,86.7066 178.063,102.707 184.5,118.5C 190.939,102.619 197.105,86.6195 203,70.5C 208,69.1667 213,69.1667 218,70.5C 218.667,91.8333 218.667,113.167 218,134.5C 214.606,135.456 211.106,135.789 207.5,135.5C 207.667,119.163 207.5,102.83 207,86.5C 200.923,102.069 195.256,117.736 190,133.5C 188.475,134.72 186.641,135.387 184.5,135.5C 182.571,135.46 180.738,135.127 179,134.5C 173.133,118.565 167.466,102.565 162,86.5C 161.5,102.83 161.333,119.163 161.5,135.5C 158.167,135.5 154.833,135.5 151.5,135.5C 151.5,113.5 151.5,91.5 151.5,69.5 Z"/></g>
<g><path style="opacity:1" fill="#aec2ed" d="M 234.5,69.5 C 246.05,68.8695 257.383,70.0362 268.5,73C 275.752,78.7562 278.252,86.2562 276,95.5C 273.414,104.227 267.58,109.394 258.5,111C 253.845,111.499 249.179,111.666 244.5,111.5C 244.5,119.5 244.5,127.5 244.5,135.5C 240.833,135.5 237.167,135.5 233.5,135.5C 233.178,113.425 233.511,91.4247 234.5,69.5 Z M 244.5,79.5 C 250.786,78.9483 256.786,79.9483 262.5,82.5C 266.752,88.3081 266.418,93.8081 261.5,99C 255.99,100.89 250.324,101.723 244.5,101.5C 244.5,94.1667 244.5,86.8333 244.5,79.5 Z"/></g>
<g><path style="opacity:1" fill="#aec2ed" d="M 28.5,160.5 C 44.8333,160.5 61.1667,160.5 77.5,160.5C 77.5,163.833 77.5,167.167 77.5,170.5C 70.8333,170.5 64.1667,170.5 57.5,170.5C 57.5,189.167 57.5,207.833 57.5,226.5C 54.1667,226.5 50.8333,226.5 47.5,226.5C 47.5,207.833 47.5,189.167 47.5,170.5C 41.1667,170.5 34.8333,170.5 28.5,170.5C 28.5,167.167 28.5,163.833 28.5,160.5 Z"/></g>
<g><path style="opacity:1" fill="#aec2ed" d="M 84.5,222.5 C 85.3313,207.672 85.8313,192.672 86,177.5C 88.0408,176.577 90.2075,176.244 92.5,176.5C 93.4691,178.663 94.3024,180.996 95,183.5C 99.0674,177.05 104.901,174.216 112.5,175C 114.377,178.494 115.044,182.327 114.5,186.5C 107.181,184.448 101.348,186.448 97,192.5C 95.5666,203.756 95.0666,215.09 95.5,226.5C 91.8333,226.5 88.1667,226.5 84.5,226.5C 84.5,225.167 84.5,223.833 84.5,222.5 Z"/></g>
<g><path style="opacity:0.998" fill="#afc2ed" d="M 138.5,174.5 C 148.295,173.313 155.462,176.98 160,185.5C 160.5,199.163 160.667,212.829 160.5,226.5C 157.833,226.5 155.167,226.5 152.5,226.5C 152.162,224.146 151.662,221.813 151,219.5C 147.349,224.91 142.183,227.577 135.5,227.5C 121.995,226.149 116.829,218.816 120,205.5C 122.832,200.006 127.332,196.839 133.5,196C 139.149,195.243 144.816,194.743 150.5,194.5C 150.694,187.85 147.528,184.517 141,184.5C 136.74,185.107 132.574,186.107 128.5,187.5C 125.299,185.424 123.965,182.424 124.5,178.5C 129.203,176.928 133.87,175.594 138.5,174.5 Z M 139.5,203.5 C 143.167,203.5 146.833,203.5 150.5,203.5C 149.878,215.152 143.878,219.485 132.5,216.5C 129.609,212.682 129.943,209.182 133.5,206C 135.611,205.155 137.611,204.322 139.5,203.5 Z"/></g>
<g><path style="opacity:1" fill="#afc2ed" d="M 195.5,174.5 C 208.827,174.663 216.327,181.329 218,194.5C 219.352,203.301 218.018,211.634 214,219.5C 205.203,228.65 195.536,229.65 185,222.5C 184.5,230.827 184.334,239.16 184.5,247.5C 180.833,247.5 177.167,247.5 173.5,247.5C 173.333,223.831 173.5,200.164 174,176.5C 179.637,173.985 182.971,175.652 184,181.5C 187.263,178.037 191.097,175.704 195.5,174.5 Z M 194.5,184.5 C 204.13,185.517 208.463,191.017 207.5,201C 207.765,205.872 206.598,210.372 204,214.5C 198.067,218.7 192.4,218.367 187,213.5C 183.67,205.15 183.67,196.816 187,188.5C 189.255,186.501 191.755,185.168 194.5,184.5 Z"/></g>
<g><path style="opacity:0.998" fill="#afc2ed" d="M 241.5,174.5 C 248.055,174.444 254.388,175.611 260.5,178C 261.059,178.725 261.392,179.558 261.5,180.5C 260.533,182.762 259.866,185.095 259.5,187.5C 254.762,186.108 249.929,185.108 245,184.5C 241.048,184.057 238.215,185.557 236.5,189C 236.759,190.261 237.426,191.261 238.5,192C 244.5,194.667 250.5,197.333 256.5,200C 262.171,204.53 264.004,210.363 262,217.5C 258.953,223.03 254.286,226.363 248,227.5C 242.638,227.241 237.138,226.741 231.5,226C 230.128,225.598 228.795,225.098 227.5,224.5C 226.513,221.232 226.18,217.898 226.5,214.5C 231.684,216.128 237.018,217.128 242.5,217.5C 246.18,217.941 249.347,216.941 252,214.5C 252.536,212.433 252.036,210.599 250.5,209C 243.19,206.012 236.19,202.512 229.5,198.5C 226.101,193.165 225.601,187.499 228,181.5C 231.96,177.938 236.46,175.605 241.5,174.5 Z"/></g>
<g><path style="opacity:0.012" fill="#a8a9fe" d="M 92.5,176.5 C 90.2075,176.244 88.0408,176.577 86,177.5C 85.8313,192.672 85.3313,207.672 84.5,222.5C 84.5,206.833 84.5,191.167 84.5,175.5C 87.3854,175.194 90.0521,175.527 92.5,176.5 Z"/></g>
</svg>
