<?xml version="1.0" encoding="UTF-8"?>
<!DOCTYPE svg PUBLIC "-//W3C//DTD SVG 1.1//EN" "http://www.w3.org/Graphics/SVG/1.1/DTD/svg11.dtd">
<svg xmlns="http://www.w3.org/2000/svg" version="1.1" width="300px" height="300px" style="shape-rendering:geometricPrecision; text-rendering:geometricPrecision; image-rendering:optimizeQuality; fill-rule:evenodd; clip-rule:evenodd" xmlns:xlink="http://www.w3.org/1999/xlink">
<g><path style="opacity:1" fill="#e4422e" d="M 82.5,127.5 C 82.6854,129.196 83.5187,130.529 85,131.5C 85.4935,133.134 85.6602,134.801 85.5,136.5C 83.396,136.799 81.396,136.466 79.5,135.5C 79.1207,133.787 78.1207,132.787 76.5,132.5C 75.5,131.833 74.5,131.167 73.5,130.5C 73.3893,129.883 73.056,129.383 72.5,129C 69.1667,128.333 65.8333,128.333 62.5,129C 61.944,129.383 61.6107,129.883 61.5,130.5C 57.5346,133.028 56.7012,136.362 59,140.5C 67.8162,144.329 76.6496,148.163 85.5,152C 89.9813,159.52 89.3146,166.52 83.5,173C 71.7896,179.408 60.7896,178.575 50.5,170.5C 50.0857,167.257 49.0857,164.257 47.5,161.5C 49.9664,160.366 52.633,160.199 55.5,161C 56.2341,163.561 57.5675,165.727 59.5,167.5C 61.7586,169.755 64.592,170.755 68,170.5C 70.8211,170.592 73.3211,169.926 75.5,168.5C 79.0771,166.142 80.2437,162.809 79,158.5C 70.8974,154.528 62.7308,150.862 54.5,147.5C 54.0269,146.094 53.0269,145.427 51.5,145.5C 51.5,145.167 51.5,144.833 51.5,144.5C 50.1667,139.167 50.1667,133.833 51.5,128.5C 52.6728,126.496 54.3395,124.996 56.5,124C 63.0645,121.299 69.7311,120.966 76.5,123C 79.1064,123.792 81.1064,125.292 82.5,127.5 Z"/></g>
<g><path style="opacity:0.999" fill="#e53d2a" d="M 104.5,123.5 C 112.5,134.833 120.5,146.167 128.5,157.5C 128.238,158.978 128.571,160.311 129.5,161.5C 130.499,148.851 130.832,136.184 130.5,123.5C 132.5,123.5 134.5,123.5 136.5,123.5C 136.5,140.833 136.5,158.167 136.5,175.5C 130.706,177.107 127.039,174.774 125.5,168.5C 125.33,165.796 123.997,164.129 121.5,163.5C 119.902,161.302 118.569,158.969 117.5,156.5C 116.261,153.411 114.761,150.411 113,147.5C 112.329,146.748 111.496,146.414 110.5,146.5C 109.252,144.351 107.752,142.351 106,140.5C 105.667,152.167 105.333,163.833 105,175.5C 102.726,176.811 100.56,176.811 98.5,175.5C 98.5,158.167 98.5,140.833 98.5,123.5C 100.5,123.5 102.5,123.5 104.5,123.5 Z"/></g>
<g><path style="opacity:1" fill="#e4402d" d="M 171.5,149.5 C 171.5,150.833 171.5,152.167 171.5,153.5C 173.179,153.715 174.179,153.048 174.5,151.5C 176.916,146.333 179.582,141.333 182.5,136.5C 186.044,133.413 188.044,129.413 188.5,124.5C 189.492,122.974 190.992,122.307 193,122.5C 194.436,122.559 195.769,122.892 197,123.5C 197.667,140.833 197.667,158.167 197,175.5C 194.534,176.788 192.034,176.788 189.5,175.5C 188.668,164.515 188.168,153.515 188,142.5C 184.412,148.675 181.078,155.009 178,161.5C 175.05,164.145 172.217,164.145 169.5,161.5C 169.321,157.791 167.654,155.124 164.5,153.5C 164.5,153.167 164.5,152.833 164.5,152.5C 164.657,151.127 164.49,149.793 164,148.5C 162.933,146.308 161.433,144.642 159.5,143.5C 158.656,153.088 158.156,163.422 158,174.5C 155.847,176.444 153.347,176.944 150.5,176C 149.342,158.574 149.175,141.074 150,123.5C 152.667,122.167 155.333,122.167 158,123.5C 162.768,132.036 167.268,140.703 171.5,149.5 Z"/></g>
<g><path style="opacity:1" fill="#e43f2c" d="M 237.5,154.5 C 230.833,154.5 224.167,154.5 217.5,154.5C 217.5,161.5 217.5,168.5 217.5,175.5C 214.418,177.069 211.585,176.735 209,174.5C 208.181,157.456 208.348,140.456 209.5,123.5C 218.482,122.335 227.482,122.168 236.5,123C 247.948,126.284 252.115,133.784 249,145.5C 247.058,150.944 243.225,153.944 237.5,154.5 Z M 233.5,130.5 C 238.403,131.412 240.737,134.412 240.5,139.5C 240.053,144.446 237.387,147.28 232.5,148C 227.845,148.499 223.179,148.666 218.5,148.5C 218.5,142.5 218.5,136.5 218.5,130.5C 223.5,130.5 228.5,130.5 233.5,130.5 Z"/></g>
<g><path style="opacity:0.702" fill="#e36c5c" d="M 104.5,123.5 C 102.5,123.5 100.5,123.5 98.5,123.5C 98.5,140.833 98.5,158.167 98.5,175.5C 97.8826,175.389 97.3826,175.056 97,174.5C 96.3333,157.833 96.3333,141.167 97,124.5C 98.0086,123.342 99.3419,122.675 101,122.5C 102.385,122.514 103.551,122.848 104.5,123.5 Z"/></g>
<g><path style="opacity:0.725" fill="#eb7d6f" d="M 136.5,175.5 C 136.5,158.167 136.5,140.833 136.5,123.5C 134.5,123.5 132.5,123.5 130.5,123.5C 130.832,136.184 130.499,148.851 129.5,161.5C 128.571,160.311 128.238,158.978 128.5,157.5C 128.333,146.495 128.5,135.495 129,124.5C 130.18,123.316 131.68,122.649 133.5,122.5C 135.32,122.649 136.82,123.316 138,124.5C 138.667,141.167 138.667,157.833 138,174.5C 137.617,175.056 137.117,175.389 136.5,175.5 Z"/></g>
<g><path style="opacity:0.573" fill="#e26759" d="M 73.5,130.5 C 69.5,129.167 65.5,129.167 61.5,130.5C 61.6107,129.883 61.944,129.383 62.5,129C 65.8333,128.333 69.1667,128.333 72.5,129C 73.056,129.383 73.3893,129.883 73.5,130.5 Z"/></g>
<g><path style="opacity:0.937" fill="#e25443" d="M 188.5,124.5 C 188.044,129.413 186.044,133.413 182.5,136.5C 183.992,132.182 185.992,128.182 188.5,124.5 Z"/></g>
<g><path style="opacity:0.29" fill="#df7f75" d="M 233.5,130.5 C 228.5,130.5 223.5,130.5 218.5,130.5C 218.5,136.5 218.5,142.5 218.5,148.5C 217.51,142.355 217.177,136.022 217.5,129.5C 223.026,129.179 228.36,129.512 233.5,130.5 Z"/></g>
<g><path style="opacity:1" fill="#e45d4b" d="M 82.5,127.5 C 86.5071,130.025 87.8405,133.525 86.5,138C 80.9512,139.926 77.6179,138.093 76.5,132.5C 78.1207,132.787 79.1207,133.787 79.5,135.5C 81.396,136.466 83.396,136.799 85.5,136.5C 85.6602,134.801 85.4935,133.134 85,131.5C 83.5187,130.529 82.6854,129.196 82.5,127.5 Z"/></g>
<g><path style="opacity:0.882" fill="#df5343" d="M 51.5,128.5 C 50.1667,133.833 50.1667,139.167 51.5,144.5C 49.1058,142.668 48.1058,140.168 48.5,137C 48.2445,133.592 49.2445,130.759 51.5,128.5 Z"/></g>
<g><path style="opacity:0.737" fill="#e07367" d="M 51.5,145.5 C 53.0269,145.427 54.0269,146.094 54.5,147.5C 52.9731,147.573 51.9731,146.906 51.5,145.5 Z"/></g>
<g><path style="opacity:0.514" fill="#e26354" d="M 159.5,143.5 C 161.433,144.642 162.933,146.308 164,148.5C 164.49,149.793 164.657,151.127 164.5,152.5C 162.595,149.696 160.929,146.696 159.5,143.5 Z"/></g>
<g><path style="opacity:0.639" fill="#e15e4e" d="M 110.5,146.5 C 111.496,146.414 112.329,146.748 113,147.5C 114.761,150.411 116.261,153.411 117.5,156.5C 114.687,153.554 112.354,150.221 110.5,146.5 Z"/></g>
<g><path style="opacity:0.584" fill="#de6457" d="M 171.5,149.5 C 172.222,150.551 173.222,151.218 174.5,151.5C 174.179,153.048 173.179,153.715 171.5,153.5C 171.5,152.167 171.5,150.833 171.5,149.5 Z"/></g>
<g><path style="opacity:0.29" fill="#d56254" d="M 237.5,154.5 C 231.355,155.49 225.022,155.823 218.5,155.5C 218.824,162.354 218.491,169.021 217.5,175.5C 217.5,168.5 217.5,161.5 217.5,154.5C 224.167,154.5 230.833,154.5 237.5,154.5 Z"/></g>
<g><path style="opacity:0.667" fill="#e05a49" d="M 164.5,153.5 C 167.654,155.124 169.321,157.791 169.5,161.5C 167.347,159.206 165.68,156.54 164.5,153.5 Z"/></g>
<g><path style="opacity:0.529" fill="#e05b4b" d="M 121.5,163.5 C 123.997,164.129 125.33,165.796 125.5,168.5C 123.937,167.055 122.604,165.389 121.5,163.5 Z"/></g>
<g><path style="opacity:0.902" fill="#e15645" d="M 47.5,161.5 C 49.0857,164.257 50.0857,167.257 50.5,170.5C 48.3339,168.548 47.0006,166.048 46.5,163C 46.5699,162.235 46.9033,161.735 47.5,161.5 Z"/></g>
<g><path style="opacity:0.722" fill="#dd6051" d="M 59.5,167.5 C 64.7052,169.719 70.0386,170.052 75.5,168.5C 73.3211,169.926 70.8211,170.592 68,170.5C 64.592,170.755 61.7586,169.755 59.5,167.5 Z"/></g>
</svg>
