<?xml version="1.0" encoding="UTF-8"?>
<!DOCTYPE svg PUBLIC "-//W3C//DTD SVG 1.1//EN" "http://www.w3.org/Graphics/SVG/1.1/DTD/svg11.dtd">
<svg xmlns="http://www.w3.org/2000/svg" version="1.1" width="300px" height="300px" style="shape-rendering:geometricPrecision; text-rendering:geometricPrecision; image-rendering:optimizeQuality; fill-rule:evenodd; clip-rule:evenodd" xmlns:xlink="http://www.w3.org/1999/xlink">
<g><path style="opacity:1" fill="#6f7075" d="M 178.5,27.5 C 163.293,24.8945 147.96,23.8945 132.5,24.5C 137.1,23.1529 141.933,22.4863 147,22.5C 154.862,23.0453 162.696,23.8786 170.5,25C 173.457,25.2794 176.123,26.1127 178.5,27.5 Z"/></g>
<g><path style="opacity:1" fill="#fdfcfc" d="M 132.5,24.5 C 147.96,23.8945 163.293,24.8945 178.5,27.5C 179.167,27.5 179.833,27.5 180.5,27.5C 182.102,29.0739 184.102,29.7406 186.5,29.5C 191.917,30.7435 196.917,32.7435 201.5,35.5C 202.514,36.6737 203.847,37.3404 205.5,37.5C 205.833,37.5 206.167,37.5 206.5,37.5C 206.821,39.0481 207.821,39.7148 209.5,39.5C 210.492,39.3284 211.158,39.6618 211.5,40.5C 211.821,42.0481 212.821,42.7148 214.5,42.5C 224.138,47.837 232.471,54.837 239.5,63.5C 241.094,66.7642 243.427,69.4309 246.5,71.5C 249.987,75.1422 252.987,79.1422 255.5,83.5C 255.025,86.3126 256.025,88.3126 258.5,89.5C 261.619,94.0742 263.952,99.0742 265.5,104.5C 265.41,107.152 266.076,109.485 267.5,111.5C 267.259,113.898 267.926,115.898 269.5,117.5C 269.294,120.495 269.96,123.162 271.5,125.5C 271.833,127.5 272.167,129.5 272.5,131.5C 272.667,143.171 272.5,154.838 272,166.5C 270.597,172.828 269.431,179.162 268.5,185.5C 268.167,186.833 267.833,188.167 267.5,189.5C 265.755,191.033 264.755,193.033 264.5,195.5C 259.468,210.979 251.135,224.312 239.5,235.5C 238.094,235.973 237.427,236.973 237.5,238.5C 230.982,244.846 223.982,250.679 216.5,256C 213.09,258.372 209.423,260.205 205.5,261.5C 203.847,261.66 202.514,262.326 201.5,263.5C 197.936,265.919 193.936,267.586 189.5,268.5C 185.884,268.899 182.55,269.899 179.5,271.5C 176.848,271.41 174.515,272.076 172.5,273.5C 169.57,274.299 166.57,274.632 163.5,274.5C 155.181,275.124 146.848,275.457 138.5,275.5C 134.1,273.896 129.434,273.229 124.5,273.5C 123.833,273.5 123.167,273.5 122.5,273.5C 120.485,272.076 118.152,271.41 115.5,271.5C 112.495,269.723 109.162,268.723 105.5,268.5C 100.927,267.421 96.5933,265.754 92.5,263.5C 92.0269,262.094 91.0269,261.427 89.5,261.5C 87.847,261.34 86.5137,260.674 85.5,259.5C 85.0269,258.094 84.0269,257.427 82.5,257.5C 81.5084,257.672 80.8417,257.338 80.5,256.5C 79.7377,254.738 78.4044,253.738 76.5,253.5C 73.9501,252.943 71.9501,251.61 70.5,249.5C 68.7607,246.757 66.4274,244.757 63.5,243.5C 62.5,243.167 61.8333,242.5 61.5,241.5C 60.0892,239.086 58.0892,237.419 55.5,236.5C 53.8333,234.5 52.1667,232.5 50.5,230.5C 50.4456,228.368 49.4456,227.035 47.5,226.5C 45.4525,224.45 43.7859,222.117 42.5,219.5C 42.573,217.973 41.9063,216.973 40.5,216.5C 40.3404,214.847 39.6737,213.514 38.5,212.5C 38.573,210.973 37.9063,209.973 36.5,209.5C 34.0431,206.249 32.3764,202.582 31.5,198.5C 30.5412,194.617 29.2078,190.95 27.5,187.5C 25.9261,185.898 25.2594,183.898 25.5,181.5C 25.7062,178.505 25.0395,175.838 23.5,173.5C 22.2081,157.503 22.2081,141.503 23.5,125.5C 25.0395,123.162 25.7062,120.495 25.5,117.5C 27.0739,115.898 27.7406,113.898 27.5,111.5C 29.3104,108.855 30.3104,105.855 30.5,102.5C 32.366,96.4357 35.0326,90.7691 38.5,85.5C 40.2624,84.7377 41.2624,83.4044 41.5,81.5C 43.0621,77.6082 45.3954,74.2749 48.5,71.5C 51.2427,69.7607 53.2427,67.4274 54.5,64.5C 56.5,61.8333 58.8333,59.5 61.5,57.5C 64.7642,55.9059 67.4309,53.5725 69.5,50.5C 69.9731,49.0937 70.9731,48.427 72.5,48.5C 73.5,48.1667 74.1667,47.5 74.5,46.5C 74.8417,45.6618 75.5084,45.3284 76.5,45.5C 78.4044,45.2624 79.7377,44.2624 80.5,42.5C 80.8417,41.6618 81.5084,41.3284 82.5,41.5C 84.0269,41.573 85.0269,40.9063 85.5,39.5C 86.5137,38.3263 87.847,37.6596 89.5,37.5C 91.9674,37.2451 93.9674,36.2451 95.5,34.5C 99.3576,34.2299 102.691,32.8966 105.5,30.5C 109.162,30.2766 112.495,29.2766 115.5,27.5C 115.833,27.5 116.167,27.5 116.5,27.5C 119.152,27.5905 121.485,26.9238 123.5,25.5C 126.391,24.5975 129.391,24.2641 132.5,24.5 Z"/></g>
<g><path style="opacity:1" fill="#75787f" d="M 123.5,25.5 C 121.485,26.9238 119.152,27.5905 116.5,27.5C 118.515,26.0762 120.848,25.4095 123.5,25.5 Z"/></g>
<g><path style="opacity:0.776" fill="#707179" d="M 115.5,27.5 C 112.495,29.2766 109.162,30.2766 105.5,30.5C 108.505,28.7234 111.838,27.7234 115.5,27.5 Z"/></g>
<g><path style="opacity:0.671" fill="#58595f" d="M 180.5,27.5 C 182.786,27.595 184.786,28.2616 186.5,29.5C 184.102,29.7406 182.102,29.0739 180.5,27.5 Z"/></g>
<g><path style="opacity:1" fill="#909196" d="M 105.5,30.5 C 102.691,32.8966 99.3576,34.2299 95.5,34.5C 98.5178,32.6001 101.851,31.2667 105.5,30.5 Z"/></g>
<g><path style="opacity:0.086" fill="#3f3f47" d="M 201.5,35.5 C 203.38,35.2291 204.713,35.8958 205.5,37.5C 203.847,37.3404 202.514,36.6737 201.5,35.5 Z"/></g>
<g><path style="opacity:0.6" fill="#616267" d="M 95.5,34.5 C 93.9674,36.2451 91.9674,37.2451 89.5,37.5C 91.0326,35.7549 93.0326,34.7549 95.5,34.5 Z"/></g>
<g><path style="opacity:0.839" fill="#626a6d" d="M 206.5,37.5 C 207.71,37.9321 208.71,38.5987 209.5,39.5C 207.821,39.7148 206.821,39.0481 206.5,37.5 Z"/></g>
<g><path style="opacity:0.961" fill="#68696d" d="M 85.5,39.5 C 85.0269,40.9063 84.0269,41.573 82.5,41.5C 82.9731,40.0937 83.9731,39.427 85.5,39.5 Z"/></g>
<g><path style="opacity:0.976" fill="#79797b" d="M 211.5,40.5 C 212.71,40.9321 213.71,41.5987 214.5,42.5C 212.821,42.7148 211.821,42.0481 211.5,40.5 Z"/></g>
<g><path style="opacity:0.749" fill="#696a6e" d="M 80.5,42.5 C 79.7377,44.2624 78.4044,45.2624 76.5,45.5C 77.2623,43.7376 78.5956,42.7376 80.5,42.5 Z"/></g>
<g><path style="opacity:0.094" fill="#48484a" d="M 74.5,46.5 C 74.1667,47.5 73.5,48.1667 72.5,48.5C 72.5,47.1667 73.1667,46.5 74.5,46.5 Z"/></g>
<g><path style="opacity:0.722" fill="#8b8b93" d="M 69.5,50.5 C 67.4309,53.5725 64.7642,55.9059 61.5,57.5C 63.5691,54.4275 66.2358,52.0941 69.5,50.5 Z"/></g>
<g><path style="opacity:1" fill="#7e7f82" d="M 239.5,63.5 C 242.573,65.5691 244.906,68.2358 246.5,71.5C 243.427,69.4309 241.094,66.7642 239.5,63.5 Z"/></g>
<g><path style="opacity:1" fill="#818487" d="M 54.5,64.5 C 53.2427,67.4274 51.2427,69.7607 48.5,71.5C 49.7573,68.5726 51.7573,66.2393 54.5,64.5 Z"/></g>
<g><path style="opacity:1" fill="#cc0d30" d="M 220.5,168.5 C 219.596,169.209 219.263,170.209 219.5,171.5C 215.855,170.348 212.188,169.182 208.5,168C 198.31,167.254 189.31,170.254 181.5,177C 176.816,179.471 172.649,178.971 169,175.5C 167.826,171.058 166.659,166.725 165.5,162.5C 165.23,157.55 164.23,152.883 162.5,148.5C 161.321,140.79 159.988,133.124 158.5,125.5C 158.59,122.848 157.924,120.515 156.5,118.5C 156.5,118.167 156.5,117.833 156.5,117.5C 156.741,115.102 156.074,113.102 154.5,111.5C 149.747,104.941 145.081,104.941 140.5,111.5C 138.926,113.102 138.259,115.102 138.5,117.5C 138.5,117.833 138.5,118.167 138.5,118.5C 136.344,124.88 135.01,131.547 134.5,138.5C 134.5,138.833 134.5,139.167 134.5,139.5C 133.076,141.515 132.41,143.848 132.5,146.5C 131.735,149.096 131.401,151.763 131.5,154.5C 130.076,156.515 129.41,158.848 129.5,161.5C 128.354,165.394 127.521,169.394 127,173.5C 124.565,178.224 120.731,179.724 115.5,178C 109.284,173.789 102.617,170.455 95.5,168C 92.1667,167.333 88.8333,167.333 85.5,168C 82.2416,169.467 78.9083,170.633 75.5,171.5C 75.7373,170.209 75.404,169.209 74.5,168.5C 67.0188,129.301 80.6854,100.134 115.5,81C 150.248,67.8086 180.415,74.6419 206,101.5C 221.869,121.337 226.702,143.67 220.5,168.5 Z"/></g>
<g><path style="opacity:0.643" fill="#6d6e71" d="M 41.5,81.5 C 41.2624,83.4044 40.2624,84.7377 38.5,85.5C 38.7376,83.5956 39.7376,82.2623 41.5,81.5 Z"/></g>
<g><path style="opacity:1" fill="#8d8f91" d="M 255.5,83.5 C 256.492,85.4561 257.492,87.4561 258.5,89.5C 256.025,88.3126 255.025,86.3126 255.5,83.5 Z"/></g>
<g><path style="opacity:1" fill="#919496" d="M 30.5,102.5 C 30.3104,105.855 29.3104,108.855 27.5,111.5C 27.5275,108.084 28.5275,105.084 30.5,102.5 Z"/></g>
<g><path style="opacity:1" fill="#fdf7f8" d="M 154.5,111.5 C 154.259,113.898 154.926,115.898 156.5,117.5C 156.5,117.833 156.5,118.167 156.5,118.5C 156.41,121.152 157.076,123.485 158.5,125.5C 159.988,133.124 161.321,140.79 162.5,148.5C 162.77,153.45 163.77,158.117 165.5,162.5C 166.659,166.725 167.826,171.058 169,175.5C 172.649,178.971 176.816,179.471 181.5,177C 189.31,170.254 198.31,167.254 208.5,168C 212.188,169.182 215.855,170.348 219.5,171.5C 219.263,170.209 219.596,169.209 220.5,168.5C 220.152,174.516 218.152,179.849 214.5,184.5C 214.423,183.25 213.756,182.417 212.5,182C 207.945,179.417 203.278,179.083 198.5,181C 193.577,184.251 188.41,187.085 183,189.5C 171.432,193.716 162.765,190.383 157,179.5C 155.965,173.712 154.798,168.046 153.5,162.5C 153.59,159.848 152.924,157.515 151.5,155.5C 150.781,153.236 150.448,150.903 150.5,148.5C 150.59,145.848 149.924,143.515 148.5,141.5C 148.762,140.022 148.429,138.689 147.5,137.5C 145.799,143.057 144.466,148.723 143.5,154.5C 142.624,158.462 141.958,162.462 141.5,166.5C 140.076,168.515 139.41,170.848 139.5,173.5C 136.388,186.727 128.054,192.561 114.5,191C 106.516,186.658 98.3491,182.825 90,179.5C 85.926,179.783 82.7594,181.45 80.5,184.5C 76.8477,179.849 74.8477,174.516 74.5,168.5C 75.404,169.209 75.7373,170.209 75.5,171.5C 78.9083,170.633 82.2416,169.467 85.5,168C 88.8333,167.333 92.1667,167.333 95.5,168C 102.617,170.455 109.284,173.789 115.5,178C 120.731,179.724 124.565,178.224 127,173.5C 127.521,169.394 128.354,165.394 129.5,161.5C 130.924,159.485 131.59,157.152 131.5,154.5C 131.401,151.763 131.735,149.096 132.5,146.5C 133.924,144.485 134.59,142.152 134.5,139.5C 134.5,139.167 134.5,138.833 134.5,138.5C 137.071,132.196 138.404,125.53 138.5,118.5C 138.5,118.167 138.5,117.833 138.5,117.5C 140.074,115.898 140.741,113.898 140.5,111.5C 145.081,104.941 149.747,104.941 154.5,111.5 Z"/></g>
<g><path style="opacity:0.722" fill="#87888d" d="M 265.5,104.5 C 266.924,106.515 267.59,108.848 267.5,111.5C 266.076,109.485 265.41,107.152 265.5,104.5 Z"/></g>
<g><path style="opacity:0.584" fill="#8c8d92" d="M 27.5,111.5 C 27.7406,113.898 27.0739,115.898 25.5,117.5C 25.2594,115.102 25.9261,113.102 27.5,111.5 Z"/></g>
<g><path style="opacity:1" fill="#ec9fac" d="M 140.5,111.5 C 140.741,113.898 140.074,115.898 138.5,117.5C 138.259,115.102 138.926,113.102 140.5,111.5 Z"/></g>
<g><path style="opacity:1" fill="#ec9fac" d="M 154.5,111.5 C 156.074,113.102 156.741,115.102 156.5,117.5C 154.926,115.898 154.259,113.898 154.5,111.5 Z"/></g>
<g><path style="opacity:0.471" fill="#88898e" d="M 267.5,111.5 C 269.074,113.102 269.741,115.102 269.5,117.5C 267.926,115.898 267.259,113.898 267.5,111.5 Z"/></g>
<g><path style="opacity:0.565" fill="#797a81" d="M 25.5,117.5 C 25.7062,120.495 25.0395,123.162 23.5,125.5C 23.5651,122.572 24.2318,119.905 25.5,117.5 Z"/></g>
<g><path style="opacity:1" fill="#e27285" d="M 156.5,118.5 C 157.924,120.515 158.59,122.848 158.5,125.5C 157.076,123.485 156.41,121.152 156.5,118.5 Z"/></g>
<g><path style="opacity:0.49" fill="#787a81" d="M 269.5,117.5 C 270.768,119.905 271.435,122.572 271.5,125.5C 269.96,123.162 269.294,120.495 269.5,117.5 Z"/></g>
<g><path style="opacity:1" fill="#f1b2bc" d="M 138.5,118.5 C 138.404,125.53 137.071,132.196 134.5,138.5C 135.01,131.547 136.344,124.88 138.5,118.5 Z"/></g>
<g><path style="opacity:0.541" fill="#8f9095" d="M 272.5,131.5 C 273.66,143.326 273.826,155.326 273,167.5C 272.001,173.742 270.501,179.742 268.5,185.5C 269.431,179.162 270.597,172.828 272,166.5C 272.5,154.838 272.667,143.171 272.5,131.5 Z"/></g>
<g><path style="opacity:0.675" fill="#898a8e" d="M 23.5,125.5 C 22.2081,141.503 22.2081,157.503 23.5,173.5C 22.0515,165.818 21.0515,157.985 20.5,150C 21.0392,141.682 22.0392,133.515 23.5,125.5 Z"/></g>
<g><path style="opacity:1" fill="#d94b5b" d="M 148.5,141.5 C 148.5,142.833 148.5,144.167 148.5,145.5C 147.503,145.47 146.836,145.97 146.5,147C 145.767,149.72 144.767,152.22 143.5,154.5C 144.466,148.723 145.799,143.057 147.5,137.5C 148.429,138.689 148.762,140.022 148.5,141.5 Z"/></g>
<g><path style="opacity:1" fill="#e78596" d="M 134.5,139.5 C 134.59,142.152 133.924,144.485 132.5,146.5C 132.41,143.848 133.076,141.515 134.5,139.5 Z"/></g>
<g><path style="opacity:1" fill="#cc1131" d="M 148.5,145.5 C 149.167,146.5 149.833,147.5 150.5,148.5C 150.448,150.903 150.781,153.236 151.5,155.5C 151.41,158.152 152.076,160.485 153.5,162.5C 154.798,168.046 155.965,173.712 157,179.5C 162.765,190.383 171.432,193.716 183,189.5C 188.41,187.085 193.577,184.251 198.5,181C 203.278,179.083 207.945,179.417 212.5,182C 213.756,182.417 214.423,183.25 214.5,184.5C 194.041,217.279 164.708,229.779 126.5,222C 106.221,215.386 90.8875,202.886 80.5,184.5C 82.7594,181.45 85.926,179.783 90,179.5C 98.3491,182.825 106.516,186.658 114.5,191C 128.054,192.561 136.388,186.727 139.5,173.5C 140.924,171.485 141.59,169.152 141.5,166.5C 141.958,162.462 142.624,158.462 143.5,154.5C 144.767,152.22 145.767,149.72 146.5,147C 146.836,145.97 147.503,145.47 148.5,145.5 Z"/></g>
<g><path style="opacity:1" fill="#e88f9f" d="M 148.5,141.5 C 149.924,143.515 150.59,145.848 150.5,148.5C 149.833,147.5 149.167,146.5 148.5,145.5C 148.5,144.167 148.5,142.833 148.5,141.5 Z"/></g>
<g><path style="opacity:1" fill="#eb98a7" d="M 131.5,154.5 C 131.59,157.152 130.924,159.485 129.5,161.5C 129.41,158.848 130.076,156.515 131.5,154.5 Z"/></g>
<g><path style="opacity:1" fill="#eb9caa" d="M 151.5,155.5 C 152.924,157.515 153.59,159.848 153.5,162.5C 152.076,160.485 151.41,158.152 151.5,155.5 Z"/></g>
<g><path style="opacity:1" fill="#ec9eac" d="M 162.5,148.5 C 164.23,152.883 165.23,157.55 165.5,162.5C 163.77,158.117 162.77,153.45 162.5,148.5 Z"/></g>
<g><path style="opacity:1" fill="#e37286" d="M 141.5,166.5 C 141.59,169.152 140.924,171.485 139.5,173.5C 139.41,170.848 140.076,168.515 141.5,166.5 Z"/></g>
<g><path style="opacity:0.098" fill="#74757c" d="M 23.5,173.5 C 25.0395,175.838 25.7062,178.505 25.5,181.5C 24.2318,179.095 23.5651,176.428 23.5,173.5 Z"/></g>
<g><path style="opacity:0.027" fill="#7a7b7e" d="M 27.5,187.5 C 29.2078,190.95 30.5412,194.617 31.5,198.5C 29,195.34 27.6667,191.673 27.5,187.5 Z"/></g>
<g><path style="opacity:0.537" fill="#7b7b80" d="M 267.5,189.5 C 267.245,191.967 266.245,193.967 264.5,195.5C 264.755,193.033 265.755,191.033 267.5,189.5 Z"/></g>
<g><path style="opacity:0.506" fill="#777a82" d="M 36.5,209.5 C 37.9063,209.973 38.573,210.973 38.5,212.5C 37.0937,212.027 36.427,211.027 36.5,209.5 Z"/></g>
<g><path style="opacity:0.18" fill="#5d5d62" d="M 38.5,212.5 C 39.6737,213.514 40.3404,214.847 40.5,216.5C 38.8958,215.713 38.2291,214.38 38.5,212.5 Z"/></g>
<g><path style="opacity:0.153" fill="#5b5b60" d="M 40.5,216.5 C 41.9063,216.973 42.573,217.973 42.5,219.5C 41.0937,219.027 40.427,218.027 40.5,216.5 Z"/></g>
<g><path style="opacity:0.737" fill="#727375" d="M 47.5,226.5 C 49.4456,227.035 50.4456,228.368 50.5,230.5C 49.0256,229.564 48.0256,228.23 47.5,226.5 Z"/></g>
<g><path style="opacity:0.831" fill="#616166" d="M 55.5,236.5 C 58.0892,237.419 60.0892,239.086 61.5,241.5C 58.9108,240.581 56.9108,238.914 55.5,236.5 Z"/></g>
<g><path style="opacity:0.024" fill="#4c4d4f" d="M 239.5,235.5 C 239.573,237.027 238.906,238.027 237.5,238.5C 237.427,236.973 238.094,235.973 239.5,235.5 Z"/></g>
<g><path style="opacity:1" fill="#767b80" d="M 63.5,243.5 C 66.4274,244.757 68.7607,246.757 70.5,249.5C 67.5726,248.243 65.2393,246.243 63.5,243.5 Z"/></g>
<g><path style="opacity:0.749" fill="#767c80" d="M 76.5,253.5 C 78.4044,253.738 79.7377,254.738 80.5,256.5C 78.5956,256.262 77.2623,255.262 76.5,253.5 Z"/></g>
<g><path style="opacity:0.365" fill="#5c5d61" d="M 82.5,257.5 C 84.0269,257.427 85.0269,258.094 85.5,259.5C 83.9731,259.573 82.9731,258.906 82.5,257.5 Z"/></g>
<g><path style="opacity:0.118" fill="#3f3f44" d="M 89.5,261.5 C 91.0269,261.427 92.0269,262.094 92.5,263.5C 90.9731,263.573 89.9731,262.906 89.5,261.5 Z"/></g>
<g><path style="opacity:0.086" fill="#4c4c55" d="M 205.5,261.5 C 204.713,263.104 203.38,263.771 201.5,263.5C 202.514,262.326 203.847,261.66 205.5,261.5 Z"/></g>
<g><path style="opacity:1" fill="#707175" d="M 105.5,268.5 C 109.162,268.723 112.495,269.723 115.5,271.5C 111.786,271.41 108.452,270.41 105.5,268.5 Z"/></g>
<g><path style="opacity:0.49" fill="#54555a" d="M 189.5,268.5 C 186.548,270.41 183.214,271.41 179.5,271.5C 182.55,269.899 185.884,268.899 189.5,268.5 Z"/></g>
<g><path style="opacity:0.541" fill="#474754" d="M 115.5,271.5 C 118.152,271.41 120.485,272.076 122.5,273.5C 119.848,273.59 117.515,272.924 115.5,271.5 Z"/></g>
<g><path style="opacity:0.016" fill="#2e2e37" d="M 179.5,271.5 C 177.485,272.924 175.152,273.59 172.5,273.5C 174.515,272.076 176.848,271.41 179.5,271.5 Z"/></g>
<g><path style="opacity:1" fill="#8f9094" d="M 124.5,273.5 C 129.434,273.229 134.1,273.896 138.5,275.5C 133.609,275.468 128.943,274.801 124.5,273.5 Z"/></g>
<g><path style="opacity:0.004" fill="#1a1a1c" d="M 163.5,274.5 C 158.401,275.904 153.068,276.571 147.5,276.5C 144.314,276.498 141.314,276.165 138.5,275.5C 146.848,275.457 155.181,275.124 163.5,274.5 Z"/></g>
</svg>
