<svg xmlns="http://www.w3.org/2000/svg" xmlns:xlink="http://www.w3.org/1999/xlink" viewBox="0 0 64 65" fill="#fff" fill-rule="evenodd" stroke="#000" stroke-linecap="round" stroke-linejoin="round"><use xlink:href="#A" x=".5" y=".5"/><symbol id="A" overflow="visible"><path d="M9.593.61C3.827 3.028.088 7.09.02 13.56L0 50.69c.05 7.43 6.05 13.283 13.5 13.293h35.582c7.48-.01 13.5-5.697 13.567-13.205V13.452c-.05-5.002-2.506-8.77-6.754-11.433-1.37-.86-5.08-1.556-6.735-1.645C35.69-.331 21.86.178 12.452.178c-.303 0-2.623.333-2.858.43zm9.7 27.35l7.35.01c1.194.04 1.596-.43 1.576-1.576a242.8 242.8 0 0 1 0-7.547c.04-2.623 1.517-4.336 3.7-4.336 2.26 0 3.788 1.752 3.827 4.405.02 1.165 0 2.32 0 3.77.254 1.478-.822 3.73.45 4.904 1.145 1.067 3.328.255 5.05.333 1.35.06 2.712-.03 4.062.03 2.085.098 3.7 1.782 3.67 3.74s-1.654 3.72-3.66 3.778a143.6 143.6 0 0 1-7.93.01c-1.263-.03-1.713.4-1.664 1.684.078 2.447.04 4.904.02 7.35-.02 2.77-1.43 4.425-3.74 4.444-2.27.02-3.73-1.654-3.778-4.444-.04-2.447-.07-4.904.01-7.35.04-1.253-.362-1.723-1.645-1.684-2.447.078-4.904.04-7.35.01-2.672-.03-4.2-1.43-4.16-3.76.04-2.25 1.664-3.74 4.22-3.77z" stroke="none" fill="#2ba1e5" fill-rule="nonzero"/></symbol></svg>