<?xml version="1.0" encoding="UTF-8" standalone="no" ?>
<!DOCTYPE svg PUBLIC "-//W3C//DTD SVG 1.1//EN" "http://www.w3.org/Graphics/SVG/1.1/DTD/svg11.dtd">
<svg xmlns="http://www.w3.org/2000/svg" xmlns:xlink="http://www.w3.org/1999/xlink" version="1.1" width="640" height="640" viewBox="0 0 640 640" xml:space="preserve">
<desc>Created with Fabric.js 4.6.0</desc>
<defs>
</defs>
<g transform="matrix(4.84 0 0 4.84 318.6 279.5)" id="JHhgunNe0TFGgelh-23Gq"  >
<path style="stroke: none; stroke-width: 1; stroke-dasharray: none; stroke-linecap: butt; stroke-dashoffset: 0; stroke-linejoin: miter; stroke-miterlimit: 4; fill: rgb(49,168,247); fill-rule: evenodd; opacity: 1;" vector-effect="non-scaling-stroke"  transform=" translate(-120.76, -98.6)" d="M 69.47 106.602 C 68.944 107.985 68.389 108.836 66.569 108.836 C 64.74600000000001 108.836 64.193 107.984 63.671 106.602 L 58.277 92.723 C 58.019 92.051 57.943 91.645 57.943 91.157 C 57.943 89.435 59.281 88.547 60.733 88.547 C 62.22 88.547 62.857 89.62299999999999 63.111 90.443 L 66.53099999999999 101.039 L 66.606 101.039 L 70.024 90.443 C 70.287 89.623 70.917 88.547 72.403 88.547 L 77.66600000000001 88.547 C 79.02700000000002 88.547 79.92200000000001 89.28999999999999 80.10700000000001 90.595 C 81.42000000000002 89.175 83.14000000000001 88.359 85.13100000000001 88.359 C 87.37400000000001 88.359 89.25800000000001 89.28999999999999 90.66900000000001 91.076 C 92.15 89.36 94.51400000000001 88.359 96.34900000000002 88.359 C 100.71300000000002 88.359 103.67800000000001 90.893 103.67800000000001 95.576 L 103.67800000000001 105.86 C 103.67800000000001 107.643 102.56300000000002 108.837 101.01 108.837 C 99.44900000000001 108.837 98.342 107.644 98.342 105.86 L 98.342 96.514 C 98.342 94.354 97.139 92.82499999999999 95.188 92.82499999999999 C 93.20700000000001 92.82499999999999 92.006 94.35499999999999 92.006 96.51399999999998 L 92.006 105.85999999999999 C 92.006 107.64299999999999 90.886 108.83699999999999 89.338 108.83699999999999 C 87.77699999999999 108.83699999999999 86.67299999999999 107.64399999999999 86.67299999999999 105.85999999999999 L 86.67299999999999 96.51399999999998 C 86.67299999999999 94.35399999999998 85.466 92.82499999999999 83.51599999999999 92.82499999999999 C 81.30999999999999 92.82499999999999 80.32999999999998 94.35499999999999 80.32999999999998 96.51399999999998 L 80.32999999999998 105.85999999999999 C 80.32999999999998 107.64299999999999 79.21899999999998 108.83699999999999 77.66599999999998 108.83699999999999 C 76.10599999999998 108.83699999999999 74.99699999999999 107.64399999999999 74.99699999999999 105.85999999999999 L 74.99699999999999 92.495 L 69.46999999999998 106.602 z M 105.51 91.267 C 105.364 90.779 105.24600000000001 90.33999999999999 105.24600000000001 90.002 C 105.24600000000001 89.36399999999999 105.697 88.54599999999999 106.81400000000001 88.54599999999999 C 107.519 88.54599999999999 108.18700000000001 88.80199999999999 108.638 90.22699999999999 L 112.84100000000001 103.78299999999999 L 112.915 103.78299999999999 L 117.04400000000001 90.71099999999998 C 117.495 89.29099999999998 117.78600000000002 88.54599999999998 118.98500000000001 88.54599999999998 C 120.17100000000002 88.54599999999998 120.47100000000002 89.29099999999998 120.91500000000002 90.71099999999998 L 125.04800000000002 103.78299999999999 L 125.12400000000001 103.78299999999999 L 129.323 90.22699999999999 C 129.774 88.80199999999999 130.44400000000002 88.54599999999999 131.143 88.54599999999999 C 132.264 88.54599999999999 132.705 89.36299999999999 132.705 90.00099999999999 C 132.705 90.335 132.59400000000002 90.77799999999999 132.44500000000002 91.26499999999999 L 127.01700000000002 107.11999999999999 C 126.57400000000003 108.386 126.05200000000002 108.835 125.12200000000003 108.835 C 124.22400000000003 108.835 123.67100000000003 108.386 123.26800000000003 107.11999999999999 L 119.02400000000003 93.72399999999999 L 118.95000000000003 93.72399999999999 L 114.70800000000003 107.11999999999999 C 114.30000000000003 108.386 113.74700000000003 108.835 112.85400000000003 108.835 C 111.92000000000003 108.835 111.40300000000003 108.386 110.95200000000003 107.11999999999999 L 105.51000000000002 91.267 z M 137.354 98.691 C 137.354 95.31400000000001 138.77 91.355 142.793 91.355 C 146.816 91.355 148.234 95.313 148.234 98.691 C 148.234 102.056 146.816 106.023 142.793 106.023 C 138.77 106.023 137.354 102.057 137.354 98.691 z M 151.32000000000002 90.12700000000001 C 151.32000000000002 88.98700000000001 150.42200000000003 88.546 149.79100000000003 88.546 C 149.11900000000003 88.546 148.27300000000002 88.98700000000001 148.27300000000002 90.12700000000001 L 148.27300000000002 91.168 L 148.193 91.168 C 146.67000000000002 89.5 145.068 88.546 142.793 88.546 C 137.203 88.546 134.076 93.41300000000001 134.076 98.691 C 134.076 103.968 137.203 108.836 142.793 108.836 C 144.92000000000002 108.836 146.77700000000002 107.875 148.193 105.873 L 148.27300000000002 105.873 L 148.27300000000002 107.24600000000001 C 148.27300000000002 108.394 149.11900000000003 108.83600000000001 149.79100000000003 108.83600000000001 C 150.42200000000003 108.83600000000001 151.32000000000002 108.39500000000001 151.32000000000002 107.24600000000001 L 151.32000000000002 90.127 z M 155.629 90.298 C 155.629 89.21900000000001 156.25799999999998 88.551 157.26 88.551 C 158.26399999999998 88.551 158.905 89.218 158.905 90.298 L 158.905 91.982 L 158.981 91.982 C 159.721 90.448 161.549 88.55199999999999 163.446 88.55199999999999 C 164.59199999999998 88.55199999999999 165.268 89.29499999999999 165.268 90.22699999999999 C 165.268 91.15899999999999 164.592 91.75299999999999 163.217 92.01599999999999 C 161.281 92.35 158.905 93.80499999999999 158.905 97.64399999999999 L 158.905 107.083 C 158.905 108.163 158.264 108.835 157.26 108.835 C 156.25799999999998 108.835 155.629 108.163 155.629 107.083 L 155.629 90.298 z M 169.438 97.508 C 169.547 94.469 170.993 91.207 175.05499999999998 91.356 C 178.67 91.356 180.307 94.655 180.307 97.508 L 169.438 97.508 z M 181.76 99.967 C 183.17 99.967 183.584 99.367 183.584 98.219 C 183.584 93.413 180.457 88.547 175.055 88.547 C 169.506 88.547 166.155 93.30199999999999 166.155 98.7 C 166.155 103.971 168.915 108.837 175.243 108.837 C 179.114 108.837 183.171 106.399 183.171 104.796 C 183.171 103.85700000000001 182.583 103.337 181.982 103.337 C 180.755 103.337 179.636 106.025 175.275 106.025 C 171.597 106.025 169.439 103.373 169.439 99.968 L 181.76 99.968 L 181.76 99.967 z" stroke-linecap="round" />
</g>
</svg>