<?xml version="1.0" encoding="UTF-8"?>
<!DOCTYPE svg PUBLIC "-//W3C//DTD SVG 1.1//EN" "http://www.w3.org/Graphics/SVG/1.1/DTD/svg11.dtd">
<svg xmlns="http://www.w3.org/2000/svg" version="1.1" width="301px" height="300px" style="shape-rendering:geometricPrecision; text-rendering:geometricPrecision; image-rendering:optimizeQuality; fill-rule:evenodd; clip-rule:evenodd" xmlns:xlink="http://www.w3.org/1999/xlink">
<g><path style="opacity:0.988" fill="#7c9ecc" d="M 19.5,133.5 C 16.3893,131.348 13.056,131.015 9.5,132.5C 10.4919,130.974 11.9919,130.307 14,130.5C 16.6546,130.124 18.488,131.124 19.5,133.5 Z"/></g>
<g><path style="opacity:1" fill="#7dadf3" d="M 59.5,132.5 C 59.9731,133.906 60.9731,134.573 62.5,134.5C 63.1174,134.611 63.6174,134.944 64,135.5C 70.6922,130.251 77.8589,129.251 85.5,132.5C 85.9731,133.906 86.9731,134.573 88.5,134.5C 89.1174,134.611 89.6174,134.944 90,135.5C 95.3931,130.973 101.56,129.473 108.5,131C 111.595,131.935 113.929,133.769 115.5,136.5C 115.259,139.034 116.259,140.7 118.5,141.5C 119.615,151.12 119.782,160.786 119,170.5C 117.348,174.877 114.181,176.544 109.5,175.5C 108.598,173.659 107.264,172.326 105.5,171.5C 105.5,171.167 105.5,170.833 105.5,170.5C 106.657,162.344 106.823,154.01 106,145.5C 105.578,143.574 104.411,142.574 102.5,142.5C 99.4467,142.111 96.78,142.777 94.5,144.5C 93.2502,144.577 92.4169,145.244 92,146.5C 91.7523,155.866 91.2523,165.2 90.5,174.5C 86.6073,176.239 83.1073,175.573 80,172.5C 79.5002,163.84 79.3336,155.173 79.5,146.5C 79.9118,144.027 78.9118,142.694 76.5,142.5C 74.0504,142.298 71.717,142.631 69.5,143.5C 67.9519,143.821 67.2852,144.821 67.5,146.5C 67.5,154.5 67.5,162.5 67.5,170.5C 65.8656,171.207 64.5323,172.373 63.5,174C 60.2281,174.788 57.2281,174.288 54.5,172.5C 54.5,172.167 54.5,171.833 54.5,171.5C 55.658,162.009 55.8246,152.342 55,142.5C 54.6174,141.944 54.1174,141.611 53.5,141.5C 52.1779,141.33 51.0113,141.663 50,142.5C 45.4817,152.866 40.9817,163.199 36.5,173.5C 34.8825,174.972 32.8825,175.639 30.5,175.5C 28.9549,175.489 27.6216,175.156 26.5,174.5C 25.0927,172.692 23.926,170.692 23,168.5C 22.3292,167.748 21.4959,167.414 20.5,167.5C 20.5,167.167 20.5,166.833 20.5,166.5C 21.0431,166.44 21.3764,166.107 21.5,165.5C 20.8461,163.142 19.5128,161.475 17.5,160.5C 16.5592,158.95 15.8925,157.284 15.5,155.5C 16.0431,155.44 16.3764,155.107 16.5,154.5C 15.1964,150.851 13.1964,147.851 10.5,145.5C 8.80065,142.93 7.80065,140.097 7.5,137C 7.30684,134.992 7.9735,133.492 9.5,132.5C 13.056,131.015 16.3893,131.348 19.5,133.5C 19.1568,135.483 19.8235,136.817 21.5,137.5C 21.5,137.833 21.5,138.167 21.5,138.5C 20.9569,138.56 20.6236,138.893 20.5,139.5C 21.1539,141.858 22.4872,143.525 24.5,144.5C 24.5,144.833 24.5,145.167 24.5,145.5C 23.9569,145.56 23.6236,145.893 23.5,146.5C 24.1539,148.858 25.4872,150.525 27.5,151.5C 27.5,151.833 27.5,152.167 27.5,152.5C 26.8433,156.971 28.5099,158.638 32.5,157.5C 33.6527,156.313 33.6527,155.313 32.5,154.5C 32.5,154.167 32.5,153.833 32.5,153.5C 33.3764,153.631 34.0431,153.298 34.5,152.5C 35.0736,150.941 35.7402,149.441 36.5,148C 36.2716,147.601 35.9382,147.435 35.5,147.5C 35.5,147.167 35.5,146.833 35.5,146.5C 36.3764,146.631 37.0431,146.298 37.5,145.5C 38.0736,143.941 38.7402,142.441 39.5,141C 39.2716,140.601 38.9382,140.435 38.5,140.5C 38.5,140.167 38.5,139.833 38.5,139.5C 41.1184,137.548 43.4518,135.215 45.5,132.5C 47.2897,131.003 49.4563,130.336 52,130.5C 54.8211,130.408 57.3211,131.074 59.5,132.5 Z"/></g>
<g><path style="opacity:0.969" fill="#7da1d3" d="M 128.5,135.5 C 127.007,134.555 125.507,133.555 124,132.5C 122.862,132.989 121.695,133.322 120.5,133.5C 122.011,131.559 124.011,131.059 126.5,132C 127.823,132.816 128.489,133.983 128.5,135.5 Z"/></g>
<g><path style="opacity:0.953" fill="#7ca0d2" d="M 183.5,135.5 C 181.948,132.429 179.615,131.763 176.5,133.5C 179.696,130.571 182.362,131.071 184.5,135C 184.272,135.399 183.938,135.565 183.5,135.5 Z"/></g>
<g><path style="opacity:0.173" fill="#7e98be" d="M 85.5,132.5 C 87.0269,132.427 88.0269,133.094 88.5,134.5C 86.9731,134.573 85.9731,133.906 85.5,132.5 Z"/></g>
<g><path style="opacity:1" fill="#7dacef" d="M 128.5,135.5 C 129.566,137.701 130.233,140.035 130.5,142.5C 131.309,147.433 132.642,152.267 134.5,157C 134.836,158.03 135.503,158.53 136.5,158.5C 137.234,159.708 137.567,161.041 137.5,162.5C 138.095,165.113 138.929,165.113 140,162.5C 141.11,157.836 142.61,153.336 144.5,149C 144.272,148.601 143.938,148.435 143.5,148.5C 144.435,144.031 145.768,139.697 147.5,135.5C 148.922,135.25 149.922,134.417 150.5,133C 151.793,132.51 153.127,132.343 154.5,132.5C 155.428,135.454 156.261,138.454 157,141.5C 157.549,143.76 158.716,145.426 160.5,146.5C 162.232,150.697 163.565,155.031 164.5,159.5C 164.116,161.665 164.783,163.332 166.5,164.5C 167.877,162.711 168.877,160.711 169.5,158.5C 169.376,157.893 169.043,157.56 168.5,157.5C 168.767,155.035 169.434,152.701 170.5,150.5C 172.881,148.088 174.548,145.088 175.5,141.5C 175.376,140.893 175.043,140.56 174.5,140.5C 174.767,138.035 175.434,135.701 176.5,133.5C 179.615,131.763 181.948,132.429 183.5,135.5C 182.367,139.567 181.033,143.567 179.5,147.5C 177.637,148.967 176.304,150.967 175.5,153.5C 175.624,154.107 175.957,154.44 176.5,154.5C 175.173,160.314 173.34,165.981 171,171.5C 170.623,172.942 169.79,173.942 168.5,174.5C 166.435,174.483 164.435,174.15 162.5,173.5C 162.5,173.167 162.5,172.833 162.5,172.5C 162.938,172.565 163.272,172.399 163.5,172C 162.642,170.43 161.975,168.763 161.5,167C 161.164,165.97 160.497,165.47 159.5,165.5C 157.768,161.303 156.435,156.969 155.5,152.5C 156.043,152.44 156.376,152.107 156.5,151.5C 154.895,148.686 153.895,145.686 153.5,142.5C 152.325,142.281 151.325,142.614 150.5,143.5C 150.624,144.107 150.957,144.44 151.5,144.5C 151.233,146.965 150.566,149.299 149.5,151.5C 148.503,151.47 147.836,151.97 147.5,153C 146.794,155.62 145.794,158.12 144.5,160.5C 144.624,161.107 144.957,161.44 145.5,161.5C 145.233,163.965 144.566,166.299 143.5,168.5C 141.386,169.784 140.386,171.784 140.5,174.5C 138.183,175.942 136.016,175.608 134,173.5C 131.192,166.243 128.692,158.91 126.5,151.5C 127.043,151.44 127.376,151.107 127.5,150.5C 126.902,149.205 126.402,147.872 126,146.5C 125.583,145.244 124.75,144.577 123.5,144.5C 121.894,141.014 120.894,137.347 120.5,133.5C 121.695,133.322 122.862,132.989 124,132.5C 125.507,133.555 127.007,134.555 128.5,135.5 Z"/></g>
<g><path style="opacity:1" fill="#7eacee" d="M 212.5,133.5 C 212.973,134.906 213.973,135.573 215.5,135.5C 218.843,137.508 220.676,140.508 221,144.5C 221.667,154.167 221.667,163.833 221,173.5C 216.905,176.637 214.238,175.637 213,170.5C 212.617,171.056 212.117,171.389 211.5,171.5C 209.973,171.427 208.973,172.094 208.5,173.5C 207.737,174.268 206.737,174.768 205.5,175C 201.167,175.667 196.833,175.667 192.5,175C 190.416,174.303 188.749,173.136 187.5,171.5C 182.782,163.685 183.782,156.685 190.5,150.5C 194.203,148.945 198.203,148.278 202.5,148.5C 205.887,148.539 209.22,148.872 212.5,149.5C 213.733,146.658 213.4,143.992 211.5,141.5C 210.878,138.224 208.878,136.891 205.5,137.5C 199.775,137.855 194.108,138.355 188.5,139C 187.167,137.333 187.167,135.667 188.5,134C 196.589,130.954 204.589,130.787 212.5,133.5 Z M 208.5,153.5 C 209.878,154.234 211.378,154.901 213,155.5C 213.495,157.473 213.662,159.473 213.5,161.5C 213.5,161.833 213.5,162.167 213.5,162.5C 211.863,164.475 210.196,166.475 208.5,168.5C 208.167,168.5 207.833,168.5 207.5,168.5C 205.302,168.875 203.302,169.542 201.5,170.5C 194.104,170.437 190.437,166.77 190.5,159.5C 191.401,158.71 192.068,157.71 192.5,156.5C 197.412,153.832 202.745,152.832 208.5,153.5 Z"/></g>
<g><path style="opacity:1" fill="#7eacef" d="M 239.5,143.5 C 237.259,144.3 236.259,145.966 236.5,148.5C 235.759,156.8 235.259,165.133 235,173.5C 233.322,175.553 231.489,175.887 229.5,174.5C 228.37,161.212 228.203,147.878 229,134.5C 230.049,132.893 231.549,132.227 233.5,132.5C 234.167,132.5 234.5,132.833 234.5,133.5C 234.009,141.848 235.676,142.515 239.5,135.5C 242.695,131.913 246.695,130.746 251.5,132C 254.167,134 254.167,136 251.5,138C 246.863,138.594 242.863,140.428 239.5,143.5 Z"/></g>
<g><path style="opacity:1" fill="#7dacf0" d="M 284.5,135.5 C 286.873,140.247 289.207,144.914 291.5,149.5C 291.975,152.082 291.308,154.082 289.5,155.5C 279.167,155.5 268.833,155.5 258.5,155.5C 258.263,156.791 258.596,157.791 259.5,158.5C 261.969,167.072 267.636,170.572 276.5,169C 279.984,167.643 283.317,166.143 286.5,164.5C 291.473,165.76 291.807,167.926 287.5,171C 281.119,175.216 274.119,176.549 266.5,175C 264.509,174.626 262.842,173.793 261.5,172.5C 259.118,169.452 256.452,166.785 253.5,164.5C 251.133,159.345 250.467,154.012 251.5,148.5C 253.802,143.279 257.136,138.612 261.5,134.5C 264.293,132.08 267.626,131.08 271.5,131.5C 276.382,131.239 280.715,132.573 284.5,135.5 Z M 277.5,138.5 C 278.167,139.833 279.167,140.833 280.5,141.5C 281.692,143.113 282.692,144.78 283.5,146.5C 283.5,146.833 283.5,147.167 283.5,147.5C 283.5,148.5 283.5,149.5 283.5,150.5C 275.5,150.5 267.5,150.5 259.5,150.5C 259.5,149.5 259.5,148.5 259.5,147.5C 262.566,138.634 268.566,135.634 277.5,138.5 Z"/></g>
<g><path style="opacity:0.992" fill="#7ca5dc" d="M 45.5,132.5 C 43.4518,135.215 41.1184,137.548 38.5,139.5C 39.8552,136.145 42.1886,133.811 45.5,132.5 Z"/></g>
<g><path style="opacity:0.467" fill="#7c9bc7" d="M 59.5,132.5 C 61.0269,132.427 62.0269,133.094 62.5,134.5C 60.9731,134.573 59.9731,133.906 59.5,132.5 Z"/></g>
<g><path style="opacity:0.71" fill="#7ca1d5" d="M 154.5,132.5 C 153.127,132.343 151.793,132.51 150.5,133C 149.922,134.417 148.922,135.25 147.5,135.5C 148.689,131.67 151.022,130.67 154.5,132.5 Z"/></g>
<g><path style="opacity:0.447" fill="#82a2d2" d="M 212.5,133.5 C 214.027,133.427 215.027,134.094 215.5,135.5C 213.973,135.573 212.973,134.906 212.5,133.5 Z"/></g>
<g><path style="opacity:0.498" fill="#7eaae8" d="M 233.5,132.5 C 231.549,132.227 230.049,132.893 229,134.5C 228.203,147.878 228.37,161.212 229.5,174.5C 228.883,174.389 228.383,174.056 228,173.5C 227.333,159.833 227.333,146.167 228,132.5C 229.943,131.193 231.777,131.193 233.5,132.5 Z"/></g>
<g><path style="opacity:0.98" fill="#7ca0d2" d="M 19.5,133.5 C 20.6737,134.514 21.3404,135.847 21.5,137.5C 19.8235,136.817 19.1568,135.483 19.5,133.5 Z"/></g>
<g><path style="opacity:0.502" fill="#7ca4db" d="M 115.5,136.5 C 117.25,137.659 118.25,139.326 118.5,141.5C 116.259,140.7 115.259,139.034 115.5,136.5 Z"/></g>
<g><path style="opacity:0.957" fill="#81a4d7" d="M 205.5,137.5 C 208.878,136.891 210.878,138.224 211.5,141.5C 209.728,139.71 207.728,138.377 205.5,137.5 Z"/></g>
<g><path style="opacity:0.863" fill="#83a0cd" d="M 277.5,138.5 C 279.5,138.5 280.5,139.5 280.5,141.5C 279.167,140.833 278.167,139.833 277.5,138.5 Z"/></g>
<g><path style="opacity:0.992" fill="#7fa7e1" d="M 284.5,135.5 C 288.409,139.317 290.742,143.984 291.5,149.5C 289.207,144.914 286.873,140.247 284.5,135.5 Z"/></g>
<g><path style="opacity:0.498" fill="#7ca1d6" d="M 21.5,138.5 C 23.0075,140.181 24.0075,142.181 24.5,144.5C 22.4872,143.525 21.1539,141.858 20.5,139.5C 20.6236,138.893 20.9569,138.56 21.5,138.5 Z"/></g>
<g><path style="opacity:0.914" fill="#81a5d9" d="M 234.5,133.5 C 235.302,134.952 235.802,136.618 236,138.5C 236.422,136.574 237.589,135.574 239.5,135.5C 235.676,142.515 234.009,141.848 234.5,133.5 Z"/></g>
<g><path style="opacity:0.729" fill="#80a5d9" d="M 261.5,134.5 C 257.136,138.612 253.802,143.279 251.5,148.5C 252.408,141.989 255.741,137.322 261.5,134.5 Z"/></g>
<g><path style="opacity:0.498" fill="#7ca2d7" d="M 154.5,132.5 C 157.446,136.644 159.446,141.311 160.5,146.5C 158.716,145.426 157.549,143.76 157,141.5C 156.261,138.454 155.428,135.454 154.5,132.5 Z"/></g>
<g><path style="opacity:0.988" fill="#7ca6e0" d="M 53.5,141.5 C 54.1174,141.611 54.6174,141.944 55,142.5C 55.8246,152.342 55.658,162.009 54.5,171.5C 53.5062,162.014 53.1729,152.348 53.5,142.5C 53.5,142.167 53.5,141.833 53.5,141.5 Z"/></g>
<g><path style="opacity:0.863" fill="#7da1d4" d="M 155.5,152.5 C 153.975,149.921 152.641,147.254 151.5,144.5C 150.957,144.44 150.624,144.107 150.5,143.5C 151.325,142.614 152.325,142.281 153.5,142.5C 153.895,145.686 154.895,148.686 156.5,151.5C 156.376,152.107 156.043,152.44 155.5,152.5 Z"/></g>
<g><path style="opacity:0.808" fill="#7ca3da" d="M 38.5,140.5 C 38.9382,140.435 39.2716,140.601 39.5,141C 38.7402,142.441 38.0736,143.941 37.5,145.5C 37.0431,146.298 36.3764,146.631 35.5,146.5C 36.1302,144.25 37.1302,142.25 38.5,140.5 Z"/></g>
<g><path style="opacity:0.494" fill="#7c9cc8" d="M 69.5,143.5 C 69.0679,144.71 68.4013,145.71 67.5,146.5C 67.2852,144.821 67.9519,143.821 69.5,143.5 Z"/></g>
<g><path style="opacity:0.494" fill="#7d9fcf" d="M 76.5,142.5 C 78.9118,142.694 79.9118,144.027 79.5,146.5C 78.5116,145.205 77.5116,143.872 76.5,142.5 Z"/></g>
<g><path style="opacity:0.865" fill="#80a5da" d="M 280.5,141.5 C 282.701,141.858 284.035,143.192 284.5,145.5C 284.376,146.107 284.043,146.44 283.5,146.5C 282.692,144.78 281.692,143.113 280.5,141.5 Z"/></g>
<g><path style="opacity:0.929" fill="#7ca2d6" d="M 130.5,142.5 C 133.013,147.547 135.013,152.88 136.5,158.5C 135.503,158.53 134.836,158.03 134.5,157C 132.642,152.267 131.309,147.433 130.5,142.5 Z"/></g>
<g><path style="opacity:0.883" fill="#7da1d3" d="M 102.5,142.5 C 104.411,142.574 105.578,143.574 106,145.5C 106.823,154.01 106.657,162.344 105.5,170.5C 104.67,162.01 104.17,153.343 104,144.5C 103.283,143.956 102.783,143.289 102.5,142.5 Z"/></g>
<g><path style="opacity:0.478" fill="#81a4d6" d="M 239.5,143.5 C 238.737,145.368 237.737,147.035 236.5,148.5C 236.259,145.966 237.259,144.3 239.5,143.5 Z"/></g>
<g><path style="opacity:0.988" fill="#7ca3da" d="M 94.5,144.5 C 93.6943,153.423 93.1943,162.423 93,171.5C 92.6232,172.942 91.7899,173.942 90.5,174.5C 91.2523,165.2 91.7523,155.866 92,146.5C 92.4169,145.244 93.2502,144.577 94.5,144.5 Z"/></g>
<g><path style="opacity:0.824" fill="#7da3d9" d="M 123.5,144.5 C 124.75,144.577 125.583,145.244 126,146.5C 126.402,147.872 126.902,149.205 127.5,150.5C 127.376,151.107 127.043,151.44 126.5,151.5C 124.935,149.491 123.935,147.157 123.5,144.5 Z"/></g>
<g><path style="opacity:0.761" fill="#7da2d7" d="M 174.5,140.5 C 175.043,140.56 175.376,140.893 175.5,141.5C 174.548,145.088 172.881,148.088 170.5,150.5C 171.321,146.873 172.654,143.54 174.5,140.5 Z"/></g>
<g><path style="opacity:0.749" fill="#7da1d3" d="M 179.5,147.5 C 179.065,150.157 178.065,152.491 176.5,154.5C 175.957,154.44 175.624,154.107 175.5,153.5C 176.304,150.967 177.637,148.967 179.5,147.5 Z"/></g>
<g><path style="opacity:0.769" fill="#7da4dc" d="M 10.5,145.5 C 13.1964,147.851 15.1964,150.851 16.5,154.5C 16.3764,155.107 16.0431,155.44 15.5,155.5C 13.3233,152.48 11.6566,149.147 10.5,145.5 Z"/></g>
<g><path style="opacity:0.973" fill="#7ca1d6" d="M 24.5,145.5 C 25.8698,147.25 26.8698,149.25 27.5,151.5C 25.4872,150.525 24.1539,148.858 23.5,146.5C 23.6236,145.893 23.9569,145.56 24.5,145.5 Z"/></g>
<g><path style="opacity:0.718" fill="#839dc6" d="M 259.5,147.5 C 259.5,148.5 259.5,149.5 259.5,150.5C 267.5,150.5 275.5,150.5 283.5,150.5C 283.5,149.5 283.5,148.5 283.5,147.5C 284.434,148.568 284.768,149.901 284.5,151.5C 275.833,151.5 267.167,151.5 258.5,151.5C 258.232,149.901 258.566,148.568 259.5,147.5 Z"/></g>
<g><path style="opacity:0.961" fill="#7da4d9" d="M 35.5,147.5 C 35.9382,147.435 36.2716,147.601 36.5,148C 35.7402,149.441 35.0736,150.941 34.5,152.5C 34.0431,153.298 33.3764,153.631 32.5,153.5C 33.1302,151.25 34.1302,149.25 35.5,147.5 Z"/></g>
<g><path style="opacity:0.773" fill="#7ca2d6" d="M 53.5,141.5 C 53.5,141.833 53.5,142.167 53.5,142.5C 52.6236,142.369 51.9569,142.702 51.5,143.5C 46.9813,153.871 41.9813,163.871 36.5,173.5C 40.9817,163.199 45.4817,152.866 50,142.5C 51.0113,141.663 52.1779,141.33 53.5,141.5 Z"/></g>
<g><path style="opacity:0.992" fill="#7ca2d7" d="M 27.5,152.5 C 28.793,153.842 29.6264,155.509 30,157.5C 30.8518,156.429 31.6851,155.429 32.5,154.5C 33.6527,155.313 33.6527,156.313 32.5,157.5C 28.5099,158.638 26.8433,156.971 27.5,152.5 Z"/></g>
<g><path style="opacity:0.627" fill="#7ca3d8" d="M 149.5,151.5 C 148.342,154.989 147.009,158.322 145.5,161.5C 144.957,161.44 144.624,161.107 144.5,160.5C 145.794,158.12 146.794,155.62 147.5,153C 147.836,151.97 148.503,151.47 149.5,151.5 Z"/></g>
<g><path style="opacity:0.953" fill="#80a6de" d="M 208.5,153.5 C 212.565,152.578 214.898,154.078 215.5,158C 215.392,159.681 214.725,160.848 213.5,161.5C 213.662,159.473 213.495,157.473 213,155.5C 211.378,154.901 209.878,154.234 208.5,153.5 Z"/></g>
<g><path style="opacity:0.608" fill="#849ec5" d="M 289.5,155.5 C 279.292,155.842 269.292,156.842 259.5,158.5C 258.596,157.791 258.263,156.791 258.5,155.5C 268.833,155.5 279.167,155.5 289.5,155.5 Z"/></g>
<g><path style="opacity:0.714" fill="#7da3d8" d="M 143.5,148.5 C 143.938,148.435 144.272,148.601 144.5,149C 142.61,153.336 141.11,157.836 140,162.5C 138.929,165.113 138.095,165.113 137.5,162.5C 139.305,157.751 141.305,153.085 143.5,148.5 Z"/></g>
<g><path style="opacity:0.631" fill="#7fa7e1" d="M 190.5,150.5 C 183.782,156.685 182.782,163.685 187.5,171.5C 182.878,168.446 181.378,164.112 183,158.5C 184.32,154.681 186.82,152.015 190.5,150.5 Z"/></g>
<g><path style="opacity:0.478" fill="#81a2d0" d="M 192.5,156.5 C 192.068,157.71 191.401,158.71 190.5,159.5C 190.285,157.821 190.952,156.821 192.5,156.5 Z"/></g>
<g><path style="opacity:0.929" fill="#7ca4db" d="M 168.5,157.5 C 169.043,157.56 169.376,157.893 169.5,158.5C 168.877,160.711 167.877,162.711 166.5,164.5C 164.783,163.332 164.116,161.665 164.5,159.5C 165.268,160.263 165.768,161.263 166,162.5C 166.757,160.685 167.59,159.019 168.5,157.5 Z"/></g>
<g><path style="opacity:0.776" fill="#7da4da" d="M 17.5,160.5 C 19.5128,161.475 20.8461,163.142 21.5,165.5C 21.3764,166.107 21.0431,166.44 20.5,166.5C 18.9925,164.819 17.9925,162.819 17.5,160.5 Z"/></g>
<g><path style="opacity:0.906" fill="#81a3d4" d="M 253.5,164.5 C 256.452,166.785 259.118,169.452 261.5,172.5C 257.855,170.855 255.188,168.188 253.5,164.5 Z"/></g>
<g><path style="opacity:0.898" fill="#80a5da" d="M 213.5,162.5 C 213.598,165.451 211.932,167.451 208.5,168.5C 210.196,166.475 211.863,164.475 213.5,162.5 Z"/></g>
<g><path style="opacity:0.498" fill="#7da2d7" d="M 159.5,165.5 C 160.497,165.47 161.164,165.97 161.5,167C 161.975,168.763 162.642,170.43 163.5,172C 163.272,172.399 162.938,172.565 162.5,172.5C 160.935,170.491 159.935,168.157 159.5,165.5 Z"/></g>
<g><path style="opacity:1" fill="#7da4dc" d="M 20.5,167.5 C 21.4959,167.414 22.3292,167.748 23,168.5C 23.926,170.692 25.0927,172.692 26.5,174.5C 23.357,173.254 21.357,170.92 20.5,167.5 Z"/></g>
<g><path style="opacity:0.729" fill="#7da1d4" d="M 143.5,168.5 C 143.008,170.819 142.008,172.819 140.5,174.5C 140.386,171.784 141.386,169.784 143.5,168.5 Z"/></g>
<g><path style="opacity:1" fill="#81a2d3" d="M 207.5,168.5 C 206.01,170.28 204.01,170.946 201.5,170.5C 203.302,169.542 205.302,168.875 207.5,168.5 Z"/></g>
<g><path style="opacity:0.988" fill="#7d9fce" d="M 105.5,171.5 C 107.264,172.326 108.598,173.659 109.5,175.5C 107.167,175.167 105.833,173.833 105.5,171.5 Z"/></g>
<g><path style="opacity:0.192" fill="#83a2ce" d="M 211.5,171.5 C 211.027,172.906 210.027,173.573 208.5,173.5C 208.973,172.094 209.973,171.427 211.5,171.5 Z"/></g>
<g><path style="opacity:0.996" fill="#7ca5dc" d="M 67.5,170.5 C 67.1412,172.371 66.1412,173.871 64.5,175C 61.8333,175.667 59.1667,175.667 56.5,175C 55.6195,174.292 54.9528,173.458 54.5,172.5C 57.2281,174.288 60.2281,174.788 63.5,174C 64.5323,172.373 65.8656,171.207 67.5,170.5 Z"/></g>
<g><path style="opacity:0.761" fill="#7d9bc5" d="M 162.5,173.5 C 164.435,174.15 166.435,174.483 168.5,174.5C 167.903,175.139 167.07,175.472 166,175.5C 164.301,175.613 163.134,174.947 162.5,173.5 Z"/></g>
</svg>
