<?xml version="1.0" encoding="UTF-8"?>
<!DOCTYPE svg PUBLIC "-//W3C//DTD SVG 1.1//EN" "http://www.w3.org/Graphics/SVG/1.1/DTD/svg11.dtd">
<svg xmlns="http://www.w3.org/2000/svg" version="1.1" width="300px" height="299px" style="shape-rendering:geometricPrecision; text-rendering:geometricPrecision; image-rendering:optimizeQuality; fill-rule:evenodd; clip-rule:evenodd" xmlns:xlink="http://www.w3.org/1999/xlink">
<g><path style="opacity:0.987" fill="#83aff0" d="M 37.5,130.5 C 37.7376,132.404 38.7376,133.738 40.5,134.5C 43.4071,140.69 46.2405,147.023 49,153.5C 51.6667,147.5 54.3333,141.5 57,135.5C 61.6979,130.142 67.1979,129.142 73.5,132.5C 73.6854,134.196 74.5187,135.529 76,136.5C 76.4643,135.906 76.631,135.239 76.5,134.5C 80.1716,131.172 84.505,129.838 89.5,130.5C 89.7107,132.424 90.3774,132.757 91.5,131.5C 92.609,131.557 93.609,131.89 94.5,132.5C 95.6794,136.808 97.0127,137.141 98.5,133.5C 99.6049,132.4 100.938,131.733 102.5,131.5C 103.623,132.757 104.289,132.424 104.5,130.5C 106.5,130.5 108.5,130.5 110.5,130.5C 110.711,132.424 111.377,132.757 112.5,131.5C 116.584,133.092 119.084,136.092 120,140.5C 120.667,148.167 120.667,155.833 120,163.5C 117.127,168.408 113.794,168.741 110,164.5C 109.667,157.5 109.333,150.5 109,143.5C 106.472,139.915 103.472,139.582 100,142.5C 99.6667,149.833 99.3333,157.167 99,164.5C 95.1568,168.729 91.8235,168.395 89,163.5C 88.6667,156.5 88.3333,149.5 88,142.5C 84.6612,139.701 81.6612,140.034 79,143.5C 78.6667,150.5 78.3333,157.5 78,164.5C 76.5347,166.915 74.368,167.915 71.5,167.5C 71.5,165.5 70.5,164.5 68.5,164.5C 68.6664,156.826 68.4997,149.159 68,141.5C 67.586,141.043 67.086,140.709 66.5,140.5C 62.244,148.754 58.0773,157.088 54,165.5C 51.8646,167.278 49.3646,167.945 46.5,167.5C 46.1667,165.167 44.8333,163.833 42.5,163.5C 38.0952,154.522 34.0952,145.356 30.5,136C 30.9125,131.788 33.2458,129.954 37.5,130.5 Z"/></g>
<g><path style="opacity:1" fill="#a2adc2" d="M 37.5,130.5 C 39.2624,131.262 40.2624,132.596 40.5,134.5C 38.7376,133.738 37.7376,132.404 37.5,130.5 Z"/></g>
<g><path style="opacity:1" fill="#9dabc4" d="M 89.5,130.5 C 90.4916,130.328 91.1583,130.662 91.5,131.5C 90.3774,132.757 89.7107,132.424 89.5,130.5 Z"/></g>
<g><path style="opacity:1" fill="#a4b2ca" d="M 104.5,130.5 C 104.289,132.424 103.623,132.757 102.5,131.5C 102.842,130.662 103.508,130.328 104.5,130.5 Z"/></g>
<g><path style="opacity:1" fill="#a7b6cf" d="M 110.5,130.5 C 111.492,130.328 112.158,130.662 112.5,131.5C 111.377,132.757 110.711,132.424 110.5,130.5 Z"/></g>
<g><path style="opacity:0.993" fill="#8bafea" d="M 148.5,131.5 C 148.427,133.027 149.094,134.027 150.5,134.5C 152.964,141.891 155.631,149.224 158.5,156.5C 161.497,148.51 164.497,140.51 167.5,132.5C 169.098,130.027 170.598,130.027 172,132.5C 169.427,143.722 165.927,154.722 161.5,165.5C 159.901,165.232 158.568,165.566 157.5,166.5C 156.21,165.942 155.377,164.942 155,163.5C 152.726,156.847 150.56,150.18 148.5,143.5C 148.719,142.325 148.386,141.325 147.5,140.5C 146.893,140.624 146.56,140.957 146.5,141.5C 144.033,149.567 141.367,157.567 138.5,165.5C 136.901,165.232 135.568,165.566 134.5,166.5C 133.21,165.942 132.377,164.942 132,163.5C 128.031,153.264 124.698,142.931 122,132.5C 123.851,130.219 125.518,130.219 127,132.5C 130,140.833 133,149.167 136,157.5C 138.636,149.258 141.469,141.092 144.5,133C 145.514,130.971 146.847,130.471 148.5,131.5 Z"/></g>
<g><path style="opacity:0.956" fill="#84afef" d="M 186.5,131.5 C 187.167,132.833 187.833,132.833 188.5,131.5C 191.754,131.207 194.754,131.874 197.5,133.5C 197.738,135.404 198.738,136.738 200.5,137.5C 201.222,137.918 201.722,138.584 202,139.5C 202.817,148.745 202.65,157.911 201.5,167C 198.21,167.589 196.71,166.089 197,162.5C 191.31,167.691 184.81,168.858 177.5,166C 172.682,162.014 171.349,157.181 173.5,151.5C 175.587,150.415 176.92,148.749 177.5,146.5C 177.833,146.5 178.167,146.5 178.5,146.5C 179.623,147.757 180.289,147.424 180.5,145.5C 181.167,145.5 181.833,145.5 182.5,145.5C 183.947,146.885 184.947,146.552 185.5,144.5C 186.833,144.5 188.167,144.5 189.5,144.5C 189.62,145.586 190.287,146.253 191.5,146.5C 192.416,146.457 193.083,146.124 193.5,145.5C 194.978,145.762 196.311,145.429 197.5,144.5C 196.185,139.023 192.685,136.356 187,136.5C 184.294,137.01 181.627,137.677 179,138.5C 176.41,137.313 175.91,135.48 177.5,133C 180.393,131.851 183.393,131.351 186.5,131.5 Z M 196.5,157.5 C 195.167,158.167 194.167,159.167 193.5,160.5C 190.37,162.023 187.037,162.689 183.5,162.5C 183.158,161.662 182.492,161.328 181.5,161.5C 177.391,159.016 176.725,155.85 179.5,152C 185.288,149.194 191.288,148.694 197.5,150.5C 197.552,152.903 197.219,155.236 196.5,157.5 Z"/></g>
<g><path style="opacity:1" fill="#b7c6de" d="M 188.5,131.5 C 187.833,132.833 187.167,132.833 186.5,131.5C 187.167,130.167 187.833,130.167 188.5,131.5 Z"/></g>
<g><path style="opacity:0.976" fill="#82aff1" d="M 215.5,137.5 C 217.262,136.738 218.262,135.404 218.5,133.5C 220.612,132.406 222.779,131.406 225,130.5C 228.101,131.362 228.935,133.028 227.5,135.5C 226.167,135.5 225.5,136.167 225.5,137.5C 223.421,137.971 221.421,138.637 219.5,139.5C 218.167,139.5 217.5,140.167 217.5,141.5C 215.535,143.768 214.368,146.435 214,149.5C 213.501,154.823 213.334,160.156 213.5,165.5C 211.833,165.5 210.167,165.5 208.5,165.5C 208.333,154.495 208.5,143.495 209,132.5C 209.928,130.665 211.094,130.332 212.5,131.5C 213.314,133.766 213.814,136.1 214,138.5C 214.383,137.944 214.883,137.611 215.5,137.5 Z"/></g>
<g><path style="opacity:0.967" fill="#85aeec" d="M 239.5,131.5 C 240.5,131.5 241.5,131.5 242.5,131.5C 243.5,132.833 244.5,132.833 245.5,131.5C 248.079,131.394 250.412,132.061 252.5,133.5C 252.738,135.404 253.738,136.738 255.5,137.5C 259.219,141.347 260.219,145.847 258.5,151C 250.173,151.5 241.84,151.666 233.5,151.5C 233.5,152.833 233.5,154.167 233.5,155.5C 233.427,157.027 234.094,158.027 235.5,158.5C 236.167,158.833 236.833,159.167 237.5,159.5C 237.369,160.239 237.536,160.906 238,161.5C 238.69,162.738 239.19,162.738 239.5,161.5C 240.167,161.5 240.833,161.5 241.5,161.5C 241.97,162.693 242.97,163.36 244.5,163.5C 246.03,163.36 247.03,162.693 247.5,161.5C 248.833,161.167 250.167,160.833 251.5,160.5C 251.435,160.938 251.601,161.272 252,161.5C 253.039,160.756 253.539,159.756 253.5,158.5C 255.918,156.985 257.585,157.651 258.5,160.5C 253.655,166.727 247.322,168.893 239.5,167C 237.807,166.153 236.14,165.32 234.5,164.5C 234.167,162.167 232.833,160.833 230.5,160.5C 226.34,152.753 226.506,145.086 231,137.5C 232.039,136.29 233.206,135.29 234.5,134.5C 234.435,134.938 234.601,135.272 235,135.5C 236.039,134.756 236.539,133.756 236.5,132.5C 236.833,132.5 237.167,132.5 237.5,132.5C 238.623,133.757 239.289,133.424 239.5,131.5 Z M 253.5,144.5 C 250.572,145.82 247.239,146.486 243.5,146.5C 239.982,146.498 236.649,146.165 233.5,145.5C 236.171,137.331 241.505,134.831 249.5,138C 251.734,139.638 253.067,141.805 253.5,144.5 Z"/></g>
<g><path style="opacity:1" fill="#b3c2da" d="M 245.5,131.5 C 244.5,132.833 243.5,132.833 242.5,131.5C 243.5,130.167 244.5,130.167 245.5,131.5 Z"/></g>
<g><path style="opacity:1" fill="#9caac3" d="M 239.5,131.5 C 239.289,133.424 238.623,133.757 237.5,132.5C 237.842,131.662 238.508,131.328 239.5,131.5 Z"/></g>
<g><path style="opacity:1" fill="#95a0b5" d="M 73.5,132.5 C 74.5,133.167 75.5,133.833 76.5,134.5C 76.631,135.239 76.4643,135.906 76,136.5C 74.5187,135.529 73.6854,134.196 73.5,132.5 Z"/></g>
<g><path style="opacity:1" fill="#aeb1ba" d="M 148.5,131.5 C 149.906,131.973 150.573,132.973 150.5,134.5C 149.094,134.027 148.427,133.027 148.5,131.5 Z"/></g>
<g><path style="opacity:1" fill="#aab7cd" d="M 236.5,132.5 C 236.539,133.756 236.039,134.756 235,135.5C 234.601,135.272 234.435,134.938 234.5,134.5C 234.833,133.5 235.5,132.833 236.5,132.5 Z"/></g>
<g><path style="opacity:1" fill="#a4b1c7" d="M 94.5,132.5 C 95.7046,134.138 97.0379,134.471 98.5,133.5C 97.0127,137.141 95.6794,136.808 94.5,132.5 Z"/></g>
<g><path style="opacity:1" fill="#abb7cc" d="M 197.5,133.5 C 199.262,134.262 200.262,135.596 200.5,137.5C 198.738,136.738 197.738,135.404 197.5,133.5 Z"/></g>
<g><path style="opacity:1" fill="#adb9ce" d="M 252.5,133.5 C 254.262,134.262 255.262,135.596 255.5,137.5C 253.738,136.738 252.738,135.404 252.5,133.5 Z"/></g>
<g><path style="opacity:1" fill="#a6b3c9" d="M 227.5,135.5 C 227.5,136.833 226.833,137.5 225.5,137.5C 225.5,136.167 226.167,135.5 227.5,135.5 Z"/></g>
<g><path style="opacity:1" fill="#a8b7cf" d="M 218.5,133.5 C 218.262,135.404 217.262,136.738 215.5,137.5C 215.738,135.596 216.738,134.262 218.5,133.5 Z"/></g>
<g><path style="opacity:0.498" fill="#b9bec7" d="M 219.5,139.5 C 219.167,140.5 218.5,141.167 217.5,141.5C 217.5,140.167 218.167,139.5 219.5,139.5 Z"/></g>
<g><path style="opacity:0.498" fill="#babdc6" d="M 146.5,141.5 C 146.56,140.957 146.893,140.624 147.5,140.5C 148.386,141.325 148.719,142.325 148.5,143.5C 147.833,142.833 147.167,142.167 146.5,141.5 Z"/></g>
<g><path style="opacity:1" fill="#9eadc5" d="M 185.5,144.5 C 184.947,146.552 183.947,146.885 182.5,145.5C 183.209,144.596 184.209,144.263 185.5,144.5 Z"/></g>
<g><path style="opacity:1" fill="#a6b4cc" d="M 189.5,144.5 C 191.099,144.232 192.432,144.566 193.5,145.5C 193.083,146.124 192.416,146.457 191.5,146.5C 190.287,146.253 189.62,145.586 189.5,144.5 Z"/></g>
<g><path style="opacity:1" fill="#97a5be" d="M 180.5,145.5 C 180.289,147.424 179.623,147.757 178.5,146.5C 178.842,145.662 179.508,145.328 180.5,145.5 Z"/></g>
<g><path style="opacity:0.502" fill="#a5a3a3" d="M 253.5,144.5 C 254.404,145.209 254.737,146.209 254.5,147.5C 247.137,147.831 239.803,147.497 232.5,146.5C 232.624,145.893 232.957,145.56 233.5,145.5C 236.649,146.165 239.982,146.498 243.5,146.5C 247.239,146.486 250.572,145.82 253.5,144.5 Z"/></g>
<g><path style="opacity:1" fill="#a3b2ca" d="M 177.5,146.5 C 176.92,148.749 175.587,150.415 173.5,151.5C 174.08,149.251 175.413,147.585 177.5,146.5 Z"/></g>
<g><path style="opacity:1" fill="#a8b6ce" d="M 233.5,155.5 C 234.906,155.973 235.573,156.973 235.5,158.5C 234.094,158.027 233.427,157.027 233.5,155.5 Z"/></g>
<g><path style="opacity:1" fill="#b0bfd7" d="M 196.5,157.5 C 196.315,159.196 195.481,160.529 194,161.5C 193.601,161.272 193.435,160.938 193.5,160.5C 194.167,159.167 195.167,158.167 196.5,157.5 Z"/></g>
<g><path style="opacity:1" fill="#adbad0" d="M 253.5,158.5 C 253.539,159.756 253.039,160.756 252,161.5C 251.601,161.272 251.435,160.938 251.5,160.5C 251.833,159.5 252.5,158.833 253.5,158.5 Z"/></g>
<g><path style="opacity:1" fill="#b1bbcd" d="M 230.5,160.5 C 232.833,160.833 234.167,162.167 234.5,164.5C 232.833,163.5 231.5,162.167 230.5,160.5 Z"/></g>
<g><path style="opacity:1" fill="#99a7bf" d="M 237.5,159.5 C 238.5,159.833 239.167,160.5 239.5,161.5C 239.19,162.738 238.69,162.738 238,161.5C 237.536,160.906 237.369,160.239 237.5,159.5 Z"/></g>
<g><path style="opacity:1" fill="#a4b2ca" d="M 181.5,161.5 C 182.492,161.328 183.158,161.662 183.5,162.5C 182.377,163.757 181.711,163.424 181.5,161.5 Z"/></g>
<g><path style="opacity:1" fill="#a9b7cf" d="M 241.5,161.5 C 243.5,161.5 245.5,161.5 247.5,161.5C 247.03,162.693 246.03,163.36 244.5,163.5C 242.97,163.36 241.97,162.693 241.5,161.5 Z"/></g>
<g><path style="opacity:1" fill="#a4adc0" d="M 42.5,163.5 C 44.8333,163.833 46.1667,165.167 46.5,167.5C 44.8333,166.5 43.5,165.167 42.5,163.5 Z"/></g>
<g><path style="opacity:1" fill="#9da7ba" d="M 68.5,164.5 C 70.5,164.5 71.5,165.5 71.5,167.5C 70.1667,166.833 69.1667,165.833 68.5,164.5 Z"/></g>
<g><path style="opacity:1" fill="#97a2b7" d="M 138.5,165.5 C 137.462,167.519 136.128,167.853 134.5,166.5C 135.568,165.566 136.901,165.232 138.5,165.5 Z"/></g>
<g><path style="opacity:1" fill="#a0aabd" d="M 161.5,165.5 C 160.462,167.519 159.128,167.853 157.5,166.5C 158.568,165.566 159.901,165.232 161.5,165.5 Z"/></g>
<g><path style="opacity:1" fill="#a7b2c5" d="M 208.5,165.5 C 210.167,165.5 211.833,165.5 213.5,165.5C 211.833,168.167 210.167,168.167 208.5,165.5 Z"/></g>
</svg>
