<?xml version="1.0" encoding="UTF-8"?>
<!DOCTYPE svg PUBLIC "-//W3C//DTD SVG 1.1//EN" "http://www.w3.org/Graphics/SVG/1.1/DTD/svg11.dtd">
<svg xmlns="http://www.w3.org/2000/svg" version="1.1" width="325px" height="325px" style="shape-rendering:geometricPrecision; text-rendering:geometricPrecision; image-rendering:optimizeQuality; fill-rule:evenodd; clip-rule:evenodd" xmlns:xlink="http://www.w3.org/1999/xlink">
<g><path style="opacity:1" fill="#c73962" d="M 154.5,22.5 C 195.616,21.2939 222.116,40.2939 234,79.5C 236.162,90.244 235.829,100.911 233,111.5C 232.804,113.286 231.971,114.619 230.5,115.5C 222.115,113.154 213.782,110.654 205.5,108C 210.421,85.8436 203.421,68.5102 184.5,56C 160.911,45.9383 141.411,51.1049 126,71.5C 114.459,93.7963 118.293,112.963 137.5,129C 143.165,132.357 148.498,136.023 153.5,140C 140.8,161.899 127.966,183.733 115,205.5C 115.172,213.038 116.005,220.538 117.5,228C 115.344,246.322 105.01,256.489 86.5,258.5C 61.9808,254.13 52.4808,239.796 58,215.5C 63.9533,203.889 73.4533,197.389 86.5,196C 88.3289,195.727 89.8289,194.893 91,193.5C 99.3742,179.25 107.874,165.084 116.5,151C 88.2588,122.204 83.7588,90.0368 103,54.5C 115.739,36.5737 132.905,25.907 154.5,22.5 Z"/></g>
<g><path style="opacity:0.987" fill="#4a4a4a" d="M 158.5,65.5 C 176.537,64.4285 188.37,72.4285 194,89.5C 195.51,98.3838 194.01,106.717 189.5,114.5C 198.04,129.748 206.707,144.915 215.5,160C 251.365,150.509 280.199,160.676 302,190.5C 319.663,224.68 315.163,255.514 288.5,283C 262.216,303.628 234.216,306.295 204.5,291C 199.212,287.768 194.378,283.935 190,279.5C 190.195,277.255 191.362,275.422 193.5,274C 199.011,269.819 204.511,265.652 210,261.5C 222.299,269.712 235.799,273.212 250.5,272C 274.345,264.144 285.512,247.644 284,222.5C 275.546,191.189 255.713,180.022 224.5,189C 218.427,191.785 212.594,194.952 207,198.5C 194.414,176.996 182.08,155.329 170,133.5C 168.127,131.291 165.96,129.458 163.5,128C 139.392,123.616 129.892,109.449 135,85.5C 139.379,74.6107 147.212,67.9441 158.5,65.5 Z"/></g>
<g><path style="opacity:0.992" fill="#494949" d="M 66.5,157.5 C 68.1238,157.36 69.2904,158.027 70,159.5C 72.0124,167.217 74.179,174.884 76.5,182.5C 66.6808,187.83 57.8475,194.497 50,202.5C 37.2994,222.959 39.1327,242.126 55.5,260C 71.5678,272.674 88.9012,274.674 107.5,266C 119.607,258.193 126.44,247.026 128,232.5C 128.499,226.509 128.666,220.509 128.5,214.5C 154.502,214.667 180.502,214.5 206.5,214C 212.942,211.568 218.276,207.568 222.5,202C 241.845,193.044 256.678,197.877 267,216.5C 272.75,236.164 266.25,249.997 247.5,258C 231.222,261.692 218.889,256.359 210.5,242C 192.503,241.5 174.503,241.333 156.5,241.5C 148.579,273.8 128.245,292.967 95.5,299C 59.0882,301.715 33.2549,286.548 18,253.5C 7.28575,217.309 17.1191,188.142 47.5,166C 53.6872,162.568 60.0205,159.734 66.5,157.5 Z"/></g>
</svg>
